<svg xmlns="http://www.w3.org/2000/svg" viewBox="0 0 561.18 312.36"><defs><style>.cls-1{fill:#5c8ab7;}.cls-1,.cls-2{opacity:0.5;}.cls-2{fill:#537ca5;}.cls-3{fill:#668db5;opacity:0.4;}</style></defs><title>bal</title><g id="Layer_2" data-name="Layer 2"><g id="Layer_1-2" data-name="Layer 1"><path class="cls-1" d="M239.94,143.81c-101,15.25-185.86,79.89-229.12,168.55H0V0A305.94,305.94,0,0,1,239.94,143.81Z"/><path class="cls-2" d="M286,305.36q0,3.51-.08,7H10.82c43.26-88.66,128.09-153.3,229.12-168.55A304.68,304.68,0,0,1,286,305.36Z"/><path class="cls-3" d="M285.92,312.36q.07-3.5.08-7a304.68,304.68,0,0,0-46.06-161.55A308.07,308.07,0,0,1,286,140.36c120.94,0,225.49,70.16,275.18,172Z"/></g></g></svg>