<svg xmlns="http://www.w3.org/2000/svg" viewBox="0 0 744.92 311.87"><defs><style>.cls-1{fill:#fff;}.cls-2{fill:#060707;}.cls-3{fill:#f4f9fc;}.cls-4{fill:#0c0d0d;}.cls-5{fill:#f2f2f2;}.cls-6{fill:#c6c8c8;}.cls-7{fill:#828686;}.cls-8{fill:#dfdfdf;}.cls-9{fill:#060606;}.cls-10{fill:#f6fafd;}.cls-11{fill:#0b0b0b;}.cls-12{fill:#f1673a;}.cls-13{fill:#dd5b36;}.cls-14{fill:#bdbebe;}.cls-15{fill:#f05625;}</style></defs><title>logo_header</title><g id="Layer_2" data-name="Layer 2"><g id="Layer_1-2" data-name="Layer 1"><path class="cls-1" d="M165.24,96.2l0,0c-62.93,65.94-123.88,0-123.88,0l0,0S39.55,62.79,52.25,35.79h0c.54-1.14,1.11-2.28,1.7-3.4.29-.55.59-1.1.9-1.64.62-1.1,1.27-2.19,1.94-3.25s1.39-2.11,2.12-3.14Q60.58,22,62.45,19.9c.42-.47.84-.94,1.28-1.4C72.81,8.8,85.51,2.2,103.3,2.2h1.24C121.67,2.5,134,9,142.88,18.51a63.81,63.81,0,0,1,9.77,13.86c.6,1.13,1.18,2.28,1.71,3.43C167.09,62.78,165.24,96.2,165.24,96.2Z"/><path class="cls-2" d="M152.65,32.37c-19.16,15.69-32.39,55.08-32.39,55.08-1.09,0-17-.48-17-.48s-15.86.48-16.95.48c0,0-13.23-39.38-32.39-55.07.29-.55.59-1.1.9-1.64.62-1.1,1.27-2.19,1.94-3.25s1.39-2.11,2.12-3.14Q60.58,22,62.45,19.9c.42-.47.84-.94,1.28-1.4C72.81,8.8,85.51,2.2,103.3,2.2h1.24C121.67,2.5,134,9,142.88,18.51A63.81,63.81,0,0,1,152.65,32.37Z"/><ellipse class="cls-3" cx="138.43" cy="52.39" rx="7.16" ry="12.59"/><ellipse class="cls-4" cx="138.43" cy="53.08" rx="5.67" ry="9.97"/><ellipse class="cls-3" cx="70.18" cy="52.28" rx="7.08" ry="12.45"/><ellipse cx="70.18" cy="52.96" rx="5.6" ry="9.86"/><ellipse class="cls-1" cx="67.48" cy="45.59" rx="1.5" ry="1.76"/><ellipse class="cls-1" cx="135.87" cy="45.59" rx="1.5" ry="1.76"/><path class="cls-5" d="M196.81,223.43c-.35.81-.7,1.61-1.08,2.41-1.82,4-3.79,7.87-5.84,11.6q-2.46,4.47-5.08,8.65c-3,4.88-6.16,9.44-9.24,13.63l-1.32,1.77c-1.32,1.75-2.62,3.43-3.9,5q-1.28,1.61-2.52,3.13-1.87,2.26-3.64,4.3c-.78.9-1.54,1.77-2.28,2.6-6.67,7.48-11.57,12-12.29,12.65h0l-.06.07V309H58v-19.7l0,0c-.24-.22-1.57-1.43-3.67-3.51l-.73-.73c-.51-.51-1-1.05-1.6-1.63-1.15-1.18-2.42-2.52-3.8-4L46,277c-3.69-4.12-8-9.18-12.36-15-.88-1.16-1.77-2.36-2.65-3.59s-1.79-2.49-2.68-3.77-1.78-2.6-2.66-4q-2-3-4-6.23c-1.74-2.84-3.43-5.79-5.06-8.84-1.1-2-2.16-4.11-3.17-6.23q-3.08-6.3-5.62-13.06c-.33-.84-.63-1.69-.93-2.54-9-25.35-11-54.59,4.93-83.66q2.1-3.84,4.65-7.68c.84-1.27,1.73-2.56,2.65-3.83,1.53-2.13,3.17-4.25,4.93-6.37.35-.42.69-.84,1.06-1.26,1.08-1.28,2.19-2.54,3.35-3.8a154.57,154.57,0,0,1,13-12.56l0,0S39.61,61,52.39,33.81h0c.55-1.15,1.12-2.3,1.72-3.42.3-.56.6-1.11.91-1.65.62-1.1,1.26-2.2,1.95-3.27s1.4-2.13,2.14-3.16q1.68-2.32,3.55-4.48c.42-.47.84-.95,1.28-1.41C73.08,6.64,85.86,0,103.75,0H105a56.16,56.16,0,0,1,23.22,5.1,50.62,50.62,0,0,1,15.37,11.3c.49.52,1,1.05,1.43,1.59s.78.91,1.16,1.37l.47.59c.31.38.61.77.9,1.16l.24.32c.4.54.79,1.08,1.17,1.62s.73,1.05,1.08,1.59.84,1.32,1.26,2c.28.46.57.94.83,1.41.14.23.27.46.4.69s.33.58.49.87.27.5.39.75.31.55.44.82.16.29.22.44c.38.72.73,1.44,1.08,2.18,12.8,27.15,10.95,60.77,10.95,60.77l0,0A134.7,134.7,0,0,1,192.71,125c.53.85,1,1.71,1.55,2.56.25.42.5.85.74,1.28.48.85.95,1.7,1.4,2.57s.9,1.7,1.32,2.56c.63,1.29,1.23,2.56,1.8,3.85s1.1,2.56,1.6,3.84c.33.85.65,1.71,1,2.56,10.07,28.09,5,55.72-5.26,79.21"/><path class="cls-6" d="M41.45,94.61c-1,1.28-41.28,51.2-21.8,122.69,6,22.17,17.8,46.43,38.28,71.94L58,309H104l0-184.9c-35.41-.82-61.54-28.36-62.55-29.44h0"/><path class="cls-7" d="M41.45,94.61a153.91,153.91,0,0,0-13,12.56c-1.16,1.26-2.28,2.53-3.35,3.8-.37.42-.72.84-1.06,1.26q-2.62,3.19-4.93,6.37c-.92,1.27-1.8,2.56-2.65,3.83q-2.53,3.84-4.65,7.68C-4.1,159.2-2,188.44,6.91,213.79c.29.85.6,1.7.93,2.54,1.69,4.49,3.58,8.85,5.63,13.05h0c1,2.12,2.09,4.19,3.17,6.23,1.63,3,3.33,6,5.06,8.84q1.94,3.21,3.95,6.23c.88,1.35,1.78,2.66,2.67,3.95s1.78,2.55,2.68,3.77,1.78,2.43,2.65,3.59c4.4,5.84,8.67,10.89,12.36,15l2.14,2.36c1.38,1.5,2.66,2.83,3.8,4,.56.58,1.1,1.13,1.6,1.63l.73.73c2.1,2.08,3.42,3.29,3.67,3.51-20.48-25.51-32.26-49.77-38.28-71.94C.17,145.81,40.41,95.89,41.45,94.61h0"/><path class="cls-1" d="M166.09,94.59l0,0c-21.72,22.76-43.2,29.91-62.06,29.47-36.12-.83-62.6-29.47-62.6-29.47l0,0S39.6,61,52.39,33.81h0c.54-1.15,1.11-2.29,1.72-3.42.29-.56.59-1.11.9-1.65.62-1.11,1.27-2.2,2-3.27s1.4-2.13,2.14-3.16q1.67-2.32,3.55-4.48c.42-.47.84-.95,1.28-1.41C73.07,6.64,85.85,0,103.75,0H105c17.25.29,29.67,6.86,38.59,16.4a64.16,64.16,0,0,1,9.83,13.95c.6,1.14,1.18,2.3,1.73,3.46,12.8,27.14,10.95,60.77,10.95,60.77"/><path class="cls-8" d="M104,124.08c-36.12-.83-62.6-29.47-62.6-29.47l0,0S39.6,61,52.39,33.81h0c.54-1.15,1.11-2.3,1.72-3.42.29-.56.59-1.11.9-1.65.62-1.11,1.27-2.2,2-3.27s1.39-2.13,2.14-3.16q1.67-2.32,3.55-4.48c.42-.47.84-.95,1.28-1.41C73.07,6.64,85.85,0,103.75,0Z"/><path class="cls-9" d="M153.41,30.36c-19.28,15.79-32.6,55.42-32.6,55.42-1.09,0-17.06-.49-17.06-.49s-16,.49-17.06.49c0,0-13.31-39.63-32.6-55.41.29-.56.59-1.11.9-1.65.62-1.1,1.27-2.2,2-3.27s1.4-2.13,2.14-3.16q1.67-2.32,3.55-4.48c.42-.47.84-.95,1.28-1.41C73.07,6.64,85.85,0,103.75,0H105c17.25.29,29.67,6.86,38.59,16.4a64.33,64.33,0,0,1,9.83,13.95"/><path class="cls-10" d="M131.91,50.5c0-7,3.23-12.67,7.2-12.67s7.21,5.67,7.21,12.67-3.23,12.67-7.21,12.67-7.2-5.67-7.2-12.67"/><path class="cls-11" d="M133.4,51.2c0-5.54,2.55-10,5.7-10s5.71,4.49,5.71,10-2.55,10-5.71,10-5.7-4.49-5.7-10"/><path class="cls-10" d="M63.3,50.39c0-6.92,3.19-12.53,7.12-12.53s7.12,5.61,7.12,12.53-3.19,12.53-7.12,12.53S63.3,57.31,63.3,50.39"/><path d="M64.78,51.08c0-5.48,2.52-9.92,5.64-9.92s5.64,4.44,5.64,9.92S73.54,61,70.42,61s-5.64-4.44-5.64-9.92"/><path class="cls-1" d="M69.23,43.66a1.53,1.53,0,1,1-1.51-1.78,1.66,1.66,0,0,1,1.51,1.78"/><path class="cls-1" d="M138,43.66a1.53,1.53,0,1,1-1.51-1.78A1.66,1.66,0,0,1,138,43.66"/><path class="cls-12" d="M103.82,63.71S90.2,68.62,86.7,85.78l17.13,71.92,17.13-71.92c-3.5-17.17-17.13-22.07-17.13-22.07"/><path class="cls-13" d="M103.82,63.71S90.2,68.62,86.7,85.78l17.13,71.92Z"/><path class="cls-14" d="M166.12,94.62c1.63,2,69.81,87-16.46,194.58a186.21,186.21,0,0,0,13.7-14.26l.68-.79c1.52-1.75,3.11-3.64,4.75-5.65l1.58-2c1-1.27,2-2.59,3.08-4,.5-.66,1-1.34,1.52-2l.18-.24q1.41-1.9,2.83-3.91c2.29-3.25,4.6-6.7,6.85-10.31l1-1.54q2.35-3.86,4.59-8c1.88-3.46,3.69-7,5.37-10.75l0-.07q.53-1.16,1-2.34h0l.14-.33a128.16,128.16,0,0,0,9.65-33.7h0v-.1a94.91,94.91,0,0,0-4.56-45.06c-.31-.85-.63-1.71-1-2.56-.49-1.25-1-2.48-1.55-3.73l-.53-1.19c-.42-.92-.86-1.85-1.32-2.78s-.86-1.7-1.32-2.56l-.68-1.27c-.46-.83-.93-1.67-1.41-2.49l-.05-.08q-.76-1.28-1.55-2.56a134.61,134.61,0,0,0-26.59-30.38"/><path class="cls-13" d="M86.7,307.21V291.52a4.27,4.27,0,0,0-4.15-4.35,4.18,4.18,0,0,0-3.94,3,4.1,4.1,0,0,0-7.89,0,4.2,4.2,0,0,0-3.95-3,4.27,4.27,0,0,0-4.15,4.35v15.68a4.49,4.49,0,0,0,.29,1.59,4.17,4.17,0,0,0,3.86,2.77,4,4,0,0,0,2.93-1.29,4.39,4.39,0,0,0,.93-1.48c0-.08.06-.15.09-.23a1.62,1.62,0,0,0,.08.23,4.17,4.17,0,0,0,3.86,2.77,4,4,0,0,0,2.93-1.29,4.39,4.39,0,0,0,.93-1.48c0-.08.06-.15.09-.23a1.62,1.62,0,0,0,.08.23,4.17,4.17,0,0,0,3.86,2.77,4,4,0,0,0,2.93-1.29,4.43,4.43,0,0,0,.93-1.48,4.49,4.49,0,0,0,.29-1.59"/><path class="cls-15" d="M144.91,307.51V291.83a4.27,4.27,0,0,0-4.15-4.35,4.18,4.18,0,0,0-3.94,3,4.1,4.1,0,0,0-7.89,0,4.2,4.2,0,0,0-3.95-3,4.27,4.27,0,0,0-4.15,4.35v15.68a4.47,4.47,0,0,0,.29,1.59,4.17,4.17,0,0,0,3.86,2.77,4,4,0,0,0,2.93-1.29,4.42,4.42,0,0,0,.93-1.48c0-.07.06-.15.06-.15a.49.49,0,0,1,.11.15,4.17,4.17,0,0,0,3.86,2.77,4,4,0,0,0,2.93-1.29,4.38,4.38,0,0,0,.93-1.48l.06-.15s.08.08.11.15a4.17,4.17,0,0,0,3.86,2.77,4,4,0,0,0,2.93-1.29,4.41,4.41,0,0,0,.93-1.48,4.47,4.47,0,0,0,.29-1.59"/><path class="cls-1" d="M315.82,135.35a13.81,13.81,0,0,1,5.25,4.87A12.54,12.54,0,0,1,323,147q0,5.6-2.46,8.57a13.65,13.65,0,0,1-6.71,4.25v.32q10.48,2.38,10.51,13.66a13.92,13.92,0,0,1-2,7.36,14.89,14.89,0,0,1-5.51,5.33,15.3,15.3,0,0,1-7.64,2l-30.56.06-.12-54.88,30.08-.06A15,15,0,0,1,315.82,135.35ZM294,154.64l9.2,0a4,4,0,0,0,4-4v-1.36a4,4,0,0,0-4-4l-9.2,0Zm0,21.12,10.16,0a4,4,0,0,0,4-4v-1.44a4,4,0,0,0-4-4l-10.16,0Z"/><path class="cls-1" d="M346.19,142.2l-15.76,0,0-11.44,15.76,0Zm.1,46.16-15.76,0-.09-40.8,15.76,0Z"/><path class="cls-1" d="M386.81,149.52a10.86,10.86,0,0,1,2.94,8v1.36l-.15,3-.16,2-13,0v-1.92a4.2,4.2,0,0,0-1-2.84,3,3,0,0,0-2.36-1.16,3.11,3.11,0,0,0-2.44,1.17,4.2,4.2,0,0,0-1,2.84l.06,26.24-15.44,0-.09-40.88,11.84,0,1.77,5.92a14.18,14.18,0,0,1,1.83-2.56,13,13,0,0,1,3.67-2.89,10.76,10.76,0,0,1,5.28-1.29Q383.88,146.6,386.81,149.52Z"/><path class="cls-1" d="M422.21,188.2l-1.45-4.72Q416.37,189,410.45,189a17.32,17.32,0,0,1-8.93-2.3,15.91,15.91,0,0,1-6.25-7,26.07,26.07,0,0,1-2.3-11.47v-.88a28.72,28.72,0,0,1,2-11.48,15.62,15.62,0,0,1,5.5-7,13.89,13.89,0,0,1,7.88-2.34q7.52,0,10.57,5l0-21,15.84,0,.12,57.6Zm-11.74-30a5.8,5.8,0,0,0-1.43,4l0,11.6a5.8,5.8,0,0,0,1.45,4,4.6,4.6,0,0,0,7,0,5.79,5.79,0,0,0,1.43-4l0-11.6a5.79,5.79,0,0,0-1.45-4,4.6,4.6,0,0,0-7,0Z"/><path class="cls-1" d="M471,147.66a17.51,17.51,0,0,1,6.77,3.71,7.83,7.83,0,0,1,2.73,6,10.16,10.16,0,0,1-.08,1.32c-.05.4-.08.65-.08.76l-13.12,0a2.86,2.86,0,0,0-1.73-2.76,8.73,8.73,0,0,0-3.88-.83q-5.92,0-5.91,2.33,0,1.44,1.8,2a40.83,40.83,0,0,0,6,1,64.36,64.36,0,0,1,9,1.58,13.46,13.46,0,0,1,6.25,3.71q2.69,2.75,2.7,8,0,7.52-5.46,11a24.87,24.87,0,0,1-13.47,3.47h-4.16a25.85,25.85,0,0,1-8.52-1.38,15.33,15.33,0,0,1-6.61-4.27,10.21,10.21,0,0,1-2.58-7v-.72a2.46,2.46,0,0,1,.08-.72l13,0v.32a3.27,3.27,0,0,0,2.09,3.24,11.75,11.75,0,0,0,4.8.91,21.52,21.52,0,0,0,4.6-.49c1.46-.32,2.2-1,2.2-2s-.62-1.72-1.84-2.12a42.38,42.38,0,0,0-6.08-1.23,57.54,57.54,0,0,1-8.72-1.66,13.53,13.53,0,0,1-6.21-3.79q-2.6-2.75-2.62-7.71a11,11,0,0,1,2.82-7.73,17.08,17.08,0,0,1,7.15-4.58,27,27,0,0,1,8.79-1.5h2.48A26.81,26.81,0,0,1,471,147.66Z"/><path class="cls-1" d="M502.66,173.39l0,14.64-15.28,0,0-14.64Z"/><path class="cls-1" d="M552.12,146.25l-13.92,0,.09,41.68-16.64,0-.09-41.68-13.92,0,0-13.2,44.48-.09Z"/><path class="cls-1" d="M590,148.76a19.28,19.28,0,0,1,7.62,7.22,20.26,20.26,0,0,1,2.78,10.55v1.68a20.39,20.39,0,0,1-2.74,10.65,19,19,0,0,1-7.59,7.22,22.81,22.81,0,0,1-10.83,2.58h-2.56a22.53,22.53,0,0,1-10.85-2.58,19.27,19.27,0,0,1-7.62-7.22,20.27,20.27,0,0,1-2.78-10.55v-1.68a20.26,20.26,0,0,1,2.74-10.57,19.29,19.29,0,0,1,7.59-7.26,22.53,22.53,0,0,1,10.83-2.62h2.56A22.56,22.56,0,0,1,590,148.76Zm-16,8.75a5.46,5.46,0,0,0-1.59,4l0,11.92a5.47,5.47,0,0,0,1.61,4,5.51,5.51,0,0,0,7.84,0,5.47,5.47,0,0,0,1.59-4l0-11.92a5.47,5.47,0,0,0-1.61-4,5.5,5.5,0,0,0-7.84,0Z"/><path class="cls-1" d="M634,187.75,632.51,183q-4.39,5.53-10.31,5.54a17.32,17.32,0,0,1-8.93-2.3,15.9,15.9,0,0,1-6.25-7,26.05,26.05,0,0,1-2.3-11.47v-.88a28.71,28.71,0,0,1,2-11.48,15.63,15.63,0,0,1,5.5-7,13.89,13.89,0,0,1,7.88-2.34q7.52,0,10.57,5l0-21,15.84,0,.12,57.6Zm-11.74-30a5.81,5.81,0,0,0-1.43,4l0,11.6a5.8,5.8,0,0,0,1.45,4,4.6,4.6,0,0,0,7,0,5.79,5.79,0,0,0,1.43-4l0-11.6a5.8,5.8,0,0,0-1.45-4,4.6,4.6,0,0,0-7,0Z"/><path class="cls-1" d="M689.68,149.55a11.1,11.1,0,0,1,4.94,9.35l0,16.88a3.06,3.06,0,0,0,.72,2.24,2.4,2.4,0,0,0,1.76.72,5.61,5.61,0,0,0,2.8-.73l0,8.56q-2.56,1.84-8.08,1.86a16.1,16.1,0,0,1-8.08-1.7,7.33,7.33,0,0,1-3.69-4.75,21.68,21.68,0,0,1-5.63,4.73,15,15,0,0,1-7.56,1.78q-6.4,0-10.4-2.46t-4-9.75q0-5.52,3.1-8.53a17.53,17.53,0,0,1,8.91-4.18,77.45,77.45,0,0,1,14.76-1.19v-2.32a4.42,4.42,0,0,0-1.49-3.52,5.49,5.49,0,0,0-3.72-1.27,6.21,6.21,0,0,0-3.48,1.09,3.15,3.15,0,0,0-1.63,2.68v.32l-15.2,0a4.74,4.74,0,0,1-.08-1.12,9.3,9.3,0,0,1,2.35-6.21,16,16,0,0,1,6.71-4.41A28.68,28.68,0,0,1,672.83,146h2.64Q684.75,146,689.68,149.55Zm-18.15,21.52a4.3,4.3,0,0,0-2.47,3.89q0,3.84,4.81,3.83a5.31,5.31,0,0,0,3.84-1.57,5.39,5.39,0,0,0,1.59-4v-3.52Q674,169.67,671.53,171.07Z"/><path class="cls-1" d="M731.24,184.66a33,33,0,0,1-8.05,13A17.2,17.2,0,0,1,711,202.55q-5.44,0-7.92-1.18L703,191a10.46,10.46,0,0,0,2.68.79,18.19,18.19,0,0,0,3.32.31q3.2,0,4.44-1.65a10.68,10.68,0,0,0,1.79-4.12l-15.12-39.65,16.88,0,6.37,21.19H724l5.31-21.21,15.6,0Z"/><path class="cls-1" d="M294,215.32a5.75,5.75,0,0,1,2.2,4.82v.41h-3.33V220a2.85,2.85,0,0,0-1.33-2.51,6.22,6.22,0,0,0-3.5-.88,7.38,7.38,0,0,0-3.76.81,2.53,2.53,0,0,0-1.34,2.3,2.4,2.4,0,0,0,.77,1.83,5.43,5.43,0,0,0,1.91,1.12q1.14.41,3.15.91a36,36,0,0,1,4.19,1.32,7.21,7.21,0,0,1,2.74,1.93,5,5,0,0,1,1.15,3.43q0,3.81-2.32,5.56a10.7,10.7,0,0,1-6.54,1.76,10.55,10.55,0,0,1-6.55-1.77,6.13,6.13,0,0,1-2.34-5.18l0-.68h3.33l0,.71a3.28,3.28,0,0,0,1.49,2.94,9.15,9.15,0,0,0,8.13,0,2.9,2.9,0,0,0,1.47-2.57,2.83,2.83,0,0,0-.8-2.09,5.43,5.43,0,0,0-2-1.24q-1.21-.44-3.28-1a37.15,37.15,0,0,1-4.08-1.28,6.64,6.64,0,0,1-2.62-1.88,5,5,0,0,1-1.09-3.35,5.74,5.74,0,0,1,2.27-5,10.24,10.24,0,0,1,6.08-1.65A9.62,9.62,0,0,1,294,215.32Z"/><path class="cls-1" d="M314.77,221.94a10.58,10.58,0,0,1,1.88,6.63v.37a9.84,9.84,0,0,1-1.84,6.33,6.27,6.27,0,0,1-5.18,2.32,5.78,5.78,0,0,1-5-2.54l0,8.36h-3.2l-.05-23.53h2.38q.24,1.09.45,2.38a6.7,6.7,0,0,1,10.54-.33Zm-9.12,1.75a8.83,8.83,0,0,0-1.06,4.86,8.68,8.68,0,0,0,1.12,4.91A3.81,3.81,0,0,0,309,235a3.75,3.75,0,0,0,3.33-1.6,8.8,8.8,0,0,0,1.08-4.9,8.6,8.6,0,0,0-1.12-4.89,4.34,4.34,0,0,0-6.7,0Z"/><path class="cls-1" d="M334,221.73a8.47,8.47,0,0,1,2.19,6.15v1.26a8.55,8.55,0,0,1-2.13,6.16,8.74,8.74,0,0,1-11.7,0,8.54,8.54,0,0,1-2.16-6.15v-1.26a8.47,8.47,0,0,1,2.16-6.16,8.65,8.65,0,0,1,11.63,0Zm-9.35,1.89a7.19,7.19,0,0,0-1.25,4.59v.65a7.29,7.29,0,0,0,1.25,4.55,4.73,4.73,0,0,0,7.07,0,7.13,7.13,0,0,0,1.27-4.58v-.65a7.3,7.3,0,0,0-1.25-4.55,4.23,4.23,0,0,0-3.56-1.59A4.28,4.28,0,0,0,324.63,223.62Z"/><path class="cls-1" d="M344.48,219.8h4v2.55h-4l0,10.37a2.66,2.66,0,0,0,.48,1.77,1.84,1.84,0,0,0,1.46.54,5.66,5.66,0,0,0,2.11-.51v2.38a7.08,7.08,0,0,1-3.16.62,3.82,3.82,0,0,1-3-1.18,5.67,5.67,0,0,1-1-3.77l0-10.2h-1.9v-2.55h2l1.08-5.54h2Z"/><path class="cls-1" d="M364,222a5.92,5.92,0,0,1,2.12-1.84,6.1,6.1,0,0,1,2.91-.72,6.2,6.2,0,0,1,5.17,2.32A9.92,9.92,0,0,1,376,228v.37a10.51,10.51,0,0,1-1.87,6.63,6.18,6.18,0,0,1-5.15,2.42,6.49,6.49,0,0,1-5.85-3.08l-1.12,2.76h-1.22l-.05-24.48H364Zm1,1.58a8.89,8.89,0,0,0-1.06,4.92,8.7,8.7,0,0,0,1.1,4.89,3.78,3.78,0,0,0,3.33,1.56q4.45,0,4.44-6.47a8.58,8.58,0,0,0-1.13-4.91,3.82,3.82,0,0,0-3.34-1.57A3.76,3.76,0,0,0,365,223.55Z"/><path class="cls-1" d="M383.87,212.61v3h-3.33v-3Zm-.05,7.11,0,17.37h-3.2l0-17.37Z"/><path class="cls-1" d="M401.05,220.89a5.68,5.68,0,0,1,1.37,3.89l-.1,1.29H399.5v-.75a3.22,3.22,0,0,0-.51-1.8,3.56,3.56,0,0,0-1.29-1.2,3.26,3.26,0,0,0-1.57-.42,3,3,0,0,0-2.55,1.3,6,6,0,0,0-.91,3.5l0,10.37h-3.2l0-17.37h2.28l.48,2.58a3.21,3.21,0,0,1,.92-1.36,5.72,5.72,0,0,1,1.78-1.13,6.14,6.14,0,0,1,2.36-.45A4.77,4.77,0,0,1,401.05,220.89Z"/><path class="cls-1" d="M420.33,237H418c-.16-.72-.31-1.52-.45-2.38A6.68,6.68,0,0,1,407,235a10.51,10.51,0,0,1-1.9-6.63V228a9.86,9.86,0,0,1,1.84-6.31,6.25,6.25,0,0,1,5.18-2.34,5.73,5.73,0,0,1,5,2.54l0-9.32h3.2Zm-11-13.56a8.9,8.9,0,0,0-1.06,4.92,8.69,8.69,0,0,0,1.1,4.89,3.78,3.78,0,0,0,3.33,1.56q4.45,0,4.44-6.47a8.57,8.57,0,0,0-1.13-4.91,3.82,3.82,0,0,0-3.33-1.57A3.76,3.76,0,0,0,409.34,223.46Z"/><path class="cls-1" d="M436,219.88a5.44,5.44,0,0,1,2.35,1.7,3.88,3.88,0,0,1,.84,2.41l0,.61H436v-.31q0-2.48-3.85-2.47t-3.8,2.29a1.62,1.62,0,0,0,1.09,1.54,16.17,16.17,0,0,0,3.33.93,28.91,28.91,0,0,1,3.52.91,5.8,5.8,0,0,1,2.35,1.49,3.84,3.84,0,0,1,1,2.75,4.85,4.85,0,0,1-1.9,4.19,9.17,9.17,0,0,1-5.47,1.41h-.51a9.7,9.7,0,0,1-3.74-.66,5.79,5.79,0,0,1-2.47-1.8,4,4,0,0,1-.84-2.56v-.75h3.16v.34q0,2.89,4.87,2.88a5.12,5.12,0,0,0,2.57-.65,2,2,0,0,0,1.13-1.77,1.88,1.88,0,0,0-.63-1.49,4.13,4.13,0,0,0-1.55-.81,22.6,22.6,0,0,0-2.55-.54,28.62,28.62,0,0,1-3.4-.83,5,5,0,0,1-2.21-1.44,4,4,0,0,1-.92-2.79,4.42,4.42,0,0,1,1.9-3.79,8.72,8.72,0,0,1,5.2-1.39h.31A9.16,9.16,0,0,1,436,219.88Z"/><path class="cls-1" d="M460.3,212.82v2.35a4.53,4.53,0,0,0-1.74-.44,2.56,2.56,0,0,0-1.83.5,2.33,2.33,0,0,0-.47,1.65v2.69h4v2.55h-4l0,14.82h-3.2l0-14.82h-1.9v-2.55h1.9v-2.35q0-5,4-5A7,7,0,0,1,460.3,212.82Z"/><path class="cls-1" d="M475.48,220.73a5.68,5.68,0,0,1,1.37,3.89l-.1,1.29h-2.82v-.75a3.22,3.22,0,0,0-.51-1.8,3.55,3.55,0,0,0-1.29-1.2,3.25,3.25,0,0,0-1.56-.42A3,3,0,0,0,468,223a6,6,0,0,0-.91,3.5l0,10.37h-3.2l0-17.37h2.28l.48,2.58a3.21,3.21,0,0,1,.92-1.36,5.71,5.71,0,0,1,1.78-1.13,6.14,6.14,0,0,1,2.36-.45A4.77,4.77,0,0,1,475.48,220.73Z"/><path class="cls-1" d="M493.3,221.39a8.47,8.47,0,0,1,2.19,6.15v1.26a8.54,8.54,0,0,1-2.13,6.16,8.74,8.74,0,0,1-11.7,0,8.55,8.55,0,0,1-2.16-6.15v-1.26a8.47,8.47,0,0,1,2.16-6.16,8.66,8.66,0,0,1,11.63,0Zm-9.35,1.89a7.2,7.2,0,0,0-1.25,4.59v.65a7.28,7.28,0,0,0,1.25,4.55,4.23,4.23,0,0,0,3.56,1.59,4.28,4.28,0,0,0,3.52-1.59,7.14,7.14,0,0,0,1.26-4.58v-.65A7.29,7.29,0,0,0,491,223.3a4.23,4.23,0,0,0-3.56-1.59A4.28,4.28,0,0,0,483.95,223.28Z"/><path class="cls-1" d="M522.57,220.65a6.19,6.19,0,0,1,1.5,4.45l0,11.7h-3.2l0-11.12q0-4-3.14-4a3.5,3.5,0,0,0-2,.65,4.64,4.64,0,0,0-1.49,1.75,5.31,5.31,0,0,0-.56,2.43l0,10.34h-3.2l0-11.12q0-4-3.14-4a3.49,3.49,0,0,0-2,.65,4.63,4.63,0,0,0-1.49,1.75,5.31,5.31,0,0,0-.56,2.43l0,10.34h-3.2l0-17.37h2.31l.45,2.55a6.26,6.26,0,0,1,5.47-2.9,4.79,4.79,0,0,1,4.77,2.88,6.65,6.65,0,0,1,2.48-2.27,6.57,6.57,0,0,1,2.85-.63A5.52,5.52,0,0,1,522.57,220.65Z"/><path class="cls-1" d="M545.55,236.07a26.56,26.56,0,0,1-2.13,4.37,6.08,6.08,0,0,1-2,2.08,4.87,4.87,0,0,1-2.38.57,6,6,0,0,1-2.38-.47V240a4.87,4.87,0,0,0,1.7.47,3.16,3.16,0,0,0,2.33-.94,7,7,0,0,0,1.54-2.94l-6.8-17.19h3.4l5,12.81H544l4.9-12.83H552Z"/><path class="cls-1" d="M568,221.23a8.47,8.47,0,0,1,2.19,6.15v1.26a8.54,8.54,0,0,1-2.13,6.16,8.74,8.74,0,0,1-11.7,0,8.55,8.55,0,0,1-2.16-6.15v-1.26a8.47,8.47,0,0,1,2.16-6.16,8.66,8.66,0,0,1,11.63,0Zm-9.35,1.89a7.2,7.2,0,0,0-1.25,4.59v.65a7.28,7.28,0,0,0,1.25,4.55,4.23,4.23,0,0,0,3.56,1.59,4.28,4.28,0,0,0,3.52-1.59,7.14,7.14,0,0,0,1.26-4.58v-.65a7.29,7.29,0,0,0-1.25-4.55,4.23,4.23,0,0,0-3.56-1.59A4.28,4.28,0,0,0,558.65,223.12Z"/><path class="cls-1" d="M589.3,233.26a1.27,1.27,0,0,0,.27.9.89.89,0,0,0,.68.29,2.93,2.93,0,0,0,1.53-.48v2.35a3.91,3.91,0,0,1-2.14.68,3.53,3.53,0,0,1-2.57-.74,3.12,3.12,0,0,1-.8-2.11,6.31,6.31,0,0,1-2.36,2.11,7.12,7.12,0,0,1-3.31.76,6.11,6.11,0,0,1-4.3-1.54,5.77,5.77,0,0,1-1.69-4.47l0-11.7h3.2l0,11.12q0,4,3.68,4a4.31,4.31,0,0,0,2.26-.65,4.88,4.88,0,0,0,1.71-1.75,4.73,4.73,0,0,0,.64-2.43l0-10.34h3.2Z"/><path class="cls-1" d="M607.36,220.45a5.68,5.68,0,0,1,1.37,3.89l-.1,1.29h-2.82v-.75a3.22,3.22,0,0,0-.51-1.8,3.56,3.56,0,0,0-1.29-1.2,3.26,3.26,0,0,0-1.56-.42,3,3,0,0,0-2.55,1.3,6,6,0,0,0-.91,3.5l0,10.37h-3.2l0-17.37H598l.48,2.58a3.21,3.21,0,0,1,.92-1.36,5.73,5.73,0,0,1,1.78-1.13,6.14,6.14,0,0,1,2.36-.45A4.77,4.77,0,0,1,607.36,220.45Z"/><path class="cls-1" d="M631.25,219.75a6.43,6.43,0,0,1,2.57,2.53,7.5,7.5,0,0,1,.93,3.74h-3.16a5,5,0,0,0-1.08-3.36,3.82,3.82,0,0,0-3.08-1.25,4.23,4.23,0,0,0-3.35,1.42,5.64,5.64,0,0,0-1.23,3.86v1.84a6.7,6.7,0,0,0,1.23,4.4,4.29,4.29,0,0,0,3.47,1.44,3.82,3.82,0,0,0,3.11-1.25,5.06,5.06,0,0,0,1-3.35h3.06a7,7,0,0,1-1.94,5.21,7.09,7.09,0,0,1-5.21,1.95h-.27a7.55,7.55,0,0,1-4-1.06,7,7,0,0,1-2.67-3,10.29,10.29,0,0,1-.94-4.52v-.82a10.25,10.25,0,0,1,.94-4.54,7.13,7.13,0,0,1,2.68-3,7.41,7.41,0,0,1,4-1.08h.27A7.64,7.64,0,0,1,631.25,219.75Z"/><path class="cls-1" d="M652,221.05a8.47,8.47,0,0,1,2.19,6.15v1.26a8.54,8.54,0,0,1-2.13,6.16,8.74,8.74,0,0,1-11.7,0,8.55,8.55,0,0,1-2.16-6.15v-1.26a8.47,8.47,0,0,1,2.16-6.16,8.65,8.65,0,0,1,11.63,0Zm-9.35,1.89a7.2,7.2,0,0,0-1.25,4.59v.65a7.28,7.28,0,0,0,1.25,4.55,4.23,4.23,0,0,0,3.56,1.59,4.27,4.27,0,0,0,3.52-1.59,7.14,7.14,0,0,0,1.26-4.58v-.65a7.29,7.29,0,0,0-1.25-4.55,4.23,4.23,0,0,0-3.56-1.59A4.28,4.28,0,0,0,642.62,222.94Z"/><path class="cls-1" d="M673.28,233.08a1.27,1.27,0,0,0,.27.9.89.89,0,0,0,.68.29,2.93,2.93,0,0,0,1.53-.48v2.35a3.91,3.91,0,0,1-2.14.68,3.53,3.53,0,0,1-2.57-.74,3.12,3.12,0,0,1-.8-2.11,6.31,6.31,0,0,1-2.36,2.11,7.11,7.11,0,0,1-3.31.75,6.11,6.11,0,0,1-4.3-1.54,5.77,5.77,0,0,1-1.69-4.47l0-11.7h3.2l0,11.12q0,4,3.68,4a4.31,4.31,0,0,0,2.26-.65,4.88,4.88,0,0,0,1.71-1.75,4.73,4.73,0,0,0,.64-2.43l0-10.34h3.2Z"/><path class="cls-1" d="M690.27,219.63a6.42,6.42,0,0,1,2.57,2.53,7.5,7.5,0,0,1,.93,3.74H690.6a5,5,0,0,0-1.08-3.36,3.82,3.82,0,0,0-3.08-1.25,4.23,4.23,0,0,0-3.35,1.42,5.65,5.65,0,0,0-1.23,3.86v1.84a6.69,6.69,0,0,0,1.23,4.4,4.29,4.29,0,0,0,3.47,1.44,3.82,3.82,0,0,0,3.11-1.25,5.06,5.06,0,0,0,1-3.35h3.06a7,7,0,0,1-1.94,5.21,7.08,7.08,0,0,1-5.21,1.95h-.27a7.55,7.55,0,0,1-4-1.06,7,7,0,0,1-2.67-3,10.29,10.29,0,0,1-.94-4.52v-.82a10.25,10.25,0,0,1,.94-4.54,7.13,7.13,0,0,1,2.68-3,7.41,7.41,0,0,1,4-1.08h.27A7.64,7.64,0,0,1,690.27,219.63Z"/><path class="cls-1" d="M701.44,221.22a6.76,6.76,0,0,1,5.37-2.53,6.31,6.31,0,0,1,4.49,1.52,5.86,5.86,0,0,1,1.64,4.48l0,11.7h-3.2l0-11.12q0-4-3.68-4a4.29,4.29,0,0,0-2.28.65,5,5,0,0,0-1.7,1.75,4.74,4.74,0,0,0-.64,2.43l0,10.34h-3.2l-.05-24.48h3.2Z"/></g></g></svg>