<svg xmlns="http://www.w3.org/2000/svg" viewBox="0 0 22.16 28"><defs><style>.cls-1{fill:#060707;}.cls-2{fill:#f4f9fc;}.cls-3{fill:#0c0d0d;}.cls-4{fill:#fff;}.cls-5{fill:#f2f2f2;}.cls-6{fill:#c6c8c8;}.cls-7{fill:#060606;}.cls-8{fill:#f6fafd;}.cls-9{fill:#0b0b0b;}.cls-10{fill:#f1673a;}.cls-11{fill:#dd5b36;}.cls-12{fill:#070707;}.cls-13{fill:#f8f8f8;}.cls-14{fill:#0d0d0d;}.cls-15{fill:#c7c7c7;}.cls-16{fill:#f9f9f9;}.cls-17{fill:#8b8b8b;}.cls-18{fill:#7e7e7e;}</style></defs><title>bird_gray</title><g id="Layer_2" data-name="Layer 2"><g id="Layer_5" data-name="Layer 5"><path class="cls-1" d="M2.4,5.75c3.4,2.79,5.75,9.78,5.75,9.78l3-.09,3,.09s2.35-7,5.75-9.78l-.16-.29c-.11-.2-.22-.39-.35-.58s-.25-.38-.38-.56-.41-.54-.63-.79l-.23-.25a9.18,9.18,0,0,0-7-2.89h-.22A9.13,9.13,0,0,0,4.14,3.29,11.33,11.33,0,0,0,2.4,5.75Z"/><ellipse class="cls-2" cx="4.93" cy="9.3" rx="1.27" ry="2.24"/><ellipse class="cls-3" cx="4.93" cy="9.42" rx="1.01" ry="1.77"/><ellipse class="cls-2" cx="17.05" cy="9.28" rx="1.26" ry="2.21"/><ellipse cx="17.05" cy="9.4" rx="1" ry="1.75"/><ellipse class="cls-4" cx="17.52" cy="8.09" rx="0.27" ry="0.31"/><ellipse class="cls-4" cx="5.38" cy="8.09" rx="0.27" ry="0.31"/><path class="cls-5" d="M0,16.79H0c3.86,4,7.67,5.31,11,5.23,6.41-.15,11.11-5.23,11.11-5.23h0A25.75,25.75,0,0,0,20.2,6h0c-.1-.2-.2-.41-.3-.61l-.16-.29c-.11-.2-.23-.39-.35-.58S19.14,4.14,19,4s-.41-.54-.63-.79l-.23-.25A9.24,9.24,0,0,0,11.08,0h-.22A9.19,9.19,0,0,0,4,2.91,11.39,11.39,0,0,0,2.27,5.39c-.11.2-.21.41-.31.61A25.72,25.72,0,0,0,0,16.79"/><path class="cls-6" d="M11,22c6.41-.15,11.11-5.23,11.11-5.23h0A25.75,25.75,0,0,0,20.2,6h0c-.1-.2-.2-.41-.3-.61l-.16-.29c-.11-.2-.23-.39-.35-.58S19.14,4.14,19,4s-.41-.54-.63-.8l-.23-.25A9.24,9.24,0,0,0,11.08,0Z"/><path class="cls-7" d="M2.27,5.39c3.42,2.8,5.79,9.84,5.79,9.84l3-.09,3,.09s2.36-7,5.79-9.84l-.16-.29c-.11-.2-.23-.39-.35-.58S19.14,4.14,19,4s-.41-.54-.63-.79l-.23-.25A9.24,9.24,0,0,0,11.08,0h-.22A9.19,9.19,0,0,0,4,2.91,11.42,11.42,0,0,0,2.27,5.39"/><path class="cls-8" d="M6.09,9c0-1.24-.57-2.25-1.28-2.25S3.53,7.72,3.53,9s.57,2.25,1.28,2.25,1.28-1,1.28-2.25"/><path class="cls-9" d="M5.82,9.09c0-1-.45-1.78-1-1.78s-1,.8-1,1.78.45,1.78,1,1.78,1-.8,1-1.78"/><path class="cls-8" d="M18.27,8.95c0-1.23-.57-2.22-1.26-2.22s-1.26,1-1.26,2.22.57,2.22,1.26,2.22,1.26-1,1.26-2.22"/><path d="M18,9.07c0-1-.45-1.76-1-1.76s-1,.79-1,1.76.45,1.76,1,1.76,1-.79,1-1.76"/><path class="cls-4" d="M17.21,7.75a.27.27,0,1,0,.27-.32.29.29,0,0,0-.27.32"/><path class="cls-4" d="M5,7.75a.27.27,0,1,0,.27-.32A.29.29,0,0,0,5,7.75"/><path class="cls-10" d="M11.07,11.31a5.26,5.26,0,0,1,3,3.92L11.07,28,8,15.23a5.26,5.26,0,0,1,3-3.92"/><path class="cls-11" d="M11.07,11.31a5.26,5.26,0,0,1,3,3.92L11.07,28Z"/><path class="cls-12" d="M2.4,5.75c3.4,2.79,5.75,9.78,5.75,9.78l3-.09,3,.09s2.35-7,5.75-9.78l-.16-.29c-.11-.2-.22-.39-.35-.58s-.25-.38-.38-.56-.41-.54-.63-.79l-.23-.25a9.18,9.18,0,0,0-7-2.89h-.22A9.13,9.13,0,0,0,4.14,3.29,11.33,11.33,0,0,0,2.4,5.75Z"/><ellipse class="cls-13" cx="4.93" cy="9.3" rx="1.27" ry="2.24"/><ellipse class="cls-14" cx="4.93" cy="9.42" rx="1.01" ry="1.77"/><ellipse class="cls-13" cx="17.05" cy="9.28" rx="1.26" ry="2.21"/><ellipse cx="17.05" cy="9.4" rx="1" ry="1.75"/><ellipse class="cls-4" cx="17.52" cy="8.09" rx="0.27" ry="0.31"/><ellipse class="cls-4" cx="5.38" cy="8.09" rx="0.27" ry="0.31"/><path class="cls-5" d="M0,16.79H0c3.86,4,7.67,5.31,11,5.23,6.41-.15,11.11-5.23,11.11-5.23h0A25.75,25.75,0,0,0,20.2,6h0c-.1-.2-.2-.41-.3-.61l-.16-.29c-.11-.2-.23-.39-.35-.58S19.14,4.14,19,4s-.41-.54-.63-.79l-.23-.25A9.24,9.24,0,0,0,11.08,0h-.22A9.19,9.19,0,0,0,4,2.91,11.39,11.39,0,0,0,2.27,5.39c-.11.2-.21.41-.31.61A25.72,25.72,0,0,0,0,16.79"/><path class="cls-15" d="M11,22c6.41-.15,11.11-5.23,11.11-5.23h0A25.75,25.75,0,0,0,20.2,6h0c-.1-.2-.2-.41-.3-.61l-.16-.29c-.11-.2-.23-.39-.35-.58S19.14,4.14,19,4s-.41-.54-.63-.8l-.23-.25A9.24,9.24,0,0,0,11.08,0Z"/><path class="cls-7" d="M2.27,5.39c3.42,2.8,5.79,9.84,5.79,9.84l3-.09,3,.09s2.36-7,5.79-9.84l-.16-.29c-.11-.2-.23-.39-.35-.58S19.14,4.14,19,4s-.41-.54-.63-.79l-.23-.25A9.24,9.24,0,0,0,11.08,0h-.22A9.19,9.19,0,0,0,4,2.91,11.42,11.42,0,0,0,2.27,5.39"/><path class="cls-16" d="M6.09,9c0-1.24-.57-2.25-1.28-2.25S3.53,7.72,3.53,9s.57,2.25,1.28,2.25,1.28-1,1.28-2.25"/><path class="cls-9" d="M5.82,9.09c0-1-.45-1.78-1-1.78s-1,.8-1,1.78.45,1.78,1,1.78,1-.8,1-1.78"/><path class="cls-16" d="M18.27,8.95c0-1.23-.57-2.22-1.26-2.22s-1.26,1-1.26,2.22.57,2.22,1.26,2.22,1.26-1,1.26-2.22"/><path d="M18,9.07c0-1-.45-1.76-1-1.76s-1,.79-1,1.76.45,1.76,1,1.76,1-.79,1-1.76"/><path class="cls-4" d="M17.21,7.75a.27.27,0,1,0,.27-.32.29.29,0,0,0-.27.32"/><path class="cls-4" d="M5,7.75a.27.27,0,1,0,.27-.32A.29.29,0,0,0,5,7.75"/><path class="cls-17" d="M11.07,11.31a5.26,5.26,0,0,1,3,3.92L11.07,28,8,15.23a5.26,5.26,0,0,1,3-3.92"/><path class="cls-18" d="M11.07,11.31a5.26,5.26,0,0,1,3,3.92L11.07,28Z"/></g></g></svg>