<svg xmlns="http://www.w3.org/2000/svg" viewBox="0 0 22.16 28"><defs><style>.cls-1{fill:#060707;}.cls-2{fill:#f4f9fc;}.cls-3{fill:#0c0d0d;}.cls-4{fill:#fff;}.cls-5{fill:#c6c8c8;}.cls-6{fill:#f2f2f2;}.cls-7{fill:#060606;}.cls-8{fill:#f6fafd;}.cls-9{fill:#0b0b0b;}.cls-10{fill:#dd5b36;}.cls-11{fill:#f1673a;}</style></defs><title>bird</title><g id="Layer_2" data-name="Layer 2"><g id="Layer_6" data-name="Layer 6"><path class="cls-1" d="M19.76,5.75C16.35,8.53,14,15.53,14,15.53l-3-.09-3,.09s-2.35-7-5.75-9.78l.16-.29c.11-.2.22-.39.35-.58s.25-.38.38-.56.41-.54.63-.79L4,3.28A9.18,9.18,0,0,1,11,.39h.22A9.13,9.13,0,0,1,18,3.29,11.33,11.33,0,0,1,19.76,5.75Z"/><ellipse class="cls-2" cx="17.23" cy="9.3" rx="1.27" ry="2.24"/><ellipse class="cls-3" cx="17.23" cy="9.42" rx="1.01" ry="1.77"/><ellipse class="cls-2" cx="5.11" cy="9.28" rx="1.26" ry="2.21"/><ellipse cx="5.11" cy="9.4" rx="1" ry="1.75"/><ellipse class="cls-4" cx="4.64" cy="8.09" rx="0.27" ry="0.31"/><ellipse class="cls-4" cx="16.78" cy="8.09" rx="0.27" ry="0.31"/><path class="cls-5" d="M22.14,16.79h0c-3.86,4-7.67,5.31-11,5.23C4.71,21.88,0,16.8,0,16.8H0A25.75,25.75,0,0,1,2,6H2c.1-.2.2-.41.3-.61l.16-.29c.11-.2.23-.39.35-.58S3,4.14,3.15,4s.41-.54.63-.79L4,2.91A9.24,9.24,0,0,1,11.08,0h.22a9.19,9.19,0,0,1,6.85,2.91,11.39,11.39,0,0,1,1.75,2.48c.11.2.21.41.31.61a25.72,25.72,0,0,1,1.94,10.79"/><path class="cls-6" d="M11.13,22C4.71,21.88,0,16.8,0,16.8H0A25.75,25.75,0,0,1,2,6H2c.1-.2.2-.41.3-.61l.16-.29c.11-.2.23-.39.35-.58S3,4.14,3.15,4s.41-.54.63-.8L4,2.91A9.24,9.24,0,0,1,11.08,0Z"/><path class="cls-7" d="M19.89,5.39c-3.42,2.8-5.79,9.84-5.79,9.84l-3-.09-3,.09s-2.36-7-5.79-9.84l.16-.29c.11-.2.23-.39.35-.58S3,4.14,3.15,4s.41-.54.63-.79L4,2.91A9.24,9.24,0,0,1,11.08,0h.22a9.19,9.19,0,0,1,6.85,2.91,11.42,11.42,0,0,1,1.75,2.48"/><path class="cls-8" d="M16.07,9c0-1.24.57-2.25,1.28-2.25s1.28,1,1.28,2.25-.57,2.25-1.28,2.25-1.28-1-1.28-2.25"/><path class="cls-9" d="M16.34,9.09c0-1,.45-1.78,1-1.78s1,.8,1,1.78-.45,1.78-1,1.78-1-.8-1-1.78"/><path class="cls-8" d="M3.89,8.95c0-1.23.57-2.22,1.26-2.22s1.26,1,1.26,2.22-.57,2.22-1.26,2.22-1.26-1-1.26-2.22"/><path d="M4.16,9.07c0-1,.45-1.76,1-1.76s1,.79,1,1.76-.45,1.76-1,1.76-1-.79-1-1.76"/><path class="cls-4" d="M4.95,7.75a.29.29,0,0,1-.27.32.32.32,0,0,1,0-.63.29.29,0,0,1,.27.32"/><path class="cls-4" d="M17.16,7.75a.27.27,0,1,1-.27-.32.29.29,0,0,1,.27.32"/><path class="cls-10" d="M11.09,11.31a5.26,5.26,0,0,0-3,3.92l3,12.77,3-12.77a5.26,5.26,0,0,0-3-3.92"/><path class="cls-11" d="M11.09,11.31a5.26,5.26,0,0,0-3,3.92l3,12.77Z"/></g></g></svg>