<svg xmlns="http://www.w3.org/2000/svg" viewBox="0 0 24.95 23"><defs><style>.cls-1{fill:#b9b9b9;}.cls-2{fill:#8f8f8f;}</style></defs><title>leader_gray</title><g id="Layer_2" data-name="Layer 2"><g id="Layer_6" data-name="Layer 6"><rect class="cls-1" x="10.66" y="3.22" width="4.28" height="19.78"/><path class="cls-1" d="M21.2,1c0,.36,0,.69-.05,1A14.64,14.64,0,0,1,21,3.55,28.43,28.43,0,0,1,19.09,12a15.49,15.49,0,0,1-1.25,2.49,8.48,8.48,0,0,1-2.89,3,4.45,4.45,0,0,1-2.22.63,4.16,4.16,0,0,1-2.06-.56,8.09,8.09,0,0,1-2.91-2.91,14.47,14.47,0,0,1-1.2-2.28A28.54,28.54,0,0,1,4.41,3.55,14.64,14.64,0,0,1,4.3,2c0-.36,0-.69-.05-1a1,1,0,0,1,1-1h15A1,1,0,0,1,21.2,1Z"/><path class="cls-1" d="M18.56,21.66v.39a1,1,0,0,1-1,.95H8a1,1,0,0,1-1-.95v-.39a1,1,0,0,1,1-1H17.6A1,1,0,0,1,18.56,21.66Z"/><path class="cls-1" d="M16.6,20.14v.25a.47.47,0,0,1-.1.3A.61.61,0,0,1,16,21H9.64a.57.57,0,0,1-.52-.32.47.47,0,0,1-.1-.3v-.25a.63.63,0,0,1,.63-.64H16A.64.64,0,0,1,16.6,20.14Z"/><path class="cls-1" d="M17.83,14.49l-.42.15a.76.76,0,0,1-.95-1l.12-.32a.75.75,0,0,1,.51-.47,7.42,7.42,0,0,0,2-.88c1.68-1,3.71-3.2,4.23-7.62a.73.73,0,0,0-.74-.83H20.49a.75.75,0,0,1,0-1.51h3.67a.76.76,0,0,1,.76.73C25,5.06,24.55,12.05,17.83,14.49Z"/><path class="cls-1" d="M4.38,2.06H.75A.75.75,0,0,0,0,2.78C0,5.11.38,12.34,7.52,14.64a.75.75,0,0,0,.94-1l-.11-.32a.74.74,0,0,0-.52-.48C6.55,12.55,2.39,11,1.6,4.39a.75.75,0,0,1,.75-.83H4.43a.75.75,0,0,0,.75-.75h0a.75.75,0,0,0-.75-.75Z"/><path class="cls-2" d="M17.82,14.49C24.57,12.05,25,5.06,24.94,2.78A.76.76,0,0,0,24.18,2h-3c0-.36,0-.69.05-1a1,1,0,0,0-1-1H12.69V23h4.9a1,1,0,0,0,1-.95v-.39a1,1,0,0,0-1-1H16.48a.47.47,0,0,0,.1-.3v-.25A.64.64,0,0,0,16,19.5h-1v-2A8.5,8.5,0,0,0,17.82,14.49ZM21,3.55h1.55a.73.73,0,0,1,.75.83C22.8,8.8,20.76,11,19.08,12A28.32,28.32,0,0,0,21,3.55Z"/></g></g></svg>