<svg xmlns="http://www.w3.org/2000/svg" viewBox="0 0 24.76 22.85"><defs><style>.cls-1{isolation:isolate;}.cls-2{fill:#fcb615;}.cls-3{fill:#deb725;mix-blend-mode:multiply;}</style></defs><title>leader</title><g class="cls-1"><g id="Layer_2" data-name="Layer 2"><g id="Layer_5" data-name="Layer 5"><rect class="cls-2" x="10.59" y="3.19" width="4.25" height="19.65"/><path class="cls-2" d="M21.06,1c0,.35,0,.69-.05,1a14.55,14.55,0,0,1-.12,1.5A28.24,28.24,0,0,1,19,11.92a15.38,15.38,0,0,1-1.24,2.47,8.43,8.43,0,0,1-2.87,3,4.42,4.42,0,0,1-2.2.62,4.13,4.13,0,0,1-2.05-.55A8,8,0,0,1,7.7,14.58,14.38,14.38,0,0,1,6.5,12.31,28.35,28.35,0,0,1,4.38,3.53,14.55,14.55,0,0,1,4.27,2c0-.35,0-.69-.05-1a1,1,0,0,1,1-1H20.1A1,1,0,0,1,21.06,1Z"/><path class="cls-2" d="M18.44,21.52v.39a1,1,0,0,1-1,.94H8a1,1,0,0,1-1-.94v-.39a1,1,0,0,1,1-1h9.52A1,1,0,0,1,18.44,21.52Z"/><path class="cls-2" d="M16.49,20v.25a.47.47,0,0,1-.1.3.61.61,0,0,1-.52.32H9.58a.57.57,0,0,1-.52-.32.47.47,0,0,1-.1-.3V20a.62.62,0,0,1,.62-.64h6.29A.64.64,0,0,1,16.49,20Z"/><path class="cls-2" d="M17.72,14.39l-.42.15a.75.75,0,0,1-.94-1l.12-.32a.74.74,0,0,1,.5-.47,7.37,7.37,0,0,0,2-.87c1.66-1,3.68-3.18,4.2-7.57a.73.73,0,0,0-.74-.82H20.36a.75.75,0,0,1,0-1.5H24a.76.76,0,0,1,.76.72C24.81,5,24.39,12,17.72,14.39Z"/><path class="cls-2" d="M4.35,2H.75A.74.74,0,0,0,0,2.77C0,5.08.38,12.26,7.47,14.54a.75.75,0,0,0,.93-1l-.11-.31a.74.74,0,0,0-.51-.47c-1.27-.33-5.4-1.89-6.19-8.44a.74.74,0,0,1,.74-.83H4.4a.74.74,0,0,0,.74-.74h0A.74.74,0,0,0,4.4,2Z"/><path class="cls-3" d="M17.68,14.39C24.39,12,24.81,5,24.76,2.76A.76.76,0,0,0,24,2H21c0-.35,0-.69.05-1a1,1,0,0,0-1-1h-7.5V22.85h4.86a1,1,0,0,0,1-.94v-.39a1,1,0,0,0-1-1h-1.1a.47.47,0,0,0,.1-.3V20a.64.64,0,0,0-.62-.64h-1v-2A8.44,8.44,0,0,0,17.68,14.39ZM20.88,3.53h1.54a.73.73,0,0,1,.74.82c-.52,4.39-2.55,6.54-4.22,7.57A28.13,28.13,0,0,0,20.88,3.53Z"/></g></g></g></svg>