<svg xmlns="http://www.w3.org/2000/svg" viewBox="0 0 22.08 25"><defs><style>.cls-1{fill:#a9a9a9;}.cls-2{fill:#d1d1d1;}.cls-3{fill:#bababa;}.cls-4{fill:#060606;}.cls-5{fill:#979797;}</style></defs><title>profile_gray</title><g id="Layer_2" data-name="Layer 2"><g id="Layer_6" data-name="Layer 6"><path class="cls-1" d="M22.08,20.07V21.8S20.45,25,11.23,25H11C1.65,25,0,21.8,0,21.8V20.07C0,17.72,3.06,15.73,7.33,15v0a.28.28,0,0,0,0,0c0,.63,1.66,1.13,3.7,1.13h.21c1.88,0,3.39-.49,3.48-1.07a.34.34,0,0,0,0-.06.25.25,0,0,0,0-.05v0C19,15.71,22.08,17.72,22.08,20.07Z"/><path class="cls-2" d="M14.71,15h0c-.54-.1-1.1-.18-1.68-.23V13.55A6.5,6.5,0,0,0,15.85,9.1h0c0-.11,0-.21.05-.32s.06-.4.07-.6,0-.49,0-.75c0-2.79-1.27-5.18-3.07-6.18l-.27-.14A3.83,3.83,0,0,0,11.23.75H11c-2.74,0-5,3-5,6.68A8.7,8.7,0,0,0,6.34,9.6a6.32,6.32,0,0,0,2.72,4v1.22c-.6.06-1.18.14-1.74.24-4,.75-6.93,2.69-6.93,5v1.7S2,24.83,11,24.83v.06h.19c8.94,0,10.52-3.15,10.52-3.15V20C21.74,17.72,18.81,15.76,14.71,15Z"/><path class="cls-2" d="M16.07,8.67l-.17.11-.07,0,0,0,0-.11L16,8.17l.48-1.73a1.22,1.22,0,0,1,.19-.4h0a.17.17,0,0,1,.25,0A2.91,2.91,0,0,1,16.07,8.67Z"/><path class="cls-1" d="M22.08,20.07V21.8S20.45,25,11.23,25H11C1.65,25,0,21.8,0,21.8V20.07C0,17.72,3.06,15.73,7.33,15v0a.28.28,0,0,0,0,0c0,.63,1.66,1.13,3.7,1.13h.21c1.88,0,3.39-.49,3.48-1.07a.34.34,0,0,0,0-.06.25.25,0,0,0,0-.05v0C19,15.71,22.08,17.72,22.08,20.07Z"/><path class="cls-2" d="M5.19,6c-.27.2-.14,2.31.95,2.78L5.63,6.45S5.46,5.8,5.19,6Z"/><path class="cls-3" d="M14.78,11.81l0-.06Z"/><path class="cls-3" d="M15.13,11.22l0-.07Z"/><path class="cls-3" d="M15,11.49l0,0Z"/><path class="cls-3" d="M15.42,10.56l0-.06Z"/><path class="cls-3" d="M15.66,9.87l0-.05Z"/><path class="cls-3" d="M14.7,15v0c-.54-.1-1.1-.18-1.68-.23V13.55l.23-.14.06,0,.19-.14,0,0,.21-.18.05,0,.17-.16,0,0,.19-.2,0-.05.15-.18,0-.05.17-.23,0,0,.14-.21,0-.06.16-.26,0,0,.13-.24,0-.07q.14-.28.26-.58l0-.06.11-.3,0,0,.09-.28,0-.05.08-.32,0-.07c0-.11,0-.22.07-.33h0a2.16,2.16,0,0,0,.22-.43A2.91,2.91,0,0,0,16.89,6a.17.17,0,0,0-.25,0c.74-4.84-2.6-5-3.77-4.94a2.29,2.29,0,0,0-1.65-1L11,0V25h.19c9.22,0,10.85-3.2,10.85-3.2V20.07C22.08,17.72,19,15.71,14.7,15Z"/><path class="cls-3" d="M15.76,9.5l0-.07Z"/><path class="cls-3" d="M15.56,10.2l0,0Z"/><path class="cls-3" d="M13.51,13.23l0,0Z"/><path class="cls-3" d="M13.74,13l.05,0Z"/><path class="cls-3" d="M13.25,13.41l.06,0Z"/><path class="cls-3" d="M14.2,12.58l0,0Z"/><path class="cls-3" d="M14.4,12.35l0-.05Z"/><path class="cls-3" d="M14.61,12.07l0,0Z"/><path class="cls-3" d="M14,12.79l0,0Z"/><path class="cls-4" d="M16.64,6h0c0,.16-.05.32-.09.49a12.44,12.44,0,0,1-.49,2.14,2.16,2.16,0,0,1-.22.43c0-.09,0-.19,0-.28a.56.56,0,0,0,0-.08c-.24-1.93-2-3.44-2.84-5.4a5.36,5.36,0,0,1-.49-2.2l.18,0,.21,0C14,1,17.38,1.2,16.64,6Z"/><path class="cls-5" d="M14.7,15v0a.25.25,0,0,1,0,.05.34.34,0,0,1,0,.06c-.09.58-1.6,1-3.48,1.07H11V25h.19c9.22,0,10.85-3.2,10.85-3.2V20.07C22.08,17.72,19,15.71,14.7,15Z"/><path class="cls-4" d="M13,3.33a3.47,3.47,0,0,1-1.75,1.78l-.19.1a8.38,8.38,0,0,1-.83.39c-2.78,1.14-2.78,2.52-3.83,4l0,0a3.74,3.74,0,0,1-.59-1.08h0A8.16,8.16,0,0,1,5.27,6h0q0-.24,0-.51A5.1,5.1,0,0,1,8.46.37,5.19,5.19,0,0,1,11,0l.19,0a2.29,2.29,0,0,1,1.65,1,.41.41,0,0,1,.06.16.52.52,0,0,1,0,.11A4,4,0,0,1,13,3.33Z"/></g></g></svg>