<svg xmlns="http://www.w3.org/2000/svg" viewBox="0 0 226.17 248.73"><defs><style>.cls-1{fill:#2f2f2f;}.cls-2{fill:#7e7e7e;}.cls-3{fill:#aeaeae;}.cls-4{fill:#959595;}.cls-5{fill:#858585;}</style></defs><title>sign-out_gray</title><g id="Layer_2" data-name="Layer 2"><g id="Layer_1-2" data-name="Layer 1"><rect class="cls-1" y="11.43" width="149.67" height="225.46" rx="4.71" ry="4.71"/><path class="cls-2" d="M122.39,4.57V244.16a4.66,4.66,0,0,1-5,4.55L61.2,243.07,4,237.34a4.18,4.18,0,0,1-4-4.08V15.46a4.17,4.17,0,0,1,4-4.08L61.2,5.66,117.44,0A4.66,4.66,0,0,1,122.39,4.57Z"/><circle class="cls-3" cx="99.69" cy="119.73" r="7.96"/><path class="cls-4" d="M226.17,125.51a4,4,0,0,1-1.48,3.11L181,163.75a4,4,0,0,1-6.48-3.11v-7.72H135.62a5.36,5.36,0,0,1-5.35-5.35V106.51a5.36,5.36,0,0,1,5.35-5.34H174.5V90.4A4,4,0,0,1,181,87.29l43.7,35.11A4,4,0,0,1,226.17,125.51Z"/><path class="cls-5" d="M226.17,125.51a4,4,0,0,1-1.48,3.11L181,163.75a4,4,0,0,1-6.48-3.11v-7.72H135.62a5.36,5.36,0,0,1-5.35-5.35V125.51Z"/></g></g></svg>