<svg xmlns="http://www.w3.org/2000/svg" viewBox="0 0 400 400"><defs><style>.cls-1{isolation:isolate;}.cls-2{fill:#b93726;}.cls-3{fill:#4d4c4d;opacity:0.3;}.cls-11,.cls-3,.cls-7{mix-blend-mode:multiply;}.cls-4{fill:#fff;}.cls-5{fill:#f1f2f2;}.cls-6{fill:#ef5323;}.cls-7{fill:#c7caca;}.cls-8{fill:#050505;}.cls-9{fill:#f7fbff;}.cls-10{fill:#0b0b0b;}.cls-11{fill:#e0e0e0;}</style></defs><title>crest_red</title><g class="cls-1"><g id="Layer_1" data-name="Layer 1"><path class="cls-2" d="M394.28,200.1a193.34,193.34,0,0,1-193.5,193.5C93.91,393.6,7.28,307,7.28,200.1S93.91,6.61,200.78,6.61C302.59,6.61,386,85.24,393.7,185.09Q394.27,192.52,394.28,200.1Z"/><path class="cls-3" d="M394.28,200.1A193.54,193.54,0,0,1,280.22,376.59L169.05,319.71l-.62-.32V305.24s0,0,0,0c-.18-.16-1.15-1.05-2.69-2.58l-.53-.53L164,300.9c-.84-.87-1.78-1.85-2.79-2.95l-1.57-1.73c-2.71-3-5.84-6.74-9.08-11-.65-.85-1.3-1.73-2-2.64s-1.32-1.83-2-2.77-1.31-1.91-2-2.9q-1.47-2.22-2.9-4.57c-1.28-2.09-2.52-4.26-3.71-6.49-.8-1.49-1.59-3-2.33-4.57h0l4.54-8.87,38.1-74.47L189.6,156l.12-.24,6.09-11.9,6.48-12.67,17.76-34.71.09-.16,173.57,88.8Q394.27,192.52,394.28,200.1Z"/><path id="path3445" class="cls-4" d="M201.13,358.66a3.86,3.86,0,1,1,4,3.77H205a3.86,3.86,0,0,1-3.85-3.77ZM188.44,362a3.85,3.85,0,1,1,.29,0h-.29Zm28.92-4.21a3.86,3.86,0,1,1,4.32,3.35,4.19,4.19,0,0,1-.49,0,3.86,3.86,0,0,1-3.82-3.38Zm-45.44,2.1a3.87,3.87,0,1,1,.69.06,4.07,4.07,0,0,1-.69-.06Zm61.5-4.62a3.86,3.86,0,1,1,4.64,2.88h0a4.08,4.08,0,0,1-.89.1,3.87,3.87,0,0,1-3.75-3Zm-77.72.8a3.85,3.85,0,1,1,1.07.15,3.75,3.75,0,0,1-1.07-.15Zm93.43-5a3.86,3.86,0,1,1,3.64,2.6,3.87,3.87,0,0,1-3.64-2.6ZM140,350.61h0a3.85,3.85,0,1,1,1.45.29,3.82,3.82,0,0,1-1.45-.29Zm124.37-5.27a3.85,3.85,0,1,1,3.5,2.22,3.88,3.88,0,0,1-3.5-2.22Zm-139.46-1.8a3.86,3.86,0,1,1,1.81.45,3.87,3.87,0,0,1-1.81-.45Zm154-5.52a3.86,3.86,0,1,1,5.3,1.32,3.85,3.85,0,0,1-5.3-1.32Zm-168.26-3.08a3.86,3.86,0,1,1,2.15.66,3.88,3.88,0,0,1-2.15-.66Zm182-5.71a3.85,3.85,0,1,1,3.08,1.54,3.87,3.87,0,0,1-3.08-1.54ZM97.29,324.91a3.85,3.85,0,1,1,2.47.9,3.82,3.82,0,0,1-2.47-.9Zm208-5.83a3.86,3.86,0,1,1,5.45.21h0a3.86,3.86,0,0,1-5.45-.21Zm-220.24-5.5a3.85,3.85,0,1,1,2.76,1.16,3.87,3.87,0,0,1-2.76-1.16Zm231.86-5.9a3.86,3.86,0,1,1,2.55,1,3.87,3.87,0,0,1-2.55-1ZM74.05,301.06h0a3.85,3.85,0,1,1,3,1.46,3.87,3.87,0,0,1-3-1.46Zm253.28-5.9a3.86,3.86,0,1,1,2.24.72,3.83,3.83,0,0,1-2.24-.72ZM64.39,287.47a3.86,3.86,0,1,1,5.33,1.18,3.85,3.85,0,0,1-5.33-1.18Zm272-5.84a3.85,3.85,0,1,1,1.9.5,3.88,3.88,0,0,1-1.9-.5ZM56.16,273a3.85,3.85,0,1,1,3.45,2.13A3.88,3.88,0,0,1,56.16,273ZM344,267.23a3.85,3.85,0,1,1,1.54.32,3.88,3.88,0,0,1-1.54-.32ZM49.47,257.66a3.86,3.86,0,1,1,5,2.25,3.85,3.85,0,0,1-5-2.25Zm300.68-5.55a3.87,3.87,0,0,1-2.5-4.86h0a3.86,3.86,0,1,1,3.67,5,3.78,3.78,0,0,1-1.17-.19ZM44.39,241.76a3.86,3.86,0,1,1,4.72,2.75,3.86,3.86,0,0,1-4.72-2.75Zm310.27-5.31a3.87,3.87,0,0,1-3-4.57h0a3.85,3.85,0,1,1,3,4.58ZM41,225.41a3.85,3.85,0,1,1,3.81,3.27A3.87,3.87,0,0,1,41,225.41Zm316.55-5a3.82,3.82,0,1,1,.39,0l-.39,0ZM39.27,208.81a3.86,3.86,0,1,1,4.06,3.66h-.21a3.86,3.86,0,0,1-3.85-3.67Zm315.63-8.52c0-.06,0-.11,0-.17s0-.12,0-.18a3.86,3.86,0,1,1,7.71,0c0,.06,0,.12,0,.17s0,.12,0,.19h0a3.86,3.86,0,1,1-7.72,0Zm-312-4.11a3.87,3.87,0,1,1,.19,0h-.19Zm311.14-12.12h0a3.86,3.86,0,1,1,4.24,3.44l-.4,0a3.86,3.86,0,0,1-3.83-3.47Zm-309.9-4.14a3.86,3.86,0,1,1,.59,0,4.24,4.24,0,0,1-.59,0ZM351.6,168.35h0a3.85,3.85,0,1,1,3.77,3.07,3.87,3.87,0,0,1-3.77-3.07ZM47.06,163.88a3.85,3.85,0,1,1,1,.13,3.75,3.75,0,0,1-1-.13ZM347.54,153a3.86,3.86,0,1,1,4.85,2.5,3.85,3.85,0,0,1-4.85-2.5ZM51.59,148.22a3.86,3.86,0,1,1,1.36.25,3.87,3.87,0,0,1-1.36-.25Zm290.32-10.1a3.85,3.85,0,1,1,3.53,2.31,3.87,3.87,0,0,1-3.53-2.31Zm-284.19-5a3.85,3.85,0,1,1,1.72.41,3.87,3.87,0,0,1-1.72-.41Zm277.06-9.19a3.86,3.86,0,1,1,5.26,1.45,3.85,3.85,0,0,1-5.26-1.45Zm-269.4-5.19a3.87,3.87,0,0,1-1.19-5.34h0a3.87,3.87,0,1,1,1.18,5.34Zm260.85-8.2a3.85,3.85,0,1,1,3.14,1.62,3.87,3.87,0,0,1-3.14-1.62ZM74.48,105.22a3.85,3.85,0,1,1,2.39.83,3.88,3.88,0,0,1-2.39-.83Zm241.89-7.12a3.86,3.86,0,1,1,5.45.34,3.86,3.86,0,0,1-5.45-.34ZM84.9,92.7a3.86,3.86,0,1,1,5.45-.08,3.85,3.85,0,0,1-5.45.08Zm220.37-6a3.85,3.85,0,1,1,2.61,1,3.88,3.88,0,0,1-2.61-1ZM96.54,81.32a3.86,3.86,0,1,1,5.44.48,3.86,3.86,0,0,1-5.44-.48Zm196.53-4.77h0a3.86,3.86,0,0,1,4.62-6.19h0a3.87,3.87,0,1,1-4.63,6.19ZM109.29,71.19a3.85,3.85,0,1,1,3.2,1.7,3.88,3.88,0,0,1-3.2-1.7Zm170.62-3.5h0a3.85,3.85,0,1,1,2,.55,3.83,3.83,0,0,1-2-.55ZM123,62.43A3.86,3.86,0,1,1,128.22,64a3.8,3.8,0,0,1-1.82.46,3.85,3.85,0,0,1-3.4-2Zm142.9-2.2a3.85,3.85,0,1,1,1.63.36,3.88,3.88,0,0,1-1.63-.36Zm-128.37-5.1a3.86,3.86,0,1,1,5,2.12h0a3.81,3.81,0,0,1-1.46.29,3.85,3.85,0,0,1-3.57-2.4Zm113.67-.87a3.86,3.86,0,1,1,1.26.21,3.87,3.87,0,0,1-1.26-.21Zm-98.46-4.89A3.86,3.86,0,1,1,157.53,52a4,4,0,0,1-1.09.15,3.86,3.86,0,0,1-3.7-2.78Zm83.22.48a3.84,3.84,0,1,1,.88.1,3.92,3.92,0,0,1-.88-.1Zm-67.5-4.62a3.85,3.85,0,1,1,3.79,3.18,3.87,3.87,0,0,1-3.79-3.18ZM220.36,47a3.85,3.85,0,1,1,.49,0,3.46,3.46,0,0,1-.49,0Zm-35.82-4.31a3.86,3.86,0,1,1,4.15,3.56h-.3a3.86,3.86,0,0,1-3.84-3.57Zm20,3.13a3.9,3.9,0,1,1,.09,0Z"/><path class="cls-5" d="M270.45,256.85c-.26.6-.52,1.18-.79,1.77-1.34,2.94-2.79,5.78-4.29,8.52q-1.81,3.29-3.73,6.35c-2.23,3.58-4.53,6.93-6.79,10l-1,1.3c-1,1.28-1.93,2.52-2.86,3.7-.63.79-1.25,1.56-1.85,2.3q-1.37,1.66-2.67,3.16l-1.67,1.91c-4.9,5.5-8.5,8.81-9,9.3h0l0,.05v14.47H168.43V305.24s0,0,0,0c-.18-.16-1.15-1.05-2.69-2.58l-.53-.53L164,300.9c-.84-.87-1.78-1.85-2.79-2.95l-1.57-1.73c-2.71-3-5.84-6.74-9.08-11-.65-.85-1.3-1.73-2-2.64s-1.32-1.83-2-2.77-1.31-1.91-2-2.9q-1.47-2.22-2.9-4.57c-1.28-2.09-2.52-4.26-3.71-6.49-.8-1.49-1.59-3-2.33-4.57-1.51-3.09-2.89-6.29-4.13-9.6-.24-.62-.46-1.24-.68-1.87-6.59-18.62-8.1-40.11,3.62-61.47q1.54-2.82,3.41-5.64c.62-.94,1.27-1.88,2-2.82,1.12-1.56,2.33-3.12,3.62-4.68.26-.31.51-.62.78-.93q1.18-1.4,2.46-2.79a113.2,113.2,0,0,1,9.53-9.23l0,0s-1.37-24.7,8-44.66h0c.4-.84.82-1.69,1.26-2.52.22-.41.44-.81.67-1.22.46-.81.93-1.62,1.43-2.4s1-1.56,1.57-2.32q1.23-1.71,2.61-3.29c.31-.35.62-.7.94-1,6.72-7.17,16.11-12.05,29.26-12.05H203a41.26,41.26,0,0,1,17.06,3.75,37.17,37.17,0,0,1,11.29,8.3c.36.38.71.77,1.05,1.17s.57.67.85,1l.35.43c.22.28.45.56.66.85l.18.23c.29.39.58.79.86,1.19s.53.77.8,1.17.62,1,.92,1.46c.21.34.42.69.61,1l.29.51c.12.21.24.43.36.64s.2.36.29.55.22.4.33.6.12.22.16.33c.28.53.53,1.06.79,1.6,9.4,19.95,8,44.65,8,44.65l0,0a98.91,98.91,0,0,1,19.54,22.33q.58.94,1.14,1.88c.19.31.36.63.54.94.36.63.7,1.25,1,1.89s.66,1.25,1,1.88c.46.94.91,1.88,1.32,2.83s.8,1.88,1.18,2.83c.24.63.48,1.25.7,1.88C281.71,219.29,278,239.59,270.45,256.85Z"/><path class="cls-4" d="M247.88,162.19v0c-46.53,48.75-91.59,0-91.59,0v0s-1.37-24.7,8-44.66h0c.4-.84.82-1.69,1.26-2.52.21-.41.43-.81.66-1.22.46-.81.94-1.62,1.44-2.4s1-1.56,1.57-2.32q1.23-1.71,2.61-3.29c.31-.35.62-.7.94-1,6.72-7.17,16.11-12.05,29.26-12.05H203c12.67.22,21.8,5,28.35,12.05A47.18,47.18,0,0,1,238.57,115c.44.84.87,1.69,1.27,2.54C249.24,137.49,247.88,162.19,247.88,162.19Z"/><path class="cls-6" d="M178,306.88v11.52a3.36,3.36,0,0,1-.15,1c0,.06,0,.12-.07.17a3.26,3.26,0,0,1-.68,1.09,3,3,0,0,1-2.15.94,3.06,3.06,0,0,1-2.83-2,3.29,3.29,0,0,1-.22-1.17V306.88a3.14,3.14,0,0,1,3-3.2,3.09,3.09,0,0,1,2.9,2.2A3.36,3.36,0,0,1,178,306.88Z"/><path class="cls-6" d="M183.76,306.88v11.52a3.36,3.36,0,0,1-.15,1c0,.06,0,.12-.07.17a3.26,3.26,0,0,1-.68,1.09,3,3,0,0,1-2.15.94,3.06,3.06,0,0,1-2.83-2,1.3,1.3,0,0,1-.06-.17,3.17,3.17,0,0,1-.16-1V306.88a3.17,3.17,0,0,1,.16-1,3,3,0,0,1,5.79,0A3.36,3.36,0,0,1,183.76,306.88Z"/><path class="cls-6" d="M189.55,306.88v11.52a3.28,3.28,0,0,1-.9,2.26,3,3,0,0,1-2.15.94,3.06,3.06,0,0,1-2.83-2,1.31,1.31,0,0,1-.06-.17,3.17,3.17,0,0,1-.16-1V306.88a3.17,3.17,0,0,1,.16-1,3.07,3.07,0,0,1,2.89-2.2A3.14,3.14,0,0,1,189.55,306.88Z"/><path class="cls-6" d="M220.73,307.11v11.52a3.36,3.36,0,0,1-.15,1c0,.06,0,.12-.07.17a3.26,3.26,0,0,1-.68,1.09,3,3,0,0,1-2.15.94,3.06,3.06,0,0,1-2.83-2,3.29,3.29,0,0,1-.22-1.17V307.11a3.14,3.14,0,0,1,3-3.2,3.09,3.09,0,0,1,2.9,2.2A3.36,3.36,0,0,1,220.73,307.11Z"/><path class="cls-6" d="M226.52,307.11v11.52a3.36,3.36,0,0,1-.15,1c0,.06,0,.12-.07.17a3.26,3.26,0,0,1-.68,1.09,3,3,0,0,1-2.15.94,3.06,3.06,0,0,1-2.83-2,1.3,1.3,0,0,1-.06-.17,3.17,3.17,0,0,1-.16-1V307.11a3.17,3.17,0,0,1,.16-1,3,3,0,0,1,5.79,0A3.36,3.36,0,0,1,226.52,307.11Z"/><path class="cls-6" d="M232.32,307.11v11.52a3.28,3.28,0,0,1-.9,2.26,3,3,0,0,1-2.15.94,3.06,3.06,0,0,1-2.83-2,1.31,1.31,0,0,1-.06-.17,3.17,3.17,0,0,1-.16-1V307.11a3.17,3.17,0,0,1,.16-1,3.07,3.07,0,0,1,2.89-2.2A3.14,3.14,0,0,1,232.32,307.11Z"/><path class="cls-7" d="M168.41,305.21c-.18-.16-1.15-1.05-2.69-2.58l-.53-.53L164,300.9c-.84-.87-1.78-1.85-2.79-2.95l-1.57-1.73c-2.71-3-5.84-6.74-9.08-11-.64-.85-1.29-1.73-2-2.64s-1.32-1.83-2-2.77-1.31-1.91-2-2.9q-1.47-2.22-2.9-4.57c-1.27-2.09-2.52-4.26-3.71-6.49-.8-1.49-1.58-3-2.33-4.57h0c-1.5-3.09-2.89-6.29-4.13-9.59-.24-.62-.46-1.24-.68-1.87-6.58-18.62-8.09-40.11,3.62-61.47q1.56-2.82,3.41-5.64c.63-.94,1.28-1.88,2-2.82,1.13-1.56,2.34-3.12,3.62-4.68.26-.31.51-.62.78-.93q1.18-1.4,2.46-2.79a113.2,113.2,0,0,1,9.53-9.23c-.74.92-30.33,37.6-16,90.15C144.71,268.65,153.36,286.46,168.41,305.21Z"/><path class="cls-7" d="M235.8,305.18c63.53-79.21,13.07-141.76,12.09-143C321.63,226,238.55,302.68,235.8,305.18Z"/><path class="cls-8" d="M238.57,115c-14.17,11.6-23.95,40.72-23.95,40.72-.8,0-12.54-.36-12.54-.36s-11.73.36-12.53.36c0,0-9.78-29.12-23.95-40.71.21-.41.43-.81.66-1.22.46-.81.94-1.62,1.44-2.4s1-1.56,1.57-2.32q1.23-1.71,2.61-3.29c.31-.35.62-.7.94-1,6.72-7.17,16.11-12.05,29.26-12.05H203c12.67.22,21.8,5,28.35,12.05A47.18,47.18,0,0,1,238.57,115Z"/><ellipse class="cls-9" cx="228.06" cy="129.8" rx="5.29" ry="9.31"/><ellipse class="cls-10" cx="228.06" cy="130.31" rx="4.19" ry="7.37"/><ellipse class="cls-9" cx="177.59" cy="129.72" rx="5.23" ry="9.2"/><ellipse cx="177.59" cy="130.22" rx="4.14" ry="7.29"/><ellipse class="cls-4" cx="175.6" cy="124.78" rx="1.11" ry="1.3"/><ellipse class="cls-4" cx="226.16" cy="124.78" rx="1.11" ry="1.3"/><path class="cls-6" d="M202.13,139.51s-10,3.6-12.58,16.21l12.58,52.84,12.58-52.84C212.14,143.11,202.13,139.51,202.13,139.51Z"/></g><g id="Layer_2" data-name="Layer 2"><path class="cls-11" d="M202.3,92.7v227h-13a3,3,0,0,1-.62,1,3,3,0,0,1-2.15.94,3,3,0,0,1-2.78-1.9.76.76,0,0,1-.06-.13c0-.06,0-.11,0-.17s0,.11-.07.17l-.06.13a3.23,3.23,0,0,1-.62,1,3,3,0,0,1-2.15.94,3,3,0,0,1-2.78-1.9.76.76,0,0,1-.06-.13l-.06-.17-.06.17-.06.13a3.07,3.07,0,0,1-.63,1,3,3,0,0,1-2.15.94,3,3,0,0,1-2.77-1.9h-3.71V305.24s0,0,0,0c-.18-.16-1.15-1-2.69-2.58l-.54-.53L164,300.9c-.85-.87-1.78-1.85-2.8-2.95l-1.57-1.73c-2.71-3-5.84-6.75-9.08-11-.65-.85-1.3-1.74-2-2.64s-1.31-1.83-2-2.77-1.31-1.92-2-2.91c-1-1.47-2-3-2.9-4.57-1.28-2.09-2.53-4.26-3.72-6.49-.8-1.5-1.59-3-2.33-4.58q-2.27-4.63-4.13-9.6c-.24-.61-.47-1.23-.68-1.86-6.59-18.62-8.1-40.11,3.62-61.47q1.55-2.82,3.41-5.64.93-1.41,1.95-2.82,1.68-2.34,3.62-4.68l.79-.93c.79-.94,1.61-1.87,2.46-2.8a113.72,113.72,0,0,1,9.53-9.22v0s-1.37-24.7,8-44.66q.6-1.27,1.26-2.52c.22-.41.44-.81.67-1.21.45-.82.93-1.62,1.43-2.4s1-1.57,1.57-2.33c.82-1.13,1.69-2.23,2.61-3.29.31-.34.62-.69.94-1,6.72-7.18,16.11-12,29.26-12Z"/></g></g></svg>