<svg xmlns="http://www.w3.org/2000/svg" viewBox="0 0 221.41 127"><defs><style>.cls-1{isolation:isolate;}.cls-2{fill:#b93726;}.cls-3{fill:#fff;}.cls-4{fill:#f1f2f2;}.cls-5{fill:#ef5323;}.cls-6{fill:#050505;}.cls-7{fill:#f7fbff;}.cls-8{fill:#0b0b0b;}.cls-9{fill:#f63;}.cls-10{fill:#e0e0e0;mix-blend-mode:multiply;}.cls-11,.cls-12{fill:#b7b7b7;}.cls-12{mix-blend-mode:overlay;}</style></defs><title>flying button</title><g class="cls-1"><g id="Laag_2" data-name="Laag 2"><g id="Layer_2" data-name="Layer 2"><path class="cls-2" d="M174.2,63.5a63.45,63.45,0,1,1-.19-4.93Q174.2,61,174.2,63.5Z"/><path id="path3445" class="cls-3" d="M110.82,115.53a1.27,1.27,0,1,1,1.3,1.24h0a1.27,1.27,0,0,1-1.26-1.24Zm-4.16,1.1a1.26,1.26,0,1,1,.1,0h-.1Zm9.49-1.38a1.27,1.27,0,1,1,1.42,1.1h-.16a1.27,1.27,0,0,1-1.25-1.11Zm-14.91.69a1.27,1.27,0,1,1,.23,0l-.23,0Zm20.18-1.51a1.27,1.27,0,1,1,1.52.94h0a1.34,1.34,0,0,1-.29,0,1.27,1.27,0,0,1-1.23-1Zm-25.5.26a1.26,1.26,0,1,1,.35.05,1.23,1.23,0,0,1-.35-.05Zm30.66-1.63a1.27,1.27,0,1,1,1.2.85,1.27,1.27,0,0,1-1.2-.85Zm-35.83-.17h0a1.26,1.26,0,1,1,.48.09,1.26,1.26,0,0,1-.48-.09Zm40.82-1.73a1.26,1.26,0,1,1,1.15.73,1.27,1.27,0,0,1-1.15-.73Zm-45.77-.59a1.27,1.27,0,1,1,.59.15,1.27,1.27,0,0,1-.59-.15Zm50.53-1.81a1.27,1.27,0,1,1,1.74.43,1.26,1.26,0,0,1-1.74-.43Zm-55.22-1a1.27,1.27,0,1,1,.71.22,1.27,1.27,0,0,1-.71-.22Zm59.71-1.87a1.26,1.26,0,1,1,1,.51,1.27,1.27,0,0,1-1-.51Zm-64.08-1.42a1.26,1.26,0,1,1,.81.3,1.25,1.25,0,0,1-.81-.3ZM145,102.54a1.27,1.27,0,1,1,1.79.07h0a1.27,1.27,0,0,1-1.79-.07Zm-72.27-1.81a1.26,1.26,0,1,1,.91.38,1.27,1.27,0,0,1-.91-.38Zm76.09-1.93a1.27,1.27,0,1,1,.84.32,1.27,1.27,0,0,1-.84-.32Zm-79.7-2.18h0a1.26,1.26,0,1,1,1,.48,1.27,1.27,0,0,1-1-.48Zm83.12-1.94a1.27,1.27,0,1,1,.73.24,1.26,1.26,0,0,1-.73-.24ZM65.95,92.17a1.27,1.27,0,1,1,1.75.39,1.26,1.26,0,0,1-1.75-.39Zm89.27-1.92a1.26,1.26,0,1,1,.62.17,1.27,1.27,0,0,1-.62-.17Zm-92-2.85a1.26,1.26,0,1,1,1.13.7,1.27,1.27,0,0,1-1.13-.7Zm94.47-1.88a1.26,1.26,0,1,1,.51.11,1.27,1.27,0,0,1-.51-.11ZM61.05,82.39a1.27,1.27,0,1,1,1.63.74,1.26,1.26,0,0,1-1.63-.74Zm98.67-1.82a1.27,1.27,0,0,1-.82-1.6h0a1.27,1.27,0,1,1,1.21,1.66,1.24,1.24,0,0,1-.38-.06ZM59.38,77.17a1.27,1.27,0,1,1,1.55.9,1.27,1.27,0,0,1-1.55-.9Zm101.82-1.74a1.27,1.27,0,0,1-1-1.5h0a1.27,1.27,0,1,1,1.24,1.53l-.26,0ZM58.27,71.8a1.27,1.27,0,1,1,1.44,1.06l-.2,0a1.27,1.27,0,0,1-1.25-1.07Zm103.88-1.64a1.25,1.25,0,1,1,.13,0h-.13ZM57.71,66.35A1.27,1.27,0,1,1,59,67.56H59a1.27,1.27,0,0,1-1.26-1.2Zm103.58-2.8s0,0,0-.05,0,0,0-.06a1.27,1.27,0,1,1,2.53,0s0,0,0,.06,0,0,0,.06h0a1.27,1.27,0,1,1-2.53,0ZM58.9,62.21a1.27,1.27,0,1,1,.06,0H58.9Zm102.1-4h0a1.27,1.27,0,1,1,1.39,1.13h-.13A1.27,1.27,0,0,1,161,58.23ZM59.31,56.88a1.27,1.27,0,1,1,.19,0h-.19Zm100.89-3.8h0a1.27,1.27,0,1,1,1.5,1l-.26,0a1.27,1.27,0,0,1-1.24-1ZM60.26,51.61a1.26,1.26,0,1,1,.32,0,1.23,1.23,0,0,1-.32,0ZM158.87,48a1.27,1.27,0,1,1,1.59.82,1.26,1.26,0,0,1-1.59-.82ZM61.75,46.47a1.27,1.27,0,1,1,.45.08,1.27,1.27,0,0,1-.45-.08ZM157,43.16a1.26,1.26,0,1,1,1.16.76,1.27,1.27,0,0,1-1.16-.76ZM63.76,41.52a1.26,1.26,0,1,1,.57.13,1.27,1.27,0,0,1-.57-.13Zm90.92-3a1.27,1.27,0,1,1,1.73.47,1.26,1.26,0,0,1-1.73-.47ZM66.28,36.8A1.27,1.27,0,0,1,65.89,35h0a1.27,1.27,0,1,1,.39,1.75Zm85.6-2.69a1.26,1.26,0,1,1,1,.53,1.27,1.27,0,0,1-1-.53ZM69.26,32.36a1.26,1.26,0,1,1,.78.27,1.27,1.27,0,0,1-.78-.27ZM148.64,30a1.27,1.27,0,1,1,1.79.11,1.27,1.27,0,0,1-1.79-.11Zm-76-1.77a1.27,1.27,0,1,1,1.79,0,1.26,1.26,0,0,1-1.79,0Zm72.32-2a1.26,1.26,0,1,1,.86.34,1.27,1.27,0,0,1-.86-.34ZM76.5,24.52a1.27,1.27,0,1,1,1.78.16,1.27,1.27,0,0,1-1.78-.16ZM141,23h0a1.27,1.27,0,0,1,1.52-2h0A1.27,1.27,0,1,1,141,23ZM80.68,21.19a1.26,1.26,0,1,1,1.05.56,1.27,1.27,0,0,1-1.05-.56Zm56-1.15h0a1.26,1.26,0,1,1,.65.18,1.26,1.26,0,0,1-.65-.18ZM85.18,18.32a1.27,1.27,0,1,1,1.71.52,1.25,1.25,0,0,1-.6.15,1.26,1.26,0,0,1-1.12-.67Zm46.9-.72a1.26,1.26,0,1,1,.53.12,1.27,1.27,0,0,1-.53-.12ZM90,15.92a1.27,1.27,0,1,1,1.65.7h0a1.25,1.25,0,0,1-.48.09A1.26,1.26,0,0,1,90,15.92Zm37.3-.28a1.27,1.27,0,1,1,.41.07,1.27,1.27,0,0,1-.41-.07ZM94.94,14a1.27,1.27,0,1,1,1.57.86,1.3,1.3,0,0,1-.36.05A1.27,1.27,0,0,1,94.94,14Zm27.31.16a1.26,1.26,0,1,1,.29,0,1.29,1.29,0,0,1-.29,0ZM100.1,12.67a1.27,1.27,0,1,1,1.47,1l-.23,0a1.27,1.27,0,0,1-1.24-1Zm17,.6a1.26,1.26,0,1,1,.16,0h-.16Zm-11.75-1.41A1.27,1.27,0,1,1,106.74,13h-.1a1.27,1.27,0,0,1-1.26-1.17Zm6.57,1a1.27,1.27,0,1,1,1.29-1.24,1.27,1.27,0,0,1-1.29,1.24Z"/><text></text><path class="cls-4" d="M135.4,73.76a32.67,32.67,0,0,1-2,6.19l-.26.59c-.44,1-.92,1.92-1.42,2.83q-.6,1.09-1.24,2.11c-.74,1.19-1.5,2.3-2.25,3.32l-.32.43c-.32.43-.64.84-1,1.23l-.61.76-.89,1-.56.63c-1.62,1.82-2.82,2.92-3,3.08h0l0,0v4.8H99.54V96h0c-.06-.05-.38-.35-.89-.85L98.46,95l-.39-.4-.93-1L96.62,93c-.9-1-1.94-2.24-3-3.66-.22-.28-.43-.57-.65-.88l-.65-.92-.65-1q-.49-.74-1-1.52c-.42-.69-.84-1.41-1.23-2.15-.27-.5-.53-1-.77-1.52-.5-1-1-2.09-1.37-3.18-.08-.2-.15-.41-.23-.62-2.19-6.18-2.68-13.3,1.2-20.39q.51-.94,1.13-1.87c.21-.31.42-.62.65-.93.37-.52.77-1,1.2-1.55l.26-.31q.39-.47.82-.93a37.45,37.45,0,0,1,3.16-3.06h0s-.45-8.19,2.66-14.81h0c.13-.28.27-.56.42-.83l.22-.4c.15-.27.31-.54.48-.8s.34-.52.52-.77.56-.74.86-1.09l.31-.34a12.69,12.69,0,0,1,9.7-4h.3a13.7,13.7,0,0,1,5.66,1.24,12.33,12.33,0,0,1,3.74,2.75l.35.39.28.33.12.14.22.28.06.08.28.4.26.39.31.49.2.34.1.17.12.21.1.18c0,.07.07.13.11.2l.05.11c.09.17.18.35.26.53,3.12,6.62,2.67,14.81,2.67,14.81h0a35.71,35.71,0,0,1,4.49,4.61,28.71,28.71,0,0,1,2,2.8l.38.62.18.31.34.63.32.62c.15.31.3.62.44.94s.27.62.39.94l.23.62A23.61,23.61,0,0,1,135.4,73.76Z"/><path class="cls-3" d="M125.89,48.55h0c-15.43,16.17-30.38,0-30.38,0h0s-.45-8.19,2.66-14.81h0c.13-.28.27-.56.42-.83l.22-.4c.15-.27.31-.54.48-.8s.34-.52.52-.77.56-.74.87-1.09l.31-.34a12.69,12.69,0,0,1,9.7-4h.3a12.61,12.61,0,0,1,9.4,4,15.65,15.65,0,0,1,2.4,3.4c.15.28.29.56.42.84C126.34,40.35,125.89,48.55,125.89,48.55Z"/><path class="cls-5" d="M102.7,96.54v3.82a1.12,1.12,0,0,1,0,.33l0,.06a1.08,1.08,0,0,1-.23.36,1,1,0,0,1-.71.31,1,1,0,0,1-.94-.67,1.09,1.09,0,0,1-.07-.39V96.54a1,1,0,0,1,1-1.06,1,1,0,0,1,1,.73A1.12,1.12,0,0,1,102.7,96.54Z"/><path class="cls-5" d="M104.62,96.54v3.82a1.12,1.12,0,0,1,0,.33l0,.06a1.08,1.08,0,0,1-.23.36,1,1,0,0,1-.71.31,1,1,0,0,1-.94-.67l0-.06a1.05,1.05,0,0,1-.05-.33V96.54a1.05,1.05,0,0,1,.05-.33,1,1,0,0,1,1.92,0A1.12,1.12,0,0,1,104.62,96.54Z"/><path class="cls-5" d="M106.54,96.54v3.82a1.09,1.09,0,0,1-.3.75,1,1,0,0,1-.71.31,1,1,0,0,1-.94-.67l0-.06a1.05,1.05,0,0,1-.05-.33V96.54a1.05,1.05,0,0,1,.05-.33,1,1,0,0,1,1-.73A1,1,0,0,1,106.54,96.54Z"/><path class="cls-5" d="M116.89,96.62v3.82a1.12,1.12,0,0,1,0,.33l0,.06a1.08,1.08,0,0,1-.23.36,1,1,0,0,1-.71.31,1,1,0,0,1-.94-.67,1.09,1.09,0,0,1-.07-.39V96.62a1,1,0,0,1,1-1.06,1,1,0,0,1,1,.73A1.12,1.12,0,0,1,116.89,96.62Z"/><path class="cls-5" d="M118.81,96.62v3.82a1.12,1.12,0,0,1,0,.33l0,.06a1.08,1.08,0,0,1-.23.36,1,1,0,0,1-.71.31,1,1,0,0,1-.94-.67l0-.06a1.05,1.05,0,0,1-.05-.33V96.62a1.05,1.05,0,0,1,.05-.33,1,1,0,0,1,1.92,0A1.12,1.12,0,0,1,118.81,96.62Z"/><path class="cls-5" d="M120.73,96.62v3.82a1.09,1.09,0,0,1-.3.75,1,1,0,0,1-.71.31,1,1,0,0,1-.94-.67l0-.06a1.05,1.05,0,0,1-.05-.33V96.62a1.05,1.05,0,0,1,.05-.33,1,1,0,0,1,1-.73A1,1,0,0,1,120.73,96.62Z"/><path class="cls-6" d="M122.8,32.89c-4.7,3.85-7.94,13.51-7.94,13.51l-4.16-.12-4.16.12s-3.24-9.66-7.94-13.5l.22-.4c.15-.27.31-.54.48-.8s.34-.52.52-.77.56-.74.87-1.09l.31-.34a12.69,12.69,0,0,1,9.7-4h.3a12.61,12.61,0,0,1,9.4,4A15.65,15.65,0,0,1,122.8,32.89Z"/><ellipse class="cls-7" cx="119.32" cy="37.8" rx="1.76" ry="3.09"/><ellipse class="cls-8" cx="119.32" cy="37.97" rx="1.39" ry="2.45"/><ellipse class="cls-7" cx="102.58" cy="37.78" rx="1.74" ry="3.05"/><ellipse cx="102.58" cy="37.94" rx="1.37" ry="2.42"/><ellipse class="cls-3" cx="101.92" cy="36.14" rx="0.37" ry="0.43"/><ellipse class="cls-3" cx="118.69" cy="36.14" rx="0.37" ry="0.43"/><path class="cls-9" d="M110.72,41a7.22,7.22,0,0,0-4.17,5.38l4.17,17.53,4.17-17.53A7.22,7.22,0,0,0,110.72,41Z"/><path class="cls-10" d="M102.69,100.8h-.08l0,0,0-.06,0,.06Z"/><path class="cls-10" d="M104.61,100.8h-.08l0,0,0-.06,0,.06Z"/><path class="cls-10" d="M110.77,25.5v75.3h-4.32a1,1,0,0,1-.21.32,1,1,0,0,1-.71.31,1,1,0,0,1-.92-.63l0,0,0-.06,0,.06,0,0a1.07,1.07,0,0,1-.21.32,1,1,0,0,1-.71.31,1,1,0,0,1-.92-.63l0,0,0-.06,0,.06,0,0a1,1,0,0,1-.21.32,1,1,0,0,1-.71.31,1,1,0,0,1-.92-.63H99.53V96h0c-.06-.05-.38-.35-.89-.86L98.46,95l-.39-.4-.93-1L96.62,93c-.9-1-1.94-2.24-3-3.66L93,88.48c-.22-.3-.43-.61-.65-.92l-.65-1c-.33-.49-.65-1-1-1.52-.42-.69-.84-1.41-1.23-2.15-.27-.5-.53-1-.77-1.52q-.75-1.54-1.37-3.18c-.08-.2-.16-.41-.23-.62-2.19-6.18-2.69-13.3,1.2-20.39q.51-.94,1.13-1.87.31-.47.65-.94.56-.78,1.2-1.55l.26-.31c.26-.31.53-.62.82-.93a37.72,37.72,0,0,1,3.16-3.06h0s-.45-8.19,2.66-14.81q.2-.42.42-.84l.22-.4c.15-.27.31-.54.47-.8s.34-.52.52-.77.56-.74.87-1.09l.31-.34a12.68,12.68,0,0,1,9.71-4Z"/><path class="cls-11" d="M0,76.23c.83.19,1.83.39,3,.58L4.09,77a57.23,57.23,0,0,0,6.17.47c2.32,0,6.24-.14,15.38-2.06,7.88-1.66,11.86-2.52,13.57-4,3-2.56,3.1-5.16,6.54-6.41,2-.73,3.88-.52,6.73,0,6.92,1.15,10.39,1.72,14.17,3,4.63,1.61,10.84,3.49,19.36,5.78a23.61,23.61,0,0,1,.74-13.12L87,60c.12-.31.25-.62.39-.94s.28-.62.44-.94l.32-.62.34-.63.18-.31L89,56a28.71,28.71,0,0,1,2-2.8,35.71,35.71,0,0,1,4.49-4.61h0a45.68,45.68,0,0,1-10.93.12,44.71,44.71,0,0,1-16.12-5,20.8,20.8,0,0,0-10.33-3.9c-4.53-.38-8.06.9-12.41,2.55a64.4,64.4,0,0,0-11.47,5.83C21.76,55.76,15.5,59.55,11.33,63.36L10.11,64.5a85.67,85.67,0,0,0-8,8.85v0L2,73.46l-.18.23-.05.07L1.63,74l-.3.4-.19.26C.66,75.28.28,75.83,0,76.23Z"/><path class="cls-12" d="M0,76.23c.83.19,1.83.39,3,.58C8.67,69.49,34.53,51,46,47.2a25.06,25.06,0,0,1,10.61-1.74c3.32.29,11,3.61,12.75,4.08A118.72,118.72,0,0,0,91,53.16a35.71,35.71,0,0,1,4.49-4.61h0a45.68,45.68,0,0,1-10.93.12,44.71,44.71,0,0,1-16.12-5,20.8,20.8,0,0,0-10.33-3.9c-4.53-.38-8.06.9-12.41,2.55a64.4,64.4,0,0,0-11.47,5.83C21.76,55.76,15.5,59.55,11.33,63.36L10.11,64.5a83.46,83.46,0,0,0-8,8.85v0L2,73.46l-.18.23-.05.07L1.63,74l-.3.4-.19.26C.66,75.28.28,75.83,0,76.23Z"/><path class="cls-11" d="M221.41,76.23c-.83.19-1.83.39-3,.58l-1.11.17a57.23,57.23,0,0,1-6.17.47c-2.32,0-6.24-.14-15.38-2.06-7.88-1.66-11.86-2.52-13.57-4-3-2.56-3.1-5.16-6.54-6.41-2-.73-3.88-.52-6.73,0-6.92,1.15-10.39,1.72-14.17,3-4.63,1.61-10.84,3.49-19.36,5.78a23.61,23.61,0,0,0-.74-13.12l-.23-.62c-.12-.31-.25-.62-.39-.94s-.28-.62-.44-.94l-.32-.62-.34-.63-.18-.31-.38-.62a28.71,28.71,0,0,0-2-2.8,35.71,35.71,0,0,0-4.49-4.61h0a45.68,45.68,0,0,0,10.93.12,44.71,44.71,0,0,0,16.12-5,20.8,20.8,0,0,1,10.33-3.9c4.53-.38,8.06.9,12.41,2.55a64.4,64.4,0,0,1,11.47,5.83c12.51,7.58,18.76,11.37,22.94,15.17l1.23,1.15a85.67,85.67,0,0,1,8,8.85v0l.07.09.18.23.05.07.16.21.3.4.19.26C220.75,75.28,221.14,75.83,221.41,76.23Z"/><path class="cls-12" d="M221.41,76.23c-.83.19-1.83.39-3,.58-5.69-7.32-31.55-25.83-43-29.6a25.06,25.06,0,0,0-10.61-1.74c-3.32.29-11,3.61-12.75,4.08a118.72,118.72,0,0,1-21.67,3.62,35.71,35.71,0,0,0-4.49-4.61h0a45.68,45.68,0,0,0,10.93.12,44.71,44.71,0,0,0,16.12-5,20.8,20.8,0,0,1,10.33-3.9c4.53-.38,8.06.9,12.41,2.55a64.4,64.4,0,0,1,11.47,5.83c12.51,7.58,18.76,11.37,22.94,15.17l1.23,1.15a83.46,83.46,0,0,1,8,8.85v0l.07.09.18.23.05.07.16.21.3.4.19.26C220.75,75.28,221.14,75.83,221.41,76.23Z"/></g></g></g></svg>