<svg xmlns="http://www.w3.org/2000/svg" viewBox="0 0 376.91 134.64"><defs><style>.cls-1{fill:#fff;}</style></defs><title>gent</title><g id="Layer_2" data-name="Layer 2"><g id="Layer_1-2" data-name="Layer 1"><path class="cls-1" d="M74.31,86.15c.74-.11,4.43-.69,7.54-1.46-1.16-5.85-2.46-6.14-8.32-5.11S66,81.34,65.91,84.12a23,23,0,0,0,.22,3.18,63.7,63.7,0,0,0,8.08-1.13Z"/><path class="cls-1" d="M34.18,97.79c4.59-.81,6.29-1.22,6.39-3.91a15.69,15.69,0,0,0-.32-3.1,35.4,35.4,0,0,0-1.42-5.41l-6.66,1.05c-3.24.57-5,1-5.75,2.09a3.18,3.18,0,0,0-.48,1.78,15.09,15.09,0,0,0,.3,3.1c1,5.61,1.91,5.45,7.93,4.39"/><path class="cls-1" d="M375,121.18a11.58,11.58,0,0,1-11.56,11.56H201.9a11.58,11.58,0,0,1-11.56-11.56V13.48A11.58,11.58,0,0,1,201.9,1.92H363.45A11.58,11.58,0,0,1,375,13.48ZM176.61,89.89A5.91,5.91,0,1,1,182.52,84a5.9,5.9,0,0,1-5.91,5.91M166.53,60.28a5.89,5.89,0,1,1,1.73,4.18,5.87,5.87,0,0,1-1.73-4.18m-1.25,31a29,29,0,0,1-7.19,2.34c-9.28,1.63-11.5-1.8-13-10.13L142.35,67.8,135.82,69l-1.36-7.7L141,60.11l-1.54-8.72,9.38-1.66s1.35,7.65,1.54,8.73l9.72-1.68,1.37,7.75-.62.11c-3.61.64-4.63.61-5,.39h0l-.12-.06-3.56-1.66c-.5-.23-.51-.23-.73-.19,0,0-.06,0-.07,0a.27.27,0,0,0,0,.1,1.3,1.3,0,0,0,0,.26h0s.33,2.05.33,2l3.06,17.34c.29,1.65.52,2.54,1,2.86s1.21.29,2.84,0a33.7,33.7,0,0,0,4.33-1.32L164,84l2.18,6.83Zm-42,8.18-1.16-6.56L126,91.33v-.07l-2.43-13.78c-1-5.66-1.8-6.19-7.78-5.14a48.86,48.86,0,0,0-7.32,2l3.43,19.42s0,.05,0,.07l4.15.14,1.16,6.56-17.47,3.08L98.63,97l3.93-1.55s0-.07,0-.07L99,75.22l0-.08L94.74,75l-1.16-6.56L105.3,66.4l.16.54c.62,2.06.8,2.63.85,2.83a.59.59,0,0,0,0-.08,1.84,1.84,0,0,0,.11.27l.15,0a2.43,2.43,0,0,0,1-.68l4.11-4.1.31-.08c.12,0,2.89-.81,4.21-1,5.8-1,9.33-.72,11.81,1s3.86,4.74,4.82,10.19L135.4,89.6l0,.08,4.15.13,1.16,6.55Zm-31,4A49.51,49.51,0,0,1,79,107.74c-11.81,2.08-19.17.34-21.83-14.72a30.54,30.54,0,0,1-.12-11.59h0c1.61-6.05,7.06-8.19,14.74-9.55,13.16-2.32,17.81.6,19.91,12.53.21,1.22.35,2.39.59,4.54,0,0,0,.21,0,.23l.09,1.08-4,.94c-2.35.58-5.56,1.39-9.13,2a49.55,49.55,0,0,1-7.67.9H71.4l-3.69-1.71c-.5-.23-.51-.23-.72-.19,0,0-.07,0-.08,0a.26.26,0,0,0,0,.1,1.3,1.3,0,0,0,0,.26L67.17,94a8.59,8.59,0,0,0,2.53,5.15c2.16,1.62,5.88,1,8.6.49A59.3,59.3,0,0,0,89,96.48l1.58-.58,2.6,7.07ZM39.41,128.65a90.94,90.94,0,0,1-14.5,1.3H23.78l0-.58s-.45-6.14-.44-6.07L23.07,122l1.64-.11a116.34,116.34,0,0,0,13.21-1.28,57.58,57.58,0,0,0,8.39-2c1.78-.69,1.91-1.11,1.67-2.48-.35-2-.6-2.05-2.44-1.95l-3.09.48-10.73,1.89c-3,.53-6.7,1.21-9.3-.6a6.64,6.64,0,0,1-2.6-4.52l-.08-.75-.12-1,3.25-4.83.07-.11-.13-.07h0C19,103.12,17.71,101,16.64,95a26.37,26.37,0,0,1-.48-5.32,8.82,8.82,0,0,1,1.53-5c2-2.75,5.78-4.38,13.2-5.61L52,75.53l1.18,6.72-8.84,2,.07.05,5,3.56.07.2.06.2.47,1.8c1.81,10.3-3.33,13.07-14.83,15.1a32.72,32.72,0,0,1-6.89.57,9.14,9.14,0,0,0,.12,1.26c.11.64.19,1,.36,1.12.49.34,2.5,0,4.34-.3l9.21-1.62c9.06-1.6,13.37-.79,15,8.26,1.49,8.45-2.33,11.51-17.8,14.24M363.45,0H201.9a13,13,0,0,0-6.76,1.83l-.29.17a13.64,13.64,0,0,0-1.16.82l-.47.38c-.3.26-.59.53-.87.82s-.37.39-.55.59-.44.53-.65.8-.36.5-.53.76-.33.53-.48.8-.32.6-.46.92-.23.53-.34.81-.24.69-.34,1.05-.15.53-.2.8-.15.81-.21,1.22c0,.24-.06.48-.08.72s-.05.36-.06.54A13.45,13.45,0,0,0,175,0H13.46A13.46,13.46,0,0,0,0,13.46v107.7a13.46,13.46,0,0,0,13.46,13.46H175a13.45,13.45,0,0,0,13.44-13,13.45,13.45,0,0,0,13.44,13H363.45a13.45,13.45,0,0,0,13.46-13.46V13.48A13.46,13.46,0,0,0,363.45,0"/><path class="cls-1" d="M324.68,60.36c-1,.17-1.56-.12-1.82-1.58l-1.09-6.18,3.69-.65-.67-3.81-3.69.65-1.05-6-3.69,2.74.7,4-2.58.46.67,3.81,2.58-.46L319,60.58c.48,2.69,2.43,4.34,4.92,3.9a5.46,5.46,0,0,0,3-1.49l-.14-4.2c-.85,1-1.34,1.45-2.08,1.57"/><path class="cls-1" d="M308.34,57.14c-2.88-.4-3.39-.58-3.51-1.22s.26-1.07,1.91-1.36a10.1,10.1,0,0,1,4.7.44l.72-3.42a12.46,12.46,0,0,0-5.95-.49c-3.6.64-5.91,2.46-5.35,5.65s3.11,3.74,7,4.2c1.79.2,2.4.45,2.53,1.15s-.26,1.25-1.84,1.53a10.89,10.89,0,0,1-5.58-.47l-.81,3.31a12.27,12.27,0,0,0,6.76.65c3.46-.61,6-2.36,5.42-5.91-.54-3.08-3.09-3.65-6-4.08"/><polygon class="cls-1" points="282.96 51.44 286.37 70.77 290.41 70.06 286.65 48.7 282.96 51.44"/><path class="cls-1" d="M214.11,79.74c-.76.13-2,.38-2.51.5.33-.54,1-1.66,1.52-2.53l4.25-7.6-.52-2.93-12.21,2.15.65,3.66,4.51-.8c.76-.13,2-.37,2.51-.5-.32.54-1.06,1.7-1.54,2.54l-4.42,7.64.52,2.93,12.71-2.24-.65-3.66Z"/><path class="cls-1" d="M336,58.81c-1.73.3-2.52-.55-2.71-1.64s.48-2.08,2-2.35a4.77,4.77,0,0,1,2.93.15l.34,1.93a3.36,3.36,0,0,1-2.56,1.9m-1.61-12.71a10.5,10.5,0,0,0-5.5,2.57L331,51.22a7.69,7.69,0,0,1,4-1.77A2,2,0,0,1,337.55,51l.13.76a6.48,6.48,0,0,0-3.07-.09c-3.49.62-5.94,2.8-5.34,6.2.66,3.72,3.84,5,6.71,4.47a5,5,0,0,0,3.22-2l.18,1,4-.71L341.61,50.4c-.61-3.46-3.47-4.95-7.19-4.29"/><path class="cls-1" d="M352.54,55.51c-1.58.28-2.87-.86-3.43-4-.45-2.58.16-4.07,1.71-4.35a3.26,3.26,0,0,1,3,.84l1,5.8a2.87,2.87,0,0,1-2.26,1.73m-.31-16.29.85,4.83a4.93,4.93,0,0,0-3.46-.63c-3.81.67-5.41,4.27-4.6,8.88,1,5.74,4.14,7.72,7.42,7.15a4.8,4.8,0,0,0,3-1.86l.17,1,4-.71-3.77-21.36Z"/><path class="cls-1" d="M228.33,77.32c-1.93.34-3.15-1.23-3.56-3.6s.18-4.29,2.11-4.63,3.19,1.28,3.6,3.62c.38,2.14-.21,4.27-2.15,4.61m-2.14-12.13c-4,.71-6.36,4.53-5.53,9.25S225,81.92,229,81.22s6.39-4.51,5.56-9.23-4.37-7.5-8.39-6.8"/><path class="cls-1" d="M244.46,69.64c-.17,1.27-.33,2.75-.37,3.54-.3-.7-1-2.09-1.56-3.2L239,63.27l-4.45.78,8.25,14.4,4.16-.73,2.83-16.35-4.33.76Z"/><path class="cls-1" d="M258.41,63.14a2.77,2.77,0,0,1,3.24,2.27l-5.27.93c-.12-1.58.57-2.94,2-3.2m2.12,8.6a3,3,0,0,1-3.68-2.34l9.2-1.62a12.49,12.49,0,0,0-.17-1.3c-.78-4.39-3.79-7.61-7.89-6.88-3.9.69-6.27,4.52-5.44,9.23s4.22,7.5,8.65,6.72a7.28,7.28,0,0,0,5.07-3.46L263,70.18a3.49,3.49,0,0,1-2.44,1.55"/><path class="cls-1" d="M274.17,60.36a2.77,2.77,0,0,1,3.24,2.27l-5.27.93c-.13-1.58.57-2.94,2-3.2m2.12,8.6a3,3,0,0,1-3.67-2.34l9.2-1.62a13,13,0,0,0-.17-1.3c-.77-4.39-3.79-7.61-7.89-6.88-3.9.69-6.27,4.52-5.44,9.24s4.22,7.5,8.65,6.72A7.29,7.29,0,0,0,282,69.3l-3.3-1.9A3.47,3.47,0,0,1,276.29,69"/></g></g></svg>