<svg xmlns="http://www.w3.org/2000/svg" viewBox="0 0 561.18 312.36"><defs><style>.cls-1{fill:#5c8ab7;}.cls-1,.cls-2{opacity:0.5;}.cls-2{fill:#537ca5;}.cls-3{fill:#668db5;opacity:0.4;}</style></defs><title>bal_rechts</title><g id="Layer_2" data-name="Layer 2"><g id="Layer_1-2" data-name="Layer 1"><path class="cls-1" d="M321.24,143.81c101,15.25,185.86,79.89,229.12,168.55h10.82V0A305.94,305.94,0,0,0,321.24,143.81Z"/><path class="cls-2" d="M275.18,305.36q0,3.51.08,7h275.1C507.1,223.7,422.27,159.06,321.24,143.81A304.68,304.68,0,0,0,275.18,305.36Z"/><path class="cls-3" d="M275.26,312.36q-.07-3.5-.08-7a304.68,304.68,0,0,1,46.06-161.55,308.07,308.07,0,0,0-46.06-3.45c-120.94,0-225.49,70.16-275.18,172Z"/></g></g></svg>