<svg xmlns="http://www.w3.org/2000/svg" viewBox="0 0 340.16 62.56"><defs><style>.cls-1{fill:#fff;}</style></defs><title>digipolis</title><g id="Layer_2" data-name="Layer 2"><g id="Layer_1-2" data-name="Layer 1"><path class="cls-1" d="M45.86,50.88H54.6c.4,0,.4-.22.4-.38V24.25c0-.4-.22-.4-.38-.4H45.86c-.16,0-.36,0-.38.38V50.51c0,.16,0,.36.38.38"/><path class="cls-1" d="M205.59,42.83H188.83V31.91h16.76Zm8.05-15.68a3.13,3.13,0,0,0-3.3-3.3H184.07a3.13,3.13,0,0,0-3.3,3.3V47.58a3.14,3.14,0,0,0,3.3,3.3h26.27a3.13,3.13,0,0,0,3.3-3.3Z"/><path class="cls-1" d="M113.48,50.88h8.74c.4,0,.4-.21.4-.38V24.25c0-.4-.22-.4-.38-.4h-8.76c-.16,0-.36,0-.38.38V50.51c0,.16,0,.36.38.38"/><path class="cls-1" d="M248.77,50.88h8.74c.4,0,.4-.21.4-.38V24.25c0-.4-.22-.4-.38-.4h-8.76c-.16,0-.36,0-.38.38V50.51c0,.16,0,.36.38.38"/><path class="cls-1" d="M300.4,33V24.25c0-.4-.22-.4-.38-.4H282.51a3.14,3.14,0,0,0-3.3,3.3V41.37h-11.3c-.16,0-.36,0-.38.38v8.74c0,.4.21.4.38.4h17.51a3.13,3.13,0,0,0,3.3-3.3V33.37H300c.16,0,.36,0,.38-.4"/><path class="cls-1" d="M168.16,27.16a3.13,3.13,0,0,0-3.3-3.3H135.67c-.16,0-.36,0-.38.38V33c0,.4.22.4.38.4h23v8H138.59a3.13,3.13,0,0,0-3.29,3.3v17.5c0,.4.22.4.38.4h8.76c.17,0,.36,0,.38-.38V50.88h20.05a3.14,3.14,0,0,0,3.3-3.3Z"/><path class="cls-1" d="M226.64,50.88h8.73c.4,0,.4-.21.4-.38V12.57c0-.4-.21-.4-.38-.4h-8.75c-.16,0-.36,0-.38.38v38c0,.16,0,.36.38.38"/><path class="cls-1" d="M91.35,62.56h8.76c.16,0,.36,0,.38-.38V44.67a3.14,3.14,0,0,0-3.3-3.31H77.13v-8h23c.16,0,.36,0,.38-.38V24.25c0-.4-.22-.4-.38-.4H70.91a3.13,3.13,0,0,0-3.3,3.3V47.58a3.14,3.14,0,0,0,3.3,3.3H91V62.16c0,.4.21.4.38.4"/><path class="cls-1" d="M0,47.58a3.13,3.13,0,0,0,3.29,3.3h29.2c.16,0,.36,0,.38-.38V41.77c0-.4-.22-.4-.38-.4h-23v-8H29.57a3.14,3.14,0,0,0,3.3-3.3V12.57c0-.39-.22-.39-.38-.39H23.73c-.16,0-.36,0-.38.38v11.3H3.29A3.13,3.13,0,0,0,0,27.15Z"/><path class="cls-1" d="M323.65,4.06A12.45,12.45,0,1,0,336.1,16.51,12.45,12.45,0,0,0,323.65,4.06m16.51,12.45A16.51,16.51,0,1,1,323.65,0a16.51,16.51,0,0,1,16.51,16.51"/><path class="cls-1" d="M315.95,22.51A1.45,1.45,0,0,0,317.46,24H330c.07,0,.25,0,.26-.26V20c0-.26-.19-.26-.26-.26h-9.76V16.5h8.51A1.45,1.45,0,0,0,330.23,15V8c0-.26-.19-.26-.26-.26h-3.76c-.07,0-.25,0-.26.26v4.2h-8.51a1.45,1.45,0,0,0-1.51,1.51Z"/></g></g></svg>