<svg xmlns="http://www.w3.org/2000/svg" viewBox="0 0 226.77 186.96"><defs><style>.cls-1{fill:#fff;}</style></defs><title>open</title><g id="Layer_2" data-name="Layer 2"><g id="Layer_1-2" data-name="Layer 1"><path class="cls-1" d="M188.72,60.31a8.61,8.61,0,0,1-4.09-1.37C177,47.56,168.87,36.46,160.76,25.29c-.92.85-.5,1.8-.5,2.62,0,9.75-.09,19.5,0,29.24,0,2.16-.6,2.8-2.67,2.59-2.67-.28-6.19,1.09-7.83-.52s-.48-5.14-.49-7.82c0-15.88,0-31.76-.07-47.63,0-2.3.53-2.9,2.92-3.08,4-.3,6.49,1,8.82,4.42,7,10.39,14.42,20.48,21.79,30.83.78-1,.48-1.89.48-2.71,0-9.85.07-19.7,0-29.54,0-2,.56-2.71,2.54-2.49,2.76.3,6.33-1.18,8.08.61s.46,5.17.47,7.86c0,15.48,0,31,0,46.43,0,4,0,4-4.1,4.13-.5,0-1,.06-1.5.1"/><path class="cls-1" d="M105.65,30.49c0-8.94.05-17.88,0-26.82,0-2,.54-2.54,2.54-2.52q14.91.16,29.83,0c2,0,2.69.55,2.48,2.53-.26,2.47,1,5.69-.47,7.26s-4.75.43-7.22.48c-4.42.09-8.84.1-13.26,0-1.68,0-2.31.42-2.23,2.17.13,3.11.12,6.23,0,9.34-.06,1.61.52,2,2.07,2,5.52-.08,11,0,16.57-.07,1.91,0,2.75.43,2.54,2.51a30.85,30.85,0,0,0,0,5.72c.17,2-.65,2.34-2.42,2.31-5.52-.1-11,0-16.57-.07-1.71,0-2.26.45-2.19,2.18.13,3.31.12,6.63,0,9.94-.06,1.6.45,2,2,2,6.43-.08,12.86,0,19.28-.08,1.82,0,2.57.39,2.37,2.31-.27,2.57,1.05,5.89-.52,7.54s-4.75.41-7.23.42c-8,.06-16.08-.14-24.1.1-3.06.1-3.59-.9-3.52-3.69.19-8.53.07-17.07.07-25.61"/><path class="cls-1" d="M72.79,183.15c-21.9,0-43.8-.1-65.7.1-3.58,0-3.09-1.79-3.2-4-.12-2.47.22-3.65,3.29-3.64,43.5.12,87,.08,130.49.11,1.22,0,3.17-.7,3.53.65a14.83,14.83,0,0,1,0,6.25c-.19,1-1.77.53-2.72.53q-32.85,0-65.7,0"/><path class="cls-1" d="M172.75,122.66c8.15.32,16.29.17,24.43,0,1.17,2.46.29,5.07.51,7.6a5.34,5.34,0,0,1-4.58.73c-3.74-.78-7.52-.33-11.26-.65-1.25,2.67-.38,5.5-.56,8.25-.1,1.42,1.13,1.1,2,1.11,3.51,0,7,.1,10.54,0,1.88-.07,2.61.35,2.59,2.44-.07,5.43,0,5.43-5.3,5.43-2.71,0-5.42.06-8.13,0-1.3,0-1.89.38-1.71,1.7a3.78,3.78,0,0,1,0,.6c-.16,7.37-.16,7.37,7.21,7.37,2.61,0,5.22.07,7.83,0,1.45-.05,1.83.48,1.89,1.9.26,6,.31,6-5.66,6s-12,0-18.07,0c-1.39,0-2.19-.11-2.18-1.88.07-13.05,0-26.1.06-39.15a4.91,4.91,0,0,1,.43-1.37"/><path class="cls-1" d="M61,143.88c.24-3,.28-5.91,1.13-8.73,2.91-9.64,11.33-14.68,22.12-13.21.3,0,.59.12.89.16,5.88.93,6.52,2.22,4.12,7.78-.51,1.17-1,.79-1.82.61-11.88-2.73-17.61,2.09-17.12,14.37.28,7.12,3.12,11.51,8.4,12.74a13.14,13.14,0,0,0,9.11-.95c1.44-.73,1.76-.34,2.17,1,1.77,5.88,1.45,6.48-4.52,7.65C71.37,168.1,62,160.68,61.22,146.19c0-.8-.13-1.6-.19-2.3"/><path class="cls-1" d="M181.85,130.35l15.84-.08a15.53,15.53,0,0,0,12.44,2c8.41-2.16,11.87-13.17,6.13-20.28-2.07-2.57-1.48-3.81.26-5.83,3.17-3.66,3.37-3.8,6.31.27,4.5,6.22,5.13,13,2,19.94s-8.94,10.35-16.4,10.94c-5.58.44-10.93-.75-15.33-4.24a11,11,0,0,0-8.27-2.51,20.42,20.42,0,0,1-3-.18"/><path class="cls-1" d="M25.6,167.56c-6.42,0-12.84,0-19.26,0-1.64,0-2.49-.12-2.47-2.19,0-5.39-.08-5.39,5.33-5.39,11.84,0,23.67,0,35.51,0,2.1,0,3,.3,2.92,2.73-.18,4.86,0,4.86-4.88,4.86Z"/><path class="cls-1" d="M29.87,141.08c0-4.11.07-8.23,0-12.34,0-1.63.32-2.28,2.11-2.23,4.61.13,9.23.16,13.84,0,2.34-.09,2.18,1.33,1.93,2.66s1.38,3.76-1.8,3.73c-2.31,0-4.63.15-6.92,0s-2.27,1.06-2.34,2.74c-.08,1.89.38,2.77,2.46,2.56,1.69-.17,3.43.13,5.11-.07,2.34-.29,2.68.67,2.84,2.83.24,3.23-.9,3.93-3.94,3.82-6.41-.24-6.42-.07-6.42,6.23v.6c0,4.18-1.61,5.31-5.8,4.27-1.4-.35-1-1.3-1-2.1,0-4.21,0-8.43,0-12.64"/><path class="cls-1" d="M156.18,184c1.35.07,2.43.1,3.51.18s1.07.71,1,1.49-.37,1.11-1.1,1.11c-2.31,0-4.62.14-6.92,0-1.85-.13-1.37-1.33-.64-2.3,1.37-1.85,2.9-3.58,4.2-5.47.92-1.33,1.68-3,.66-4.49-.9-1.32-2.35-.71-3.55-.13s-1.16-.45-1.45-1c-.5-.89.25-1.27.88-1.55,2.11-1,4.33-1.31,6.25.23s1.46,3.6.87,5.57c-.69,2.31-2.46,4.06-3.77,6.35"/><path class="cls-1" d="M179.51,175.56c-.52.27-1.06.51-1.56.82-.66.41-1.09.18-1.51-.37s-.46-1.07.17-1.5a2.73,2.73,0,0,1,.23-.19c1.79-.94,3-3.85,5.15-2.86,1.48.67.41,3.26.54,5s0,3.2,0,4.8c0,1.41-.5,3.18,2,2.92,1-.1,1,.77,1,1.48,0,1-.57,1.14-1.36,1.13-1.8,0-3.61,0-5.41,0-.9,0-2.13.43-2.19-1.23s1.09-1.36,2.06-1.45a4.74,4.74,0,0,0,.85-.24,21,21,0,0,0,0-8.28"/><path class="cls-1" d="M194.27,174.2c-1.87,0-3.37,0-4.86,0-1.06,0-1.37-.48-1.35-1.46s.35-1.52,1.39-1.47h.3c10.56.19,9.17-1.54,5.6,7.34-.86,2.13-1.85,4.21-2.62,6.36-.54,1.5-1.55,2.32-2.91,1.68s0-1.74.27-2.48c1.25-3.25,2.68-6.42,4.19-10"/><path class="cls-1" d="M179.51,175.56a13.52,13.52,0,0,1,0,8.28q0-4.14,0-8.28"/><path class="cls-1" d="M165.78,77.63c.81-1,1.9-2.15,3.29-1.49s1.08,2.32.78,3.51c-1.24,4.91-4.37,8.33-9.25,11.09,1-5.27,2.19-9.57,5.18-13.11m28.11,45c-2.59.4-3.72-.75-4.39-3.17-1.57-5.73-2-11.39.11-17.08,1-2.62,1.76-5.32,2.89-7.87,2.93-6.61,1.71-12.29-3.59-17.1a3,3,0,0,1-1-3.63,50.78,50.78,0,0,0,1.82-10.62c.1-1.07.41-2.24-1-2.8a4.54,4.54,0,0,0-4.09-1.37c-1,.06-1.82.15-2.16,1.51-1.38,5.41-2.5,10.78-.37,16.26a2.68,2.68,0,0,1,.27,1.44c-1.94,8.21-3.91,16.45-9.41,23.19-2.17,2.65-5,4.76-8.62,3.52s-3.54-4.71-4-7.78c-.31-1.91.23-2.68,2.27-3.27,7.08-2,11.89-6.52,13.4-14,.65-3.19.41-6.38-2.55-8.41s-5.95-1.43-8.85.08a14.63,14.63,0,0,0-3.16,2.27c-4.14,3.83-6.26,8.82-7.55,14.13a62.34,62.34,0,0,1-5.37,13.35,19.24,19.24,0,0,1-2.4,3.44,2.13,2.13,0,0,1-2.34,1c-1.08-.34-1.21-1.29-1.23-2.19a21.54,21.54,0,0,1,.16-3.3c.55-4.2,2.1-8.14,3.28-12.18s2.44-8.08,2.19-12.38c-.23-4-2.67-6-6.64-5.34A10.11,10.11,0,0,0,136,73.17c-1.34,1.29-2.53,2.72-3.92,4.24-.43-6-2.66-8.16-7-7C123,71,121.48,72.52,120,74c-.66.66-.93,1.85-2.3,1.79.26-1.18.49-2.32.75-3.46.21-.88-.07-1.16-1-1.31-5.33-.89-6.53-.11-7.46,5-.16.89-.31,1.78-.43,2.67-1.14,8.5-2.89,16.81-7.77,24.1-.93,1.38-1.84,3.38-3.8,2.74s-1.23-2.75-1.12-4.26c.39-5.26,2.55-10.08,3.93-15.1,1-3.59,1.92-7.18,1.6-11s-2.65-5.55-6.35-5a10.72,10.72,0,0,0-6.24,3.38c-1.15,1.18-2.19,2.47-3.36,3.8-.55-5.7-2-7.52-5.7-7.24S75,73.52,72.06,76.29a19.16,19.16,0,0,1,.45-2.83c.77-2.16-.23-2.45-2.13-2.44-5.27,0-5.27,0-6.17,5.41-.16,1-.37,2-.5,3-1,8.12-2.88,16-7.36,23-1,1.49-1.94,3.71-3.9,3.24-2.28-.55-1.47-3-1.38-4.7.45-8.46,2.71-16.61,4.52-24.83,1.12-5.12,1.19-5-4.15-5.11-2,0-2.79.62-3.15,2.52-1,5.21-2.25,10.38-3.3,15.59-1,5-2.15,10-4.66,14.54-.52.95-1.06,2.29-2.32,2s-1.5-1.78-1.38-3c.25-2.59.45-5.2.94-7.76C39.07,87,40.7,79.17,42.33,71.07a38.77,38.77,0,0,1-4.59,0c-2.32-.28-3.31.48-3.79,2.9C32.56,81,30.84,88,29.78,95.18c-.19,1.29.11,2.9-1.44,3.85-.68-6.92-3.67-12.92-7-18.78a10.51,10.51,0,0,1-1.06-9.18c1.14-3.3,1.78-6.78,2.64-10.18-.83-2.7-4.71-3.54-7.74-1.68-1,5.91-2.33,11.82-.91,17.84a9,9,0,0,1-.68,5.79C10,91.62,6.16,100.34,2.06,108.93c-.44.92-1.69,2,.28,2.87s1.88-.8,2.41-1.68c.68-1.11,1.25-2.28,1.87-3.43,3.17-7.1,6.54-14.1,9.33-22.12,2.22,5.87,4.52,11,4.36,16.87,0,1.59-.51,3.06-2,3.74A3.34,3.34,0,0,1,14,104c-.82-1.12-1.54-1.05-2.42-.24-1.31,1.2-3.18,1.74-4.05,3.45a9.32,9.32,0,0,0,7.6,5.65c6.81.89,10.71-3.18,14-8.73.74,3.72,1.08,7.19,5,8.13,5.13,1.24,7.17-2.76,9.61-6.37.74,3.56,2.08,6.3,5.87,6.62,3.53.3,5.78-2,8.06-4.65-.07,4.18-.07,4.18,3.87,4.18a11.29,11.29,0,0,1,1.51,0c1.7.23,2.46-.32,2.72-2.18.58-4.07,1.45-8.1,2.28-12.12,1.25-6.09,2.44-12.23,5.8-17.61.81-1.29,1.76-3.23,3.63-2.41,1.55.68.74,2.52.49,3.83-1.53,8.18-3.07,16.37-4.74,24.52-1.26,6.16-1.35,6.07,4.89,6,1.81,0,2.37-.64,2.67-2.34.86-4.84,1.89-9.65,2.92-14.46,1.25-5.8,2.7-11.55,6.34-16.42.83-1.11,1.87-2.49,3.44-1.87,1.78.69,1,2.42.78,3.71-.78,4.36-2.5,8.45-3.68,12.69s-2.48,8.53-1.72,13c1,6.09,6.37,8,11.15,4.11a37,37,0,0,0,3.5-3.93c-.12,5.46-.12,5.46,4.46,5.45a5.56,5.56,0,0,1,.9,0c1.82.3,2.34-.57,2.63-2.29.86-5.14,1.86-10.26,3-15.36,1.14-5.3,2.48-10.57,5.65-15.11.69-1,1.61-2.15,2.92-1.7,1.49.52,1,2,.78,3.16-.8,4.65-1.6,9.29-2.51,13.92-1.13,5.74-2.36,11.45-3.59,17.38h2.21c6,0,6,0,7.32-5.82,1.7-7.41,2.43-15.08,5.54-22.14a17.92,17.92,0,0,1,4-6.31c.75-.69,1.65-1.3,2.7-.69a2.06,2.06,0,0,1,.7,2.44c-.54,2.45-1,4.92-1.8,7.3-1.6,5-3.32,9.9-3.9,15.13s.88,8.94,4,10.15c3.43,1.34,7.28-.43,10.3-4.91,1.37-2,2.51-4.22,3.84-6.48.6,2.06,1,3.9,1.66,5.63,2.06,5.15,6.42,7.44,11.85,6.35,3.46-.69,5.91-2.85,7.93-5.58,3.7-5,5.7-10.78,8-16.46,1-2.46,1.56-5.12,3.16-7.55a10.52,10.52,0,0,1,.79,9.42c-.85,2.14-1.75,4.27-2.61,6.4-2.15,5.31-3.36,10.75-1.9,16.45.59,2.31,1.41,4.56,2.26,7.25h-11c.73,1.29,2,1.17,3.19,1.19q9,.11,18,0c1.16,0,2.46.1,3.2-1.18a17.82,17.82,0,0,0-3.28-.08"/><path class="cls-1" d="M35.44,43.81c-1.67,4.41-5.25,6.65-10.1,6.77S17.1,48.34,15,44.17c-2.24-4.4-2.67-9.2-2.61-14.07.05-4.54.37-9,2.39-13.21a10.8,10.8,0,0,1,10.31-6.56,10.17,10.17,0,0,1,10,6.49,35.45,35.45,0,0,1,.37,27m12-28.51C43.93,5.12,36,0,24.78,0,13.87,0,5.76,5.41,2.46,15.46a46.56,46.56,0,0,0,.39,31C5,52.46,9,57,15.19,59.21c2.76-.28,5.52-.5,7.75,1.68,13.21.19,21.15-4.64,24.77-15.73a45.76,45.76,0,0,0-.23-29.86"/><path class="cls-1" d="M78.15,29.55a13.43,13.43,0,0,1-3.77.4c-4.92,0-4.92,0-4.92-4.32,0-4.11.14-8.24-.06-12.34-.1-2.16.77-2.75,2.67-2.83a29.52,29.52,0,0,1,6,.17c5.59.87,8.47,3.87,8.51,9.06,0,5.66-2.72,8.89-8.41,9.86M83.54,1.18c-7.8-1.35-15.6-.84-23.4.19-1.88.25-2.4,1-2.37,2.85.1,8.74,0,17.48,0,26.23,0,6.73,0,13.47,0,20.2,0,2.89-1,6.76.5,8.43,1.7,1.94,5.67.32,8.63.66C69.22,60,69.57,59,69.52,57c-.12-4.82.07-9.65-.09-14.47-.07-2.21.37-3,2.78-2.66a32.39,32.39,0,0,0,11.66-.77C93.72,36.76,99,29.36,98.72,18.32c-.23-9-6-15.55-15.18-17.14"/><path class="cls-1" d="M157.37,148.79c-1.47,6.47-6.27,9.8-12.84,9-1.62-.2-1.94-.85-1.91-2.31.08-3.92,0-7.84,0-11.76s0-7.84,0-11.76c0-1.37.3-1.81,1.8-2,8.06-.82,12.89,3.16,13.39,11.29a26.2,26.2,0,0,1-.45,7.49m9.31-10.9c-1.46-8.62-6.18-13.67-14.37-15.31-5.67-1.13-11.4-.36-17.11-.14-1.71.07-1.5,1.23-1.5,2.34q0,9.49,0,19c0,6.43,0,12.85,0,19.28,0,1.39.15,2.2,1.89,2.21,3.81,0,7.62.43,11.42.39,10.4-.12,17.4-6,19.53-16.08a31.08,31.08,0,0,0,.15-11.65"/><path class="cls-1" d="M118,152.62c-1.25,3.17-3.49,5.1-7,5.28a7.18,7.18,0,0,1-7.6-4.77,25,25,0,0,1-.21-18.52,7.3,7.3,0,0,1,7.25-4.93c3.37,0,5.66,1.67,7.09,4.67a21.84,21.84,0,0,1,1.76,9.08c0,3.52-.21,6.43-1.3,9.18m8.36-20.94c-2.81-6.49-8.51-10-16.1-9.93S97,125.39,94.51,132.1a32.89,32.89,0,0,0,.05,23.55c2.52,6.74,8.14,10.16,15.84,10.19s13.24-3.48,16-10c1.64-3.86,2-8,2.11-12-.14-4.23-.5-8.32-2.17-12.17"/><path class="cls-1" d="M18.89,146.68a4.4,4.4,0,0,1-4.3,3.19,4.46,4.46,0,0,1-4.37-3.08,13.31,13.31,0,0,1-.85-5.89,12,12,0,0,1,.72-5.31c.81-1.87,2-3.12,4.29-3.13a4.27,4.27,0,0,1,4.33,3.05,16.29,16.29,0,0,1,.17,11.17m8-8.83c-.78-7-4.92-11.47-11-11.88-7.11-.49-11.86,2.89-13.4,9.74a24.6,24.6,0,0,0,0,10.75c1.46,6.64,5.58,9.8,12.44,9.74,6.26,0,10.22-3.42,11.6-10,.35-1.66.44-3.37.58-4.48-.08-1.69-.08-2.8-.2-3.89"/><path class="cls-1" d="M168.41,184.23c-2.75-.06-2-3.14-2.22-5.13a11.12,11.12,0,0,1,.11-2.7c.21-1.3.52-2.79,2.21-2.72s1.93,1.52,2.1,2.85c.11.89.13,1.8.19,2.77-.33,1.89.45,5-2.39,4.94m5.05-8.95c-.5-2.37-1.78-4-4.41-4.18a4.76,4.76,0,0,0-5.31,3.44,16.89,16.89,0,0,0-.62,5,24.32,24.32,0,0,0,.44,3.32c.65,2.61,2.22,4.22,5.12,4.09s4.24-1.9,4.82-4.5a16.93,16.93,0,0,0,0-7.17"/></g></g></svg>