<?xml version="1.0" ?><svg enable-background="new 0 0 32 32" version="1.1" viewBox="0 0 32 32" xml:space="preserve" xmlns="http://www.w3.org/2000/svg" xmlns:xlink="http://www.w3.org/1999/xlink"><g id="Flat_copy"><g><path d="M16-0.005c-8.837,0-16,7.163-16,16c0,8.836,7.163,16,16,16s16-7.164,16-16C32,7.158,24.837-0.005,16-0.005    z" fill="#333333"/></g><g><path d="M15.997,15.202c0-0.001,6.331,0.009,7.082,0.76c0.754,0.752,0.763,4.462,0.763,4.483    c0,0-0.006,3.73-0.763,4.484c-0.752,0.749-7.082,0.766-7.082,0.766s-6.33-0.016-7.083-0.766c-0.754-0.752-0.755-4.456-0.755-4.484    c0-0.021,0.002-3.731,0.755-4.483C9.667,15.212,15.997,15.202,15.997,15.202z" fill="#FFFFFF"/><path d="M22.491,21.325v-1.186c0-0.441-0.112-0.779-0.336-1.014c-0.225-0.235-0.547-0.353-0.966-0.353    c-0.41,0-0.743,0.127-1.002,0.381c-0.258,0.254-0.389,0.584-0.389,0.986v2.089c0,0.449,0.12,0.801,0.354,1.055    c0.235,0.256,0.559,0.383,0.968,0.383c0.455,0,0.798-0.12,1.026-0.36c0.231-0.243,0.344-0.602,0.344-1.079v-0.239H21.55V22.2    c0,0.275-0.032,0.451-0.092,0.531c-0.06,0.08-0.166,0.12-0.318,0.12c-0.146,0-0.248-0.046-0.31-0.141    c-0.059-0.095-0.089-0.265-0.089-0.51v-0.875H22.491z M20.741,20.599v-0.47c0-0.195,0.031-0.335,0.094-0.417    c0.064-0.087,0.169-0.128,0.314-0.128c0.139,0,0.242,0.041,0.303,0.128c0.064,0.082,0.097,0.222,0.097,0.417v0.47H20.741z" fill="#333333"/><path d="M19.09,19.126c-0.152-0.197-0.373-0.296-0.663-0.296c-0.142,0-0.282,0.036-0.422,0.111    c-0.138,0.073-0.268,0.182-0.392,0.323v-2.031h-0.924v6.306h0.924v-0.357c0.119,0.144,0.251,0.247,0.391,0.315    c0.139,0.068,0.298,0.101,0.478,0.101c0.271,0,0.48-0.086,0.622-0.263c0.144-0.176,0.215-0.428,0.215-0.757v-2.582    C19.319,19.615,19.244,19.324,19.09,19.126z M18.378,22.449c0,0.15-0.028,0.255-0.08,0.32c-0.052,0.067-0.134,0.099-0.246,0.099    c-0.078,0-0.15-0.017-0.221-0.05c-0.071-0.032-0.144-0.09-0.218-0.164v-2.899c0.062-0.064,0.125-0.112,0.189-0.142    c0.063-0.031,0.128-0.045,0.194-0.045c0.123,0,0.219,0.04,0.285,0.121c0.064,0.081,0.097,0.201,0.097,0.357V22.449z" fill="#333333"/><path d="M15.087,23.538v-0.511c-0.17,0.189-0.345,0.333-0.529,0.431c-0.183,0.1-0.36,0.148-0.531,0.148    c-0.212,0-0.369-0.068-0.478-0.208c-0.105-0.139-0.16-0.345-0.16-0.623v-3.89h0.914v3.568c0,0.111,0.019,0.19,0.056,0.24    c0.04,0.05,0.103,0.074,0.188,0.074c0.067,0,0.153-0.032,0.256-0.099c0.103-0.066,0.197-0.148,0.284-0.249v-3.534H16v4.653    L15.087,23.538L15.087,23.538z" fill="#333333"/><polygon fill="#333333" points="11.921,18.149 11.921,23.538 10.889,23.538 10.889,18.149 9.823,18.149 9.823,17.233     12.987,17.233 12.987,18.149   "/><path d="M21.146,13.251h-1.03v-0.566c-0.188,0.208-0.386,0.368-0.592,0.476c-0.205,0.109-0.404,0.164-0.597,0.164    c-0.24,0-0.418-0.077-0.538-0.229c-0.12-0.153-0.181-0.381-0.181-0.687V8.126h1.028v3.929c0,0.121,0.024,0.209,0.067,0.263    c0.042,0.055,0.113,0.082,0.209,0.082c0.075,0,0.171-0.036,0.287-0.108c0.115-0.072,0.222-0.164,0.317-0.276v-3.89h1.03    L21.146,13.251L21.146,13.251z" fill="#FFFFFF"/><path d="M16.965,8.369c-0.273-0.248-0.623-0.373-1.049-0.373c-0.467,0-0.841,0.118-1.117,0.353    c-0.278,0.235-0.417,0.551-0.416,0.949v2.656c0,0.436,0.136,0.782,0.405,1.04c0.271,0.257,0.632,0.386,1.082,0.386    c0.469,0,0.835-0.125,1.104-0.374c0.266-0.25,0.399-0.593,0.399-1.031V9.327C17.372,8.937,17.236,8.617,16.965,8.369z     M16.323,12.052c0,0.136-0.041,0.244-0.123,0.324c-0.083,0.078-0.193,0.117-0.332,0.117c-0.137,0-0.242-0.038-0.314-0.115    c-0.073-0.078-0.111-0.186-0.111-0.326V9.26c0-0.112,0.04-0.203,0.118-0.272c0.079-0.069,0.181-0.103,0.307-0.103    c0.135,0,0.245,0.034,0.329,0.103c0.084,0.069,0.126,0.16,0.126,0.272V12.052z" fill="#FFFFFF"/><polygon fill="#FFFFFF" points="11.578,6.305 10.41,6.305 11.79,10.499 11.79,13.251 12.95,13.251 12.95,10.369 14.299,6.305     13.12,6.305 12.404,9.081 12.331,9.081   "/></g></g></svg>