<svg xmlns="http://www.w3.org/2000/svg" viewBox="0 0 275.25 417.38"><defs><style>.cls-1{isolation:isolate;}.cls-2{fill:#50543f;}.cls-3{fill:#936464;}.cls-4{fill:#2d1c1a;}.cls-5{fill:#2a1a18;}.cls-6{fill:#99413a;}.cls-7{fill:#fff;}.cls-8{fill:#cbceb9;}.cls-9{fill:#43472e;}.cls-10{fill:#a07070;}.cls-11{fill:#daddc7;}.cls-12{fill:#4a4e3b;}.cls-13{fill:#525252;mix-blend-mode:multiply;}.cls-13,.cls-46{opacity:0.1;}.cls-14{fill:#956868;}.cls-15{fill:#7c595a;}.cls-16{fill:#a37474;}.cls-17{fill:#ededed;}.cls-18{fill:#8e3c36;}.cls-19{fill:#3f2206;}.cls-20{fill:#3e422b;}.cls-21{fill:#504e5d;}.cls-22{fill:#080d21;}.cls-23{fill:#eaeaea;}.cls-24,.cls-46{fill:#dcdcdc;}.cls-25{fill:#424454;}.cls-26{fill:#bbb;}.cls-27{fill:#272e3a;}.cls-28{fill:#acb4c8;}.cls-29{fill:#52535c;}.cls-30{fill:#262a39;}.cls-31{fill:#1f242f;}.cls-32{fill:#3e4255;}.cls-33{fill:#0b1226;}.cls-34{fill:#747385;}.cls-35{fill:#8d8b97;}.cls-36{fill:#ee52ba;}.cls-37{fill:#fdc551;}.cls-38{fill:#dc3e3a;}.cls-39{fill:#3e85dc;}.cls-40{fill:#fbf856;}.cls-41{fill:#b3d34d;}.cls-42{fill:#e7e8f1;}.cls-43{fill:#6e7282;}.cls-44,.cls-45{fill:#f9f9f9;}.cls-44{opacity:0.6;}.cls-45{opacity:0.2;}.cls-47{fill:#895d5d;}.cls-48{fill:#775757;}</style></defs><title>Bert_new_3</title><g class="cls-1"><g id="Layer_2" data-name="Layer 2"><g id="Layer_1-2" data-name="Layer 1"><path class="cls-2" d="M142.51,203.77h0Z"/><path class="cls-2" d="M142.47,203.76h-.33v-.13C142.26,203.66,142.35,203.71,142.47,203.76Z"/><path class="cls-2" d="M142.47,203.76l-.33.18v-.19Z"/><polygon class="cls-3" points="121.28 199.89 121.27 199.94 121.22 199.94 121.22 199.89 121.28 199.89"/><polygon class="cls-3" points="121.27 199.94 121.22 200.11 121.22 199.94 121.27 199.94"/><path class="cls-4" d="M121.49,32.52h0Z"/><path class="cls-5" d="M134.62,114.57a4.92,4.92,0,1,0,4.5,6.89,4.8,4.8,0,0,0,.42-2A4.92,4.92,0,0,0,134.62,114.57Zm1.64,4.92a1.64,1.64,0,1,1,1.64-1.64A1.64,1.64,0,0,1,136.26,119.49Z"/><path class="cls-6" d="M121.91,169.51l-.42,0h.42Z"/><circle class="cls-7" cx="136.26" cy="117.85" r="1.64"/><path class="cls-8" d="M218.18,220.2c-.29-1.58-.54-2.51-.54-2.51s-14-11.2-61.36-13.92c1.82.67,3.2.71,4.88,1.53,9.32,4.55,16.84,12,22.28,19.65a79.36,79.36,0,0,1,9.37,17.87,95.63,95.63,0,0,1,3,9.25c6.31,2.17,11.1,4.18,11.1,4.18a29.49,29.49,0,0,0,6.7-7.25,33.62,33.62,0,0,0,4.94-13.61A48.43,48.43,0,0,0,218.18,220.2Z"/><path class="cls-9" d="M182.2,106.76V107a20.6,20.6,0,0,1,2.35-.26Z"/><path class="cls-9" d="M213.78,67.87v-.19c0-.39,0-.78-.08-1.17l-.12-1.14c0-.24-.06-.48-.1-.72L212.71,61c-.1-.41-.22-.83-.35-1.24a0,0,0,0,1,0,0c-.13-.41-.26-.81-.41-1.22l-1.43-3.43c-.11-.24-.23-.49-.36-.73L208,50.57l-.61-.9-.46-.65-.48-.66-.63-.83-.56-.71-.78-.93c-.46-.54-.94-1.08-1.43-1.61l-.75-.79-.78-.79c-.52-.52-1.06-1-1.61-1.54l-.34-.31-1.07-.94-.74-.64c-.43-.37-.88-.74-1.33-1.1-1.22-1-2.5-1.91-3.82-2.84a.21.21,0,0,1-.08-.06c-1-.67-2-1.33-3-2l-1-.64c-.9-.54-1.81-1.07-2.74-1.6-.64-.36-1.29-.71-1.95-1.06l-1.75-.9a112.7,112.7,0,0,0-13.3-5.56h0q-2.52-.85-5.14-1.64s0,0,0,0A53.28,53.28,0,0,0,121.22,0l-.75,0A53.21,53.21,0,0,0,78.76,20.12l-3.34,2.36c-28.78,9.09-48.28,26.6-48.28,46.71,0,16,12.4,30.41,32,40.18H75.42V70.26h87.07v36.5h22.06a19.26,19.26,0,0,1,2.15,0h0l.06,0c.29-.16.56-.34.85-.52.65-.38,1.31-.77,2-1.17l1.09-.72c.66-.43,1.31-.85,1.94-1.29l.8-.58a67.83,67.83,0,0,0,6.18-5l.9-.81c.45-.43.88-.87,1.31-1.31s.68-.68,1-1,.77-.85,1.14-1.28.66-.74,1-1.12.67-.85,1-1.28l.91-1.2c.3-.42.58-.85.87-1.27s.56-.85.82-1.28.51-.84.75-1.27.49-.89.72-1.34.43-.84.63-1.27.42-.94.62-1.41.34-.83.5-1.25.34-1,.5-1.5.27-.81.39-1.22.26-1.07.38-1.6.19-.78.26-1.17c.11-.6.18-1.2.26-1.8,0-.34.1-.67.13-1,.08-.89.13-1.78.13-2.68,0,0,0-.11,0-.17Q213.81,68.53,213.78,67.87Zm-92.56-52v.42l-.75-.43Zm0,16.66h0Z"/><path class="cls-2" d="M121.22,15.87v.42l-.75-.43Z"/><path class="cls-10" d="M30.88,257.32,2,308.2A15.09,15.09,0,0,0,.84,320.62l15.74,96.69H46.87L31.12,318.21l17.54-30.86v-12c0-.79,0-1.62,0-2.48C37.82,266.87,32.76,260.3,30.88,257.32Z"/><path class="cls-11" d="M30,255.68a16.07,16.07,0,0,0,.93,1.64c1.88,3,6.94,9.54,17.82,15.57.44-13.59,4.52-35.46,16.53-51.73A52.64,52.64,0,0,1,81.72,206.3C38.95,217.58,30,255.68,30,255.68Z"/><path class="cls-3" d="M100.84,203.71v.23l-.23-.12Z"/><path class="cls-12" d="M199.05,275.37v142h-43.9V259c0-3.64-.14-7.59-.5-11.67-1.37-15.57-5.88-32.85-17.68-41a34.93,34.93,0,0,0,5.17-2.34l.33-.18h0c1.22.44,16.16-.52,17.31,0l.57.26h0c9.28,4.33,16.47,12,22,19.48l1,1.44c.38.53.74,1.06,1.1,1.6s.71,1.07,1,1.61.72,1.17,1.07,1.76c.16.25.3.51.45.77l.44.76c.23.41.45.82.67,1.24l.53,1c.29.58.58,1.15.86,1.73.17.34.33.69.49,1s.45,1,.67,1.45.34.78.51,1.18c.46,1.06.9,2.13,1.31,3.2l.21.53a2.07,2.07,0,0,1,.08.23c.22.57.43,1.14.63,1.72l.36,1c.19.56.38,1.11.56,1.67.23.72.45,1.43.66,2.14s.47,1.64.69,2.46A93.61,93.61,0,0,1,199.05,275.37Z"/><path class="cls-2" d="M105.24,206c-8.51,5.66-13.31,16-15.89,27.15A97.31,97.31,0,0,0,87.63,243a130,130,0,0,0-1,16V417.31h-38V275.37c0-.79,0-1.62.05-2.48.44-13.6,4.52-35.47,16.53-51.73A52.48,52.48,0,0,1,81.72,206.3c1.63-.92,17.1-1.75,18.89-2.48l.23.12c.51.29,1,.57,1.59.83C103.33,205.21,104.27,205.63,105.24,206Z"/><path class="cls-11" d="M155.15,259V417.38H86.67V259a130,130,0,0,1,1-16,97.31,97.31,0,0,1,1.72-9.81C91.93,222,96.73,211.66,105.24,206a43.78,43.78,0,0,0,12,2.7c.54,0,1.09.08,1.64.11.78,0,1.56.07,2.35.07h.27A45.5,45.5,0,0,0,137,206.28c11.8,8.16,16.31,25.44,17.68,41C155,251.37,155.15,255.32,155.15,259Z"/><path class="cls-10" d="M167.49,149a8.26,8.26,0,0,1-8.26-8.26V70.21c-.35,0-.71.05-1.07.05H84.82A16.07,16.07,0,0,1,82.11,70v70.74A8.26,8.26,0,0,1,73.85,149H69.46a53.28,53.28,0,0,0,31.38,38.5v16.42c.51.29,1,.57,1.59.83.9.44,1.84.86,2.81,1.23a43.78,43.78,0,0,0,12,2.7c.54,0,1.09.08,1.64.11.78,0,1.56.07,2.35.07h.27A45.5,45.5,0,0,0,137,206.28a34.93,34.93,0,0,0,5.17-2.34V187.52A53.28,53.28,0,0,0,173.52,149Zm-54.41-9.18a1.39,1.39,0,0,1,1.88-.53,13.5,13.5,0,0,0,5.89,1.47h.37a13.36,13.36,0,0,0,5.52-1.46,1.39,1.39,0,0,1,1.87.53,1.37,1.37,0,0,1-.53,1.88,16.35,16.35,0,0,1-6.86,1.8h-.37a16.45,16.45,0,0,1-7.24-1.81A1.39,1.39,0,0,1,113.08,139.84Zm21.54,16.57a13.14,13.14,0,0,1-12.71,13.1l-.42,0h-.42a13.14,13.14,0,0,1-12.71-13.1Zm-4.93-36.92a4.92,4.92,0,0,1,9.85,0,4.8,4.8,0,0,1-.42,2,4.92,4.92,0,0,1-9.43-2ZM92.55,107.56a1.38,1.38,0,0,1,.4-1.9,15.31,15.31,0,0,1,14.44-1,1.38,1.38,0,0,1-.49,2.62,1.51,1.51,0,0,1-.69-.13,12.58,12.58,0,0,0-11.75.8A1.38,1.38,0,0,1,92.55,107.56Zm4.54,13.28a4.65,4.65,0,0,1-.21-1.35,4.92,4.92,0,0,1,9.84,0,4.91,4.91,0,0,1-9.63,1.35Zm24.18,79.1-.05.17v-.22h.06Zm24.83-91.49a1.37,1.37,0,0,1-1.32.47,1.41,1.41,0,0,1-.62-.29,12.59,12.59,0,0,0-11.58-2.2,1.38,1.38,0,1,1-.87-2.61,16.3,16.3,0,0,1,7.45-.44,16.51,16.51,0,0,1,6.77,3.13A1.38,1.38,0,0,1,146.1,108.45Z"/><path class="cls-10" d="M120.85,140.78a13.5,13.5,0,0,1-5.89-1.47,1.38,1.38,0,0,0-1.35,2.41,16.45,16.45,0,0,0,7.24,1.81h.37v-2.75Zm-13.46-36.11a15.31,15.31,0,0,0-14.44,1,1.38,1.38,0,1,0,1.51,2.3,12.58,12.58,0,0,1,11.75-.8,1.51,1.51,0,0,0,.69.13,1.38,1.38,0,0,0,.49-2.62Z"/><path class="cls-3" d="M69.05,46.94c0,.47-.07.94-.07,1.42V47Z"/><path class="cls-4" d="M69.05,46.94c0,.47-.07.94-.07,1.42V47Z"/><path class="cls-3" d="M67.34,112.93v.1l-.23-.09Z"/><path class="cls-4" d="M101.8,114.57a4.92,4.92,0,0,0-4.92,4.92,4.65,4.65,0,0,0,.21,1.35,4.91,4.91,0,1,0,4.71-6.27Zm1.64,4.92a1.64,1.64,0,1,1,1.64-1.64A1.64,1.64,0,0,1,103.44,119.49Z"/><path class="cls-5" d="M134.62,156.41a13.08,13.08,0,0,1-4.47,9.84,13.09,13.09,0,0,0-8.66-3.28l-.27,0a13,13,0,0,0-8.39,3.26,13.08,13.08,0,0,1-4.47-9.84h.77c1.77.94,6.5,1.62,12.09,1.64h.27c5.71,0,10.56-.69,12.36-1.64Z"/><path class="cls-6" d="M130.15,166.25a13,13,0,0,1-8.24,3.26h-.84a13,13,0,0,1-8.24-3.26,13,13,0,0,1,8.39-3.26l.27,0A13.09,13.09,0,0,1,130.15,166.25Z"/><path class="cls-13" d="M121.22,169.51h0Z"/><path class="cls-7" d="M133.85,156.41c-1.8,1-6.65,1.64-12.36,1.64h-.27c-5.59,0-10.32-.7-12.09-1.64Z"/><path class="cls-4" d="M173.94,60.42h-.62c.11-.83.21-1.66.28-2.5a16,16,0,0,0,.4-3.49V48.36s0-.09,0-.14a16.27,16.27,0,0,0-.13-1.86L149.63,32.52h-51c-9.53-1.9-10.72-10-10.8-13.3a12.16,12.16,0,0,1,0-1.44A18.92,18.92,0,0,0,69,36.65V47l.07,0c0,.47-.07.94-.07,1.42v6.07a15.91,15.91,0,0,0,1.18,6H67.4a8.26,8.26,0,0,0-8.26,8.26v72.08A8.26,8.26,0,0,0,67.4,149h6.45a8.26,8.26,0,0,0,8.26-8.26V70a16.07,16.07,0,0,0,2.71.24h73.34c.36,0,.72,0,1.07-.05v54.15c0,.06,0,.12,0,.18q0,.33,0,.66c0,.12,0,.25.06.37s0,.3.07.44a6.84,6.84,0,0,1-.13-.81,7.62,7.62,0,0,1,0-.84v16.4a8.26,8.26,0,0,0,8.26,8.26h6.45l.59,0a9.51,9.51,0,0,0,1.07-.15l.36-.08h0l.25-.07.41-.13.5-.19h0l.47-.22.47-.26.45-.28a11.07,11.07,0,0,0,.84-.65,4.27,4.27,0,0,0,.38-.36l.23-.23a5.16,5.16,0,0,0,.47-.56,8.43,8.43,0,0,0,.6-.87,8.2,8.2,0,0,0,1.13-4.18V68.68A8.26,8.26,0,0,0,173.94,60.42Zm-14.49,65.81.06.21a1.16,1.16,0,0,1,0,.18A2.81,2.81,0,0,1,159.45,126.23Z"/><circle class="cls-7" cx="103.44" cy="117.85" r="1.64"/><path class="cls-5" d="M146.1,108.45a1.37,1.37,0,0,1-1.32.47,1.41,1.41,0,0,1-.62-.29,12.59,12.59,0,0,0-11.58-2.2,1.38,1.38,0,1,1-.87-2.61,16.3,16.3,0,0,1,7.45-.44,16.51,16.51,0,0,1,6.77,3.13A1.38,1.38,0,0,1,146.1,108.45Z"/><path class="cls-4" d="M108.05,106.5a1.39,1.39,0,0,1-1.15.79,1.51,1.51,0,0,1-.69-.13,12.58,12.58,0,0,0-11.75.8,1.38,1.38,0,1,1-1.51-2.3,15.31,15.31,0,0,1,14.44-1A1.37,1.37,0,0,1,108.05,106.5Z"/><path class="cls-3" d="M67.34,113v16.3a8.2,8.2,0,0,1-.23-16.39Z"/><path class="cls-14" d="M160.22,128.27a0,0,0,0,1,0,0l0,0Z"/><path class="cls-14" d="M173.92,146.72c0-.18.06-.36.08-.55,0,.1,0,.21,0,.31A2,2,0,0,1,173.92,146.72Z"/><path class="cls-14" d="M174.54,131.64v7c0,.61,0,1.23,0,1.84v.07l0,.74c0,.21,0,.42,0,.63-.3-.22-.6-.44-.88-.67s-.58-.47-.85-.72-.72-.67-1.07-1c-.17-.17-.33-.35-.5-.54s-.33-.37-.48-.56-.31-.38-.46-.58l-.31-.42c-.11-.15-.21-.28-.3-.43l0,0,0,0q-.3-.43-.57-.9l-.06-.11c-.2-.33-.38-.67-.56-1h0c-.14-.28-.28-.56-.4-.84a2.24,2.24,0,0,1-.12-.29c-.14-.32-.27-.63-.38-.95a.84.84,0,0,1-.06-.14h3.29A8.18,8.18,0,0,0,174.54,131.64Z"/><path class="cls-15" d="M178.92,114.58v9.78a8.22,8.22,0,0,1-1,4,8.19,8.19,0,0,0,1-13.78Z"/><path class="cls-15" d="M174.54,129.31a8.16,8.16,0,0,0,3.34-1,8.22,8.22,0,0,0,1-4v-9.78a8.15,8.15,0,0,0-4.38-1.62Z"/><path class="cls-12" d="M121.22,15.87v.42l-.75-.43Z"/><path class="cls-12" d="M168.68,23.52q-2.52-.85-5.14-1.64s0,0,0,0Q166.16,22.64,168.68,23.52Z"/><path class="cls-12" d="M182,29.09a112.7,112.7,0,0,0-13.3-5.56A107.87,107.87,0,0,1,182,29.09Z"/><path class="cls-12" d="M196.39,38.17c-1.22-1-2.5-1.91-3.82-2.84Q194.57,36.7,196.39,38.17Z"/><path class="cls-12" d="M182.22,109.19v-2.14h0v0a19.75,19.75,0,0,1,4.5-.26C185.25,107.59,183.76,108.41,182.22,109.19Z"/><path class="cls-14" d="M272.66,253.48c-5.51,8.26-16.52,8.26-23.85,6S213.57,249,213.57,249a33.73,33.73,0,0,0,5-13.61,48.6,48.6,0,0,0-.34-15.18l17.67,5.25-50.07-80c-.43,0-.86,0-1.29,0a16.89,16.89,0,0,1-1.76-.19c-.56-.09-1.11-.2-1.66-.33,0,0,0,0,0,0l-.86-.23c-.51-.15-1-.31-1.49-.5l-.55-.22-.52-.23c-.3-.13-.6-.28-.89-.43l-.79-.43c-.27-.15-.52-.31-.78-.47s-.5-.33-.75-.51-.6-.44-.88-.67-.58-.47-.85-.72-.72-.67-1.07-1c-.17-.17-.33-.35-.5-.54s-.33-.37-.48-.56-.31-.38-.46-.58l-.31-.42c-.11-.15-.21-.28-.3-.43l0,0,0,0q-.3-.43-.57-.9l-.06-.11c-.2-.33-.38-.67-.56-1h0c-.14-.28-.28-.56-.4-.84a2.24,2.24,0,0,1-.12-.29c-.14-.32-.27-.63-.38-.95a.84.84,0,0,1-.06-.14h0A19.42,19.42,0,0,1,182.2,107a19.75,19.75,0,0,1,4.5-.26h.09a19.76,19.76,0,0,1,3.88.62A19.4,19.4,0,0,1,205,125.28a18.75,18.75,0,0,1,0,2,20.67,20.67,0,0,1-.24,2.11c0,.22-.1.44-.15.66s0,.14,0,.21S263,217.69,268.5,227,278.17,245.22,272.66,253.48Z"/><path class="cls-16" d="M182.2,110.12c-.29,0-.58-.08-.87-.1s-.54,0-.81,0a9.64,9.64,0,0,0-6,2.29q-.34.29-.66.62a9.56,9.56,0,0,0,.11,13.45q.26.26.55.5a9.55,9.55,0,0,0,2.88,1.7l.27.09a9.58,9.58,0,1,0,4.51-18.55Z"/><path class="cls-9" d="M121.49,32.52h0Z"/><path class="cls-9" d="M186.7,106.76h-2.15A19.26,19.26,0,0,1,186.7,106.76Z"/><path class="cls-9" d="M186.79,106.72v0h-.06Z"/><path class="cls-5" d="M165.33,132.33l-.19-.05-.1,0-.1,0C165.07,132.26,165.2,132.29,165.33,132.33Z"/><path class="cls-5" d="M165.57,132.39l-.15,0s0,0,0,0Z"/><path class="cls-5" d="M166.13,132.5l-.29,0a.27.27,0,0,1-.12,0Z"/><path class="cls-4" d="M173.52,149h.42a8.25,8.25,0,0,0,7.12-4.09,19.24,19.24,0,0,1-6.63-3A53.09,53.09,0,0,1,173.52,149Z"/><path class="cls-2" d="M142.51,203.77h0Z"/><path class="cls-2" d="M142.14,203.75l.33,0h0l-.34-.13Z"/><path class="cls-2" d="M142.14,203.95l.33-.18-.33,0Z"/><path class="cls-5" d="M134.62,114.57a4.91,4.91,0,1,0,4.92,4.92A4.92,4.92,0,0,0,134.62,114.57Zm1.64,1.64a1.64,1.64,0,1,1-1.64,1.64A1.64,1.64,0,0,1,136.26,116.21Z"/><path class="cls-5" d="M121.23,158.05V163h.27a13.06,13.06,0,0,1,8.66,3.28,13.08,13.08,0,0,0,4.46-9.85h-.76c-1.8,1-6.65,1.64-12.36,1.64Z"/><path class="cls-17" d="M121.49,158.05c5.71,0,10.56-.69,12.36-1.64H121.23v1.64Z"/><circle class="cls-7" cx="136.26" cy="117.85" r="1.64"/><path class="cls-8" d="M218.18,220.2c-.29-1.58-.54-2.51-.54-2.51s-14-11.2-61.36-13.92c1.82.67,3.2.71,4.88,1.53,9.32,4.55,16.84,12,22.28,19.65a79.36,79.36,0,0,1,9.37,17.87,95.63,95.63,0,0,1,3,9.25c6.31,2.17,11.1,4.18,11.1,4.18a29.49,29.49,0,0,0,6.7-7.25,33.62,33.62,0,0,0,4.94-13.61A48.43,48.43,0,0,0,218.18,220.2Z"/><path class="cls-5" d="M144.79,108.93a1.37,1.37,0,0,1-.63-.3,13.67,13.67,0,0,0-5.52-2.54,13.5,13.5,0,0,0-6.06.34,1.38,1.38,0,0,1-.87-2.61,15.32,15.32,0,0,1,14.22,2.69,1.38,1.38,0,0,1-1.14,2.41Z"/><path class="cls-12" d="M120.48,15.87c51.55,0,93.33,23.88,93.33,53.33"/><path class="cls-18" d="M121.49,163l-.24,0v6.52h.66a13,13,0,0,0,8.24-3.26A13.09,13.09,0,0,0,121.49,163Z"/><path class="cls-9" d="M78.76,20.12a18.78,18.78,0,0,1,9.09-2.34,12.43,12.43,0,0,0,0,1.44,156.89,156.89,0,0,1,32.66-3.36h.75V0l-.75,0A53.22,53.22,0,0,0,78.76,20.12Z"/><path class="cls-2" d="M49.34,74.51c0-10.21,6.84-19.52,18.07-26.58.51-.32,1-.64,1.57-.95V36.65a18.81,18.81,0,0,1,6.44-14.17C46.64,31.57,27.14,49.08,27.14,69.2c0,16,12.4,30.4,32,40.18V94.73c-6.22-5.93-9.8-12.84-9.8-20.22"/><path class="cls-2" d="M98.61,32.53h22.61V15.87h-.75a156.89,156.89,0,0,0-32.66,3.36C87.89,22.55,89.08,30.62,98.61,32.53Z"/><path class="cls-19" d="M60.26,298.15S58.67,235.27,86,205.59l10.41-1.05s-27.15,43.58-23,93.62Z"/><path class="cls-20" d="M163.48,21.84A53.12,53.12,0,0,0,121.25,0V15.83A151.1,151.1,0,0,1,163.48,21.84Z"/><path class="cls-20" d="M173.92,54.35a15.84,15.84,0,0,1-.4,3.49q-.11,1.25-.27,2.49h.61a8.25,8.25,0,0,1,8.24,8.25V94.21c6-5.84,9.39-12.6,9.39-19.81,0-10.06-6.64-19.24-17.58-26.25,0,0,0,.09,0,.13Z"/><path class="cls-4" d="M173.44,148.82h.42a8.23,8.23,0,0,0,7.11-4.09,19.2,19.2,0,0,1-6.62-3A53.07,53.07,0,0,1,173.44,148.82Z"/><path class="cls-14" d="M173.19,140.82q-.23-.18-.45-.39a15.78,15.78,0,0,1-1.18-1.13c-.17-.17-.34-.35-.5-.54s-.33-.37-.48-.56-.28-.34-.41-.52a18.65,18.65,0,0,1-1.56-2.37q-.25-.47-.48-.93l-.27-.57c-.2-.45-.38-.9-.55-1.37H167s0,0-.07,0h-.11l-.3,0c-.27,0-.52-.08-.78-.13l-.25-.06c-.25-.06-.51-.13-.75-.22l-.56-.22-.24-.1-1.22-.71c-.2-.14-.39-.3-.58-.46s-.29-.26-.43-.4l-.18-.18c-.12-.13-.24-.26-.36-.4l-.21-.25h0c-.09-.11-.17-.22-.25-.34a2.13,2.13,0,0,1-.16-.25s0,0,0,0-.14-.21-.2-.32l-.11-.19,0-.09-.07-.16c-.07-.12-.13-.26-.19-.39a.3.3,0,0,1,0-.08l0-.08c-.06-.14-.11-.28-.16-.42a1.82,1.82,0,0,1-.08-.25l-.06-.21,0-.15c0-.12-.07-.23-.09-.35s0-.05,0-.07,0,0,0,0,0-.27-.06-.39l-.06-.38a7.77,7.77,0,0,1,0-.84V70.1c-.35,0-.7.06-1.06.06H121.25v86h13.37a13.13,13.13,0,0,1-12.68,13.09l-.42,0-.27,0v22.14h.27a52.95,52.95,0,0,0,51.92-42.61c.11-.54.21-1.08.3-1.63,0-.33.11-.66.15-1l.09-.66c0-.14,0-.28.06-.42.07-.52.13-1.05.17-1.58a1.1,1.1,0,0,0,0-.18q.07-.83.12-1.65C174,141.43,173.56,141.13,173.19,140.82Zm-34.07-19.54a4.91,4.91,0,1,1,.41-2A4.91,4.91,0,0,1,139.12,121.29Z"/><path class="cls-8" d="M218,219.9c-.29-1.57-.54-2.5-.54-2.5s-14-11.19-61.24-13.91c1.81.67,3.19.71,4.87,1.53,9.3,4.54,16.8,12,22.23,19.62a79.28,79.28,0,0,1,9.35,17.84,95.57,95.57,0,0,1,3,9.24c6.3,2.17,11.08,4.17,11.08,4.17a29.44,29.44,0,0,0,6.68-7.24,33.6,33.6,0,0,0,4.93-13.59A48.41,48.41,0,0,0,218,219.9Z"/><path class="cls-12" d="M198.91,275V416.83h-43.8V258.62c0-3.64-.15-7.59-.5-11.66-1.36-15.54-5.87-32.82-17.64-41a34.8,34.8,0,0,0,5.16-2.34c.1-.06.22-.11.32-.18s0,0,0,0h0a13.1,13.1,0,0,0,2.63.12c2.67,0,6.78-.19,10-.25a23.54,23.54,0,0,1,4.66.13l.56.26c9.27,4.31,16.45,11.95,22,19.46.36.48.7,1,1,1.43s.71,1,1.05,1.53.75,1.13,1.11,1.7.87,1.41,1.29,2.12c.22.38.44.76.65,1.15s.39.71.58,1.06a.2.2,0,0,1,0,.08c.2.36.39.73.58,1.09.39.75.76,1.5,1.12,2.25.54,1.12,1,2.24,1.52,3.37l.07.17c1.13,2.65,2.11,5.31,3,8,.23.72.45,1.43.66,2.14s.47,1.64.69,2.45A94.2,94.2,0,0,1,198.91,275Z"/><path class="cls-8" d="M154.61,247c-1.36-15.55-5.87-32.82-17.64-41a45.59,45.59,0,0,1-15.45,2.6h-.27V416.77H86.78v.07h68.33V258.62C155.11,255,155,251,154.61,247Z"/><path class="cls-5" d="M144.77,108.77a1.37,1.37,0,0,1-.62-.3,13.64,13.64,0,0,0-5.5-2.53,13.46,13.46,0,0,0-6,.34,1.37,1.37,0,0,1-.87-2.61,15.27,15.27,0,0,1,14.19,2.69,1.38,1.38,0,0,1-1.14,2.41Z"/><path class="cls-14" d="M174.46,131.46a8.2,8.2,0,0,1-3.88,1h-3.16a8.25,8.25,0,0,1-8.24-8.25v16.39a8.25,8.25,0,0,0,8.24,8.25h6a53.26,53.26,0,0,0,1-10.38Z"/><path class="cls-5" d="M182.1,121V68.58a8.25,8.25,0,0,0-8.24-8.25h-.61q.16-1.24.27-2.49a15.84,15.84,0,0,0,.4-3.49V48.28s0-.09,0-.13a15.83,15.83,0,0,0-15.79-15.68H121.25V70.16h36.86c.36,0,.71,0,1.06-.05v54.08c0,.06,0,.12,0,.18,0,.22,0,.44,0,.66s0,.25.06.37,0,.3.07.44.07.29.11.43.06.24.09.36.11.3.16.44.07.21.11.31.15.32.22.47l.12.24c.09.17.2.34.3.5l.1.17c.12.18.26.36.39.53l.08.1c.15.19.31.36.48.54l0,0q.27.28.57.52h0a8.2,8.2,0,0,0,5.29,1.93h7v6a53.26,53.26,0,0,1-1,10.38h.42a8.25,8.25,0,0,0,8.24-8.25V121Z"/><path class="cls-15" d="M178.83,114.42v9.76a8.21,8.21,0,0,1-1,4,8.19,8.19,0,0,0,1-13.76Z"/><path class="cls-15" d="M174.46,129.13a8.14,8.14,0,0,0,3.33-1,8.21,8.21,0,0,0,1-4v-9.76a8.13,8.13,0,0,0-4.37-1.62Z"/><path class="cls-12" d="M120.51,15.82c51.44,0,93.14,23.85,93.14,53.27Z"/><path class="cls-12" d="M202.67,94.18c.39-.42.76-.85,1.14-1.28s.66-.75,1-1.13.67-.85,1-1.27.61-.8.9-1.2.59-.84.87-1.27.56-.85.82-1.28.51-.84.75-1.27.49-.89.72-1.34.43-.84.62-1.26.42-.94.62-1.41.35-.83.5-1.25.34-1,.5-1.49.27-.81.38-1.22.26-1.06.38-1.6.19-.78.26-1.17c.11-.6.18-1.2.26-1.8,0-.34.1-.67.13-1q.12-1.33.13-2.67c0-.06,0-.11,0-.17h0c0-20.55-20.36-38.37-50.16-47.25a151.1,151.1,0,0,0-42.23-6V32.47h36.86a15.83,15.83,0,0,1,15.79,15.68c10.94,7,17.58,16.2,17.58,26.25,0,7.21-3.43,14-9.39,19.81V106.9h0V109c1.54-.78,3-1.6,4.47-2.43h0l.91-.55c.66-.39,1.31-.78,1.95-1.18l1.1-.72c.65-.42,1.3-.85,1.93-1.28l.8-.58a66.94,66.94,0,0,0,6.17-5c.3-.27.61-.54.89-.81.45-.43.88-.87,1.31-1.31S202.35,94.52,202.67,94.18Z"/><path class="cls-14" d="M268.23,226.7c-5.47-9.3-63.81-96.64-63.81-96.64l0-.21c0-.22.1-.43.14-.66A19.35,19.35,0,1,0,181,144.73h0c.54.13,1.09.25,1.65.33s1.16.16,1.76.19c.43,0,.86,0,1.28,0l50,79.87L218,219.9a48.41,48.41,0,0,1,.34,15.16,33.6,33.6,0,0,1-4.93,13.59s27.84,8.19,35.16,10.46,18.31,2.28,23.81-6S273.69,236,268.23,226.7Z"/><path class="cls-16" d="M182.1,110c-.29,0-.57-.08-.87-.1s-.54,0-.81,0a9.62,9.62,0,0,0-6,2.29q-.34.29-.65.61a9.55,9.55,0,0,0,.11,13.43q.26.26.55.5a9.53,9.53,0,0,0,2.87,1.7l.27.09A9.57,9.57,0,1,0,182.1,110Z"/><rect class="cls-14" x="187.45" y="108.38" width="34.22" height="13.57" rx="4.94" ry="4.94" transform="translate(-15.54 196.8) rotate(-49.73)"/><path class="cls-19" d="M179.94,297H166.7c3.61-44.19-16.1-83.45-21.58-93.42,2.67,0,6.78-.19,10-.25C181.48,234.17,179.94,297,179.94,297Z"/><path class="cls-21" d="M65.27,404.12H176a9.41,9.41,0,0,0,9.38-8.73l2-27.57H54.07l1.82,27.51A9.41,9.41,0,0,0,65.27,404.12Z"/><polygon class="cls-22" points="186.16 384.71 187.38 367.82 54.07 367.82 55.89 395.33 186.16 384.71"/><path class="cls-23" d="M54.07,367.82H187.39l.15-4.94a12.25,12.25,0,0,0-.59-4.13l-4.37-13.53H58.87l-4.23,13.85a12.25,12.25,0,0,0-.53,3.48Z"/><path class="cls-24" d="M121.81,367.82H54.07l0-5.28a12.25,12.25,0,0,1,.53-3.48l4.23-13.85h63.28Z"/><path class="cls-24" d="M60.54,297.86l-1.67,47.36H182.58l-1.67-47.36a7.47,7.47,0,0,0-7.46-7.21H68A7.47,7.47,0,0,0,60.54,297.86Z"/><path class="cls-23" d="M122,345.22H58.87l1.67-47.36A7.47,7.47,0,0,1,68,290.65h53.62Z"/><ellipse class="cls-25" cx="121.81" cy="314.93" rx="23.54" ry="23.56"/><ellipse class="cls-26" cx="121.81" cy="314.93" rx="21.62" ry="21.64"/><ellipse class="cls-27" cx="121.81" cy="314.93" rx="20.78" ry="20.8"/><ellipse class="cls-25" cx="121.81" cy="314.93" rx="12.73" ry="12.74"/><ellipse class="cls-28" cx="121.81" cy="314.93" rx="6.01" ry="6.01"/><ellipse class="cls-29" cx="157.84" cy="332.48" rx="7.45" ry="7.45"/><ellipse class="cls-30" cx="157.84" cy="332.48" rx="6.01" ry="6.01"/><ellipse class="cls-24" cx="80.49" cy="332.48" rx="8.05" ry="8.05"/><rect class="cls-31" x="66.32" y="307.24" width="28.1" height="12.02" rx="3.69" ry="3.69"/><rect class="cls-24" x="149.67" y="293.77" width="27.95" height="27.17" rx="6.67" ry="6.67"/><path class="cls-25" d="M174.73,319.69s0,.24-11.09.24-11.09-.24-11.09-.24a1.6,1.6,0,0,1-1.6-1.6s-.24-3.88-.24-10.73c0-7.81.24-10.73.24-10.73a1.6,1.6,0,0,1,1.6-1.6s.08-.24,11.09-.24,11.09.24,11.09.24a1.6,1.6,0,0,1,1.6,1.6s.24,2.91.24,10.73-.24,10.73-.24,10.73A1.6,1.6,0,0,1,174.73,319.69Z"/><path class="cls-7" d="M72.08,311a1.57,1.57,0,0,1,.87.22,1,1,0,0,1,.44.62,2,2,0,0,1,0,.94,2.72,2.72,0,0,1-.28.73,2.16,2.16,0,0,1-.46.57,2,2,0,0,1-.62.37,2.21,2.21,0,0,1-.76.13,1.71,1.71,0,0,1-.7-.13,1,1,0,0,1-.45-.37,1.2,1.2,0,0,1-.19-.57,2.24,2.24,0,0,1,.06-.72,2.69,2.69,0,0,1,.29-.73,2.2,2.2,0,0,1,.47-.57,2,2,0,0,1,.61-.36A2.14,2.14,0,0,1,72.08,311Zm.58,1.78a1.54,1.54,0,0,0,0-.66.67.67,0,0,0-.25-.42.81.81,0,0,0-.49-.14,1.09,1.09,0,0,0-.41.08,1.19,1.19,0,0,0-.36.23,1.52,1.52,0,0,0-.3.39,2.07,2.07,0,0,0-.2.53,1.74,1.74,0,0,0-.05.53.85.85,0,0,0,.12.4A.63.63,0,0,0,71,314a.83.83,0,0,0,.37.08,1.14,1.14,0,0,0,.53-.13,1.31,1.31,0,0,0,.46-.42A1.94,1.94,0,0,0,72.66,312.83Z"/><path class="cls-7" d="M74.62,312.36l0,.08a1.57,1.57,0,0,1,.45-.33,1.14,1.14,0,0,1,.49-.1.8.8,0,0,1,.43.11.52.52,0,0,1,.23.31.65.65,0,0,1,0,.25,2.7,2.7,0,0,1-.06.35l-.26,1.2a.53.53,0,0,1-.15.29.37.37,0,0,1-.25.1.24.24,0,0,1-.21-.1.37.37,0,0,1,0-.29l.24-1.07a1,1,0,0,0,0-.49q-.05-.17-.32-.17a.63.63,0,0,0-.34.1.82.82,0,0,0-.27.28,2.3,2.3,0,0,0-.17.54l-.18.81a.53.53,0,0,1-.16.29.39.39,0,0,1-.26.1.23.23,0,0,1-.21-.1.37.37,0,0,1,0-.29l.43-1.86a.51.51,0,0,1,.14-.27.35.35,0,0,1,.24-.09.25.25,0,0,1,.14,0,.21.21,0,0,1,.08.12A.4.4,0,0,1,74.62,312.36Z"/><path class="cls-7" d="M78.53,313.47H77.26a.78.78,0,0,0,0,.39.45.45,0,0,0,.18.25.52.52,0,0,0,.3.08l.22,0a.88.88,0,0,0,.21-.08l.19-.12.24-.18a.25.25,0,0,1,.15,0,.2.2,0,0,1,.15.05.16.16,0,0,1,0,.15.52.52,0,0,1-.11.2,1.11,1.11,0,0,1-.26.22,1.53,1.53,0,0,1-.39.18,1.67,1.67,0,0,1-.5.07,1.06,1.06,0,0,1-.9-.35,1.13,1.13,0,0,1-.14-1,1.89,1.89,0,0,1,.2-.53,1.59,1.59,0,0,1,.34-.42,1.44,1.44,0,0,1,.46-.27,1.61,1.61,0,0,1,.55-.09,1.08,1.08,0,0,1,.61.16.77.77,0,0,1,.32.41,1,1,0,0,1,0,.51.41.41,0,0,1-.21.31A1,1,0,0,1,78.53,313.47Zm-1.19-.37h1.17a.67.67,0,0,0-.07-.49.43.43,0,0,0-.37-.16.64.64,0,0,0-.43.17A1.06,1.06,0,0,0,77.34,313.11Z"/><path class="cls-7" d="M82.29,313.53a1.23,1.23,0,0,1-.28.56,1.44,1.44,0,0,1-.56.39,2,2,0,0,1-.78.14,1.48,1.48,0,0,1-.81-.19.83.83,0,0,1-.31-.37.74.74,0,0,1-.05-.45.38.38,0,0,1,.13-.22.37.37,0,0,1,.25-.09.22.22,0,0,1,.17.07.43.43,0,0,1,.09.21,1.12,1.12,0,0,0,.09.28.43.43,0,0,0,.18.18.72.72,0,0,0,.35.07,1,1,0,0,0,.54-.15.56.56,0,0,0,.27-.36.33.33,0,0,0,0-.28.52.52,0,0,0-.24-.16l-.42-.12a2.71,2.71,0,0,1-.58-.2.75.75,0,0,1-.33-.32.74.74,0,0,1,0-.5,1.07,1.07,0,0,1,.26-.51,1.31,1.31,0,0,1,.52-.34,2,2,0,0,1,.72-.12,1.57,1.57,0,0,1,.53.08.9.9,0,0,1,.34.21.66.66,0,0,1,.17.27.58.58,0,0,1,0,.28.42.42,0,0,1-.13.23.35.35,0,0,1-.24.1.21.21,0,0,1-.17-.06.62.62,0,0,1-.1-.2.68.68,0,0,0-.16-.31.57.57,0,0,0-.4-.11.86.86,0,0,0-.46.12.45.45,0,0,0-.23.29.26.26,0,0,0,0,.18.35.35,0,0,0,.13.13l.18.08.32.09a4.5,4.5,0,0,1,.5.15,1.27,1.27,0,0,1,.36.2.62.62,0,0,1,.2.3A.89.89,0,0,1,82.29,313.53Z"/><path class="cls-7" d="M83.17,312.06h.07l.08-.39q0-.16.06-.24a.44.44,0,0,1,.08-.15.39.39,0,0,1,.13-.11.36.36,0,0,1,.17,0,.26.26,0,0,1,.2.09.22.22,0,0,1,.05.15,1.38,1.38,0,0,1,0,.25l-.09.44h.24a.26.26,0,0,1,.2.06.18.18,0,0,1,0,.17.24.24,0,0,1-.14.18.74.74,0,0,1-.3.05h-.12l-.23,1.18a1.92,1.92,0,0,0,0,.23.2.2,0,0,0,0,.13.16.16,0,0,0,.14.05l.16,0,.16,0a.16.16,0,0,1,.13.06.18.18,0,0,1,0,.15.33.33,0,0,1-.22.24,1.29,1.29,0,0,1-.51.08.76.76,0,0,1-.44-.1.36.36,0,0,1-.15-.28,1.87,1.87,0,0,1,0-.48l.25-1.24h-.09a.26.26,0,0,1-.2-.07.18.18,0,0,1,0-.17.26.26,0,0,1,.11-.17A.39.39,0,0,1,83.17,312.06Z"/><path class="cls-7" d="M86.38,313.47H85.12a.79.79,0,0,0,0,.39.47.47,0,0,0,.18.25.53.53,0,0,0,.3.08l.22,0a.86.86,0,0,0,.2-.08l.19-.12.23-.18a.25.25,0,0,1,.15,0,.2.2,0,0,1,.15.05.17.17,0,0,1,0,.15.51.51,0,0,1-.11.2,1.07,1.07,0,0,1-.25.22,1.48,1.48,0,0,1-.38.18,1.65,1.65,0,0,1-.5.07,1.09,1.09,0,0,1-.91-.35,1.14,1.14,0,0,1-.16-1,1.83,1.83,0,0,1,.19-.53,1.53,1.53,0,0,1,.33-.42,1.39,1.39,0,0,1,.45-.27A1.59,1.59,0,0,1,86,312a1.1,1.1,0,0,1,.62.16.8.8,0,0,1,.33.41,1,1,0,0,1,0,.51.4.4,0,0,1-.2.31A1,1,0,0,1,86.38,313.47Zm-1.2-.37h1.17a.68.68,0,0,0-.09-.49.44.44,0,0,0-.38-.16.63.63,0,0,0-.43.17A1,1,0,0,0,85.19,313.11Z"/><path class="cls-7" d="M88.2,312.37v.08a1.66,1.66,0,0,1,.44-.33,1,1,0,0,1,.46-.1.9.9,0,0,1,.52.15.82.82,0,0,1,.32.45,1.46,1.46,0,0,1,0,.7,1.9,1.9,0,0,1-.18.55,1.55,1.55,0,0,1-.31.42,1.29,1.29,0,0,1-.39.26,1.16,1.16,0,0,1-.45.09.81.81,0,0,1-.45-.11,1,1,0,0,1-.3-.33l-.18,1q-.08.42-.39.42t-.22-.11a.64.64,0,0,1,0-.32l.51-2.78a.49.49,0,0,1,.13-.27A.33.33,0,0,1,88,312a.24.24,0,0,1,.21.09A.34.34,0,0,1,88.2,312.37Zm1.1.94a1.06,1.06,0,0,0,0-.44.5.5,0,0,0-.17-.28.45.45,0,0,0-.29-.1.7.7,0,0,0-.49.21,1.09,1.09,0,0,0-.3.62.8.8,0,0,0,.07.6.47.47,0,0,0,.42.21.61.61,0,0,0,.32-.09.83.83,0,0,0,.27-.28A1.26,1.26,0,0,0,89.3,313.3Z"/><rect class="cls-32" x="59.59" y="368.06" width="121.79" height="12.26"/><rect class="cls-33" x="59.59" y="384.65" width="121.79" height="12.26"/><polygon class="cls-34" points="59.59 396.91 65.12 394.51 65.12 384.65 59.59 384.65 59.59 396.91"/><polygon class="cls-34" points="181.38 396.91 175.85 394.51 175.85 384.65 181.38 384.65 181.38 396.91"/><rect class="cls-35" x="65.12" y="384.65" width="110.74" height="6.01"/><rect class="cls-7" x="55.63" y="359.89" width="129.71" height="2.16" rx="0.66" ry="0.66"/><path class="cls-36" d="M118.26,345.32l-.15-6.2a13.4,13.4,0,0,1-2.06-.46l.24,6.65L115.71,361l.1,6.76h2.13l-.06-6.76Z"/><path class="cls-37" d="M120.15,339.35l.07,6L120,361l0,6.76h2V339.42C121.36,339.42,120.73,339.39,120.15,339.35Z"/><path class="cls-38" d="M120.22,345.32l-.07-6c-.79-.05-1.47-.14-2-.23l.15,6.2L117.88,361l.06,6.76h2.13l0-6.76Z"/><path class="cls-39" d="M128.42,361l-.61-15.68.24-6.65a13.36,13.36,0,0,1-2,.45l-.15,6.2.4,15.68-.08,6.76h2.12Z"/><path class="cls-40" d="M123.9,345.32l.07-6c-.58,0-1.22.07-1.92.07v28.34h2l0-6.76Z"/><path class="cls-41" d="M125.85,345.32l.15-6.2c-.57.09-1.25.17-2,.23l-.07,6,.19,15.68,0,6.76h2.12l.08-6.76Z"/><rect class="cls-27" x="153.84" y="297.82" width="19.61" height="19.06" rx="5.85" ry="5.85"/><path class="cls-28" d="M167.83,312a28.19,28.19,0,0,1-4.19.09,28.19,28.19,0,0,1-4.19-.09.61.61,0,0,1-.61-.61s-.09-1.77-.09-4.05.09-4.05.09-4.05a.61.61,0,0,1,.61-.61,29,29,0,0,1,4.19-.09,29,29,0,0,1,4.19.09.61.61,0,0,1,.61.61s.09,1.1.09,4.05-.09,4.05-.09,4.05A.61.61,0,0,1,167.83,312Z"/><path class="cls-42" d="M163,308.57a27.66,27.66,0,0,1-2.4,0,.17.17,0,0,1-.17-.17s0-2,0-1.16,0-1.16,0-1.16a.17.17,0,0,1,.17-.17,27.66,27.66,0,0,1,2.4,0,.17.17,0,0,1,.17.17s0,.32,0,1.16,0,1.16,0,1.16A.17.17,0,0,1,163,308.57Z"/><circle class="cls-43" cx="156.28" cy="333.56" r="2.4"/><path class="cls-21" d="M139.82,287.4h-38.2a3.17,3.17,0,0,0-2.51,1.24l-1.45,1.89h46.12l-1.45-1.89A3.17,3.17,0,0,0,139.82,287.4Z"/><circle class="cls-44" cx="131.78" cy="304.71" r="4.32"/><circle class="cls-44" cx="113.88" cy="323.58" r="1.8"/><path class="cls-32" d="M121.45,287.4H101.63a3.17,3.17,0,0,0-2.51,1.24l-1.45,1.89h23.78"/><ellipse class="cls-38" cx="80.49" cy="332.48" rx="7.45" ry="7.45"/><path class="cls-45" d="M121.81,338.49a23.56,23.56,0,0,1,0-47.12"/><path class="cls-46" d="M121.45,367.82H54.07l1.82,27.51a9.41,9.41,0,0,0,9.39,8.79h56.17"/><path class="cls-7" d="M87.67,375.25H87v1a.46.46,0,0,1-.1.32.35.35,0,0,1-.5,0,.45.45,0,0,1-.1-.31v-2.65a.43.43,0,0,1,.11-.33.48.48,0,0,1,.34-.1h.89a2.34,2.34,0,0,1,.61.06.91.91,0,0,1,.36.19.88.88,0,0,1,.23.33,1.17,1.17,0,0,1,.08.44,1,1,0,0,1-.32.8A1.47,1.47,0,0,1,87.67,375.25Zm-.17-1.58H87v1.05h.47a1.4,1.4,0,0,0,.41-.05.48.48,0,0,0,.25-.17.5.5,0,0,0,.09-.31.52.52,0,0,0-.13-.37A.89.89,0,0,0,87.5,373.68Z"/><path class="cls-7" d="M91.53,373.09a1.84,1.84,0,0,1,.92.22,1.41,1.41,0,0,1,.58.62,2.11,2.11,0,0,1,.2.94,2.3,2.3,0,0,1-.11.73,1.57,1.57,0,0,1-.32.57,1.41,1.41,0,0,1-.53.37,2.09,2.09,0,0,1-1.44,0,1.43,1.43,0,0,1-.53-.37,1.57,1.57,0,0,1-.32-.57,2.3,2.3,0,0,1-.11-.72,2.23,2.23,0,0,1,.11-.73,1.56,1.56,0,0,1,.33-.56,1.42,1.42,0,0,1,.53-.36A1.89,1.89,0,0,1,91.53,373.09Zm1,1.77a1.61,1.61,0,0,0-.12-.66.91.91,0,0,0-.35-.42,1,1,0,0,0-.52-.14.94.94,0,0,0-.39.08.85.85,0,0,0-.3.23,1.09,1.09,0,0,0-.2.38,1.74,1.74,0,0,0-.07.52,1.78,1.78,0,0,0,.07.53,1.09,1.09,0,0,0,.21.39.88.88,0,0,0,.31.23A1,1,0,0,0,92,376a.92.92,0,0,0,.36-.41A1.6,1.6,0,0,0,92.52,374.86Z"/><path class="cls-7" d="M95,373.52V376H96.4a.37.37,0,0,1,.26.08.27.27,0,0,1,.09.21.26.26,0,0,1-.09.21.38.38,0,0,1-.26.08H94.71a.45.45,0,0,1-.33-.1.45.45,0,0,1-.1-.33v-2.65a.46.46,0,0,1,.1-.32.32.32,0,0,1,.25-.11.33.33,0,0,1,.25.1A.45.45,0,0,1,95,373.52Z"/><path class="cls-7" d="M99.82,376.21l-.16-.43h-1.4l-.16.44a1.54,1.54,0,0,1-.16.35.26.26,0,0,1-.22.09.33.33,0,0,1-.23-.1.29.29,0,0,1-.1-.22.49.49,0,0,1,0-.15l.08-.21.88-2.24.09-.23a1.17,1.17,0,0,1,.11-.22.46.46,0,0,1,.16-.14.48.48,0,0,1,.24-.06.49.49,0,0,1,.24.06.47.47,0,0,1,.16.14,1,1,0,0,1,.1.19l.1.27.9,2.22a1.12,1.12,0,0,1,.11.37.31.31,0,0,1-.1.22.33.33,0,0,1-.24.1.31.31,0,0,1-.14,0,.29.29,0,0,1-.1-.08.74.74,0,0,1-.09-.15Zm-1.38-1h1L99,373.83Z"/><path class="cls-7" d="M102.49,375.12h-.24v1.11a.46.46,0,0,1-.1.32.33.33,0,0,1-.25.1.32.32,0,0,1-.26-.11.48.48,0,0,1-.09-.32v-2.65a.37.37,0,0,1,.43-.43h1.13l.4,0a1,1,0,0,1,.3.08.87.87,0,0,1,.29.19.85.85,0,0,1,.19.29,1,1,0,0,1,.06.36.86.86,0,0,1-.22.62,1.25,1.25,0,0,1-.66.33,1.27,1.27,0,0,1,.35.29,3,3,0,0,1,.3.41,3,3,0,0,1,.21.39.78.78,0,0,1,.07.24.25.25,0,0,1,0,.13.3.3,0,0,1-.12.11.37.37,0,0,1-.17,0,.34.34,0,0,1-.2-.06.53.53,0,0,1-.14-.14l-.16-.25-.28-.46a2.56,2.56,0,0,0-.27-.39.66.66,0,0,0-.24-.18A.83.83,0,0,0,102.49,375.12Zm.4-1.45h-.64v.95h.62a1.75,1.75,0,0,0,.42,0,.5.5,0,0,0,.26-.15.42.42,0,0,0,.09-.29.43.43,0,0,0-.27-.42A1.45,1.45,0,0,0,102.89,373.68Z"/><path class="cls-7" d="M107,373.09a1.84,1.84,0,0,1,.92.22,1.41,1.41,0,0,1,.58.62,2.11,2.11,0,0,1,.2.94,2.3,2.3,0,0,1-.11.73,1.57,1.57,0,0,1-.32.57,1.41,1.41,0,0,1-.53.37,2.09,2.09,0,0,1-1.44,0,1.43,1.43,0,0,1-.53-.37,1.57,1.57,0,0,1-.32-.57,2.3,2.3,0,0,1-.11-.72,2.23,2.23,0,0,1,.11-.73,1.56,1.56,0,0,1,.33-.56,1.42,1.42,0,0,1,.53-.36A1.89,1.89,0,0,1,107,373.09Zm1,1.77a1.61,1.61,0,0,0-.12-.66.91.91,0,0,0-.35-.42,1,1,0,0,0-.52-.14.94.94,0,0,0-.39.08.85.85,0,0,0-.3.23,1.09,1.09,0,0,0-.2.38,1.74,1.74,0,0,0-.07.52,1.78,1.78,0,0,0,.07.53,1.09,1.09,0,0,0,.21.39.88.88,0,0,0,.31.23,1,1,0,0,0,.87-.06.92.92,0,0,0,.36-.41A1.6,1.6,0,0,0,108,374.86Z"/><path class="cls-7" d="M109.81,376.23v-2.71a.46.46,0,0,1,.1-.32.32.32,0,0,1,.25-.11.33.33,0,0,1,.25.1.45.45,0,0,1,.1.32v2.71a.46.46,0,0,1-.1.32.33.33,0,0,1-.25.11.32.32,0,0,1-.25-.11A.46.46,0,0,1,109.81,376.23Z"/><path class="cls-7" d="M112.19,373.15h.91a2.45,2.45,0,0,1,.61.07,1.12,1.12,0,0,1,.46.25,1.74,1.74,0,0,1,.54,1.4,2.75,2.75,0,0,1-.05.57,1.67,1.67,0,0,1-.17.46,1.43,1.43,0,0,1-.29.37,1.19,1.19,0,0,1-.3.2,1.37,1.37,0,0,1-.35.11,2.69,2.69,0,0,1-.43,0h-.91a.57.57,0,0,1-.29-.06.27.27,0,0,1-.13-.16,1,1,0,0,1,0-.27v-2.52a.37.37,0,0,1,.43-.43Zm.27.55V376h.8l.2,0a.55.55,0,0,0,.18-.11,1.27,1.27,0,0,0,.35-1,1.5,1.5,0,0,0-.15-.76.68.68,0,0,0-.38-.32,1.87,1.87,0,0,0-.54-.07Z"/><path class="cls-7" d="M118.16,373.52V376h1.41a.37.37,0,0,1,.26.08.27.27,0,0,1,.09.21.26.26,0,0,1-.09.21.38.38,0,0,1-.26.08h-1.68a.45.45,0,0,1-.33-.1.45.45,0,0,1-.1-.33v-2.65a.46.46,0,0,1,.1-.32.32.32,0,0,1,.25-.11.33.33,0,0,1,.25.1A.45.45,0,0,1,118.16,373.52Z"/><path class="cls-7" d="M123,376.21l-.16-.43h-1.4l-.16.44a1.54,1.54,0,0,1-.16.35.26.26,0,0,1-.22.09.33.33,0,0,1-.23-.1.29.29,0,0,1-.1-.22.49.49,0,0,1,0-.15l.08-.21.88-2.24.09-.23a1.17,1.17,0,0,1,.11-.22.46.46,0,0,1,.16-.14.48.48,0,0,1,.24-.06.49.49,0,0,1,.24.06.47.47,0,0,1,.16.14,1,1,0,0,1,.1.19l.1.27.9,2.22a1.12,1.12,0,0,1,.11.37.31.31,0,0,1-.1.22.33.33,0,0,1-.24.1.31.31,0,0,1-.14,0,.29.29,0,0,1-.1-.08.74.74,0,0,1-.09-.15Zm-1.38-1h1l-.52-1.42Z"/><path class="cls-7" d="M125.64,373.51l1.34,2v-2a.45.45,0,0,1,.09-.3.29.29,0,0,1,.23-.1.3.3,0,0,1,.24.1.45.45,0,0,1,.09.3v2.71q0,.45-.38.45a.5.5,0,0,1-.17,0,.43.43,0,0,1-.14-.09.83.83,0,0,1-.12-.14l-.11-.16-1.31-2v2a.43.43,0,0,1-.09.3.3.3,0,0,1-.23.1.3.3,0,0,1-.24-.1.44.44,0,0,1-.09-.3V373.6a.75.75,0,0,1,0-.27.38.38,0,0,1,.15-.17.4.4,0,0,1,.22-.07.37.37,0,0,1,.28.11l.1.13Z"/><path class="cls-7" d="M129.3,373.15h.91a2.45,2.45,0,0,1,.61.07,1.12,1.12,0,0,1,.46.25,1.74,1.74,0,0,1,.54,1.4,2.75,2.75,0,0,1-.05.57,1.67,1.67,0,0,1-.17.46,1.43,1.43,0,0,1-.29.37,1.19,1.19,0,0,1-.3.2,1.37,1.37,0,0,1-.35.11,2.69,2.69,0,0,1-.43,0h-.91a.57.57,0,0,1-.29-.06.27.27,0,0,1-.13-.16,1,1,0,0,1,0-.27v-2.52a.37.37,0,0,1,.43-.43Zm.27.55V376h.8l.2,0a.55.55,0,0,0,.18-.11,1.27,1.27,0,0,0,.35-1,1.5,1.5,0,0,0-.15-.76.68.68,0,0,0-.38-.32,1.87,1.87,0,0,0-.54-.07Z"/><path class="cls-7" d="M137.51,375.51a.92.92,0,0,1-.08.36,1.3,1.3,0,0,1-.7.67,1.59,1.59,0,0,1-.63.12,2.2,2.2,0,0,1-.49-.05,1.39,1.39,0,0,1-.4-.16,1.36,1.36,0,0,1-.33-.29,1.7,1.7,0,0,1-.23-.36,1.9,1.9,0,0,1-.14-.43,2.33,2.33,0,0,1,0-.48,2.15,2.15,0,0,1,.12-.74,1.59,1.59,0,0,1,.35-.56,1.51,1.51,0,0,1,.53-.36,1.71,1.71,0,0,1,.65-.12,1.61,1.61,0,0,1,.74.17,1.35,1.35,0,0,1,.5.41.81.81,0,0,1,.17.46.3.3,0,0,1-.08.21.27.27,0,0,1-.2.09.28.28,0,0,1-.2-.06.88.88,0,0,1-.15-.22,1.05,1.05,0,0,0-.32-.38.78.78,0,0,0-.45-.13.82.82,0,0,0-.68.33,1.48,1.48,0,0,0-.25.93,1.72,1.72,0,0,0,.11.67.84.84,0,0,0,.32.4.88.88,0,0,0,.48.13.85.85,0,0,0,.51-.15.9.9,0,0,0,.31-.44.74.74,0,0,1,.11-.22.25.25,0,0,1,.21-.09.3.3,0,0,1,.21.09A.29.29,0,0,1,137.51,375.51Z"/><path class="cls-7" d="M140.82,376.21l-.16-.43h-1.4l-.16.44a1.54,1.54,0,0,1-.16.35.26.26,0,0,1-.22.09.33.33,0,0,1-.23-.1.29.29,0,0,1-.1-.22.49.49,0,0,1,0-.15l.08-.21.88-2.24.09-.23a1.17,1.17,0,0,1,.11-.22.46.46,0,0,1,.16-.14.48.48,0,0,1,.24-.06.49.49,0,0,1,.24.06.47.47,0,0,1,.16.14,1,1,0,0,1,.1.19l.1.27.9,2.22a1.12,1.12,0,0,1,.11.37.31.31,0,0,1-.1.22.33.33,0,0,1-.24.1.31.31,0,0,1-.14,0,.29.29,0,0,1-.1-.08.74.74,0,0,1-.09-.15Zm-1.38-1h1l-.52-1.42Z"/><path class="cls-7" d="M143.72,376.08l-.55-2.19v2.38a.43.43,0,0,1-.09.3.32.32,0,0,1-.46,0,.43.43,0,0,1-.09-.3v-2.72a.34.34,0,0,1,.12-.3.56.56,0,0,1,.32-.08h.22a.82.82,0,0,1,.28,0,.24.24,0,0,1,.13.13,2,2,0,0,1,.1.3l.5,1.89.5-1.89a2,2,0,0,1,.1-.3.24.24,0,0,1,.13-.13.82.82,0,0,1,.28,0h.22a.56.56,0,0,1,.32.08.34.34,0,0,1,.12.3v2.72a.43.43,0,0,1-.09.3.3.3,0,0,1-.24.1.29.29,0,0,1-.23-.1.43.43,0,0,1-.09-.3v-2.38l-.55,2.19q-.05.21-.09.31a.43.43,0,0,1-.13.18.37.37,0,0,1-.25.08.37.37,0,0,1-.34-.19.78.78,0,0,1-.07-.18Z"/><path class="cls-7" d="M149.3,373.69h-1.57v.85h1.45a.34.34,0,0,1,.24.07.24.24,0,0,1,.08.19.25.25,0,0,1-.08.19.34.34,0,0,1-.24.07h-1.45v1h1.62a.36.36,0,0,1,.25.08.26.26,0,0,1,.08.2.26.26,0,0,1-.08.2.36.36,0,0,1-.25.08h-1.89a.45.45,0,0,1-.33-.1.45.45,0,0,1-.1-.33v-2.59a.58.58,0,0,1,0-.25.28.28,0,0,1,.14-.14.59.59,0,0,1,.24,0h1.84a.36.36,0,0,1,.25.07.25.25,0,0,1,.08.19.25.25,0,0,1-.08.2A.36.36,0,0,1,149.3,373.69Z"/><path class="cls-7" d="M151.66,375.12h-.24v1.11a.46.46,0,0,1-.1.32.33.33,0,0,1-.25.1.32.32,0,0,1-.26-.11.48.48,0,0,1-.09-.32v-2.65a.37.37,0,0,1,.43-.43h1.13l.4,0a1,1,0,0,1,.3.08.87.87,0,0,1,.29.19.85.85,0,0,1,.19.29,1,1,0,0,1,.06.36.86.86,0,0,1-.22.62,1.25,1.25,0,0,1-.66.33,1.27,1.27,0,0,1,.35.29,3,3,0,0,1,.3.41,3,3,0,0,1,.21.39.78.78,0,0,1,.07.24.25.25,0,0,1,0,.13.3.3,0,0,1-.12.11.37.37,0,0,1-.17,0,.34.34,0,0,1-.2-.06.53.53,0,0,1-.14-.14l-.16-.25-.28-.46a2.56,2.56,0,0,0-.27-.39.66.66,0,0,0-.24-.18A.83.83,0,0,0,151.66,375.12Zm.4-1.45h-.64v.95H152a1.75,1.75,0,0,0,.42,0,.5.5,0,0,0,.26-.15.42.42,0,0,0,.09-.29.43.43,0,0,0-.27-.42A1.45,1.45,0,0,0,152.06,373.68Z"/><path class="cls-7" d="M156.86,376.21l-.16-.43h-1.4l-.16.44a1.54,1.54,0,0,1-.16.35.26.26,0,0,1-.22.09.33.33,0,0,1-.23-.1.29.29,0,0,1-.1-.22.49.49,0,0,1,0-.15l.08-.21.88-2.24.09-.23a1.17,1.17,0,0,1,.11-.22.46.46,0,0,1,.16-.14.48.48,0,0,1,.24-.06.49.49,0,0,1,.24.06.47.47,0,0,1,.16.14,1,1,0,0,1,.1.19l.1.27.9,2.22a1.12,1.12,0,0,1,.11.37.31.31,0,0,1-.1.22.33.33,0,0,1-.24.1.31.31,0,0,1-.14,0,.29.29,0,0,1-.1-.08.74.74,0,0,1-.09-.15Zm-1.38-1h1l-.52-1.42Z"/><path class="cls-47" d="M121.58,191.5h-.27v8.22h.06v.05l0,.17v8.78h.27a45.69,45.69,0,0,0,15.48-2.61,35,35,0,0,0,5.17-2.34V187.33A52.84,52.84,0,0,1,121.58,191.5Z"/><path class="cls-48" d="M128.08,141.72a16.35,16.35,0,0,1-6.86,1.8h-.37a16.45,16.45,0,0,1-7.24-1.81,1.38,1.38,0,0,1,1.35-2.41,13.5,13.5,0,0,0,5.89,1.47h.37a13.36,13.36,0,0,0,5.52-1.46,1.39,1.39,0,0,1,1.87.53A1.37,1.37,0,0,1,128.08,141.72Z"/></g></g></g></svg>