<svg xmlns="http://www.w3.org/2000/svg" viewBox="0 0 272.02 313.05"><defs><style>.cls-1{fill:#43472e;}.cls-2{fill:#50543f;}.cls-3{fill:#a07070;}.cls-4{fill:#7c5959;}.cls-5{fill:#6e574c;}.cls-6{fill:#daddc7;}.cls-7{fill:#2d1c1a;}.cls-8{fill:#fff;}.cls-9{fill:#513a3a;}</style></defs><title>bert_2</title><g id="Layer_2" data-name="Layer 2"><g id="Layer_1-2" data-name="Layer 1"><path class="cls-1" d="M98.17,27.18s54.27,0,74.5,9.89a25.59,25.59,0,0,1,2.66,1.48s7.69-21.16,0-28-63.15-15-71.77-7.67S98.17,27.18,98.17,27.18Z"/><path class="cls-2" d="M97.56,19.76c-21.83,1.85-31,3.46-36,16.79s18,30,18,30,38-30.67,74-9.33,17.55,16.24,17.55,16.24,32.82,8.21,21.28-19.28C182.13,29.71,153.26,15.05,97.56,19.76Z"/><path class="cls-3" d="M1.31,197.39C13,224,18.83,261.36,28.57,281,36,296.11,60.11,310.22,73.32,308.4s4.54-20.78-17.78-26.68c-20.57-5.43-20-69.64-24.25-77.4l34.58-16S36.22,171,26.39,173.22-5.6,181.6,1.31,197.39Z"/><path class="cls-3" d="M265.89,181.22c-18-22.83-33.05-57.5-47.43-74.1-11-12.71-37.87-20.31-50.19-15.22s.84,21.26,23.92,21.35c21.27.08,36.9,62.37,42.94,68.81l-29.45,24.14s48.24,20,57.2,15.36S276.55,194.76,265.89,181.22Z"/><path class="cls-4" d="M128.62,110.83H146v35c43.3,4,76.07,23,76.07,45.71l-93.4-23.62V110.83"/><path class="cls-4" d="M128.62,182.93V111.54H111.39v34.76c-43.05,4-75.63,22.84-75.63,45.44Z"/><path class="cls-3" d="M118.62,33.85C94.7,33.85,85.31,50,85.31,82.17s19.39,58.32,43.32,58.32,43.32-26.11,43.32-58.32S142.55,33.85,118.62,33.85Z"/><path class="cls-5" d="M175.83,73.58s1.48-5.62,3.85-3.85-.15,20.57-9.62,24.72"/><path class="cls-3" d="M85.31,82.17c0,32.21,19.39,58.32,43.32,58.32V33.85C104.7,33.85,85.31,50,85.31,82.17Z"/><path class="cls-3" d="M77.57,73.73C75.2,75.51,76.38,89.86,85.85,94L81.41,73.58S79.93,72,77.57,73.73Z"/><path class="cls-6" d="M128.89,163.47c18.36,0,33.24-7.09,33.24-15.84l.79-.08s39.35,1.17,50.76,12c9.73,9.23,12.85,13.59,21.46,22.5-2.67,11-1.25,44.5-1.25,44.5l-42.42-17.33s5.42,75.67,1.42,96.33l-64,2.5"/><path class="cls-6" d="M129.9,163.47c-18.36,0-33.24-7.09-33.24-15.84l-.79-.08s-62.41,11.07-71,20c2.67,11,17.54,37,17.54,37l24.92-5.33S61.9,284.88,65.9,305.55l64,2.5"/><path class="cls-2" d="M59.89,305.55s-4.5-81.5,0-99.5,1.95-65.57,1.95-65.57l49.55,5.82S99.06,288.05,110,313.05"/><path class="cls-2" d="M195.33,305.55s4.5-81.5,0-99.5-5.95-65.57-5.95-65.57l-49.55,5.82s12.33,141.74,1.42,166.74"/><path class="cls-7" d="M76,23.65s22.89,5.9,32.22,2.57,34.61,3.73,55.33,17.83c27.92,19,18.67,80.83,18.67,80.83s-25.33-27.33-24-44.67-28.67-23.33-60-26S76,23.65,76,23.65Z"/><path class="cls-7" d="M82.93,50s-7.63,24.84,0,47.51l9,8.69s-5.16-24.6-2.41-38.31,6.41-20.88,6.41-20.88Z"/><path class="cls-7" d="M108.74,77c3.59-1.79,11.76,1.55,11-.89s-12-3.11-14-1.11-4.33,5.67-2.29,4.7C104.79,79.06,106.64,78.05,108.74,77Z"/><path class="cls-8" d="M140.89,115.88c0,3.13-6.13,8.67-13.7,8.67s-13.7-5.54-13.7-8.67c0-.46,6.13,1.33,13.7,1.33S140.89,115.42,140.89,115.88Z"/><path class="cls-9" d="M140.89,115.88c0,1.14-6.13,6.06-13.7,6.06s-13.7-4.92-13.7-6.06,6.13,2.94,13.7,2.94S140.89,114.75,140.89,115.88Z"/><path class="cls-7" d="M71.39,179.05"/><path class="cls-3" d="M218.47,107.12c-11-12.71-37.87-20.31-50.19-15.22s7.4,23.42,30.49,23.51"/><path class="cls-3" d="M28.57,281C36,296.11,60.11,310.22,73.32,308.4s4.54-20.78-17.78-26.68"/><path class="cls-7" d="M142.55,77.1c-3.58-1.84-11.72,1.59-11-.91s10.78-3.14,13-2.16,5.31,6.84,3.28,5.84C146.48,79.21,144.64,78.18,142.55,77.1Z"/><path class="cls-7" d="M122.6,107.85c.08.36.63.27,1.27.34a5.85,5.85,0,0,0,1.44.23c.8-.16,1.11-.55-.39-1.06C121.64,106.24,122.35,106.69,122.6,107.85Z"/><path class="cls-7" d="M132.12,107.85c-.08.36-.63.27-1.27.34a5.85,5.85,0,0,1-1.44.23c-.8-.16-1.11-.55.39-1.06C133.07,106.24,132.37,106.69,132.12,107.85Z"/><path class="cls-7" d="M141.74,87c0,1.66-1.34,2-3,2s-3-.34-3-2a3,3,0,0,1,6,0Z"/><path class="cls-7" d="M115.74,87c0,1.66-1.34,2-3,2s-3-.34-3-2a3,3,0,0,1,6,0Z"/></g></g></svg>