<svg xmlns="http://www.w3.org/2000/svg" viewBox="0 0 275.25 417.38"><defs><style>.cls-1{isolation:isolate;}.cls-2{fill:#3e422b;}.cls-3{fill:#43472e;}.cls-4{fill:#2d1c1a;}.cls-5{fill:#50543f;}.cls-6{fill:#936464;}.cls-7{fill:#895d5d;}.cls-8{fill:#956868;}.cls-9{fill:#2a1a18;}.cls-10{fill:#8e3c36;}.cls-11{fill:#99413a;}.cls-12{fill:#ededed;}.cls-13{fill:#fff;}.cls-14{fill:#cbceb9;}.cls-15{fill:#a07070;}.cls-16{fill:#daddc7;}.cls-17{fill:#4a4e3b;}.cls-18{fill:#525252;opacity:0.1;mix-blend-mode:multiply;}.cls-19{fill:#775757;}.cls-20{fill:#7c595a;}.cls-21{fill:#a37474;}</style></defs><title>bert_2</title><g class="cls-1"><g id="Layer_2" data-name="Layer 2"><g id="Layer_1-2" data-name="Layer 1"><path class="cls-2" d="M163.54,21.88A53.24,53.24,0,0,0,121.22,0V15.87A151.54,151.54,0,0,1,163.54,21.88Z"/><path class="cls-3" d="M78.76,20.12a18.78,18.78,0,0,1,9.09-2.34,12.43,12.43,0,0,0,0,1.44,156.89,156.89,0,0,1,32.66-3.36h.75V0l-.75,0A53.22,53.22,0,0,0,78.76,20.12Z"/><path class="cls-2" d="M174,54.43a15.85,15.85,0,0,1-.4,3.49q-.11,1.26-.27,2.5h.62a8.26,8.26,0,0,1,8.26,8.26V94.35c6-5.84,9.41-12.61,9.41-19.83,0-10.07-6.66-19.26-17.62-26.29,0,0,0,.09,0,.13Z"/><path class="cls-4" d="M173.52,149h.42a8.25,8.25,0,0,0,7.12-4.09,19.24,19.24,0,0,1-6.63-3A53.09,53.09,0,0,1,173.52,149Z"/><path class="cls-5" d="M142.51,203.77h0Z"/><path class="cls-5" d="M142.14,203.75l.33,0h0l-.34-.13Z"/><path class="cls-5" d="M142.14,203.94l.33-.18-.33,0Z"/><path class="cls-6" d="M121.27,199.95v-.05h-.06v.05Z"/><path class="cls-6" d="M121.22,200.12l0-.17h0Z"/><path class="cls-7" d="M121.49,191.69h-.27v8.21h.06v.05l0,.17v8.77h.27a45.72,45.72,0,0,0,15.48-2.6,35,35,0,0,0,5.17-2.34V187.52A52.88,52.88,0,0,1,121.49,191.69Z"/><path class="cls-8" d="M167.37,132.61a8.26,8.26,0,0,1-8.14-8.25V70.21c-.35,0-.71.05-1.06.05H121.22v86.14h13.39a13.13,13.13,0,0,1-12.7,13.11l-.42,0h-.27v22.16h.27a52.95,52.95,0,0,0,52.94-49.78A19.44,19.44,0,0,1,167.37,132.61Zm-36.85-10.39a4.92,4.92,0,1,1,4.1,2.2A4.9,4.9,0,0,1,130.52,122.22Z"/><path class="cls-4" d="M121.49,32.53h0Z"/><path class="cls-9" d="M134.62,114.57a4.91,4.91,0,1,0,4.92,4.92A4.92,4.92,0,0,0,134.62,114.57Zm1.64,1.64a1.64,1.64,0,1,1-1.64,1.64A1.64,1.64,0,0,1,136.26,116.21Z"/><path class="cls-9" d="M121.22,158V163h.27a13.06,13.06,0,0,1,8.66,3.28,13.08,13.08,0,0,0,4.46-9.85h-.76c-1.8,1-6.65,1.64-12.36,1.64Z"/><path class="cls-10" d="M121.22,163v6.53h.69a13.06,13.06,0,0,0,8.24-3.26,13.06,13.06,0,0,0-8.66-3.28Z"/><path class="cls-11" d="M121.22,169.51h.27l.42,0h-.69Z"/><path class="cls-12" d="M121.49,158.05c5.71,0,10.56-.69,12.36-1.64H121.22V158Z"/><circle class="cls-13" cx="136.26" cy="117.85" r="1.64"/><path class="cls-14" d="M218.18,220.2c-.29-1.58-.54-2.51-.54-2.51s-14-11.2-61.36-13.92c1.82.67,3.2.71,4.88,1.53,9.32,4.55,16.84,12,22.28,19.65a79.36,79.36,0,0,1,9.37,17.87,95.63,95.63,0,0,1,3,9.25c6.31,2.17,11.1,4.18,11.1,4.18a29.49,29.49,0,0,0,6.7-7.25,33.62,33.62,0,0,0,4.94-13.61A48.43,48.43,0,0,0,218.18,220.2Z"/><path class="cls-5" d="M27.14,69.2c0,16,12.4,30.4,32,40.18V94.73c-6.22-5.93-9.8-12.84-9.8-20.22,0-10.21,6.84-19.52,18.07-26.58.51-.32,1-.64,1.57-.95V36.65a18.81,18.81,0,0,1,6.44-14.17C46.64,31.57,27.14,49.08,27.14,69.2Z"/><path class="cls-5" d="M98.61,32.53h22.61V15.87h-.75a156.89,156.89,0,0,0-32.66,3.36C87.89,22.55,89.08,30.62,98.61,32.53Z"/><path class="cls-3" d="M69,54.43V47c-.53.31-1.06.63-1.57.95C56.18,55,49.34,64.3,49.34,74.51c0,7.38,3.58,14.28,9.8,20.22v-26a8.26,8.26,0,0,1,8.26-8.26h2.76A15.77,15.77,0,0,1,69,54.43Z"/><path class="cls-15" d="M30.88,257.32,2,308.19A15.09,15.09,0,0,0,.84,320.62l15.74,96.69H46.87L31.12,318.21l17.54-30.86v-12c0-.79,0-1.62,0-2.48C37.82,266.87,32.76,260.3,30.88,257.32Z"/><path class="cls-16" d="M30,255.68a16.07,16.07,0,0,0,.93,1.64c1.88,3,6.94,9.54,17.82,15.57.44-13.59,4.52-35.46,16.53-51.73A52.64,52.64,0,0,1,81.72,206.3C38.95,217.58,30,255.68,30,255.68Z"/><path class="cls-6" d="M100.84,203.72l-.23.1.23.13Z"/><path class="cls-17" d="M195.77,252.06a84.59,84.59,0,0,0-12.35-27.11c-5.77-8.12-13.46-16.64-23.62-21.18-1.15-.51-16.09.45-17.31,0h0l-.33.18a35,35,0,0,1-5.17,2.34c11.79,8.15,16.31,25.44,17.67,41,.36,4.07.5,8,.5,11.67V417.38H199v-142A94,94,0,0,0,195.77,252.06Z"/><path class="cls-14" d="M154.65,247.3c-1.36-15.57-5.88-32.86-17.67-41a45.72,45.72,0,0,1-15.48,2.6h-.27V417.32H86.67v.07h68.48V259C155.15,255.32,155,251.37,154.65,247.3Z"/><path class="cls-5" d="M102.43,204.78q-.82-.4-1.59-.83l-.23-.13c-1.78.74-17.26,1.57-18.89,2.48a52.64,52.64,0,0,0-16.49,14.86c-12,16.27-16.09,38.14-16.53,51.73,0,.86,0,1.69,0,2.48V417.32h38V259a130,130,0,0,1,1-16,97.3,97.3,0,0,1,1.72-9.82C91.93,222,96.73,211.66,105.24,206,104.27,205.63,103.33,205.22,102.43,204.78Z"/><path class="cls-16" d="M118.87,208.81l-1.64-.11a43.85,43.85,0,0,1-12-2.7c-8.51,5.66-13.31,16-15.89,27.14A97.3,97.3,0,0,0,87.63,243a130,130,0,0,0-1,16V417.32h34.55V208.89C120.43,208.88,119.65,208.86,118.87,208.81Z"/><path class="cls-6" d="M100.84,187.52v16.43q.77.43,1.59.83c.9.44,1.84.85,2.81,1.23a43.85,43.85,0,0,0,12,2.7l1.64.11c.78,0,1.56.07,2.35.07v-17.2A52.88,52.88,0,0,1,100.84,187.52Z"/><path class="cls-15" d="M87.85,70.27h-3A15.88,15.88,0,0,1,82.11,70v70.75A8.26,8.26,0,0,1,73.85,149H69.46a53,53,0,0,0,51.76,42.66V169.52h-.15a13.13,13.13,0,0,1-12.7-13.11h12.86V70.27Zm13.95,44.3a4.92,4.92,0,0,1,4.92,4.92,4.92,4.92,0,0,1-9.85,0A4.92,4.92,0,0,1,101.8,114.57Z"/><path class="cls-6" d="M69.06,46.94,69,47v1.38C69,47.88,69,47.41,69.06,46.94Z"/><path class="cls-4" d="M98.61,32.53c-9.54-1.9-10.72-10-10.8-13.3a12.43,12.43,0,0,1,0-1.44A18.92,18.92,0,0,0,69,36.65V54.43a15.77,15.77,0,0,0,1.18,6H67.4a8.26,8.26,0,0,0-8.26,8.26v52.45a8.21,8.21,0,0,1,8-8.19h.24v16.41a8.2,8.2,0,0,1-8.2-8.2v19.63A8.26,8.26,0,0,0,67.4,149h6.45a8.26,8.26,0,0,0,8.26-8.26V70a15.88,15.88,0,0,0,2.71.25h36.41V32.53H98.61Z"/><path class="cls-6" d="M67.11,112.94a8.2,8.2,0,0,0,.24,16.4V113Z"/><path class="cls-6" d="M67.11,112.94l.24.1v-.11Z"/><path class="cls-4" d="M101.8,114.57a4.92,4.92,0,0,0-4.92,4.92,4.92,4.92,0,0,0,9.85,0A4.92,4.92,0,0,0,101.8,114.57Zm1.64,1.64a1.64,1.64,0,1,1-1.64,1.64A1.64,1.64,0,0,1,103.44,116.21Z"/><path class="cls-4" d="M121.22,158c-5.6,0-10.32-.7-12.1-1.64h-.76a13.08,13.08,0,0,0,4.46,9.85,13.06,13.06,0,0,1,8.39-3.27Z"/><path class="cls-11" d="M121.22,163a13.06,13.06,0,0,0-8.39,3.27,13.06,13.06,0,0,0,8.24,3.26h.15Z"/><path class="cls-18" d="M121.22,169.51h0Z"/><path class="cls-13" d="M121.22,158v-1.64h-12.1C110.9,157.35,115.63,158,121.22,158Z"/><circle class="cls-13" cx="103.44" cy="117.85" r="1.64"/><path class="cls-9" d="M144.79,108.93a1.37,1.37,0,0,1-.63-.3,13.67,13.67,0,0,0-5.52-2.54,13.5,13.5,0,0,0-6.06.34,1.38,1.38,0,0,1-.87-2.61,15.32,15.32,0,0,1,14.22,2.69,1.38,1.38,0,0,1-1.14,2.41Z"/><path class="cls-4" d="M106.9,107.29a1.37,1.37,0,0,1-.68-.13,13.67,13.67,0,0,0-6-1.06A13.5,13.5,0,0,0,94.46,108a1.38,1.38,0,0,1-1.5-2.31,15.32,15.32,0,0,1,14.44-1,1.38,1.38,0,0,1-.5,2.62Z"/><path class="cls-19" d="M120.85,143.54a16.29,16.29,0,0,1-7.24-1.82,1.38,1.38,0,0,1,1.34-2.4,13.67,13.67,0,0,0,5.89,1.47,13.5,13.5,0,0,0,5.89-1.47,1.38,1.38,0,0,1,1.34,2.4A16.29,16.29,0,0,1,120.85,143.54Z"/><path class="cls-8" d="M174.54,131.65a8.22,8.22,0,0,1-3.88,1h-3.17a8.26,8.26,0,0,1-8.26-8.26v16.41a8.26,8.26,0,0,0,8.26,8.26h6a53.28,53.28,0,0,0,1-10.39Z"/><path class="cls-9" d="M182.2,121.13V68.68a8.26,8.26,0,0,0-8.26-8.26h-.62q.16-1.24.27-2.5a15.85,15.85,0,0,0,.4-3.49V48.36s0-.09,0-.13a15.86,15.86,0,0,0-15.83-15.7H121.22V70.27h36.94c.36,0,.71,0,1.06-.05v54.15c0,.06,0,.12,0,.18,0,.22,0,.44,0,.66s0,.25.06.38,0,.3.07.44.07.29.11.43.06.24.09.36.11.3.16.44.07.21.11.31.15.32.23.47l.12.25c.09.17.2.34.3.51l.1.17c.12.18.26.36.39.53l.08.1c.15.19.31.36.48.54l0,0q.27.28.57.53h0a8.22,8.22,0,0,0,5.3,1.93h7.05v6a53.28,53.28,0,0,1-1,10.39h.42a8.26,8.26,0,0,0,8.26-8.26V121.13Z"/><path class="cls-20" d="M178.92,114.58v9.78a8.22,8.22,0,0,1-1,4,8.19,8.19,0,0,0,1-13.78Z"/><path class="cls-20" d="M174.54,129.31a8.16,8.16,0,0,0,3.34-1,8.22,8.22,0,0,0,1-4v-9.78a8.15,8.15,0,0,0-4.38-1.62Z"/><path class="cls-17" d="M120.48,15.86c51.55,0,93.33,23.88,93.33,53.33"/><path class="cls-17" d="M202.81,94.32c.4-.42.77-.85,1.14-1.28s.66-.75,1-1.13.67-.85,1-1.27.61-.8.91-1.21.59-.84.87-1.27.56-.85.82-1.28.51-.84.75-1.27.49-.89.73-1.34.43-.84.62-1.26.42-.94.62-1.42.35-.83.5-1.25.35-1,.51-1.49.27-.81.38-1.23.27-1.06.38-1.6.19-.78.26-1.17c.11-.6.18-1.2.26-1.8,0-.34.1-.67.13-1q.12-1.33.13-2.68c0-.06,0-.11,0-.17h0c0-20.58-20.4-38.42-50.27-47.31a151.54,151.54,0,0,0-42.32-6V32.53h36.94A15.86,15.86,0,0,1,174,48.22c11,7,17.62,16.22,17.62,26.29,0,7.22-3.43,14-9.41,19.83V107h0v2.15c1.55-.78,3-1.6,4.48-2.44h0l.91-.55c.66-.39,1.31-.78,2-1.18l1.1-.72c.65-.43,1.31-.85,1.94-1.29l.8-.58a67.07,67.07,0,0,0,6.18-5c.3-.27.61-.54.9-.81.45-.43.88-.87,1.31-1.31S202.49,94.66,202.81,94.32Z"/><path class="cls-8" d="M268.5,227c-5.48-9.32-63.94-96.77-63.94-96.77l0-.21c0-.22.1-.43.14-.66a19.39,19.39,0,1,0-23.68,15.56h0c.54.13,1.1.25,1.66.33s1.16.16,1.76.19c.43,0,.86,0,1.29,0l50.07,80-17.67-5.25a48.43,48.43,0,0,1,.34,15.18A33.62,33.62,0,0,1,213.57,249s27.9,8.2,35.24,10.48,18.35,2.28,23.86-6S274,236.32,268.5,227Z"/><path class="cls-21" d="M182.2,110.12c-.29,0-.58-.08-.87-.1s-.54,0-.81,0a9.64,9.64,0,0,0-6,2.29q-.34.29-.66.62a9.56,9.56,0,0,0,.11,13.45q.26.26.55.5a9.55,9.55,0,0,0,2.88,1.7l.27.09a9.58,9.58,0,1,0,4.51-18.55Z"/></g></g></g></svg>