<svg xmlns="http://www.w3.org/2000/svg" viewBox="0 0 274.67 416.51"><defs><style>.cls-1{isolation:isolate;}.cls-2{fill:#3e422b;}.cls-3{fill:#43472e;}.cls-4{fill:#2d1c1a;}.cls-5{fill:#50543f;}.cls-6{fill:#936464;}.cls-7{fill:#895d5d;}.cls-8{fill:#956868;}.cls-9{fill:#2a1a18;}.cls-10{fill:#8e3c36;}.cls-11{fill:#99413a;}.cls-12{fill:#ededed;}.cls-13{fill:#fff;}.cls-14{fill:#cbceb9;}.cls-15{fill:#a07070;}.cls-16{fill:#daddc7;}.cls-17{fill:#4a4e3b;}.cls-18{fill:#525252;mix-blend-mode:multiply;}.cls-18,.cls-48{opacity:0.1;}.cls-19{fill:#775757;}.cls-20{fill:#7c595a;}.cls-21{fill:#a37474;}.cls-22{fill:#3f2206;}.cls-23{fill:#504e5d;}.cls-24{fill:#080d21;}.cls-25{fill:#eaeaea;}.cls-26,.cls-48{fill:#dcdcdc;}.cls-27{fill:#424454;}.cls-28{fill:#bbb;}.cls-29{fill:#272e3a;}.cls-30{fill:#acb4c8;}.cls-31{fill:#52535c;}.cls-32{fill:#262a39;}.cls-33{fill:#1f242f;}.cls-34{fill:#3e4255;}.cls-35{fill:#0b1226;}.cls-36{fill:#747385;}.cls-37{fill:#8d8b97;}.cls-38{fill:#ee52ba;}.cls-39{fill:#fdc551;}.cls-40{fill:#dc3e3a;}.cls-41{fill:#3e85dc;}.cls-42{fill:#fbf856;}.cls-43{fill:#b3d34d;}.cls-44{fill:#e7e8f1;}.cls-45{fill:#6e7282;}.cls-46,.cls-47{fill:#f9f9f9;}.cls-46{opacity:0.6;}.cls-47{opacity:0.2;}</style></defs><title>bert_3</title><g class="cls-1"><g id="Layer_2" data-name="Layer 2"><g id="Layer_1-2" data-name="Layer 1"><path class="cls-2" d="M163.2,21.84A53.13,53.13,0,0,0,121,0V15.84A151.22,151.22,0,0,1,163.2,21.84Z"/><path class="cls-3" d="M78.59,20.08a18.74,18.74,0,0,1,9.08-2.33,12.41,12.41,0,0,0,0,1.44,156.56,156.56,0,0,1,32.59-3.36H121V0l-.75,0A53.11,53.11,0,0,0,78.59,20.08Z"/><path class="cls-2" d="M173.63,54.32a15.81,15.81,0,0,1-.4,3.48q-.11,1.25-.27,2.49h.61a8.24,8.24,0,0,1,8.24,8.24V94.15c6-5.83,9.39-12.59,9.39-19.79,0-10-6.64-19.22-17.58-26.23,0,0,0,.09,0,.13Z"/><path class="cls-4" d="M173.15,148.71h.42a8.23,8.23,0,0,0,7.11-4.08,19.2,19.2,0,0,1-6.62-3A53,53,0,0,1,173.15,148.71Z"/><path class="cls-5" d="M142.21,203.34h0Z"/><path class="cls-5" d="M141.84,203.32l.32,0h0l-.34-.13Z"/><path class="cls-5" d="M141.84,203.52l.32-.18-.32,0Z"/><path class="cls-6" d="M121,199.53v-.05H121v.05Z"/><path class="cls-6" d="M121,199.69l0-.17h0Z"/><path class="cls-7" d="M121.23,191.28H121v8.2H121v.05l0,.17v8.75h.27a45.63,45.63,0,0,0,15.45-2.6,35,35,0,0,0,5.16-2.34V187.12A52.77,52.77,0,0,1,121.23,191.28Z"/><path class="cls-8" d="M172.9,140.72q-.23-.18-.45-.39a15.78,15.78,0,0,1-1.18-1.13c-.17-.17-.34-.35-.5-.54s-.33-.37-.48-.56-.28-.34-.41-.52a18.63,18.63,0,0,1-1.56-2.37q-.25-.46-.48-.93l-.27-.57c-.2-.45-.38-.9-.55-1.37h-.35s0,0-.07,0h-.11l-.3,0c-.27,0-.52-.08-.78-.13l-.25-.06c-.25-.06-.51-.13-.75-.22l-.56-.22-.24-.1-1.22-.71c-.2-.14-.39-.3-.58-.46s-.29-.26-.43-.4l-.18-.18c-.12-.13-.24-.26-.36-.4l-.21-.25h0c-.09-.11-.17-.22-.25-.34a2.13,2.13,0,0,1-.16-.25s0,0,0,0-.14-.21-.2-.32l-.11-.19,0-.09-.07-.16c-.07-.12-.13-.26-.19-.39a.3.3,0,0,1,0-.08l0-.08c-.06-.14-.11-.28-.16-.42a1.82,1.82,0,0,1-.08-.25l-.06-.21,0-.15c0-.12-.07-.23-.09-.35s0-.05,0-.07,0,0,0,0,0-.27-.06-.39l-.06-.38a7.76,7.76,0,0,1,0-.84v-54c-.35,0-.7.06-1.06.06H121v86h13.37a13.13,13.13,0,0,1-12.68,13.08l-.42,0-.27,0v22.12h.27a52.94,52.94,0,0,0,51.92-42.57c.11-.54.21-1.08.3-1.63,0-.33.11-.66.15-1l.09-.66c0-.14,0-.28.06-.42.07-.52.13-1,.17-1.58a1.1,1.1,0,0,0,0-.18q.07-.83.12-1.65C173.66,141.33,173.27,141,172.9,140.72ZM138.83,121.2a4.91,4.91,0,1,1,.41-2A4.91,4.91,0,0,1,138.83,121.2Z"/><path class="cls-4" d="M121.23,32.46h0Z"/><path class="cls-9" d="M134.33,114.33a4.91,4.91,0,1,0,4.91,4.91A4.91,4.91,0,0,0,134.33,114.33Zm1.64,4.91a1.64,1.64,0,1,1,1.63-1.64A1.64,1.64,0,0,1,136,119.24Z"/><path class="cls-9" d="M121,157.72v4.93h.27a13,13,0,0,1,8.64,3.27,13.05,13.05,0,0,0,4.46-9.82h-.76c-1.8,1-6.64,1.64-12.34,1.64Z"/><path class="cls-10" d="M121,162.64v6.51h.69a13,13,0,0,0,8.22-3.25,13,13,0,0,0-8.64-3.27Z"/><path class="cls-11" d="M121,169.16h.27l.42,0H121Z"/><path class="cls-12" d="M121.23,157.72c5.7,0,10.54-.68,12.34-1.64H121v1.64Z"/><circle class="cls-13" cx="135.97" cy="117.6" r="1.64"/><path class="cls-14" d="M217.72,219.74c-.29-1.57-.54-2.5-.54-2.5s-14-11.18-61.24-13.89c1.81.67,3.19.71,4.87,1.53,9.3,4.54,16.8,12,22.23,19.61a79.19,79.19,0,0,1,9.35,17.83,95.43,95.43,0,0,1,3,9.23c6.3,2.16,11.08,4.17,11.08,4.17a29.42,29.42,0,0,0,6.68-7.23,33.55,33.55,0,0,0,4.93-13.58A48.33,48.33,0,0,0,217.72,219.74Z"/><path class="cls-5" d="M27.08,69.05c0,16,12.37,30.34,31.93,40.1V94.53c-6.21-5.92-9.78-12.81-9.78-20.17,0-10.19,6.82-19.48,18-26.53.51-.32,1-.63,1.57-.95V36.58a18.77,18.77,0,0,1,6.42-14.14C46.54,31.5,27.08,49,27.08,69.05Z"/><path class="cls-5" d="M98.41,32.46H121V15.84h-.75a156.56,156.56,0,0,0-32.59,3.36C87.7,22.51,88.89,30.56,98.41,32.46Z"/><path class="cls-3" d="M68.84,54.32V46.88c-.53.31-1.06.63-1.57.95-11.21,7-18,16.34-18,26.53,0,7.36,3.57,14.25,9.78,20.17v-26a8.24,8.24,0,0,1,8.24-8.24H70A15.74,15.74,0,0,1,68.84,54.32Z"/><path class="cls-15" d="M30.81,256.78,2,307.55a15.06,15.06,0,0,0-1.13,12.4l15.71,96.49H46.77l-15.72-98.9,17.5-30.8v-12c0-.79,0-1.62,0-2.48C37.74,266.3,32.69,259.75,30.81,256.78Z"/><path class="cls-16" d="M81.54,205.86q-2,1.11-3.78,2.37a53.76,53.76,0,0,0-12.67,12.46c-12,16.23-16.06,38.06-16.5,51.62-10.86-6-15.91-12.56-17.78-15.53a15.86,15.86,0,0,1-.93-1.64S38.36,219.23,78,206.87C79.17,206.51,80.34,206.18,81.54,205.86Z"/><path class="cls-6" d="M100.63,203.29l-.23.1.23.13Z"/><path class="cls-17" d="M198.62,274.79V416.5h-43.8V258.42c0-3.64-.15-7.58-.5-11.65-1.36-15.53-5.87-32.79-17.64-40.92a34.82,34.82,0,0,0,5.16-2.34c.1-.06.22-.11.32-.18s0,0,0,0h0a13.11,13.11,0,0,0,2.63.12c2.67,0,6.78-.19,10-.25a23.56,23.56,0,0,1,4.66.13l.56.26c9.27,4.31,16.45,11.94,22,19.44.36.48.7,1,1,1.43s.71,1,1.05,1.53.75,1.13,1.11,1.7.87,1.41,1.29,2.12c.22.38.44.76.65,1.15s.39.71.58,1.06a.2.2,0,0,1,0,.08c.2.36.39.73.58,1.09.39.75.76,1.5,1.12,2.25.54,1.12,1,2.24,1.52,3.37l.07.17c1.13,2.64,2.11,5.31,3,8,.23.72.45,1.43.66,2.14s.47,1.64.69,2.45A94.05,94.05,0,0,1,198.62,274.79Z"/><path class="cls-14" d="M154.32,246.78c-1.36-15.54-5.87-32.79-17.64-40.92a45.63,45.63,0,0,1-15.45,2.6H121v208H86.49v.07h68.33V258.42C154.82,254.79,154.68,250.84,154.32,246.78Z"/><path class="cls-5" d="M105,205.57c-8.5,5.64-13.29,16-15.86,27.09a96.92,96.92,0,0,0-1.72,9.79,131.31,131.31,0,0,0-1,16v158H48.55V274.79c0-.79,0-1.62,0-2.48.44-13.56,4.51-35.39,16.5-51.62a53.76,53.76,0,0,1,12.67-12.46q1.82-1.26,3.78-2.37c.86-.48,5.59-.94,10.11-1.37,4-.39,7.9-.76,8.74-1.1l.23.12c.52.29,1,.57,1.59.83C103.11,204.78,104,205.19,105,205.57Z"/><path class="cls-16" d="M118.62,208.38l-1.64-.11a43.76,43.76,0,0,1-12-2.69c-8.49,5.65-13.28,16-15.85,27.09a97.09,97.09,0,0,0-1.72,9.8,129.74,129.74,0,0,0-1,16v158H121v-208C120.18,208.44,119.39,208.42,118.62,208.38Z"/><path class="cls-6" d="M100.63,187.12v16.39q.77.43,1.59.83c.9.44,1.83.85,2.81,1.23a43.76,43.76,0,0,0,12,2.69l1.64.11c.78,0,1.56.07,2.35.07V191.28A52.77,52.77,0,0,1,100.63,187.12Z"/><path class="cls-15" d="M84.63,70.12a16.05,16.05,0,0,1-2.7-.25v70.6a8.24,8.24,0,0,1-8.24,8.24H69.31A52.89,52.89,0,0,0,121,191.28V169.16h-.15a13.13,13.13,0,0,1-12.68-13.08H121v-86Zm21.21,51.52a4.88,4.88,0,0,1-9-1.06,4.9,4.9,0,1,1,9.61-1.34A4.82,4.82,0,0,1,105.84,121.64Z"/><path class="cls-6" d="M68.91,46.84l-.07,0v1.37C68.84,47.78,68.87,47.31,68.91,46.84Z"/><path class="cls-4" d="M98.41,32.46c-9.52-1.9-10.7-10-10.78-13.27a12.41,12.41,0,0,1,0-1.44A18.88,18.88,0,0,0,68.84,36.58V54.32a15.74,15.74,0,0,0,1.18,6H67.26A8.24,8.24,0,0,0,59,68.54v52.34a8.19,8.19,0,0,1,8-8.18h.24v16.37A8.19,8.19,0,0,1,59,120.88v19.59a8.24,8.24,0,0,0,8.24,8.24h6.44a8.24,8.24,0,0,0,8.24-8.24V69.87a15.84,15.84,0,0,0,2.7.25H121V32.46H98.41Z"/><path class="cls-6" d="M67,112.7a8.18,8.18,0,0,0,.24,16.36V112.8Z"/><path class="cls-6" d="M67,112.7l.24.1v-.11Z"/><path class="cls-4" d="M101.58,114.33a4.91,4.91,0,1,0,4.26,7.31,4.82,4.82,0,0,0,.65-2.4A4.91,4.91,0,0,0,101.58,114.33Zm1.64,4.91a1.64,1.64,0,1,1,1.64-1.64A1.64,1.64,0,0,1,103.22,119.24Z"/><path class="cls-4" d="M121,157.72c-5.58,0-10.3-.7-12.07-1.64h-.76a13.05,13.05,0,0,0,4.46,9.82,13,13,0,0,1,8.38-3.26Z"/><path class="cls-11" d="M121,162.64a13,13,0,0,0-8.38,3.26,13,13,0,0,0,8.22,3.25H121Z"/><path class="cls-18" d="M121,169.16h0Z"/><path class="cls-13" d="M121,157.72v-1.64H108.9C110.67,157,115.38,157.7,121,157.72Z"/><circle class="cls-13" cx="103.22" cy="117.6" r="1.64"/><path class="cls-9" d="M144.48,108.7a1.37,1.37,0,0,1-.62-.3,13.64,13.64,0,0,0-5.5-2.53,13.47,13.47,0,0,0-6,.34,1.37,1.37,0,0,1-.87-2.61,15.28,15.28,0,0,1,14.19,2.69,1.37,1.37,0,0,1-1.14,2.4Z"/><path class="cls-4" d="M106.67,107.06a1.37,1.37,0,0,1-.68-.13,13.64,13.64,0,0,0-6-1.06,13.47,13.47,0,0,0-5.77,1.86,1.37,1.37,0,0,1-1.5-2.3,15.28,15.28,0,0,1,14.41-1,1.37,1.37,0,0,1-.49,2.61Z"/><path class="cls-19" d="M120.6,143.23a16.26,16.26,0,0,1-7.22-1.81,1.37,1.37,0,0,1,1.34-2.4,13.64,13.64,0,0,0,5.88,1.46,13.47,13.47,0,0,0,5.88-1.46,1.37,1.37,0,0,1,1.34,2.4A16.26,16.26,0,0,1,120.6,143.23Z"/><path class="cls-8" d="M174.18,131.37a8.2,8.2,0,0,1-3.88,1h-3.16a8.24,8.24,0,0,1-8.24-8.24v16.37a8.24,8.24,0,0,0,8.24,8.24h6a53.17,53.17,0,0,0,1-10.37Z"/><path class="cls-9" d="M181.82,120.88V68.54a8.24,8.24,0,0,0-8.24-8.24H173q.16-1.24.27-2.49a15.81,15.81,0,0,0,.4-3.48V48.26s0-.09,0-.13a15.82,15.82,0,0,0-15.79-15.66H121V70.12h36.86c.36,0,.71,0,1.06-.05v54c0,.06,0,.12,0,.18,0,.22,0,.44,0,.66s0,.25.06.37,0,.3.07.44.07.29.11.43.06.24.09.36.11.3.16.44.07.21.11.31.15.32.22.47l.12.24c.09.17.2.34.3.5l.1.17c.12.18.26.36.39.53l.08.1c.15.19.31.36.48.53l0,0q.27.28.57.52h0a8.21,8.21,0,0,0,5.29,1.92h7v6a53.17,53.17,0,0,1-1,10.37h.42a8.24,8.24,0,0,0,8.24-8.24V120.88Z"/><path class="cls-20" d="M178.54,114.34v9.76a8.2,8.2,0,0,1-1,4,8.18,8.18,0,0,0,1-13.75Z"/><path class="cls-20" d="M174.18,129a8.14,8.14,0,0,0,3.33-.95,8.2,8.2,0,0,0,1-4v-9.76a8.13,8.13,0,0,0-4.37-1.62Z"/><path class="cls-17" d="M120.22,15.83c51.44,0,93.14,23.83,93.14,53.22Z"/><path class="cls-17" d="M202.39,94.12c.39-.42.76-.85,1.14-1.28s.66-.75,1-1.13.67-.84,1-1.27.61-.8.9-1.2.59-.84.87-1.27.56-.85.82-1.27.51-.84.75-1.27.49-.89.72-1.34.43-.84.62-1.26.42-.94.62-1.41.35-.83.5-1.25.34-1,.5-1.49.27-.81.38-1.22.26-1.06.38-1.6.19-.77.26-1.17c.11-.6.18-1.2.26-1.8,0-.34.1-.67.13-1q.12-1.33.13-2.67c0-.06,0-.11,0-.17h0c0-20.53-20.36-38.34-50.16-47.21a151.22,151.22,0,0,0-42.23-6V32.46h36.86a15.82,15.82,0,0,1,15.79,15.66c10.94,7,17.58,16.18,17.58,26.23,0,7.21-3.43,14-9.39,19.79v12.68h0V109c1.54-.78,3-1.6,4.47-2.43h0l.91-.55c.66-.39,1.31-.78,1.95-1.18l1.1-.72c.65-.42,1.3-.85,1.93-1.28l.8-.58a66.93,66.93,0,0,0,6.17-5c.3-.27.61-.54.89-.81.45-.43.88-.87,1.31-1.31S202.06,94.46,202.39,94.12Z"/><path class="cls-8" d="M267.94,226.53c-5.47-9.3-63.81-96.56-63.81-96.56l0-.21c0-.22.1-.43.14-.66a19.34,19.34,0,1,0-23.63,15.53h0c.54.13,1.09.25,1.65.33s1.16.16,1.76.19c.43,0,.86,0,1.28,0l50,79.8-17.63-5.24a48.33,48.33,0,0,1,.34,15.15,33.55,33.55,0,0,1-4.93,13.58s27.84,8.18,35.16,10.45,18.31,2.27,23.81-6S273.41,235.83,267.94,226.53Z"/><path class="cls-21" d="M181.82,109.89c-.29,0-.57-.08-.87-.1s-.54,0-.81,0a9.62,9.62,0,0,0-6,2.29q-.34.29-.65.61a9.54,9.54,0,0,0,.11,13.42q.26.26.55.5a9.53,9.53,0,0,0,2.87,1.7l.27.09a9.56,9.56,0,1,0,4.5-18.51Z"/><rect class="cls-8" x="187.17" y="108.3" width="34.21" height="13.57" rx="4.94" ry="4.94" transform="translate(-15.61 196.47) rotate(-49.71)"/><path class="cls-22" d="M60.25,297.63S58.67,234.75,86,205.06L96.46,204s-27.15,43.58-23,93.62Z"/><path class="cls-22" d="M179.65,296.8H166.41c3.61-44.15-16.1-83.38-21.58-93.34,2.67,0,6.78-.19,10-.25C181.19,234,179.65,296.8,179.65,296.8Z"/><path class="cls-23" d="M65,403.8H175.71a9.41,9.41,0,0,0,9.38-8.72l2-27.55H53.78L55.6,395A9.41,9.41,0,0,0,65,403.8Z"/><polygon class="cls-24" points="185.87 384.4 187.1 367.53 53.78 367.53 55.6 395.02 185.87 384.4"/><path class="cls-25" d="M53.78,367.53H187.1l.15-4.94a12.23,12.23,0,0,0-.59-4.12l-4.37-13.52H58.59l-4.23,13.83a12.23,12.23,0,0,0-.53,3.47Z"/><path class="cls-26" d="M121.52,367.53H53.78l0-5.27a12.23,12.23,0,0,1,.53-3.47l4.23-13.83h63.28Z"/><path class="cls-26" d="M60.25,297.63l-1.67,47.32H182.3l-1.67-47.32a7.47,7.47,0,0,0-7.46-7.2H67.72A7.47,7.47,0,0,0,60.25,297.63Z"/><path class="cls-25" d="M121.66,344.95H58.59l1.67-47.32a7.47,7.47,0,0,1,7.46-7.2h53.62Z"/><circle class="cls-27" cx="121.52" cy="314.68" r="23.54"/><circle class="cls-28" cx="121.52" cy="314.68" r="21.62"/><circle class="cls-29" cx="121.52" cy="314.68" r="20.78"/><circle class="cls-27" cx="121.52" cy="314.68" r="12.73"/><circle class="cls-30" cx="121.52" cy="314.68" r="6.01"/><circle class="cls-31" cx="157.55" cy="332.22" r="7.45"/><circle class="cls-32" cx="157.55" cy="332.22" r="6.01"/><circle class="cls-26" cx="80.2" cy="332.22" r="8.05"/><rect class="cls-33" x="66.03" y="307" width="28.1" height="12.01" rx="3.69" ry="3.69"/><rect class="cls-26" x="149.39" y="293.54" width="27.95" height="27.14" rx="6.67" ry="6.67"/><path class="cls-27" d="M174.45,319.44s0,.24-11.09.24-11.09-.24-11.09-.24a1.6,1.6,0,0,1-1.6-1.6s-.24-3.87-.24-10.72c0-7.81.24-10.72.24-10.72a1.6,1.6,0,0,1,1.6-1.6s.08-.24,11.09-.24,11.09.24,11.09.24a1.6,1.6,0,0,1,1.6,1.6s.24,2.91.24,10.72-.24,10.72-.24,10.72A1.6,1.6,0,0,1,174.45,319.44Z"/><path class="cls-13" d="M71.79,310.81a1.57,1.57,0,0,1,.87.22,1,1,0,0,1,.44.62,2,2,0,0,1,0,.94,2.71,2.71,0,0,1-.28.73,2.16,2.16,0,0,1-.46.57,2,2,0,0,1-.62.37,2.21,2.21,0,0,1-.76.13,1.72,1.72,0,0,1-.7-.13,1,1,0,0,1-.45-.37,1.2,1.2,0,0,1-.19-.57,2.24,2.24,0,0,1,.06-.72,2.68,2.68,0,0,1,.29-.73,2.2,2.2,0,0,1,.47-.57,2,2,0,0,1,.61-.36A2.14,2.14,0,0,1,71.79,310.81Zm.58,1.78a1.54,1.54,0,0,0,0-.66.67.67,0,0,0-.25-.42.81.81,0,0,0-.49-.14,1.09,1.09,0,0,0-.41.08,1.19,1.19,0,0,0-.36.23,1.52,1.52,0,0,0-.3.39,2.06,2.06,0,0,0-.2.53,1.74,1.74,0,0,0-.05.53.85.85,0,0,0,.12.39.63.63,0,0,0,.26.23.83.83,0,0,0,.37.08,1.14,1.14,0,0,0,.53-.13,1.31,1.31,0,0,0,.46-.41A1.93,1.93,0,0,0,72.37,312.58Z"/><path class="cls-13" d="M74.33,312.12l0,.08a1.57,1.57,0,0,1,.45-.33,1.14,1.14,0,0,1,.49-.1.8.8,0,0,1,.43.11.52.52,0,0,1,.23.31.65.65,0,0,1,0,.25,2.69,2.69,0,0,1-.06.35l-.26,1.2a.53.53,0,0,1-.15.29.37.37,0,0,1-.25.1.24.24,0,0,1-.21-.1.37.37,0,0,1,0-.29l.24-1.07a1,1,0,0,0,0-.49q-.05-.17-.32-.17a.63.63,0,0,0-.34.1.82.82,0,0,0-.27.28,2.29,2.29,0,0,0-.17.54l-.18.81a.53.53,0,0,1-.16.29.39.39,0,0,1-.26.1.23.23,0,0,1-.21-.1.37.37,0,0,1,0-.29l.43-1.86a.51.51,0,0,1,.14-.27.35.35,0,0,1,.24-.09.25.25,0,0,1,.14,0,.21.21,0,0,1,.08.12A.4.4,0,0,1,74.33,312.12Z"/><path class="cls-13" d="M78.24,313.23H77a.78.78,0,0,0,0,.39.45.45,0,0,0,.18.25.52.52,0,0,0,.3.08l.22,0a.88.88,0,0,0,.21-.08l.19-.12.24-.18a.25.25,0,0,1,.15,0,.2.2,0,0,1,.15.05.16.16,0,0,1,0,.15.52.52,0,0,1-.11.2,1.11,1.11,0,0,1-.26.22,1.53,1.53,0,0,1-.39.18,1.67,1.67,0,0,1-.5.07,1.06,1.06,0,0,1-.9-.35,1.12,1.12,0,0,1-.14-1,1.88,1.88,0,0,1,.2-.53,1.59,1.59,0,0,1,.34-.42,1.44,1.44,0,0,1,.46-.27,1.61,1.61,0,0,1,.55-.09,1.08,1.08,0,0,1,.61.16.77.77,0,0,1,.32.41,1,1,0,0,1,0,.51.41.41,0,0,1-.21.31A1,1,0,0,1,78.24,313.23Zm-1.19-.37h1.17a.67.67,0,0,0-.07-.49.43.43,0,0,0-.37-.16.64.64,0,0,0-.43.17A1.06,1.06,0,0,0,77.05,312.86Z"/><path class="cls-13" d="M82,313.28a1.23,1.23,0,0,1-.28.56,1.44,1.44,0,0,1-.56.39,2,2,0,0,1-.78.14,1.48,1.48,0,0,1-.81-.19.83.83,0,0,1-.31-.37.74.74,0,0,1-.05-.45.38.38,0,0,1,.13-.22.37.37,0,0,1,.25-.09.22.22,0,0,1,.17.07.43.43,0,0,1,.09.21,1.12,1.12,0,0,0,.09.28.43.43,0,0,0,.18.18.72.72,0,0,0,.35.07,1,1,0,0,0,.54-.14.56.56,0,0,0,.27-.36.33.33,0,0,0,0-.28.52.52,0,0,0-.24-.16l-.42-.12a2.71,2.71,0,0,1-.58-.2.75.75,0,0,1-.33-.32.73.73,0,0,1,0-.5,1.06,1.06,0,0,1,.26-.51,1.31,1.31,0,0,1,.52-.34,2,2,0,0,1,.72-.12,1.57,1.57,0,0,1,.53.08.9.9,0,0,1,.34.21.66.66,0,0,1,.17.27.58.58,0,0,1,0,.28.42.42,0,0,1-.13.23.35.35,0,0,1-.24.1.21.21,0,0,1-.17-.06.62.62,0,0,1-.1-.2.68.68,0,0,0-.16-.31.57.57,0,0,0-.4-.11.86.86,0,0,0-.46.12.45.45,0,0,0-.23.29.26.26,0,0,0,0,.18.35.35,0,0,0,.13.13l.18.08.32.09a4.5,4.5,0,0,1,.5.15,1.27,1.27,0,0,1,.36.2.62.62,0,0,1,.2.3A.89.89,0,0,1,82,313.28Z"/><path class="cls-13" d="M82.88,311.82H83l.08-.39q0-.16.06-.24a.44.44,0,0,1,.08-.15.39.39,0,0,1,.13-.11.36.36,0,0,1,.17,0,.26.26,0,0,1,.2.09.22.22,0,0,1,.05.15,1.38,1.38,0,0,1,0,.25l-.09.44h.24a.26.26,0,0,1,.2.06.18.18,0,0,1,0,.17.24.24,0,0,1-.14.18.74.74,0,0,1-.3.05h-.12l-.23,1.18a1.91,1.91,0,0,0,0,.23.2.2,0,0,0,0,.13.16.16,0,0,0,.14.05l.16,0,.16,0a.16.16,0,0,1,.13.06.18.18,0,0,1,0,.15.33.33,0,0,1-.22.24,1.29,1.29,0,0,1-.51.08.76.76,0,0,1-.44-.1.36.36,0,0,1-.15-.28,1.87,1.87,0,0,1,0-.48l.25-1.23h-.09a.26.26,0,0,1-.2-.07.18.18,0,0,1,0-.17.26.26,0,0,1,.11-.17A.39.39,0,0,1,82.88,311.82Z"/><path class="cls-13" d="M86.1,313.23H84.83a.78.78,0,0,0,0,.39.46.46,0,0,0,.18.25.53.53,0,0,0,.3.08l.22,0a.86.86,0,0,0,.2-.08l.19-.12.23-.18a.25.25,0,0,1,.15,0,.2.2,0,0,1,.15.05.17.17,0,0,1,0,.15.51.51,0,0,1-.11.2,1.07,1.07,0,0,1-.25.22,1.48,1.48,0,0,1-.38.18,1.66,1.66,0,0,1-.5.07,1.09,1.09,0,0,1-.91-.35,1.14,1.14,0,0,1-.16-1,1.83,1.83,0,0,1,.19-.53,1.53,1.53,0,0,1,.33-.42,1.39,1.39,0,0,1,.45-.27,1.59,1.59,0,0,1,.55-.09,1.1,1.1,0,0,1,.62.16.8.8,0,0,1,.33.41,1,1,0,0,1,0,.51.4.4,0,0,1-.2.31A1,1,0,0,1,86.1,313.23Zm-1.2-.37h1.17a.68.68,0,0,0-.09-.49.44.44,0,0,0-.38-.16.63.63,0,0,0-.43.17A1,1,0,0,0,84.9,312.86Z"/><path class="cls-13" d="M87.91,312.12v.08a1.66,1.66,0,0,1,.44-.33,1,1,0,0,1,.46-.1.9.9,0,0,1,.52.15.82.82,0,0,1,.32.45,1.46,1.46,0,0,1,0,.7,1.9,1.9,0,0,1-.18.55,1.55,1.55,0,0,1-.31.42,1.29,1.29,0,0,1-.39.26,1.16,1.16,0,0,1-.45.09.81.81,0,0,1-.45-.11,1,1,0,0,1-.3-.33l-.18,1q-.08.42-.39.42t-.22-.11a.64.64,0,0,1,0-.32l.51-2.78a.49.49,0,0,1,.13-.27.33.33,0,0,1,.24-.09.24.24,0,0,1,.21.09A.34.34,0,0,1,87.91,312.12Zm1.1.94a1.05,1.05,0,0,0,0-.44.5.5,0,0,0-.17-.28.45.45,0,0,0-.29-.1.7.7,0,0,0-.49.21,1.09,1.09,0,0,0-.3.62.79.79,0,0,0,.07.6.47.47,0,0,0,.42.21.61.61,0,0,0,.32-.09.83.83,0,0,0,.27-.28A1.25,1.25,0,0,0,89,313.06Z"/><rect class="cls-34" x="59.31" y="367.77" width="121.79" height="12.25"/><rect class="cls-35" x="59.31" y="384.34" width="121.79" height="12.25"/><polygon class="cls-36" points="59.31 396.6 64.83 394.19 64.83 384.35 59.31 384.35 59.31 396.6"/><polygon class="cls-36" points="181.09 396.6 175.57 394.19 175.57 384.35 181.09 384.35 181.09 396.6"/><rect class="cls-37" x="64.83" y="384.34" width="110.74" height="6.01"/><rect class="cls-13" x="55.34" y="359.6" width="129.71" height="2.16" rx="0.66" ry="0.66"/><path class="cls-38" d="M118,345.05l-.15-6.19a13.41,13.41,0,0,1-2.06-.46l.24,6.65-.58,15.67.1,6.75h2.13l-.06-6.75Z"/><path class="cls-39" d="M119.86,339.09l.07,6-.18,15.67,0,6.75h2V339.15C121.07,339.15,120.44,339.12,119.86,339.09Z"/><path class="cls-40" d="M119.94,345.05l-.07-6c-.79-.05-1.47-.14-2-.23l.15,6.19-.38,15.67.06,6.75h2.13l0-6.75Z"/><path class="cls-41" d="M128.13,360.72l-.61-15.67.24-6.65a13.37,13.37,0,0,1-2,.45l-.15,6.19.4,15.67-.08,6.75H128Z"/><path class="cls-42" d="M123.61,345.05l.07-6c-.58,0-1.22.07-1.92.07v28.32h2l0-6.75Z"/><path class="cls-43" d="M125.56,345.05l.15-6.19c-.57.09-1.25.17-2,.23l-.07,6,.19,15.67,0,6.75h2.12l.08-6.75Z"/><rect class="cls-29" x="153.56" y="297.59" width="19.61" height="19.05" rx="5.85" ry="5.85"/><path class="cls-30" d="M167.55,311.77a28.22,28.22,0,0,1-4.19.09,28.22,28.22,0,0,1-4.19-.09.61.61,0,0,1-.61-.61s-.09-1.77-.09-4,.09-4,.09-4a.61.61,0,0,1,.61-.61,29,29,0,0,1,4.19-.09,29,29,0,0,1,4.19.09.61.61,0,0,1,.61.61s.09,1.1.09,4-.09,4-.09,4A.61.61,0,0,1,167.55,311.77Z"/><path class="cls-44" d="M162.76,308.33a27.68,27.68,0,0,1-2.4,0,.17.17,0,0,1-.17-.17s0-2,0-1.16,0-1.16,0-1.16a.17.17,0,0,1,.17-.17,27.68,27.68,0,0,1,2.4,0,.17.17,0,0,1,.17.17s0,.32,0,1.16,0,1.16,0,1.16A.17.17,0,0,1,162.76,308.33Z"/><circle class="cls-45" cx="155.99" cy="333.3" r="2.4"/><path class="cls-23" d="M139.54,287.18h-38.2a3.17,3.17,0,0,0-2.51,1.24l-1.45,1.89H143.5l-1.45-1.89A3.17,3.17,0,0,0,139.54,287.18Z"/><circle class="cls-46" cx="131.49" cy="304.47" r="4.32"/><circle class="cls-46" cx="113.59" cy="323.33" r="1.8"/><path class="cls-34" d="M121.16,287.18H101.34a3.17,3.17,0,0,0-2.51,1.24l-1.45,1.89h23.78"/><circle class="cls-40" cx="80.2" cy="332.22" r="7.45"/><path class="cls-47" d="M121.52,338.22a23.54,23.54,0,0,1,0-47.08"/><path class="cls-48" d="M121.16,367.53H53.78L55.6,395A9.41,9.41,0,0,0,65,403.8h56.17"/><path class="cls-13" d="M87.38,375h-.64v1a.45.45,0,0,1-.1.32.35.35,0,0,1-.5,0,.45.45,0,0,1-.1-.31v-2.65a.43.43,0,0,1,.11-.33.48.48,0,0,1,.34-.1h.89a2.34,2.34,0,0,1,.61.06.91.91,0,0,1,.36.19.88.88,0,0,1,.23.33,1.17,1.17,0,0,1,.08.44,1,1,0,0,1-.32.8A1.47,1.47,0,0,1,87.38,375Zm-.17-1.58h-.47v1.05h.47a1.4,1.4,0,0,0,.41-.05.48.48,0,0,0,.25-.17.5.5,0,0,0,.09-.31.52.52,0,0,0-.13-.37A.89.89,0,0,0,87.21,373.38Z"/><path class="cls-13" d="M91.24,372.8a1.84,1.84,0,0,1,.92.22,1.41,1.41,0,0,1,.58.62,2.1,2.1,0,0,1,.2.94,2.3,2.3,0,0,1-.11.72,1.57,1.57,0,0,1-.32.57,1.41,1.41,0,0,1-.53.37,2.09,2.09,0,0,1-1.44,0,1.43,1.43,0,0,1-.53-.37,1.57,1.57,0,0,1-.32-.57,2.3,2.3,0,0,1-.11-.72,2.23,2.23,0,0,1,.11-.73,1.56,1.56,0,0,1,.33-.56,1.42,1.42,0,0,1,.53-.36A1.89,1.89,0,0,1,91.24,372.8Zm1,1.77a1.61,1.61,0,0,0-.12-.65.91.91,0,0,0-.35-.42,1,1,0,0,0-.52-.14.94.94,0,0,0-.39.08.85.85,0,0,0-.3.23,1.09,1.09,0,0,0-.2.38,1.73,1.73,0,0,0-.07.52,1.78,1.78,0,0,0,.07.53,1.09,1.09,0,0,0,.21.39.88.88,0,0,0,.31.23,1,1,0,0,0,.87-.06.92.92,0,0,0,.36-.41A1.6,1.6,0,0,0,92.23,374.57Z"/><path class="cls-13" d="M94.7,373.22v2.5h1.41a.37.37,0,0,1,.26.08.27.27,0,0,1,.09.21.26.26,0,0,1-.09.21.38.38,0,0,1-.26.08H94.43a.36.36,0,0,1-.43-.43v-2.65a.46.46,0,0,1,.1-.32.32.32,0,0,1,.25-.11.33.33,0,0,1,.25.1A.45.45,0,0,1,94.7,373.22Z"/><path class="cls-13" d="M99.53,375.91l-.16-.43H98l-.16.44a1.54,1.54,0,0,1-.16.35.26.26,0,0,1-.22.09.33.33,0,0,1-.23-.1.29.29,0,0,1-.1-.22.48.48,0,0,1,0-.15l.08-.21.88-2.23.09-.23a1.17,1.17,0,0,1,.11-.22.46.46,0,0,1,.16-.14.48.48,0,0,1,.24-.06.49.49,0,0,1,.24.06.47.47,0,0,1,.16.14,1,1,0,0,1,.1.19l.1.27.9,2.22a1.12,1.12,0,0,1,.11.37.31.31,0,0,1-.1.22.33.33,0,0,1-.24.1.31.31,0,0,1-.14,0,.29.29,0,0,1-.1-.08.74.74,0,0,1-.09-.15Zm-1.38-1h1l-.52-1.42Z"/><path class="cls-13" d="M102.21,374.83H102v1.1a.46.46,0,0,1-.1.32.33.33,0,0,1-.25.1.32.32,0,0,1-.26-.11.48.48,0,0,1-.09-.32v-2.65a.37.37,0,0,1,.43-.43h1.13l.4,0a1,1,0,0,1,.3.08.87.87,0,0,1,.29.19.85.85,0,0,1,.19.29,1,1,0,0,1,.06.36.86.86,0,0,1-.22.61,1.25,1.25,0,0,1-.66.33,1.27,1.27,0,0,1,.35.29,3,3,0,0,1,.3.41,3,3,0,0,1,.21.39.77.77,0,0,1,.07.24.25.25,0,0,1,0,.13.3.3,0,0,1-.12.11.37.37,0,0,1-.17,0,.34.34,0,0,1-.2-.06.53.53,0,0,1-.14-.14l-.16-.25-.28-.46a2.56,2.56,0,0,0-.27-.39.66.66,0,0,0-.24-.18A.83.83,0,0,0,102.21,374.83Zm.4-1.45H102v.95h.62a1.75,1.75,0,0,0,.42,0,.5.5,0,0,0,.26-.15.42.42,0,0,0,.09-.29.43.43,0,0,0-.27-.42A1.45,1.45,0,0,0,102.61,373.38Z"/><path class="cls-13" d="M106.72,372.8a1.84,1.84,0,0,1,.92.22,1.41,1.41,0,0,1,.58.62,2.1,2.1,0,0,1,.2.94,2.3,2.3,0,0,1-.11.72,1.57,1.57,0,0,1-.32.57,1.41,1.41,0,0,1-.53.37,2.09,2.09,0,0,1-1.44,0,1.43,1.43,0,0,1-.53-.37,1.57,1.57,0,0,1-.32-.57,2.3,2.3,0,0,1-.11-.72,2.23,2.23,0,0,1,.11-.73,1.56,1.56,0,0,1,.33-.56,1.42,1.42,0,0,1,.53-.36A1.89,1.89,0,0,1,106.72,372.8Zm1,1.77a1.61,1.61,0,0,0-.12-.65.91.91,0,0,0-.35-.42,1,1,0,0,0-.52-.14.94.94,0,0,0-.39.08.85.85,0,0,0-.3.23,1.09,1.09,0,0,0-.2.38,1.73,1.73,0,0,0-.07.52,1.78,1.78,0,0,0,.07.53,1.09,1.09,0,0,0,.21.39.88.88,0,0,0,.31.23,1,1,0,0,0,.87-.06.92.92,0,0,0,.36-.41A1.6,1.6,0,0,0,107.71,374.57Z"/><path class="cls-13" d="M109.52,375.93v-2.71a.46.46,0,0,1,.1-.32.32.32,0,0,1,.25-.11.33.33,0,0,1,.25.1.45.45,0,0,1,.1.32v2.71a.46.46,0,0,1-.1.32.33.33,0,0,1-.25.11.32.32,0,0,1-.25-.11A.46.46,0,0,1,109.52,375.93Z"/><path class="cls-13" d="M111.91,372.86h.91a2.45,2.45,0,0,1,.61.07,1.12,1.12,0,0,1,.46.25,1.74,1.74,0,0,1,.54,1.4,2.75,2.75,0,0,1-.05.57,1.67,1.67,0,0,1-.17.46,1.43,1.43,0,0,1-.29.37,1.19,1.19,0,0,1-.3.2,1.37,1.37,0,0,1-.35.11,2.69,2.69,0,0,1-.43,0h-.91a.57.57,0,0,1-.29-.06.27.27,0,0,1-.13-.16,1,1,0,0,1,0-.27v-2.52a.37.37,0,0,1,.43-.43Zm.27.55v2.33h.8l.2,0a.55.55,0,0,0,.18-.11,1.27,1.27,0,0,0,.35-1,1.5,1.5,0,0,0-.15-.76.68.68,0,0,0-.38-.32,1.87,1.87,0,0,0-.54-.07Z"/><path class="cls-13" d="M117.88,373.22v2.5h1.41a.37.37,0,0,1,.26.08.27.27,0,0,1,.09.21.26.26,0,0,1-.09.21.38.38,0,0,1-.26.08h-1.68a.36.36,0,0,1-.43-.43v-2.65a.46.46,0,0,1,.1-.32.32.32,0,0,1,.25-.11.33.33,0,0,1,.25.1A.45.45,0,0,1,117.88,373.22Z"/><path class="cls-13" d="M122.71,375.91l-.16-.43h-1.4l-.16.44a1.54,1.54,0,0,1-.16.35.26.26,0,0,1-.22.09.33.33,0,0,1-.23-.1.29.29,0,0,1-.1-.22.48.48,0,0,1,0-.15l.08-.21.88-2.23.09-.23a1.17,1.17,0,0,1,.11-.22.46.46,0,0,1,.16-.14.48.48,0,0,1,.24-.06.49.49,0,0,1,.24.06.47.47,0,0,1,.16.14,1,1,0,0,1,.1.19l.1.27.9,2.22a1.12,1.12,0,0,1,.11.37.31.31,0,0,1-.1.22.33.33,0,0,1-.24.1.31.31,0,0,1-.14,0,.29.29,0,0,1-.1-.08.74.74,0,0,1-.09-.15Zm-1.38-1h1l-.52-1.42Z"/><path class="cls-13" d="M125.36,373.22l1.34,2v-2a.45.45,0,0,1,.09-.3.29.29,0,0,1,.23-.1.3.3,0,0,1,.24.1.44.44,0,0,1,.09.3v2.7q0,.45-.38.45a.5.5,0,0,1-.17,0,.43.43,0,0,1-.14-.09.83.83,0,0,1-.12-.14l-.11-.16-1.31-2v2a.43.43,0,0,1-.09.3.3.3,0,0,1-.23.1.3.3,0,0,1-.24-.1.44.44,0,0,1-.09-.3V373.3a.75.75,0,0,1,0-.27.38.38,0,0,1,.15-.17.4.4,0,0,1,.22-.07.37.37,0,0,1,.28.11l.1.13Z"/><path class="cls-13" d="M129,372.86h.91a2.45,2.45,0,0,1,.61.07,1.12,1.12,0,0,1,.46.25,1.74,1.74,0,0,1,.54,1.4,2.75,2.75,0,0,1-.05.57,1.67,1.67,0,0,1-.17.46,1.43,1.43,0,0,1-.29.37,1.19,1.19,0,0,1-.3.2,1.37,1.37,0,0,1-.35.11,2.69,2.69,0,0,1-.43,0H129a.57.57,0,0,1-.29-.06.27.27,0,0,1-.13-.16,1,1,0,0,1,0-.27v-2.52a.37.37,0,0,1,.43-.43Zm.27.55v2.33h.8l.2,0a.55.55,0,0,0,.18-.11,1.27,1.27,0,0,0,.35-1,1.5,1.5,0,0,0-.15-.76.68.68,0,0,0-.38-.32,1.87,1.87,0,0,0-.54-.07Z"/><path class="cls-13" d="M137.23,375.21a.92.92,0,0,1-.08.36,1.3,1.3,0,0,1-.7.67,1.59,1.59,0,0,1-.63.11,2.2,2.2,0,0,1-.49-.05,1.39,1.39,0,0,1-.4-.16,1.36,1.36,0,0,1-.33-.29,1.7,1.7,0,0,1-.23-.36,1.9,1.9,0,0,1-.14-.43,2.33,2.33,0,0,1,0-.48,2.15,2.15,0,0,1,.12-.74,1.59,1.59,0,0,1,.35-.56,1.51,1.51,0,0,1,.53-.36,1.71,1.71,0,0,1,.65-.12,1.61,1.61,0,0,1,.74.17,1.35,1.35,0,0,1,.5.41.81.81,0,0,1,.17.46.3.3,0,0,1-.08.21.27.27,0,0,1-.2.09.28.28,0,0,1-.2-.06.88.88,0,0,1-.15-.22,1.05,1.05,0,0,0-.32-.38.78.78,0,0,0-.45-.13.82.82,0,0,0-.68.33,1.48,1.48,0,0,0-.25.93,1.72,1.72,0,0,0,.11.67.84.84,0,0,0,.32.4.88.88,0,0,0,.48.13.85.85,0,0,0,.51-.15.9.9,0,0,0,.31-.44.74.74,0,0,1,.11-.22.25.25,0,0,1,.21-.09.3.3,0,0,1,.21.09A.29.29,0,0,1,137.23,375.21Z"/><path class="cls-13" d="M140.53,375.91l-.16-.43H139l-.16.44a1.54,1.54,0,0,1-.16.35.26.26,0,0,1-.22.09.33.33,0,0,1-.23-.1.29.29,0,0,1-.1-.22.48.48,0,0,1,0-.15l.08-.21.88-2.23.09-.23a1.17,1.17,0,0,1,.11-.22.46.46,0,0,1,.16-.14.48.48,0,0,1,.24-.06.49.49,0,0,1,.24.06.47.47,0,0,1,.16.14,1,1,0,0,1,.1.19l.1.27.9,2.22a1.12,1.12,0,0,1,.11.37.31.31,0,0,1-.1.22.33.33,0,0,1-.24.1.31.31,0,0,1-.14,0,.29.29,0,0,1-.1-.08.74.74,0,0,1-.09-.15Zm-1.38-1h1l-.52-1.42Z"/><path class="cls-13" d="M143.43,375.78l-.55-2.19V376a.43.43,0,0,1-.09.3.32.32,0,0,1-.46,0,.43.43,0,0,1-.09-.3v-2.72a.34.34,0,0,1,.12-.3.56.56,0,0,1,.32-.08h.22a.82.82,0,0,1,.28,0,.24.24,0,0,1,.13.13,2,2,0,0,1,.1.3l.5,1.88.5-1.88a2,2,0,0,1,.1-.3.24.24,0,0,1,.13-.13.82.82,0,0,1,.28,0h.22a.56.56,0,0,1,.32.08.34.34,0,0,1,.12.3V376a.43.43,0,0,1-.09.3.3.3,0,0,1-.24.1.29.29,0,0,1-.23-.1.43.43,0,0,1-.09-.3v-2.37l-.55,2.19q-.05.21-.09.31a.43.43,0,0,1-.13.18.37.37,0,0,1-.25.08.37.37,0,0,1-.34-.19.78.78,0,0,1-.07-.18Z"/><path class="cls-13" d="M149,373.4h-1.57v.84h1.45a.34.34,0,0,1,.24.07.24.24,0,0,1,.08.19.25.25,0,0,1-.08.19.34.34,0,0,1-.24.07h-1.45v1h1.62a.36.36,0,0,1,.25.08.26.26,0,0,1,.08.2.26.26,0,0,1-.08.2.36.36,0,0,1-.25.08h-1.89a.36.36,0,0,1-.43-.43v-2.59a.58.58,0,0,1,0-.25.28.28,0,0,1,.14-.14.59.59,0,0,1,.24,0H149a.36.36,0,0,1,.25.07.25.25,0,0,1,.08.19.25.25,0,0,1-.08.2A.36.36,0,0,1,149,373.4Z"/><path class="cls-13" d="M151.37,374.83h-.24v1.1a.46.46,0,0,1-.1.32.33.33,0,0,1-.25.1.32.32,0,0,1-.26-.11.48.48,0,0,1-.09-.32v-2.65a.37.37,0,0,1,.43-.43H152l.4,0a1,1,0,0,1,.3.08.87.87,0,0,1,.29.19.85.85,0,0,1,.19.29,1,1,0,0,1,.06.36.86.86,0,0,1-.22.61,1.25,1.25,0,0,1-.66.33,1.27,1.27,0,0,1,.35.29,3,3,0,0,1,.3.41,3,3,0,0,1,.21.39.77.77,0,0,1,.07.24.25.25,0,0,1,0,.13.3.3,0,0,1-.12.11.37.37,0,0,1-.17,0,.34.34,0,0,1-.2-.06.53.53,0,0,1-.14-.14l-.16-.25-.28-.46a2.56,2.56,0,0,0-.27-.39.66.66,0,0,0-.24-.18A.83.83,0,0,0,151.37,374.83Zm.4-1.45h-.64v.95h.62a1.75,1.75,0,0,0,.42,0,.5.5,0,0,0,.26-.15.42.42,0,0,0,.09-.29.43.43,0,0,0-.27-.42A1.45,1.45,0,0,0,151.77,373.38Z"/><path class="cls-13" d="M156.57,375.91l-.16-.43H155l-.16.44a1.54,1.54,0,0,1-.16.35.26.26,0,0,1-.22.09.33.33,0,0,1-.23-.1.29.29,0,0,1-.1-.22.48.48,0,0,1,0-.15l.08-.21.88-2.23.09-.23a1.17,1.17,0,0,1,.11-.22.46.46,0,0,1,.16-.14.48.48,0,0,1,.24-.06.49.49,0,0,1,.24.06.47.47,0,0,1,.16.14,1,1,0,0,1,.1.19l.1.27.9,2.22a1.12,1.12,0,0,1,.11.37.31.31,0,0,1-.1.22.33.33,0,0,1-.24.1.31.31,0,0,1-.14,0,.29.29,0,0,1-.1-.08.74.74,0,0,1-.09-.15Zm-1.38-1h1l-.52-1.42Z"/></g></g></g></svg>