<svg xmlns="http://www.w3.org/2000/svg" viewBox="0 0 280.39 280.07"><defs><style>.cls-1{isolation:isolate;}.cls-2{fill:#ecf0f1;}.cls-3{fill:#939393;opacity:0.49;}.cls-4{fill:#e2472d;}.cls-5{fill:#e5dfdf;}.cls-6{fill:#692334;}.cls-7{fill:#6e1e3b;}.cls-12,.cls-8{fill:#f2f2f2;}.cls-11,.cls-9{fill:#ea6348;}.cls-10{fill:#bf1d19;}.cls-11{opacity:0.4;}.cls-11,.cls-12{mix-blend-mode:multiply;}</style></defs><title>book</title><g class="cls-1"><g id="Layer_2" data-name="Layer 2"><g id="Layer_3" data-name="Layer 3"><path class="cls-2" d="M280.24,146.59A140,140,0,0,1,133.63,279.91C56.29,276.3-3.47,210.73.16,133.48S69.43-3.47,146.77.16A139.91,139.91,0,0,1,280.24,146.59Z"/><path class="cls-3" d="M280.24,146.6A140.26,140.26,0,0,1,166,277.86L80.15,222.21l-.06,0-2.15-1.4-.08-.05a11.13,11.13,0,0,1-4.16-8.61q0-.39,0-.78V84.52l4.77-7.37,7.19-11.09,0-.06L91,57.78l.8-1.22h51.29v0h63.51l0,0h0l68.1,44.13A140,140,0,0,1,280.24,146.6Z"/><polygon class="cls-4" points="85.73 223.43 205.43 223.43 205.83 223.43 205.83 204.52 205.83 200.47 205.83 79.53 85.73 79.53 84.82 79.53 84.82 200.59 84.82 204.66 84.82 219.32 84.82 223.35 84.82 223.39 85.73 223.43"/><path class="cls-5" d="M204.67,220.31V200.55H85.41s.14,19.75,0,19.75Z"/><path class="cls-6" d="M85.73,56.63V223.43h-.25l-.65,0h0a12.34,12.34,0,0,1-4-.93c-.25-.1-.49-.21-.73-.33l-.22-.12a11.28,11.28,0,0,1-1.52-.94l-.31-.24-.16-.14A11.12,11.12,0,0,1,73.73,212V68.12A11.72,11.72,0,0,1,85.65,56.63Z"/><path class="cls-5" d="M92.91,211.94a7.49,7.49,0,0,1-6.59,7.44,6.34,6.34,0,0,1-.91.06h0a6.26,6.26,0,0,1-.89-.06,7.49,7.49,0,0,1,.89-14.93h0A7.49,7.49,0,0,1,92.91,211.94Z"/><path class="cls-7" d="M97.63,68.12c0,6.28-5.29,11.32-11.91,11.4h-.08a11.45,11.45,0,1,1,0-22.88h.08C92.34,56.72,97.63,61.76,97.63,68.12Z"/><path class="cls-8" d="M204.67,211.92v7.44l-120.12,0A7.49,7.49,0,0,1,78,211.94Z"/><rect class="cls-9" x="85.69" y="56.65" width="121.01" height="143.9"/><path class="cls-4" d="M206.7,200.46v4h-2l-117.81.09H85.73a1.51,1.51,0,0,0-.3,0,2.93,2.93,0,0,0-.6,0A7.53,7.53,0,0,0,78,211.94V212a7.49,7.49,0,0,0,6.81,7.29,4.2,4.2,0,0,0,.62,0h120v4.06H85.61l-.78-.08-.84-.08a12.4,12.4,0,0,1-3.11-.82l-.79-.37a.79.79,0,0,1-.16-.08,11.28,11.28,0,0,1-1.52-.94l-.31-.24-.24-.19A11.11,11.11,0,0,1,73.7,212q0-.39,0-.78a11.55,11.55,0,0,1,9.65-10.45h.07a7.81,7.81,0,0,1,1.38-.2,5.49,5.49,0,0,1,.58,0h.32l57.41,0,62.69,0Z"/><path class="cls-10" d="M85.69,200.55a10.47,10.47,0,0,0-2.32.25Z"/><rect class="cls-11" x="143.14" y="56.63" width="63.56" height="144.17"/><rect class="cls-8" x="102.36" y="76.71" width="87.65" height="39.13"/><rect class="cls-12" x="143.13" y="76.71" width="46.88" height="39.13"/></g></g></g></svg>