<svg xmlns="http://www.w3.org/2000/svg" viewBox="0 0 94.76 118.98"><defs><style>.cls-1{isolation:isolate;}.cls-2{fill:#498ecb;}.cls-3{fill:#e4dede;}.cls-4{fill:#2a74b6;}.cls-5,.cls-8{fill:#f2f2f2;}.cls-6,.cls-7{fill:#699cd3;}.cls-7,.cls-8{mix-blend-mode:multiply;}</style></defs><title>book</title><g class="cls-1"><g id="Layer_2" data-name="Layer 2"><g id="Layer_1-2" data-name="Layer 1"><polygon class="cls-2" points="8.57 118.98 93.86 118.98 94.15 118.98 94.15 105.48 94.15 102.6 94.15 16.33 8.57 16.33 7.93 16.33 7.93 102.69 7.93 105.59 7.93 116.04 7.93 118.92 7.93 118.95 8.57 118.98"/><path class="cls-3" d="M93.32,116.75V102.66h-85s.1,14.09,0,14.09Z"/><path class="cls-4" d="M8.57,0V119A8.36,8.36,0,0,1,0,110.84V8.19A8.35,8.35,0,0,1,8.51,0Z"/><path class="cls-3" d="M13.69,110.78A5.34,5.34,0,0,1,9,116.09a4.51,4.51,0,0,1-.65,0h0a4.45,4.45,0,0,1-.63,0,5.34,5.34,0,0,1,.63-10.65h0A5.34,5.34,0,0,1,13.69,110.78Z"/><path class="cls-4" d="M17.06,8.19a8.34,8.34,0,0,1-8.49,8.13H8.51A8.34,8.34,0,0,1,0,8.19,8.35,8.35,0,0,1,8.51,0h.06A8.35,8.35,0,0,1,17.06,8.19Z"/><path class="cls-5" d="M93.32,110.76v5.31l-85.59,0A5.34,5.34,0,0,1,3,110.78Z"/><polygon class="cls-6" points="7.93 0.01 94.76 0.01 94.76 102.66 90.98 102.66 7.93 102.66 7.93 0.01"/><path class="cls-2" d="M93.86,116.09V119H8.58l-1.24-.12a8.07,8.07,0,0,1-.41-16,7.53,7.53,0,0,1,1.65-.18l86.19-.07v2.89l-86.19.07a5.28,5.28,0,1,0,0,10.55Z"/><rect class="cls-7" x="49.48" width="45.29" height="102.59"/><rect class="cls-5" x="20.43" y="14.32" width="62.45" height="27.91"/><rect class="cls-8" x="49.48" y="14.32" width="33.4" height="27.91"/></g></g></g></svg>