<svg xmlns="http://www.w3.org/2000/svg" viewBox="0 0 39.48 39.48"><defs><style>.cls-1{fill:#4ea7cf;}.cls-2{fill:#060707;}.cls-3{fill:#f4f9fc;}.cls-4{fill:#0c0d0d;}.cls-5{fill:#fff;}.cls-6{fill:#c6c8c8;}.cls-7{fill:#f2f2f2;}.cls-8{fill:#060606;}.cls-9{fill:#f6fafd;}.cls-10{fill:#0b0b0b;}.cls-11{fill:#dd5b36;}.cls-12{fill:#f1673a;}</style></defs><title>bird_menu</title><g id="Layer_2" data-name="Layer 2"><g id="Layer_1-2" data-name="Layer 1"><path class="cls-1" d="M39.48,19.74a19.73,19.73,0,1,1-.06-1.53Q39.48,19,39.48,19.74Z"/><path class="cls-2" d="M29.26,12.09c-3.76,3.08-6.35,10.8-6.35,10.8l-3.32-.09-3.32.09s-2.59-7.72-6.35-10.8l.18-.32c.12-.22.25-.43.38-.64s.27-.41.42-.62.45-.59.69-.87l.25-.28a10.14,10.14,0,0,1,7.76-3.2h.24a10.08,10.08,0,0,1,7.52,3.2A12.51,12.51,0,0,1,29.26,12.09Z"/><ellipse class="cls-3" cx="26.47" cy="16.02" rx="1.4" ry="2.47"/><ellipse class="cls-4" cx="26.47" cy="16.15" rx="1.11" ry="1.95"/><ellipse class="cls-3" cx="13.09" cy="16" rx="1.39" ry="2.44"/><ellipse cx="13.09" cy="16.13" rx="1.1" ry="1.93"/><ellipse class="cls-5" cx="12.56" cy="14.69" rx="0.29" ry="0.35"/><ellipse class="cls-5" cx="25.97" cy="14.69" rx="0.29" ry="0.35"/><path class="cls-6" d="M31.89,24.29h0c-4.26,4.46-8.47,5.86-12.17,5.78C12.65,29.91,7.46,24.3,7.46,24.3h0S7.09,17.7,9.6,12.38h0c.11-.23.22-.45.34-.67l.18-.32c.12-.22.25-.43.38-.64s.27-.42.42-.62.45-.6.7-.88L11.86,9a10.2,10.2,0,0,1,7.81-3.22h.24A10.15,10.15,0,0,1,27.48,9a12.58,12.58,0,0,1,1.93,2.73c.12.22.23.45.34.68,2.51,5.32,2.15,11.91,2.15,11.91"/><path class="cls-7" d="M19.73,30.07C12.65,29.91,7.46,24.3,7.46,24.3h0S7.09,17.7,9.6,12.38h0c.11-.23.22-.45.34-.67l.18-.32c.12-.22.25-.43.38-.64s.27-.42.42-.62.45-.6.7-.88L11.86,9a10.2,10.2,0,0,1,7.81-3.22Z"/><path class="cls-8" d="M29.41,11.7C25.63,14.8,23,22.57,23,22.57l-3.35-.1-3.34.1S13.72,14.8,9.94,11.7l.18-.32c.12-.22.25-.43.38-.64s.27-.42.42-.62.45-.6.7-.88L11.86,9a10.21,10.21,0,0,1,7.81-3.22h.24A10.15,10.15,0,0,1,27.48,9a12.61,12.61,0,0,1,1.93,2.73"/><path class="cls-9" d="M25.19,15.65c0-1.37.63-2.48,1.41-2.48S28,14.28,28,15.65s-.63,2.48-1.41,2.48S25.19,17,25.19,15.65"/><path class="cls-10" d="M25.48,15.78c0-1.09.5-2,1.12-2s1.12.88,1.12,2-.5,2-1.12,2-1.12-.88-1.12-2"/><path class="cls-9" d="M11.74,15.63c0-1.36.62-2.46,1.4-2.46s1.4,1.1,1.4,2.46-.63,2.46-1.4,2.46-1.4-1.1-1.4-2.46"/><path d="M12,15.76c0-1.07.49-1.94,1.11-1.94s1.11.87,1.11,1.94-.5,1.94-1.11,1.94S12,16.84,12,15.76"/><path class="cls-5" d="M12.9,14.31a.3.3,0,1,1-.3-.35.33.33,0,0,1,.3.35"/><path class="cls-5" d="M26.39,14.31a.3.3,0,1,1-.3-.35.33.33,0,0,1,.3.35"/><path class="cls-11" d="M19.68,18.24a5.81,5.81,0,0,0-3.36,4.33l3.36,14.1L23,22.57a5.81,5.81,0,0,0-3.36-4.33"/><path class="cls-12" d="M19.68,18.24a5.81,5.81,0,0,0-3.36,4.33l3.36,14.1Z"/></g></g></svg>