<svg xmlns="http://www.w3.org/2000/svg" viewBox="0 0 127 127"><defs><style>.cls-1{fill:#b93726;}.cls-2{fill:#fff;}</style></defs><title>button alone</title><g id="Laag_2" data-name="Laag 2"><g id="Layer_2" data-name="Layer 2"><path class="cls-1" d="M127,63.5a63.45,63.45,0,1,1-.19-4.93Q127,61,127,63.5Z"/><path id="path3445" class="cls-2" d="M63.61,115.53a1.27,1.27,0,1,1,1.3,1.24h0a1.27,1.27,0,0,1-1.26-1.24Zm-4.16,1.1a1.26,1.26,0,1,1,.1,0h-.1Zm9.49-1.38a1.27,1.27,0,1,1,1.42,1.1h-.16a1.27,1.27,0,0,1-1.25-1.11ZM54,115.94a1.27,1.27,0,1,1,.23,0l-.23,0Zm20.18-1.51a1.27,1.27,0,1,1,1.52.94h0a1.34,1.34,0,0,1-.29,0,1.27,1.27,0,0,1-1.23-1Zm-25.5.26a1.26,1.26,0,1,1,.35.05,1.23,1.23,0,0,1-.35-.05Zm30.66-1.63a1.27,1.27,0,1,1,1.2.85,1.27,1.27,0,0,1-1.2-.85Zm-35.83-.17h0A1.26,1.26,0,1,1,44,113a1.26,1.26,0,0,1-.48-.09Zm40.82-1.73a1.26,1.26,0,1,1,1.15.73,1.27,1.27,0,0,1-1.15-.73Zm-45.77-.59a1.27,1.27,0,1,1,.59.15,1.27,1.27,0,0,1-.59-.15Zm50.53-1.81a1.27,1.27,0,1,1,1.74.43,1.26,1.26,0,0,1-1.74-.43Zm-55.22-1a1.27,1.27,0,1,1,.71.22,1.27,1.27,0,0,1-.71-.22Zm59.71-1.87a1.26,1.26,0,1,1,1,.51,1.27,1.27,0,0,1-1-.51Zm-64.08-1.42a1.26,1.26,0,1,1,.81.3,1.25,1.25,0,0,1-.81-.3Zm68.26-1.91a1.27,1.27,0,1,1,1.79.07h0a1.27,1.27,0,0,1-1.79-.07Zm-72.27-1.81a1.26,1.26,0,1,1,.91.38,1.27,1.27,0,0,1-.91-.38Zm76.09-1.93a1.27,1.27,0,1,1,.84.32,1.27,1.27,0,0,1-.84-.32Zm-79.7-2.18h0a1.26,1.26,0,1,1,1,.48,1.27,1.27,0,0,1-1-.48ZM105,94.69a1.27,1.27,0,1,1,.73.24,1.26,1.26,0,0,1-.73-.24ZM18.74,92.17a1.27,1.27,0,1,1,1.75.39,1.26,1.26,0,0,1-1.75-.39ZM108,90.25a1.26,1.26,0,1,1,.62.17,1.27,1.27,0,0,1-.62-.17ZM16,87.4a1.26,1.26,0,1,1,1.13.7A1.27,1.27,0,0,1,16,87.4Zm94.47-1.88a1.26,1.26,0,1,1,.51.11,1.27,1.27,0,0,1-.51-.11ZM13.84,82.39a1.27,1.27,0,1,1,1.63.74,1.26,1.26,0,0,1-1.63-.74Zm98.67-1.82a1.27,1.27,0,0,1-.82-1.6h0a1.27,1.27,0,1,1,1.21,1.66,1.24,1.24,0,0,1-.38-.06ZM12.18,77.17a1.27,1.27,0,1,1,1.55.9,1.27,1.27,0,0,1-1.55-.9ZM114,75.43a1.27,1.27,0,0,1-1-1.5h0a1.27,1.27,0,1,1,1.24,1.53l-.26,0ZM11.06,71.8a1.27,1.27,0,1,1,1.44,1.06l-.2,0a1.27,1.27,0,0,1-1.25-1.07Zm103.88-1.64a1.25,1.25,0,1,1,.13,0h-.13ZM10.5,66.35a1.27,1.27,0,1,1,1.33,1.2h-.07a1.27,1.27,0,0,1-1.26-1.2Zm103.58-2.8s0,0,0-.05,0,0,0-.06a1.27,1.27,0,1,1,2.53,0s0,0,0,.06,0,0,0,.06h0a1.27,1.27,0,1,1-2.53,0ZM11.69,62.21a1.27,1.27,0,1,1,.06,0h-.06Zm102.1-4h0a1.27,1.27,0,1,1,1.39,1.13h-.13a1.27,1.27,0,0,1-1.26-1.14ZM12.1,56.88a1.27,1.27,0,1,1,.19,0H12.1ZM113,53.08h0a1.27,1.27,0,1,1,1.5,1l-.26,0a1.27,1.27,0,0,1-1.24-1ZM13.05,51.61a1.26,1.26,0,1,1,.32,0,1.23,1.23,0,0,1-.32,0ZM111.66,48a1.27,1.27,0,1,1,1.59.82,1.26,1.26,0,0,1-1.59-.82ZM14.54,46.47a1.27,1.27,0,1,1,.45.08,1.27,1.27,0,0,1-.45-.08Zm95.27-3.31a1.26,1.26,0,1,1,1.16.76,1.27,1.27,0,0,1-1.16-.76ZM16.55,41.52a1.26,1.26,0,1,1,.57.13,1.27,1.27,0,0,1-.57-.13Zm90.92-3a1.27,1.27,0,1,1,1.73.47,1.26,1.26,0,0,1-1.73-.47ZM19.07,36.8A1.27,1.27,0,0,1,18.68,35h0a1.27,1.27,0,1,1,.39,1.75Zm85.6-2.69a1.26,1.26,0,1,1,1,.53,1.27,1.27,0,0,1-1-.53ZM22.05,32.36a1.26,1.26,0,1,1,.78.27,1.27,1.27,0,0,1-.78-.27ZM101.43,30a1.27,1.27,0,1,1,1.79.11,1.27,1.27,0,0,1-1.79-.11Zm-76-1.77a1.27,1.27,0,1,1,1.79,0,1.26,1.26,0,0,1-1.79,0Zm72.32-2a1.26,1.26,0,1,1,.86.34,1.27,1.27,0,0,1-.86-.34Zm-68.5-1.77a1.27,1.27,0,1,1,1.78.16,1.27,1.27,0,0,1-1.78-.16ZM93.79,23h0a1.27,1.27,0,0,1,1.52-2h0a1.27,1.27,0,1,1-1.52,2ZM33.47,21.19a1.26,1.26,0,1,1,1.05.56,1.27,1.27,0,0,1-1.05-.56Zm56-1.15h0a1.26,1.26,0,1,1,.65.18,1.26,1.26,0,0,1-.65-.18ZM38,18.32a1.27,1.27,0,1,1,1.71.52,1.25,1.25,0,0,1-.6.15A1.26,1.26,0,0,1,38,18.32Zm46.9-.72a1.26,1.26,0,1,1,.53.12,1.27,1.27,0,0,1-.53-.12ZM42.74,15.92a1.27,1.27,0,1,1,1.65.7h0a1.25,1.25,0,0,1-.48.09,1.26,1.26,0,0,1-1.17-.79ZM80,15.64a1.27,1.27,0,1,1,.41.07,1.27,1.27,0,0,1-.41-.07ZM47.74,14a1.27,1.27,0,1,1,1.57.86,1.3,1.3,0,0,1-.36.05A1.27,1.27,0,0,1,47.74,14ZM75,14.19a1.26,1.26,0,1,1,.29,0,1.29,1.29,0,0,1-.29,0ZM52.9,12.67a1.27,1.27,0,1,1,1.47,1l-.23,0a1.27,1.27,0,0,1-1.24-1Zm17,.6a1.26,1.26,0,1,1,.16,0h-.16ZM58.17,11.86A1.27,1.27,0,1,1,59.53,13h-.1a1.27,1.27,0,0,1-1.26-1.17Zm6.57,1A1.27,1.27,0,1,1,66,11.64a1.27,1.27,0,0,1-1.29,1.24Z"/></g></g></svg>