<svg xmlns="http://www.w3.org/2000/svg" viewBox="0 0 221.41 76.01"><defs><style>.cls-1{isolation:isolate;}.cls-2{fill:#f1f2f2;}.cls-3{fill:#fff;}.cls-4{fill:#ef5323;}.cls-5{fill:#050505;}.cls-6{fill:#f7fbff;}.cls-7{fill:#0b0b0b;}.cls-8{fill:#f63;}.cls-9{fill:#e0e0e0;mix-blend-mode:multiply;}.cls-10,.cls-11{fill:#b7b7b7;}.cls-11{mix-blend-mode:overlay;}</style></defs><title>flying alone</title><g class="cls-1"><g id="Laag_2" data-name="Laag 2"><g id="Layer_2" data-name="Layer 2"><text></text><path class="cls-2" d="M135.4,48.26a32.67,32.67,0,0,1-2,6.19l-.26.59c-.44,1-.92,1.92-1.42,2.83Q131.1,59,130.46,60c-.74,1.19-1.5,2.3-2.25,3.32l-.32.43c-.32.43-.64.84-1,1.23l-.61.76-.89,1-.56.63c-1.62,1.82-2.82,2.92-3,3.08h0l0,0v4.8H99.54V70.5h0c-.06-.05-.38-.35-.89-.85l-.18-.18-.39-.4-.93-1-.52-.57c-.9-1-1.94-2.24-3-3.66-.22-.28-.43-.57-.65-.88l-.65-.92-.65-1q-.49-.74-1-1.52c-.42-.69-.84-1.41-1.23-2.15-.27-.5-.53-1-.77-1.52-.5-1-1-2.09-1.37-3.18-.08-.2-.15-.41-.23-.62-2.19-6.18-2.68-13.3,1.2-20.39q.51-.94,1.13-1.87c.21-.31.42-.62.65-.93.37-.52.77-1,1.2-1.55l.26-.31q.39-.47.82-.93a37.45,37.45,0,0,1,3.16-3.06h0s-.45-8.19,2.66-14.81h0c.13-.28.27-.56.42-.83l.22-.4c.15-.27.31-.54.48-.8s.34-.52.52-.77.56-.74.86-1.09L101,4a12.69,12.69,0,0,1,9.7-4h.3a13.7,13.7,0,0,1,5.66,1.24A12.33,12.33,0,0,1,120.41,4l.35.39.28.33.12.14.22.28.06.08.28.4L122,6l.31.49.2.34.1.17.12.21.1.18c0,.07.07.13.11.2l.05.11c.09.17.18.35.26.53,3.12,6.62,2.67,14.81,2.67,14.81h0a35.71,35.71,0,0,1,4.49,4.61,28.71,28.71,0,0,1,2,2.8l.38.62.18.31.34.63.32.62c.15.31.3.62.44.94s.27.62.39.94l.23.62A23.61,23.61,0,0,1,135.4,48.26Z"/><path class="cls-3" d="M125.89,23.05h0c-15.43,16.17-30.38,0-30.38,0h0s-.45-8.19,2.66-14.81h0c.13-.28.27-.56.42-.83l.22-.4c.15-.27.31-.54.48-.8s.34-.52.52-.77.56-.74.87-1.09L101,4a12.69,12.69,0,0,1,9.7-4h.3a12.61,12.61,0,0,1,9.4,4,15.65,15.65,0,0,1,2.4,3.4c.15.28.29.56.42.84C126.34,14.86,125.89,23.05,125.89,23.05Z"/><path class="cls-4" d="M102.7,71v3.82a1.12,1.12,0,0,1,0,.33l0,.06a1.08,1.08,0,0,1-.23.36,1,1,0,0,1-.71.31,1,1,0,0,1-.94-.67,1.09,1.09,0,0,1-.07-.39V71a1,1,0,0,1,1-1.06,1,1,0,0,1,1,.73A1.12,1.12,0,0,1,102.7,71Z"/><path class="cls-4" d="M104.62,71v3.82a1.12,1.12,0,0,1,0,.33l0,.06a1.08,1.08,0,0,1-.23.36,1,1,0,0,1-.71.31,1,1,0,0,1-.94-.67l0-.06a1.05,1.05,0,0,1-.05-.33V71a1.05,1.05,0,0,1,.05-.33,1,1,0,0,1,1.92,0A1.12,1.12,0,0,1,104.62,71Z"/><path class="cls-4" d="M106.54,71v3.82a1.09,1.09,0,0,1-.3.75,1,1,0,0,1-.71.31,1,1,0,0,1-.94-.67l0-.06a1.05,1.05,0,0,1-.05-.33V71a1.05,1.05,0,0,1,.05-.33,1,1,0,0,1,1-.73A1,1,0,0,1,106.54,71Z"/><path class="cls-4" d="M116.89,71.12v3.82a1.12,1.12,0,0,1,0,.33l0,.06a1.08,1.08,0,0,1-.23.36,1,1,0,0,1-.71.31,1,1,0,0,1-.94-.67,1.09,1.09,0,0,1-.07-.39V71.12a1,1,0,0,1,1-1.06,1,1,0,0,1,1,.73A1.12,1.12,0,0,1,116.89,71.12Z"/><path class="cls-4" d="M118.81,71.12v3.82a1.12,1.12,0,0,1,0,.33l0,.06a1.08,1.08,0,0,1-.23.36,1,1,0,0,1-.71.31,1,1,0,0,1-.94-.67l0-.06a1.05,1.05,0,0,1-.05-.33V71.12a1.05,1.05,0,0,1,.05-.33,1,1,0,0,1,1.92,0A1.12,1.12,0,0,1,118.81,71.12Z"/><path class="cls-4" d="M120.73,71.12v3.82a1.09,1.09,0,0,1-.3.75,1,1,0,0,1-.71.31,1,1,0,0,1-.94-.67l0-.06a1.05,1.05,0,0,1-.05-.33V71.12a1.05,1.05,0,0,1,.05-.33,1,1,0,0,1,1-.73A1,1,0,0,1,120.73,71.12Z"/><path class="cls-5" d="M122.8,7.4c-4.7,3.85-7.94,13.51-7.94,13.51l-4.16-.12-4.16.12S103.3,11.25,98.6,7.4l.22-.4c.15-.27.31-.54.48-.8s.34-.52.52-.77.56-.74.87-1.09L101,4a12.69,12.69,0,0,1,9.7-4h.3a12.61,12.61,0,0,1,9.4,4A15.65,15.65,0,0,1,122.8,7.4Z"/><ellipse class="cls-6" cx="119.32" cy="12.31" rx="1.76" ry="3.09"/><ellipse class="cls-7" cx="119.32" cy="12.48" rx="1.39" ry="2.45"/><ellipse class="cls-6" cx="102.58" cy="12.28" rx="1.74" ry="3.05"/><ellipse cx="102.58" cy="12.45" rx="1.37" ry="2.42"/><ellipse class="cls-3" cx="101.92" cy="10.64" rx="0.37" ry="0.43"/><ellipse class="cls-3" cx="118.69" cy="10.64" rx="0.37" ry="0.43"/><path class="cls-8" d="M110.72,15.53a7.22,7.22,0,0,0-4.17,5.38l4.17,17.53,4.17-17.53A7.22,7.22,0,0,0,110.72,15.53Z"/><path class="cls-9" d="M102.69,75.3h-.08l0,0,0-.06,0,.06Z"/><path class="cls-9" d="M104.61,75.3h-.08l0,0,0-.06,0,.06Z"/><path class="cls-9" d="M110.77,0v75.3h-4.32a1,1,0,0,1-.21.32,1,1,0,0,1-.71.31,1,1,0,0,1-.92-.63l0,0,0-.06,0,.06,0,0a1.07,1.07,0,0,1-.21.32,1,1,0,0,1-.71.31,1,1,0,0,1-.92-.63l0,0,0-.06,0,.06,0,0a1,1,0,0,1-.21.32,1,1,0,0,1-.71.31,1,1,0,0,1-.92-.63H99.53v-4.8h0c-.06-.05-.38-.35-.89-.86l-.18-.18-.39-.4-.93-1-.52-.57c-.9-1-1.94-2.24-3-3.66L93,63c-.22-.3-.43-.61-.65-.92l-.65-1c-.33-.49-.65-1-1-1.52-.42-.69-.84-1.41-1.23-2.15-.27-.5-.53-1-.77-1.52q-.75-1.54-1.37-3.18c-.08-.2-.16-.41-.23-.62-2.19-6.18-2.69-13.3,1.2-20.39q.51-.94,1.13-1.87.31-.47.65-.94.56-.78,1.2-1.55l.26-.31c.26-.31.53-.62.82-.93a37.72,37.72,0,0,1,3.16-3.06h0s-.45-8.19,2.66-14.81q.2-.42.42-.84l.22-.4c.15-.27.31-.54.47-.8s.34-.52.52-.77.56-.74.87-1.09L101,4a12.68,12.68,0,0,1,9.71-4Z"/><path class="cls-10" d="M0,50.73c.83.19,1.83.39,3,.58l1.11.17a57.23,57.23,0,0,0,6.17.47c2.32,0,6.24-.14,15.38-2.06,7.88-1.66,11.86-2.52,13.57-4,3-2.56,3.1-5.16,6.54-6.41,2-.73,3.88-.52,6.73,0,6.92,1.15,10.39,1.72,14.17,3C71.28,44.09,77.49,46,86,48.26a23.61,23.61,0,0,1,.74-13.12l.23-.62c.12-.31.25-.62.39-.94s.28-.62.44-.94l.32-.62.34-.63.18-.31.38-.62a28.71,28.71,0,0,1,2-2.8,35.71,35.71,0,0,1,4.49-4.61h0a45.68,45.68,0,0,1-10.93.12,44.71,44.71,0,0,1-16.12-5,20.8,20.8,0,0,0-10.33-3.9c-4.53-.38-8.06.9-12.41,2.55a64.4,64.4,0,0,0-11.47,5.83C21.76,30.27,15.5,34.06,11.33,37.86L10.11,39a85.67,85.67,0,0,0-8,8.85v0L2,48l-.18.23-.05.07-.16.21-.3.4-.19.26C.66,49.79.28,50.34,0,50.73Z"/><path class="cls-11" d="M0,50.73c.83.19,1.83.39,3,.58C8.67,44,34.53,25.48,46,21.71A25.06,25.06,0,0,1,56.61,20c3.32.29,11,3.61,12.75,4.08A118.72,118.72,0,0,0,91,27.67a35.71,35.71,0,0,1,4.49-4.61h0a45.68,45.68,0,0,1-10.93.12,44.71,44.71,0,0,1-16.12-5,20.8,20.8,0,0,0-10.33-3.9c-4.53-.38-8.06.9-12.41,2.55a64.4,64.4,0,0,0-11.47,5.83C21.76,30.27,15.5,34.06,11.33,37.86L10.11,39a83.46,83.46,0,0,0-8,8.85v0L2,48l-.18.23-.05.07-.16.21-.3.4-.19.26C.66,49.79.28,50.34,0,50.73Z"/><path class="cls-10" d="M221.41,50.73c-.83.19-1.83.39-3,.58l-1.11.17a57.23,57.23,0,0,1-6.17.47c-2.32,0-6.24-.14-15.38-2.06-7.88-1.66-11.86-2.52-13.57-4-3-2.56-3.1-5.16-6.54-6.41-2-.73-3.88-.52-6.73,0-6.92,1.15-10.39,1.72-14.17,3-4.63,1.61-10.84,3.49-19.36,5.78a23.61,23.61,0,0,0-.74-13.12l-.23-.62c-.12-.31-.25-.62-.39-.94s-.28-.62-.44-.94l-.32-.62-.34-.63-.18-.31-.38-.62a28.71,28.71,0,0,0-2-2.8,35.71,35.71,0,0,0-4.49-4.61h0a45.68,45.68,0,0,0,10.93.12,44.71,44.71,0,0,0,16.12-5,20.8,20.8,0,0,1,10.33-3.9c4.53-.38,8.06.9,12.41,2.55a64.4,64.4,0,0,1,11.47,5.83c12.51,7.58,18.76,11.37,22.94,15.17L211.31,39a85.67,85.67,0,0,1,8,8.85v0l.07.09.18.23.05.07.16.21.3.4.19.26C220.75,49.79,221.14,50.34,221.41,50.73Z"/><path class="cls-11" d="M221.41,50.73c-.83.19-1.83.39-3,.58-5.69-7.32-31.55-25.83-43-29.6A25.06,25.06,0,0,0,164.8,20c-3.32.29-11,3.61-12.75,4.08a118.72,118.72,0,0,1-21.67,3.62,35.71,35.71,0,0,0-4.49-4.61h0a45.68,45.68,0,0,0,10.93.12,44.71,44.71,0,0,0,16.12-5,20.8,20.8,0,0,1,10.33-3.9c4.53-.38,8.06.9,12.41,2.55a64.4,64.4,0,0,1,11.47,5.83c12.51,7.58,18.76,11.37,22.94,15.17L211.31,39a83.46,83.46,0,0,1,8,8.85v0l.07.09.18.23.05.07.16.21.3.4.19.26C220.75,49.79,221.14,50.34,221.41,50.73Z"/></g></g></g></svg>