<svg xmlns="http://www.w3.org/2000/svg" viewBox="0 0 275.23 314.93"><defs><style>.cls-1{isolation:isolate;}.cls-2{fill:#50543f;}.cls-3{fill:#936464;}.cls-4{fill:#2d1c1a;}.cls-5{fill:#2a1a18;}.cls-6{fill:#99413a;}.cls-7{fill:#fff;}.cls-8{fill:#cbceb9;}.cls-9{fill:#43472e;}.cls-10{fill:#a07070;}.cls-11{fill:#daddc7;}.cls-12{fill:#4a4e3b;}.cls-13{fill:#525252;opacity:0.1;mix-blend-mode:multiply;}.cls-14{fill:#956868;}.cls-15{fill:#7c595a;}.cls-16{fill:#a37474;}.cls-17{fill:#3e422b;}.cls-18{fill:#895d5d;}.cls-19{fill:#ededed;}.cls-20{fill:#775757;}.cls-21{fill:#8e3c36;}</style></defs><title>little_bert</title><g class="cls-1"><g id="Layer_2" data-name="Layer 2"><g id="Layer_1-2" data-name="Layer 1"><path class="cls-2" d="M142.49,203.77h0Z"/><path class="cls-2" d="M142.45,203.76h-.33v-.13C142.24,203.66,142.33,203.71,142.45,203.76Z"/><path class="cls-2" d="M142.45,203.76l-.33.18v-.19Z"/><polygon class="cls-3" points="121.26 199.89 121.25 199.94 121.2 199.94 121.2 199.89 121.26 199.89"/><polygon class="cls-3" points="121.25 199.94 121.2 200.11 121.2 199.94 121.25 199.94"/><path class="cls-4" d="M121.47,32.52h0Z"/><path class="cls-5" d="M134.6,114.57a4.92,4.92,0,1,0,4.5,6.89,4.8,4.8,0,0,0,.42-2A4.92,4.92,0,0,0,134.6,114.57Zm1.64,4.92a1.64,1.64,0,1,1,1.64-1.64A1.64,1.64,0,0,1,136.24,119.49Z"/><path class="cls-6" d="M121.89,169.51l-.42,0h.42Z"/><circle class="cls-7" cx="136.24" cy="117.85" r="1.64"/><path class="cls-8" d="M218.16,220.2c-.29-1.58-.54-2.51-.54-2.51s-14-11.2-61.36-13.92c1.82.67,3.2.71,4.88,1.53,9.32,4.55,16.84,12,22.28,19.65a79.36,79.36,0,0,1,9.37,17.87,95.63,95.63,0,0,1,3,9.25c6.31,2.17,11.1,4.18,11.1,4.18a29.49,29.49,0,0,0,6.7-7.25,33.62,33.62,0,0,0,4.94-13.61A48.43,48.43,0,0,0,218.16,220.2Z"/><path class="cls-9" d="M182.18,106.76V107a20.6,20.6,0,0,1,2.35-.26Z"/><path class="cls-9" d="M213.76,67.87v-.19c0-.39,0-.78-.08-1.17l-.12-1.14c0-.24-.06-.48-.1-.72L212.69,61c-.1-.41-.22-.83-.35-1.24a0,0,0,0,1,0,0c-.13-.41-.26-.81-.41-1.22l-1.43-3.43c-.11-.24-.23-.49-.36-.73l-2.19-3.8-.61-.9-.46-.65-.48-.66-.63-.83-.56-.71-.78-.93c-.46-.54-.94-1.08-1.43-1.61l-.75-.79-.78-.79c-.52-.52-1.06-1-1.61-1.54l-.34-.31-1.07-.94-.74-.64c-.43-.37-.88-.74-1.33-1.1-1.22-1-2.5-1.91-3.82-2.84a.21.21,0,0,1-.08-.06c-1-.67-2-1.33-3-2l-1-.64c-.9-.54-1.81-1.07-2.74-1.6-.64-.36-1.29-.71-1.95-1.06l-1.75-.9a112.7,112.7,0,0,0-13.3-5.56h0q-2.52-.85-5.14-1.64s0,0,0,0A53.28,53.28,0,0,0,121.2,0l-.75,0A53.21,53.21,0,0,0,78.74,20.12L75.4,22.48c-28.78,9.09-48.28,26.6-48.28,46.71,0,16,12.4,30.41,32,40.18H75.4V70.26h87.07v36.5h22.06a19.26,19.26,0,0,1,2.15,0h0l.06,0c.29-.16.56-.34.85-.52.65-.38,1.31-.77,2-1.17l1.09-.72c.66-.43,1.31-.85,1.94-1.29l.8-.58a67.83,67.83,0,0,0,6.18-5l.9-.81c.45-.43.88-.87,1.31-1.31s.68-.68,1-1,.77-.85,1.14-1.28.66-.74,1-1.12.67-.85,1-1.28l.91-1.2c.3-.42.58-.85.87-1.27s.56-.85.82-1.28.51-.84.75-1.27.49-.89.72-1.34.43-.84.63-1.27.42-.94.62-1.41.34-.83.5-1.25.34-1,.5-1.5.27-.81.39-1.22.26-1.07.38-1.6.19-.78.26-1.17c.11-.6.18-1.2.26-1.8,0-.34.1-.67.13-1,.08-.89.13-1.78.13-2.68,0,0,0-.11,0-.17Q213.79,68.53,213.76,67.87Zm-92.56-52v.42l-.75-.43Zm0,16.66h0Z"/><path class="cls-2" d="M121.2,15.87v.42l-.75-.43Z"/><path class="cls-10" d="M48.68,272.89c0,.86,0,1.69,0,2.48v12L33,314.93H0a14.82,14.82,0,0,1,1.95-6.74l28.91-50.87C32.74,260.3,37.8,266.86,48.68,272.89Z"/><path class="cls-11" d="M29.93,255.68a16.07,16.07,0,0,0,.93,1.64c1.88,3,6.94,9.54,17.82,15.57.44-13.59,4.52-35.46,16.53-51.73A52.64,52.64,0,0,1,81.7,206.3C38.93,217.58,29.93,255.68,29.93,255.68Z"/><path class="cls-3" d="M100.82,203.71v.23l-.23-.12Z"/><path class="cls-12" d="M199,275.37v39.56h-43.9V259c0-1.37,0-2.77-.06-4.22,0-1-.07-1.93-.12-2.92,0-.53-.06-1.07-.1-1.6-.06-.93-.13-1.86-.21-2.8,0,0,0-.08,0-.12-.18-2-.4-4-.7-6.09-.11-.86-.25-1.71-.4-2.57-.35-2.15-.78-4.3-1.3-6.41-.34-1.36-.7-2.71-1.1-4q-.81-2.66-1.81-5.16c-.23-.58-.47-1.16-.72-1.72q-.58-1.32-1.23-2.58a35.5,35.5,0,0,0-7.29-9.93,26.88,26.88,0,0,0-3.12-2.52,0,0,0,0,0,0,0,36.37,36.37,0,0,0,4-1.69c.42-.21.83-.43,1.23-.65l.16-.09.16-.09h0c1.21.44,16.16-.52,17.31,0,.67.3,1.32.61,2,1,.21.1.41.2.61.32.49.25,1,.52,1.45.8s.85.51,1.27.78a46.43,46.43,0,0,1,4.5,3.21l.62.5c.79.64,1.55,1.31,2.3,2l.74.69q.73.69,1.44,1.41c.41.41.81.82,1.2,1.24s.75.81,1.12,1.22l.7.78,1.1,1.29c.39.47.78.94,1.15,1.41,1.22,1.52,2.37,3.06,3.45,4.58.25.35.5.71.74,1.07l.36.53c.36.53.71,1.07,1.05,1.61.69,1.08,1.34,2.18,2,3.29.23.41.45.82.67,1.24l.53,1c.29.58.58,1.15.86,1.73.17.34.33.69.49,1s.45,1,.67,1.45.34.78.51,1.18c.46,1.06.9,2.13,1.31,3.2l.21.53a2.09,2.09,0,0,1,.08.23c.22.57.43,1.14.63,1.72l.36,1c.19.56.38,1.11.56,1.67.23.72.45,1.43.66,2.14s.47,1.64.69,2.46c.88,3.33,1.57,6.58,2.08,9.67A86.29,86.29,0,0,1,199,275.37Z"/><path class="cls-2" d="M105.22,206c-8.51,5.66-13.31,16-15.89,27.15A97.27,97.27,0,0,0,87.61,243a130,130,0,0,0-1,16v56h-38V275.37c0-.79,0-1.62,0-2.48.44-13.6,4.52-35.47,16.53-51.73A52.48,52.48,0,0,1,81.7,206.3c1.63-.92,17.1-1.75,18.89-2.48l.23.12c.51.29,1,.57,1.59.83C103.31,205.21,104.25,205.63,105.22,206Z"/><path class="cls-11" d="M155.13,259v56H86.65V259a130,130,0,0,1,1-16,97.27,97.27,0,0,1,1.72-9.81C91.91,222,96.71,211.66,105.22,206a43.79,43.79,0,0,0,12,2.7c.54,0,1.09.08,1.64.11.78,0,1.56.07,2.35.07h.28a48.76,48.76,0,0,0,8.14-.68c.65-.11,1.28-.24,1.91-.37h0q.95-.21,1.86-.45h0l1.8-.52s0,0,0,0c.59-.19,1.16-.38,1.73-.59a0,0,0,0,1,0,0,26.88,26.88,0,0,1,3.12,2.52,35.5,35.5,0,0,1,7.29,9.93q.64,1.26,1.23,2.58c.25.56.49,1.14.72,1.72q1,2.5,1.81,5.16c.4,1.32.76,2.67,1.1,4,.52,2.11.95,4.26,1.3,6.41.15.86.29,1.72.4,2.57.3,2,.52,4.08.7,6.09,0,0,0,.08,0,.12.08.94.15,1.88.21,2.8,0,.53.07,1.07.1,1.6.05,1,.09,2,.12,2.92C155.11,256.19,155.13,257.59,155.13,259Z"/><path class="cls-10" d="M167.47,149a8.26,8.26,0,0,1-8.26-8.26V70.21c-.35,0-.71.05-1.07.05H84.8A16.07,16.07,0,0,1,82.09,70v70.74A8.26,8.26,0,0,1,73.83,149H69.44a53.28,53.28,0,0,0,31.38,38.5v16.42c.51.29,1,.57,1.59.83.9.44,1.84.86,2.81,1.23a43.78,43.78,0,0,0,12,2.7c.54,0,1.09.08,1.64.11.78,0,1.56.07,2.35.07h.27A45.5,45.5,0,0,0,137,206.28a34.93,34.93,0,0,0,5.17-2.34V187.52A53.28,53.28,0,0,0,173.5,149Zm-54.41-9.18a1.39,1.39,0,0,1,1.88-.53,13.5,13.5,0,0,0,5.89,1.47h.37a13.36,13.36,0,0,0,5.52-1.46,1.39,1.39,0,0,1,1.87.53,1.37,1.37,0,0,1-.53,1.88,16.35,16.35,0,0,1-6.86,1.8h-.37a16.45,16.45,0,0,1-7.24-1.81A1.39,1.39,0,0,1,113.06,139.84Zm21.54,16.57a13.14,13.14,0,0,1-12.71,13.1l-.42,0h-.42a13.14,13.14,0,0,1-12.71-13.1Zm-4.93-36.92a4.92,4.92,0,0,1,9.85,0,4.8,4.8,0,0,1-.42,2,4.92,4.92,0,0,1-9.43-2ZM92.53,107.56a1.38,1.38,0,0,1,.4-1.9,15.31,15.31,0,0,1,14.44-1,1.38,1.38,0,0,1-.49,2.62,1.51,1.51,0,0,1-.69-.13,12.58,12.58,0,0,0-11.75.8A1.38,1.38,0,0,1,92.53,107.56Zm4.54,13.28a4.65,4.65,0,0,1-.21-1.35,4.92,4.92,0,0,1,9.84,0,4.91,4.91,0,0,1-9.63,1.35Zm24.18,79.1-.05.17v-.22h.06Zm24.83-91.49a1.37,1.37,0,0,1-1.32.47,1.41,1.41,0,0,1-.62-.29,12.59,12.59,0,0,0-11.58-2.2,1.38,1.38,0,1,1-.87-2.61,16.3,16.3,0,0,1,7.45-.44,16.51,16.51,0,0,1,6.77,3.13A1.38,1.38,0,0,1,146.08,108.45Z"/><path class="cls-10" d="M120.83,140.78a13.5,13.5,0,0,1-5.89-1.47,1.38,1.38,0,0,0-1.35,2.41,16.45,16.45,0,0,0,7.24,1.81h.37v-2.75Zm-13.46-36.11a15.31,15.31,0,0,0-14.44,1,1.38,1.38,0,1,0,1.51,2.3,12.58,12.58,0,0,1,11.75-.8,1.51,1.51,0,0,0,.69.13,1.38,1.38,0,0,0,.49-2.62Z"/><path class="cls-3" d="M69,46.94c0,.47-.07.94-.07,1.42V47Z"/><path class="cls-4" d="M69,46.94c0,.47-.07.94-.07,1.42V47Z"/><path class="cls-3" d="M67.32,112.93v.1l-.23-.09Z"/><path class="cls-4" d="M101.78,114.57a4.92,4.92,0,0,0-4.92,4.92,4.65,4.65,0,0,0,.21,1.35,4.91,4.91,0,1,0,4.71-6.27Zm1.64,4.92a1.64,1.64,0,1,1,1.64-1.64A1.64,1.64,0,0,1,103.42,119.49Z"/><path class="cls-5" d="M134.6,156.41a13.08,13.08,0,0,1-4.47,9.84,13.09,13.09,0,0,0-8.66-3.28l-.27,0a13,13,0,0,0-8.39,3.26,13.08,13.08,0,0,1-4.47-9.84h.77c1.77.94,6.5,1.62,12.09,1.64h.27c5.71,0,10.56-.69,12.36-1.64Z"/><path class="cls-6" d="M130.13,166.25a13,13,0,0,1-8.24,3.26h-.84a13,13,0,0,1-8.24-3.26A13,13,0,0,1,121.2,163l.27,0A13.09,13.09,0,0,1,130.13,166.25Z"/><path class="cls-13" d="M121.2,169.51h0Z"/><path class="cls-7" d="M133.83,156.41c-1.8,1-6.65,1.64-12.36,1.64h-.27c-5.59,0-10.32-.7-12.09-1.64Z"/><path class="cls-4" d="M173.92,60.42h-.62c.11-.83.21-1.66.28-2.5a16,16,0,0,0,.4-3.49V48.36s0-.09,0-.14a16.27,16.27,0,0,0-.13-1.86L149.61,32.52h-51c-9.53-1.9-10.72-10-10.8-13.3a12.16,12.16,0,0,1,0-1.44A18.92,18.92,0,0,0,69,36.65V47l.07,0c0,.47-.07.94-.07,1.42v6.07a15.91,15.91,0,0,0,1.18,6H67.38a8.26,8.26,0,0,0-8.26,8.26v72.08A8.26,8.26,0,0,0,67.38,149h6.45a8.26,8.26,0,0,0,8.26-8.26V70a16.07,16.07,0,0,0,2.71.24h73.34c.36,0,.72,0,1.07-.05v54.15c0,.06,0,.12,0,.18q0,.33,0,.66c0,.12,0,.25.06.37s0,.3.07.44a6.84,6.84,0,0,1-.13-.81,7.62,7.62,0,0,1,0-.84v16.4a8.26,8.26,0,0,0,8.26,8.26h6.45l.59,0a9.51,9.51,0,0,0,1.07-.15l.36-.08h0l.25-.07.41-.13.5-.19h0l.47-.22.47-.26.45-.28a11.07,11.07,0,0,0,.84-.65,4.27,4.27,0,0,0,.38-.36l.23-.23a5.16,5.16,0,0,0,.47-.56,8.43,8.43,0,0,0,.6-.87,8.2,8.2,0,0,0,1.13-4.18V68.68A8.26,8.26,0,0,0,173.92,60.42Zm-14.49,65.81.06.21a1.16,1.16,0,0,1,0,.18A2.81,2.81,0,0,1,159.43,126.23Z"/><circle class="cls-7" cx="103.42" cy="117.85" r="1.64"/><path class="cls-5" d="M146.08,108.45a1.37,1.37,0,0,1-1.32.47,1.41,1.41,0,0,1-.62-.29,12.59,12.59,0,0,0-11.58-2.2,1.38,1.38,0,1,1-.87-2.61,16.3,16.3,0,0,1,7.45-.44,16.51,16.51,0,0,1,6.77,3.13A1.38,1.38,0,0,1,146.08,108.45Z"/><path class="cls-4" d="M108,106.5a1.39,1.39,0,0,1-1.15.79,1.51,1.51,0,0,1-.69-.13,12.58,12.58,0,0,0-11.75.8,1.38,1.38,0,1,1-1.51-2.3,15.31,15.31,0,0,1,14.44-1A1.37,1.37,0,0,1,108,106.5Z"/><path class="cls-3" d="M67.32,113v16.3a8.2,8.2,0,0,1-.23-16.39Z"/><path class="cls-14" d="M160.2,128.27a0,0,0,0,1,0,0l0,0Z"/><path class="cls-14" d="M173.9,146.72c0-.18.06-.36.08-.55,0,.1,0,.21,0,.31A2,2,0,0,1,173.9,146.72Z"/><path class="cls-14" d="M174.52,131.64v7c0,.61,0,1.23,0,1.84v.07l0,.74c0,.21,0,.42,0,.63-.3-.22-.6-.44-.88-.67s-.58-.47-.85-.72-.72-.67-1.07-1c-.17-.17-.33-.35-.5-.54s-.33-.37-.48-.56-.31-.38-.46-.58l-.31-.42c-.11-.15-.21-.28-.3-.43l0,0,0,0q-.3-.43-.57-.9l-.06-.11c-.2-.33-.38-.67-.56-1h0c-.14-.28-.28-.56-.4-.84a2.24,2.24,0,0,1-.12-.29c-.14-.32-.27-.63-.38-.95a.84.84,0,0,1-.06-.14h3.29A8.18,8.18,0,0,0,174.52,131.64Z"/><path class="cls-15" d="M178.9,114.58v9.78a8.22,8.22,0,0,1-1,4,8.19,8.19,0,0,0,1-13.78Z"/><path class="cls-15" d="M174.53,129.31a8.16,8.16,0,0,0,3.34-1,8.22,8.22,0,0,0,1-4v-9.78a8.15,8.15,0,0,0-4.38-1.62Z"/><path class="cls-12" d="M121.2,15.87v.42l-.75-.43Z"/><path class="cls-12" d="M168.66,23.52q-2.52-.85-5.14-1.64s0,0,0,0Q166.14,22.64,168.66,23.52Z"/><path class="cls-12" d="M182,29.09a112.7,112.7,0,0,0-13.3-5.56A107.87,107.87,0,0,1,182,29.09Z"/><path class="cls-12" d="M196.37,38.17c-1.22-1-2.5-1.91-3.82-2.84Q194.55,36.7,196.37,38.17Z"/><path class="cls-12" d="M182.2,109.19v-2.14h0v0a19.75,19.75,0,0,1,4.5-.26C185.23,107.59,183.74,108.41,182.2,109.19Z"/><path class="cls-14" d="M272.64,253.48c-5.51,8.26-16.52,8.26-23.85,6S213.55,249,213.55,249a33.73,33.73,0,0,0,5-13.61,48.6,48.6,0,0,0-.34-15.18l17.67,5.25-50.07-80c-.43,0-.86,0-1.29,0a16.89,16.89,0,0,1-1.76-.19c-.56-.09-1.11-.2-1.66-.33,0,0,0,0,0,0l-.86-.23c-.51-.15-1-.31-1.49-.5l-.55-.22-.52-.23c-.3-.13-.6-.28-.89-.43l-.79-.43c-.27-.15-.52-.31-.78-.47s-.5-.33-.75-.51-.6-.44-.88-.67-.58-.47-.85-.72-.72-.67-1.07-1c-.17-.17-.33-.35-.5-.54s-.33-.37-.48-.56-.31-.38-.46-.58l-.31-.42c-.11-.15-.21-.28-.3-.43l0,0,0,0q-.3-.43-.57-.9l-.06-.11c-.2-.33-.38-.67-.56-1h0c-.14-.28-.28-.56-.4-.84a2.24,2.24,0,0,1-.12-.29c-.14-.32-.27-.63-.38-.95a.84.84,0,0,1-.06-.14h0A19.42,19.42,0,0,1,182.18,107a19.75,19.75,0,0,1,4.5-.26h.09a19.76,19.76,0,0,1,3.88.62A19.4,19.4,0,0,1,205,125.28a18.75,18.75,0,0,1,0,2,20.67,20.67,0,0,1-.24,2.11c0,.22-.1.44-.15.66s0,.14,0,.21S263,217.69,268.48,227,278.15,245.22,272.64,253.48Z"/><path class="cls-16" d="M182.18,110.12c-.29,0-.58-.08-.87-.1s-.54,0-.81,0a9.64,9.64,0,0,0-6,2.29q-.34.29-.66.62a9.56,9.56,0,0,0,.11,13.45q.26.26.55.5a9.55,9.55,0,0,0,2.88,1.7l.27.09a9.58,9.58,0,1,0,4.51-18.55Z"/><path class="cls-9" d="M121.47,32.52h0Z"/><path class="cls-9" d="M186.68,106.76h-2.15A19.26,19.26,0,0,1,186.68,106.76Z"/><path class="cls-9" d="M186.77,106.72v0h-.06Z"/><path class="cls-5" d="M165.31,132.33l-.19-.05-.1,0-.1,0C165.05,132.26,165.18,132.29,165.31,132.33Z"/><path class="cls-5" d="M165.55,132.39l-.15,0s0,0,0,0Z"/><path class="cls-5" d="M166.11,132.5l-.29,0a.27.27,0,0,1-.12,0Z"/><path class="cls-17" d="M163.53,21.89A53.24,53.24,0,0,0,121.21,0V15.88A151.54,151.54,0,0,1,163.53,21.89Z"/><path class="cls-17" d="M174,54.44a15.85,15.85,0,0,1-.4,3.49q-.11,1.26-.27,2.5h.62a8.26,8.26,0,0,1,8.26,8.26V94.35c6-5.84,9.41-12.61,9.41-19.83,0-10.07-6.66-19.26-17.62-26.29,0,0,0,.09,0,.13Z"/><path class="cls-4" d="M173.51,149h.42a8.25,8.25,0,0,0,7.12-4.09,19.24,19.24,0,0,1-6.63-3A53.09,53.09,0,0,1,173.51,149Z"/><path class="cls-2" d="M142.49,203.77h0Z"/><path class="cls-2" d="M142.13,203.75l.33,0h0l-.34-.13Z"/><path class="cls-2" d="M142.13,203.95l.33-.18-.33,0Z"/><path class="cls-18" d="M121.48,191.69h-.27v8.21h.06v.05l0,.17v8.77h.27a45.72,45.72,0,0,0,15.48-2.6,35,35,0,0,0,5.17-2.34V187.52A52.88,52.88,0,0,1,121.48,191.69Z"/><path class="cls-14" d="M167.36,132.62a8.26,8.26,0,0,1-8.14-8.25V70.22c-.35,0-.71.05-1.06.05H121.21v86.14H134.6a13.13,13.13,0,0,1-12.7,13.11l-.42,0h-.27v22.16h.27a52.95,52.95,0,0,0,52.94-49.78A19.44,19.44,0,0,1,167.36,132.62Zm-36.85-10.39a4.92,4.92,0,1,1,4.1,2.2A4.9,4.9,0,0,1,130.51,122.22Z"/><path class="cls-5" d="M134.6,114.57a4.91,4.91,0,1,0,4.92,4.92A4.92,4.92,0,0,0,134.6,114.57Zm1.64,1.64a1.64,1.64,0,1,1-1.64,1.64A1.64,1.64,0,0,1,136.24,116.21Z"/><path class="cls-5" d="M121.21,158.05V163h.27a13.06,13.06,0,0,1,8.66,3.28,13.08,13.08,0,0,0,4.46-9.85h-.76c-1.8,1-6.65,1.64-12.36,1.64Z"/><path class="cls-19" d="M121.48,158.05c5.71,0,10.56-.69,12.36-1.64H121.21v1.64Z"/><circle class="cls-7" cx="136.24" cy="117.85" r="1.64"/><path class="cls-8" d="M218.16,220.2c-.29-1.58-.54-2.51-.54-2.51s-14-11.2-61.36-13.92c1.82.67,3.2.71,4.88,1.53,9.32,4.55,16.84,12,22.28,19.65a79.36,79.36,0,0,1,9.37,17.87,95.63,95.63,0,0,1,3,9.25c6.31,2.17,11.1,4.18,11.1,4.18a29.49,29.49,0,0,0,6.7-7.25,33.62,33.62,0,0,0,4.94-13.61A48.43,48.43,0,0,0,218.16,220.2Z"/><path class="cls-12" d="M199,275.37v39.56H155.14V259c0-1.37,0-2.77-.07-4.22,0-1-.07-1.93-.12-2.92,0-.53-.06-1.07-.1-1.6-.06-.93-.13-1.86-.21-2.8,0,0,0-.08,0-.12-.18-2-.4-4-.7-6.09-.11-.86-.25-1.71-.4-2.57-.35-2.15-.78-4.3-1.3-6.41-.33-1.36-.69-2.71-1.1-4-.53-1.76-1.13-3.49-1.81-5.16-.23-.58-.47-1.16-.72-1.72q-.58-1.32-1.23-2.58a35.5,35.5,0,0,0-7.29-9.93,26.88,26.88,0,0,0-3.12-2.52,35.16,35.16,0,0,0,3.94-1.7c.42-.21.83-.43,1.23-.65l.16-.09a.79.79,0,0,0,.16-.08h0c1.21.44,16.16-.52,17.31,0,.67.3,1.32.61,2,1,.21.1.41.2.61.32.49.25,1,.52,1.45.8s.85.51,1.27.78a46.43,46.43,0,0,1,4.5,3.21l.62.5c.79.64,1.55,1.31,2.3,2l.74.69q.73.69,1.44,1.41c.41.41.81.82,1.2,1.24s.75.81,1.12,1.22l.7.78,1.1,1.29c.39.47.78.94,1.15,1.41,1.22,1.52,2.37,3.06,3.45,4.58.25.35.5.71.74,1.07l.36.53c.36.53.71,1.07,1.05,1.61.69,1.08,1.34,2.18,2,3.29.23.41.45.82.67,1.24l.53,1a89.36,89.36,0,0,1,7,18.37,98.42,98.42,0,0,1,2.07,9.67A86.29,86.29,0,0,1,199,275.37Z"/><path class="cls-8" d="M155.14,259v56H121.21v-106h.27a48.76,48.76,0,0,0,8.14-.68c.65-.11,1.28-.23,1.91-.37h0c.63-.14,1.25-.28,1.86-.45h0c.61-.16,1.21-.33,1.8-.52,0,0,0,0,0,0,.59-.18,1.17-.38,1.74-.58a26.88,26.88,0,0,1,3.12,2.52,35.5,35.5,0,0,1,7.29,9.93q.64,1.26,1.23,2.58c.25.56.49,1.14.72,1.72.68,1.67,1.28,3.4,1.81,5.16.41,1.32.77,2.67,1.1,4,.52,2.11.95,4.26,1.3,6.41.15.86.29,1.71.4,2.57.3,2,.52,4.08.7,6.09,0,0,0,.08,0,.12.08.94.15,1.87.21,2.8,0,.53.07,1.07.1,1.6.05,1,.09,2,.12,2.92C155.12,256.19,155.14,257.59,155.14,259Z"/><path class="cls-5" d="M144.77,108.93a1.37,1.37,0,0,1-.63-.3,13.67,13.67,0,0,0-5.52-2.54,13.5,13.5,0,0,0-6.06.34,1.38,1.38,0,0,1-.87-2.61,15.32,15.32,0,0,1,14.22,2.69,1.38,1.38,0,0,1-1.14,2.41Z"/><path class="cls-14" d="M174.53,131.65a8.22,8.22,0,0,1-3.88,1h-3.17a8.26,8.26,0,0,1-8.26-8.26v16.41a8.26,8.26,0,0,0,8.26,8.26h6a53.28,53.28,0,0,0,1-10.39Z"/><path class="cls-5" d="M182.19,121.14V68.68a8.26,8.26,0,0,0-8.26-8.26h-.62q.16-1.24.27-2.5a15.85,15.85,0,0,0,.4-3.49V48.36s0-.09,0-.13a15.86,15.86,0,0,0-15.83-15.7H121.21V70.27h36.94c.36,0,.71,0,1.06-.05v54.15c0,.06,0,.12,0,.18,0,.22,0,.44,0,.66s0,.25.06.38,0,.3.07.44.07.29.11.43.06.24.09.36.11.3.16.44.07.21.11.31.15.32.23.47l.12.25c.09.17.2.34.3.51l.1.17c.12.18.26.36.39.53l.08.1c.15.19.31.36.48.54l0,0q.27.28.57.53h0a8.22,8.22,0,0,0,5.3,1.93h7.05v6a53.28,53.28,0,0,1-1,10.39h.42a8.26,8.26,0,0,0,8.26-8.26V121.14Z"/><path class="cls-15" d="M178.91,114.58v9.78a8.22,8.22,0,0,1-1,4,8.19,8.19,0,0,0,1-13.78Z"/><path class="cls-15" d="M174.53,129.31a8.16,8.16,0,0,0,3.34-1,8.22,8.22,0,0,0,1-4v-9.78a8.15,8.15,0,0,0-4.38-1.62Z"/><path class="cls-12" d="M120.46,15.87c51.55,0,93.33,23.88,93.33,53.33"/><path class="cls-12" d="M202.8,94.32c.4-.42.77-.85,1.14-1.28s.66-.75,1-1.13.67-.85,1-1.27.61-.8.91-1.21.59-.84.87-1.27.56-.85.82-1.28.51-.84.75-1.27.49-.89.73-1.34.43-.84.62-1.26.42-.94.62-1.42.35-.83.5-1.25.35-1,.51-1.49.27-.81.38-1.23.27-1.06.38-1.6.19-.78.26-1.17c.11-.6.18-1.2.26-1.8,0-.34.1-.67.13-1q.12-1.33.13-2.68c0-.06,0-.11,0-.17h0c0-20.58-20.4-38.42-50.27-47.31a151.54,151.54,0,0,0-42.32-6V32.53h36.94A15.86,15.86,0,0,1,174,48.23c11,7,17.62,16.22,17.62,26.29,0,7.22-3.43,14-9.41,19.83v12.7h0v2.15c1.55-.78,3-1.6,4.48-2.44h0l.91-.55c.66-.39,1.31-.78,2-1.18l1.1-.72c.65-.43,1.31-.85,1.94-1.29l.8-.58a67.07,67.07,0,0,0,6.18-5c.3-.27.61-.54.9-.81.45-.43.88-.87,1.31-1.31S202.48,94.66,202.8,94.32Z"/><path class="cls-14" d="M268.49,227c-5.48-9.32-63.94-96.77-63.94-96.77l0-.21c0-.22.1-.43.14-.66A19.39,19.39,0,1,0,181,144.94h0c.54.13,1.1.25,1.66.33s1.16.16,1.76.19c.43,0,.86,0,1.29,0l50.07,80-17.67-5.25a48.43,48.43,0,0,1,.34,15.18A33.62,33.62,0,0,1,213.56,249s27.9,8.2,35.24,10.48,18.35,2.28,23.86-6S274,236.33,268.49,227Z"/><path class="cls-16" d="M182.19,110.12c-.29,0-.58-.08-.87-.1s-.54,0-.81,0a9.64,9.64,0,0,0-6,2.29q-.34.29-.66.62a9.56,9.56,0,0,0,.11,13.45q.26.26.55.5a9.55,9.55,0,0,0,2.88,1.7l.27.09a9.58,9.58,0,1,0,4.51-18.55Z"/><path class="cls-20" d="M128.06,141.72a16.35,16.35,0,0,1-6.86,1.8h-.37a16.45,16.45,0,0,1-7.24-1.81,1.38,1.38,0,0,1,1.35-2.41,13.5,13.5,0,0,0,5.89,1.47h.37a13.36,13.36,0,0,0,5.52-1.46,1.39,1.39,0,0,1,1.87.53A1.37,1.37,0,0,1,128.06,141.72Z"/><path class="cls-21" d="M121.47,163l-.24,0v6.52h.66a13,13,0,0,0,8.24-3.26A13.09,13.09,0,0,0,121.47,163Z"/><path class="cls-9" d="M78.74,20.12a18.78,18.78,0,0,1,9.09-2.34,12.43,12.43,0,0,0,0,1.44,156.89,156.89,0,0,1,32.66-3.36h.75V0l-.75,0A53.22,53.22,0,0,0,78.74,20.12Z"/><path class="cls-2" d="M49.32,74.51c0-10.21,6.84-19.52,18.07-26.58.51-.32,1-.64,1.57-.95V36.65A18.81,18.81,0,0,1,75.4,22.49C46.62,31.57,27.12,49.08,27.12,69.2c0,16,12.4,30.4,32,40.18V94.73c-6.22-5.93-9.8-12.84-9.8-20.22"/><path class="cls-2" d="M98.6,32.53H121.2V15.87h-.75A156.89,156.89,0,0,0,87.8,19.23C87.87,22.55,89.06,30.62,98.6,32.53Z"/></g></g></g></svg>