<?xml version="1.0" encoding="utf-8"?>
<!-- Generator: Adobe Illustrator 21.1.0, SVG Export Plug-In . SVG Version: 6.00 Build 0)  -->
<svg version="1.1" id="Laag_1" xmlns="http://www.w3.org/2000/svg" xmlns:xlink="http://www.w3.org/1999/xlink" x="0px" y="0px"
	 viewBox="0 0 457.4 332.9" style="enable-background:new 0 0 457.4 332.9;" xml:space="preserve">
<style type="text/css">
	.st0{clip-path:url(#SVGID_2_);fill:#080D21;}
	.st1{clip-path:url(#SVGID_2_);fill:#F3F3F3;}
	.st2{clip-path:url(#SVGID_2_);fill:#DDDDDD;}
	.st3{clip-path:url(#SVGID_2_);fill:#FAFAFA;}
	.st4{clip-path:url(#SVGID_2_);fill:#424454;}
	.st5{clip-path:url(#SVGID_2_);fill:#BCBCBC;}
	.st6{clip-path:url(#SVGID_2_);fill:#272E3A;}
	.st7{clip-path:url(#SVGID_2_);fill:#ADB5C9;}
	.st8{clip-path:url(#SVGID_2_);fill:#52535C;}
	.st9{clip-path:url(#SVGID_2_);fill:#262A39;}
	.st10{clip-path:url(#SVGID_2_);fill:#1F242F;}
	.st11{clip-path:url(#SVGID_2_);fill:#FFFFFF;}
	.st12{clip-path:url(#SVGID_2_);fill:#3E4255;}
	.st13{clip-path:url(#SVGID_2_);fill:#EF52BB;}
	.st14{clip-path:url(#SVGID_2_);fill:#FEC651;}
	.st15{clip-path:url(#SVGID_2_);fill:#DD3E3A;}
	.st16{clip-path:url(#SVGID_2_);fill:#3E86DD;}
	.st17{clip-path:url(#SVGID_2_);fill:#FCF956;}
	.st18{clip-path:url(#SVGID_2_);fill:#B4D44D;}
	.st19{clip-path:url(#SVGID_2_);fill:#E8E9F2;}
	.st20{clip-path:url(#SVGID_2_);fill:#6E7283;}
	.st21{clip-path:url(#SVGID_2_);fill:#504E5D;}
	.st22{opacity:0.6;clip-path:url(#SVGID_2_);fill:#FAFAFA;enable-background:new    ;}
	.st23{opacity:0.2;clip-path:url(#SVGID_2_);fill:#FAFAFA;enable-background:new    ;}
	.st24{opacity:0.1;clip-path:url(#SVGID_2_);fill:#DDDDDD;enable-background:new    ;}
</style>
<title>Polaroid</title>
<g>
	<defs>
		<rect id="SVGID_1_" x="-32" y="-26" width="509" height="358.9"/>
	</defs>
	<clipPath id="SVGID_2_">
		<use xlink:href="#SVGID_1_"  style="overflow:visible;"/>
	</clipPath>
	<path class="st0" d="M452.6,333.2l4.2-57.8H0c1.3,19.2,2.5,38.4,3.8,57.5C153.4,333,303,333.1,452.6,333.2z"/>
	<path class="st1" d="M0,275.3h456.8l0.5-16.9c0.1-4.8-0.5-9.6-2-14.1l-15-46.3H16.5L2,245.4c-1.2,3.9-1.8,7.9-1.8,11.9L0,275.3z"/>
	<path class="st2" d="M232.1,275.3H0l0.2-18.1c0-4,0.7-8,1.9-11.9L16.5,198h216.8L232.1,275.3z"/>
	<path class="st2" d="M22.2,35.8L16.5,198h423.9l-5.7-162.2c-0.5-13.8-11.8-24.7-25.6-24.7H47.8C34,11.1,22.7,22,22.2,35.8z"/>
	<path class="st3" d="M232.6,198H16.5l5.7-162.2C22.7,22,34,11.1,47.8,11.1h183.8L232.6,198z"/>
	<circle class="st4" cx="232.1" cy="94.3" r="80.7"/>
	<circle class="st5" cx="232.1" cy="94.3" r="74.1"/>
	<circle class="st6" cx="232.1" cy="94.3" r="71.2"/>
	<circle class="st4" cx="232.1" cy="94.3" r="43.6"/>
	<circle class="st7" cx="232.1" cy="94.3" r="20.6"/>
	<circle class="st8" cx="355.6" cy="154.3" r="25.5"/>
	<circle class="st9" cx="355.6" cy="154.3" r="20.6"/>
	<circle class="st2" cx="90.6" cy="154.3" r="27.6"/>
	<path class="st10" d="M62.6,67.9h55.1c11.4,0,20.6,9.2,20.6,20.6l0,0c0,11.4-9.2,20.6-20.6,20.6H62.6c-11.4,0-20.6-9.2-20.6-20.6
		l0,0C42,77.1,51.2,67.9,62.6,67.9z"/>
	<path class="st2" d="M334.3,21.8h82.4c3.7,0,6.7,3,6.7,6.7v79.7c0,3.7-3,6.7-6.7,6.7h-82.4c-3.7,0-6.7-3-6.7-6.7V28.5
		C327.6,24.8,330.6,21.8,334.3,21.8z"/>
	<path class="st4" d="M413.5,110.6c0,0,0,0.8-38,0.8s-38-0.8-38-0.8c-3,0-5.5-2.5-5.5-5.5c0,0-0.8-13.3-0.8-36.7
		c0-26.8,0.8-36.7,0.8-36.7c0-3,2.5-5.5,5.5-5.5c0,0,0.3-0.8,38-0.8s38,0.8,38,0.8c3,0,5.5,2.4,5.5,5.5c0,0,0,0,0,0
		c0,0,0.8,10,0.8,36.7s-0.8,36.7-0.8,36.7C419,108.1,416.6,110.5,413.5,110.6C413.5,110.6,413.5,110.6,413.5,110.6z"/>
	<path class="st11" d="M61.7,81c1.1,0,2.1,0.2,3,0.8c0.8,0.5,1.3,1.2,1.5,2.1c0.2,1.1,0.2,2.2-0.1,3.2c-0.2,0.9-0.5,1.7-1,2.5
		c-0.4,0.7-0.9,1.4-1.6,1.9c-0.6,0.5-1.4,1-2.1,1.3c-0.8,0.3-1.7,0.4-2.6,0.4c-0.8,0-1.6-0.1-2.4-0.4c-0.6-0.3-1.1-0.7-1.5-1.3
		c-0.4-0.6-0.6-1.3-0.7-2c-0.1-0.8,0-1.7,0.2-2.5c0.2-0.9,0.5-1.7,1-2.5c0.4-0.7,1-1.4,1.6-1.9c0.6-0.5,1.3-0.9,2.1-1.2
		C60,81.1,60.9,81,61.7,81z M63.7,87.1c0.2-0.7,0.2-1.5,0.1-2.3c-0.1-0.6-0.4-1.1-0.9-1.4c-0.5-0.3-1.1-0.5-1.7-0.5
		c-0.5,0-1,0.1-1.4,0.3c-0.5,0.2-0.9,0.5-1.2,0.8c-0.4,0.4-0.7,0.8-1,1.3c-0.3,0.6-0.5,1.2-0.7,1.8c-0.2,0.6-0.2,1.2-0.2,1.8
		c0,0.5,0.2,0.9,0.4,1.3c0.2,0.3,0.5,0.6,0.9,0.7c0.4,0.2,0.8,0.3,1.3,0.3c0.6,0,1.3-0.2,1.8-0.5c0.6-0.3,1.2-0.8,1.6-1.4
		C63.2,88.7,63.5,87.9,63.7,87.1L63.7,87.1z"/>
	<path class="st11" d="M70.4,85.5l-0.1,0.3c0.4-0.5,1-0.8,1.5-1.1c0.5-0.2,1.1-0.4,1.7-0.4c0.5,0,1,0.1,1.5,0.4
		c0.4,0.2,0.7,0.6,0.8,1.1c0.1,0.3,0.1,0.6,0.1,0.9c0,0.4-0.1,0.8-0.2,1.2l-0.9,4.1c-0.1,0.4-0.3,0.7-0.5,1
		c-0.2,0.2-0.5,0.3-0.9,0.3c-0.3,0-0.6-0.1-0.7-0.3c-0.2-0.3-0.2-0.7-0.1-1l0.8-3.7c0.2-0.5,0.2-1.1,0.1-1.7
		c-0.1-0.4-0.5-0.6-1.1-0.6c-0.4,0-0.8,0.1-1.2,0.3c-0.4,0.3-0.7,0.6-0.9,1c-0.3,0.6-0.5,1.2-0.6,1.8l-0.6,2.8
		c-0.1,0.4-0.3,0.7-0.5,1c-0.2,0.2-0.6,0.3-0.9,0.3c-0.3,0-0.6-0.1-0.7-0.3c-0.2-0.3-0.2-0.7-0.1-1l1.5-6.4c0.1-0.4,0.2-0.7,0.5-0.9
		c0.2-0.2,0.5-0.3,0.8-0.3c0.2,0,0.3,0,0.5,0.1c0.1,0.1,0.2,0.2,0.3,0.4C70.5,85,70.5,85.2,70.4,85.5z"/>
	<path class="st11" d="M83.8,89.3h-4.3c-0.1,0.4-0.1,0.9,0,1.3c0.1,0.3,0.3,0.7,0.6,0.9c0.3,0.2,0.6,0.3,1,0.3c0.3,0,0.5,0,0.8-0.1
		c0.2-0.1,0.5-0.2,0.7-0.3c0.2-0.1,0.4-0.3,0.7-0.4l0.8-0.6c0.2-0.1,0.3-0.2,0.5-0.2c0.2,0,0.4,0.1,0.5,0.2c0.1,0.1,0.2,0.3,0.1,0.5
		c-0.1,0.3-0.2,0.5-0.4,0.7c-0.3,0.3-0.5,0.6-0.9,0.8c-0.4,0.3-0.9,0.5-1.3,0.6c-0.6,0.2-1.1,0.2-1.7,0.2c-1.1,0.1-2.3-0.3-3-1.2
		c-0.6-1-0.8-2.2-0.5-3.3c0.1-0.6,0.4-1.2,0.7-1.8c0.3-0.5,0.7-1,1.2-1.4c0.5-0.4,1-0.7,1.6-0.9c0.6-0.2,1.2-0.3,1.9-0.3
		c0.7,0,1.5,0.2,2.1,0.6c0.5,0.3,0.9,0.8,1.1,1.4c0.2,0.6,0.2,1.2,0.1,1.8c-0.1,0.4-0.3,0.8-0.7,1C84.8,89.2,84.3,89.3,83.8,89.3z
		 M79.7,88h4c0.1-0.6,0-1.2-0.3-1.7c-0.3-0.4-0.8-0.6-1.3-0.6c-0.5,0-1.1,0.2-1.5,0.6C80.3,86.8,79.9,87.4,79.7,88z"/>
	<path class="st11" d="M96.7,89.4c-0.1,0.7-0.5,1.4-0.9,1.9c-0.5,0.6-1.2,1.1-1.9,1.3c-0.8,0.3-1.8,0.5-2.7,0.5
		c-1,0.1-1.9-0.2-2.8-0.7c-0.5-0.3-0.8-0.8-1.1-1.3c-0.2-0.5-0.3-1-0.2-1.6c0.1-0.3,0.2-0.6,0.5-0.8c0.2-0.2,0.5-0.3,0.8-0.3
		c0.2,0,0.4,0.1,0.6,0.2c0.2,0.2,0.3,0.5,0.3,0.7c0.1,0.3,0.2,0.6,0.3,0.9c0.1,0.3,0.4,0.5,0.6,0.6c0.4,0.2,0.8,0.3,1.2,0.3
		c0.7,0,1.3-0.2,1.8-0.5c0.5-0.3,0.8-0.7,0.9-1.2c0.1-0.3,0-0.7-0.2-1c-0.2-0.3-0.5-0.5-0.8-0.6c-0.5-0.2-1-0.3-1.4-0.4
		c-0.7-0.2-1.4-0.4-2-0.7c-0.5-0.2-0.9-0.6-1.1-1c-0.3-0.5-0.3-1.1-0.2-1.7c0.1-0.7,0.4-1.3,0.9-1.7c0.5-0.5,1.1-0.9,1.8-1.2
		c0.8-0.3,1.6-0.4,2.4-0.4c0.6,0,1.2,0.1,1.8,0.3c0.4,0.1,0.8,0.4,1.2,0.7c0.3,0.3,0.5,0.6,0.6,0.9c0.1,0.3,0.1,0.7,0,1
		c-0.1,0.3-0.2,0.6-0.5,0.8C96.6,84.9,96.3,85,96,85c-0.2,0-0.4-0.1-0.6-0.2c-0.1-0.2-0.3-0.4-0.3-0.7c-0.1-0.4-0.3-0.7-0.6-1
		c-0.4-0.3-0.9-0.4-1.4-0.4c-0.6,0-1.1,0.1-1.6,0.4c-0.4,0.2-0.7,0.6-0.8,1c-0.1,0.2,0,0.4,0.1,0.6c0.1,0.2,0.3,0.3,0.4,0.4
		c0.2,0.1,0.4,0.2,0.6,0.3l1.1,0.3c0.6,0.1,1.2,0.3,1.7,0.5c0.5,0.2,0.9,0.4,1.3,0.7c0.3,0.3,0.6,0.6,0.7,1
		C96.8,88.5,96.8,89,96.7,89.4z"/>
	<path class="st11" d="M99.7,84.4h0.3l0.3-1.3c0.1-0.4,0.1-0.6,0.2-0.8c0.1-0.2,0.1-0.4,0.3-0.5c0.1-0.2,0.3-0.3,0.4-0.4
		c0.2-0.1,0.4-0.1,0.6-0.1c0.3,0,0.5,0.1,0.7,0.3c0.1,0.1,0.2,0.3,0.2,0.5c0,0.3,0,0.6-0.1,0.9l-0.3,1.5h0.8c0.2,0,0.5,0.1,0.7,0.2
		c0.1,0.2,0.2,0.4,0.1,0.6c0,0.3-0.2,0.5-0.5,0.6c-0.3,0.1-0.7,0.2-1,0.2h-0.4l-0.8,4.1c-0.1,0.3-0.1,0.5-0.1,0.8
		c0,0.2,0,0.3,0.1,0.4c0.1,0.1,0.3,0.2,0.5,0.2c0.2,0,0.4,0,0.5-0.1s0.4-0.1,0.5-0.1c0.2,0,0.3,0.1,0.4,0.2c0.1,0.1,0.2,0.3,0.1,0.5
		c-0.1,0.4-0.4,0.7-0.8,0.8c-0.6,0.2-1.2,0.3-1.8,0.3c-0.5,0-1.1-0.1-1.5-0.3c-0.3-0.2-0.5-0.6-0.5-1c0-0.6,0-1.1,0.2-1.6l0.8-4.2
		h-0.3c-0.3,0-0.5-0.1-0.7-0.2c-0.1-0.2-0.2-0.4-0.1-0.6c0-0.2,0.2-0.4,0.4-0.6C99.2,84.5,99.4,84.4,99.7,84.4z"/>
	<path class="st11" d="M110.7,89.3h-4.3c-0.1,0.4-0.1,0.9,0.1,1.3c0.1,0.4,0.3,0.7,0.6,0.9c0.3,0.2,0.6,0.3,1,0.3
		c0.3,0,0.5,0,0.8-0.1c0.2-0.1,0.5-0.2,0.7-0.3c0.2-0.1,0.4-0.3,0.7-0.4l0.8-0.6c0.2-0.1,0.3-0.2,0.5-0.2c0.2,0,0.4,0.1,0.5,0.2
		c0.1,0.1,0.2,0.3,0.1,0.5c-0.1,0.3-0.2,0.5-0.4,0.7c-0.2,0.3-0.5,0.6-0.9,0.8c-0.4,0.3-0.8,0.5-1.3,0.6c-0.6,0.2-1.1,0.2-1.7,0.2
		c-1.2,0.1-2.3-0.3-3.1-1.2c-0.7-1-0.9-2.2-0.6-3.3c0.1-0.6,0.3-1.2,0.6-1.8c0.3-0.5,0.7-1,1.1-1.4c0.5-0.4,1-0.7,1.6-0.9
		c0.6-0.2,1.2-0.3,1.9-0.3c0.7,0,1.5,0.2,2.1,0.6c0.5,0.3,0.9,0.8,1.1,1.4c0.2,0.6,0.3,1.2,0.1,1.8c0,0.5-0.3,0.9-0.7,1.1
		C111.7,89.2,111.2,89.3,110.7,89.3z M106.6,88h4c0.1-0.6,0-1.2-0.3-1.7c-0.3-0.4-0.8-0.6-1.3-0.6c-0.5,0-1.1,0.2-1.5,0.6
		C107.1,86.8,106.8,87.4,106.6,88z"/>
	<path class="st11" d="M117,85.5v0.3c0.4-0.5,0.9-0.8,1.5-1.1c0.5-0.2,1-0.4,1.6-0.4c0.6,0,1.3,0.2,1.8,0.5c0.5,0.4,0.9,0.9,1.1,1.5
		c0.2,0.8,0.2,1.6,0.1,2.4c-0.1,0.7-0.3,1.3-0.6,1.9c-0.3,0.5-0.6,1-1,1.4c-0.4,0.4-0.8,0.7-1.3,0.9c-0.5,0.2-1,0.3-1.5,0.3
		c-0.5,0-1.1-0.1-1.5-0.4c-0.4-0.3-0.8-0.7-1-1.1l-0.6,3.3c-0.2,1-0.6,1.4-1.3,1.4c-0.4,0-0.7-0.1-0.8-0.4c-0.1-0.4-0.1-0.7,0-1.1
		l1.8-9.5c0-0.4,0.2-0.7,0.4-0.9c0.2-0.2,0.5-0.3,0.8-0.3c0.3,0,0.5,0.1,0.7,0.3C117.1,84.9,117.1,85.2,117,85.5z M120.8,88.7
		c0.1-0.5,0.1-1,0-1.5c-0.1-0.4-0.3-0.7-0.6-1c-0.3-0.2-0.6-0.3-1-0.3c-0.6,0-1.2,0.3-1.7,0.7c-0.6,0.6-0.9,1.3-1,2.1
		c-0.2,0.7-0.1,1.4,0.3,2c0.3,0.5,0.9,0.8,1.4,0.7c0.4,0,0.8-0.1,1.1-0.3c0.4-0.3,0.7-0.6,0.9-1C120.5,89.7,120.6,89.2,120.8,88.7
		L120.8,88.7z"/>
	<rect x="18.9" y="276.2" class="st12" width="417.3" height="42"/>
	<path class="st11" d="M9.1,248.2h437.1c2,0,3.7,1.7,3.7,3.7v0c0,2-1.7,3.7-3.7,3.7H9.1c-2,0-3.7-1.7-3.7-3.7v0
		C5.3,249.8,7,248.2,9.1,248.2z"/>
	<path class="st13" d="M220,198.3l-0.5-21.2c-2.4-0.3-4.8-0.9-7.1-1.6l0.8,22.8l-2,53.7l0.3,23.1h7.3l-0.2-23.1L220,198.3z"/>
	<path class="st14" d="M226.4,177.9l0.3,20.4l-0.6,53.7l0.1,23.1h6.8v-97C230.6,178.1,228.4,178,226.4,177.9z"/>
	<path class="st15" d="M226.7,198.3l-0.3-20.4c-2.7-0.2-5.1-0.5-7-0.8l0.5,21.2l-1.3,53.7l0.2,23.1h7.3l-0.1-23.1L226.7,198.3z"/>
	<path class="st16" d="M254.8,252l-2.1-53.7l0.8-22.8c-2.3,0.7-4.6,1.2-7,1.6l-0.5,21.2l1.4,53.7l-0.3,23.1h7.3L254.8,252z"/>
	<path class="st17" d="M239.3,198.3l0.3-20.4c-2,0.1-4.2,0.2-6.6,0.2v97h6.9l0.1-23.1L239.3,198.3z"/>
	<path class="st18" d="M246,198.3l0.5-21.2c-1.9,0.3-4.3,0.6-7,0.8l-0.3,20.4l0.7,53.7l-0.1,23.1h7.3l0.3-23.1L246,198.3z"/>
	<path class="st6" d="M374.5,35.7h1.9c18,0,32.6,14.6,32.6,32.6v0c0,18-14.6,32.6-32.6,32.6h-1.9c-18,0-32.6-14.6-32.6-32.6v0
		C341.9,50.3,356.5,35.7,374.5,35.7z"/>
	<path class="st7" d="M389.8,84.3c0,0,0,0.3-14.3,0.3s-14.3-0.3-14.3-0.3c-1.1,0-2.1-0.9-2.1-2.1v0c0,0-0.3-6-0.3-13.9
		s0.3-13.9,0.3-13.9c0-1.1,0.9-2.1,2.1-2.1l0,0c0,0,0.1-0.3,14.3-0.3s14.3,0.3,14.3,0.3c1.1,0,2.1,0.9,2.1,2.1c0,0,0,0,0,0
		c0,0,0.3,3.8,0.3,13.9s-0.3,13.9-0.3,13.9C391.9,83.3,391,84.3,389.8,84.3L389.8,84.3z"/>
	<path class="st19" d="M373.4,72.5c-2.7,0.1-5.5,0.1-8.2,0c-0.3,0-0.6-0.3-0.6-0.6c0,0-0.1-6.9-0.1-4s0.1-4,0.1-4
		c0-0.3,0.3-0.6,0.6-0.6c2.7-0.1,5.5-0.1,8.2,0c0.3,0,0.6,0.3,0.6,0.6c0,0,0.1,1.1,0.1,4s-0.1,4-0.1,4
		C374,72.2,373.8,72.5,373.4,72.5z"/>
	<circle class="st20" cx="350.3" cy="158" r="8.2"/>
	<path class="st21" d="M293.9,0H163c-3.4,0-6.6,1.6-8.6,4.2l-5,6.5h158l-5-6.5C300.4,1.6,297.2,0,293.9,0z"/>
	<circle class="st22" cx="266.3" cy="59.3" r="14.8"/>
	<circle class="st22" cx="205" cy="123.9" r="6.2"/>
	<path class="st12" d="M230.9,0H163c-3.4,0-6.6,1.6-8.6,4.2l-5,6.5h81.5"/>
	<circle class="st15" cx="90.6" cy="154.3" r="25.5"/>
	<path class="st23" d="M232.1,174.9c-44.6,0-80.7-36.1-80.7-80.7s36.1-80.7,80.7-80.7"/>
	<path class="st24" d="M230.9,275.3H0l3.8,57.5c75.9,0,151.8,0,227.7,0"/>
	<path class="st11" d="M115.1,300.8h-2.2v3.3c0,0.4-0.1,0.8-0.3,1.1c-0.5,0.5-1.2,0.5-1.7,0c0,0,0,0,0,0c-0.2-0.3-0.4-0.7-0.3-1.1
		v-9.1c0-0.4,0.1-0.8,0.4-1.1c0.3-0.3,0.7-0.4,1.2-0.3h3.1c0.7,0,1.4,0,2.1,0.2c0.5,0.1,0.9,0.4,1.3,0.7c0.4,0.3,0.6,0.7,0.8,1.1
		c0.2,0.5,0.3,1,0.3,1.5c0.1,1-0.3,2-1.1,2.7C117.5,300.6,116.3,300.9,115.1,300.8z M114.5,295.4h-1.6v3.6h1.6c0.5,0,1-0.1,1.4-0.2
		c0.3-0.1,0.6-0.3,0.9-0.6c0.2-0.3,0.3-0.7,0.3-1c0-0.5-0.1-0.9-0.5-1.3C116,295.5,115.3,295.3,114.5,295.4z"/>
	<path class="st11" d="M128.4,293.4c1.1,0,2.2,0.2,3.1,0.7c0.9,0.5,1.6,1.2,2,2.1c0.5,1,0.7,2.1,0.7,3.2c0,0.8-0.1,1.7-0.4,2.5
		c-0.2,0.7-0.6,1.4-1.1,1.9c-0.5,0.6-1.1,1-1.8,1.3c-1.6,0.6-3.3,0.6-4.9,0c-0.7-0.3-1.3-0.7-1.8-1.3c-0.5-0.6-0.9-1.3-1.1-2
		c-0.3-0.8-0.4-1.6-0.4-2.5c0-0.8,0.1-1.6,0.3-2.4c0.2-0.7,0.6-1.4,1.1-1.9c0.5-0.5,1.1-1,1.8-1.2
		C126.7,293.5,127.5,293.4,128.4,293.4z M131.8,299.5c0-0.8-0.1-1.5-0.4-2.2c-0.2-0.6-0.7-1.1-1.2-1.4c-0.5-0.3-1.2-0.5-1.8-0.5
		c-0.5,0-0.9,0.1-1.3,0.3c-0.4,0.2-0.7,0.4-1,0.8c-0.3,0.4-0.5,0.8-0.7,1.3c-0.2,0.6-0.3,1.2-0.3,1.8c0,0.6,0.1,1.2,0.3,1.8
		c0.1,0.5,0.4,1,0.7,1.4c0.3,0.3,0.7,0.6,1.1,0.8c1,0.4,2.1,0.3,3-0.2c0.5-0.3,1-0.8,1.2-1.4C131.7,301.1,131.8,300.3,131.8,299.5z"
		/>
	<path class="st11" d="M140.2,294.9v8.6h4.8c0.3,0,0.6,0.1,0.9,0.3c0.2,0.2,0.3,0.4,0.3,0.7c0,0.3-0.1,0.5-0.3,0.7
		c-0.3,0.2-0.6,0.3-0.9,0.3h-5.8c-0.7,0.1-1.3-0.3-1.5-1c0-0.2,0-0.3,0-0.5v-9.1c0-0.4,0.1-0.8,0.3-1.1c0.2-0.2,0.5-0.4,0.9-0.4
		c0.3,0,0.6,0.1,0.9,0.4C140.1,294.1,140.2,294.5,140.2,294.9z"/>
	<path class="st11" d="M156.8,304l-0.6-1.5h-4.8l-0.6,1.5c-0.1,0.4-0.3,0.8-0.6,1.2c-0.2,0.2-0.5,0.3-0.8,0.3
		c-0.3,0-0.6-0.1-0.8-0.3c-0.2-0.2-0.3-0.5-0.4-0.8c0-0.2,0-0.3,0.1-0.5c0.1-0.2,0.1-0.4,0.3-0.7l3-7.6l0.3-0.8
		c0.1-0.3,0.2-0.5,0.4-0.8c0.1-0.2,0.3-0.4,0.5-0.5c0.3-0.1,0.5-0.2,0.8-0.2c0.3,0,0.6,0.1,0.8,0.2c0.2,0.1,0.4,0.3,0.5,0.5
		c0.1,0.2,0.3,0.4,0.4,0.6c0.1,0.2,0.2,0.5,0.4,0.9l3.1,7.6c0.2,0.4,0.3,0.8,0.4,1.3c0,0.3-0.1,0.6-0.3,0.8
		c-0.2,0.2-0.5,0.3-0.8,0.3c-0.2,0-0.3,0-0.5-0.1c-0.1-0.1-0.2-0.2-0.3-0.3c-0.1-0.2-0.2-0.3-0.3-0.5L156.8,304z M152.1,300.8h3.5
		l-1.8-4.9L152.1,300.8z"/>
	<path class="st11" d="M165.9,300.3h-0.8v3.8c0,0.4-0.1,0.8-0.3,1.1c-0.2,0.2-0.5,0.4-0.9,0.4c-0.3,0-0.7-0.1-0.9-0.4
		c-0.2-0.3-0.3-0.7-0.3-1.1v-9.1c-0.1-0.7,0.3-1.3,1-1.5c0.2,0,0.3,0,0.5,0h3.9c0.5,0,0.9,0,1.4,0.1c0.3,0,0.7,0.1,1,0.3
		c0.4,0.2,0.7,0.4,1,0.7c0.3,0.3,0.5,0.6,0.6,1c0.1,0.4,0.2,0.8,0.2,1.2c0,0.8-0.2,1.5-0.7,2.1c-0.6,0.6-1.4,1-2.3,1.1
		c0.5,0.3,0.9,0.6,1.2,1c0.4,0.4,0.7,0.9,1,1.4c0.3,0.4,0.5,0.9,0.7,1.3c0.1,0.3,0.2,0.5,0.3,0.8c0,0.2-0.1,0.3-0.1,0.5
		c-0.1,0.2-0.2,0.3-0.4,0.4c-0.2,0.1-0.4,0.1-0.6,0.1c-0.2,0-0.5-0.1-0.7-0.2c-0.2-0.1-0.3-0.3-0.5-0.5c-0.1-0.2-0.3-0.5-0.5-0.9
		l-1-1.6c-0.3-0.5-0.6-0.9-0.9-1.3c-0.2-0.3-0.5-0.5-0.8-0.6C166.6,300.4,166.3,300.3,165.9,300.3z M167.3,295.3h-2.2v3.2h2.1
		c0.5,0,1,0,1.4-0.1c0.3-0.1,0.7-0.3,0.9-0.5c0.2-0.3,0.3-0.6,0.3-1c0-0.6-0.4-1.2-0.9-1.4C168.4,295.4,167.9,295.3,167.3,295.3
		L167.3,295.3z"/>
	<path class="st11" d="M181.4,293.4c1.1,0,2.2,0.2,3.1,0.7c0.9,0.5,1.6,1.2,2,2.1c0.5,1,0.7,2.1,0.7,3.2c0,0.8-0.1,1.7-0.4,2.5
		c-0.2,0.7-0.6,1.4-1.1,1.9c-0.5,0.6-1.1,1-1.8,1.3c-1.6,0.6-3.3,0.6-4.9,0c-0.7-0.3-1.3-0.7-1.8-1.3c-0.5-0.6-0.9-1.3-1.1-2
		c-0.3-0.8-0.4-1.6-0.4-2.5c0-0.8,0.1-1.7,0.4-2.5c0.2-0.7,0.6-1.4,1.1-1.9c0.5-0.5,1.1-1,1.8-1.2
		C179.8,293.5,180.6,293.4,181.4,293.4z M184.8,299.5c0-0.8-0.1-1.5-0.4-2.2c-0.2-0.6-0.7-1.1-1.2-1.4c-0.5-0.3-1.2-0.5-1.8-0.5
		c-0.5,0-0.9,0.1-1.3,0.3c-0.4,0.2-0.7,0.4-1,0.8c-0.3,0.4-0.5,0.8-0.7,1.3c-0.2,0.6-0.3,1.2-0.3,1.8c0,0.6,0.1,1.2,0.3,1.8
		c0.1,0.5,0.4,1,0.7,1.4c0.3,0.3,0.7,0.6,1.1,0.8c1,0.4,2.1,0.3,3-0.2c0.5-0.3,1-0.8,1.2-1.4C184.7,301.1,184.8,300.3,184.8,299.5z"
		/>
	<path class="st11" d="M191,304.1v-9.3c0-0.4,0.1-0.8,0.3-1.1c0.2-0.2,0.5-0.4,0.9-0.4c0.3,0,0.6,0.1,0.9,0.4
		c0.2,0.3,0.4,0.7,0.3,1.1v9.3c0,0.4-0.1,0.8-0.3,1.1c-0.2,0.2-0.5,0.4-0.9,0.4c-0.3,0-0.6-0.1-0.9-0.4
		C191.1,304.9,191,304.5,191,304.1z"/>
	<path class="st11" d="M199.2,293.6h3.1c0.7,0,1.4,0.1,2.1,0.2c0.6,0.2,1.1,0.4,1.6,0.8c1.3,1.2,2,3,1.8,4.8c0,0.7-0.1,1.3-0.2,1.9
		c-0.1,0.6-0.3,1.1-0.6,1.6c-0.3,0.5-0.6,0.9-1,1.3c-0.3,0.3-0.6,0.5-1,0.7c-0.4,0.2-0.8,0.3-1.2,0.4c-0.5,0.1-1,0.1-1.5,0.1h-3.1
		c-0.3,0-0.7,0-1-0.2c-0.2-0.1-0.4-0.3-0.4-0.5c-0.1-0.3-0.1-0.6-0.1-0.9v-8.6c-0.1-0.7,0.3-1.3,1-1.5
		C198.8,293.6,199,293.6,199.2,293.6L199.2,293.6z M200.1,295.5v8h1.8c0.4,0,0.7,0,0.9,0c0.2,0,0.5-0.1,0.7-0.2
		c0.2-0.1,0.4-0.2,0.6-0.4c0.9-0.9,1.3-2.2,1.2-3.5c0.1-0.9-0.1-1.8-0.5-2.6c-0.3-0.5-0.7-0.9-1.3-1.1c-0.6-0.2-1.2-0.3-1.9-0.2
		L200.1,295.5z"/>
	<path class="st11" d="M219.6,294.9v8.6h4.8c0.3,0,0.6,0.1,0.9,0.3c0.2,0.2,0.3,0.4,0.3,0.7c0,0.3-0.1,0.5-0.3,0.7
		c-0.3,0.2-0.6,0.3-0.9,0.3h-5.8c-0.7,0.1-1.3-0.3-1.5-1c0-0.2,0-0.3,0-0.5v-9.1c0-0.4,0.1-0.8,0.3-1.1c0.2-0.2,0.5-0.4,0.9-0.4
		c0.3,0,0.6,0.1,0.9,0.4C219.6,294.1,219.7,294.5,219.6,294.9z"/>
	<path class="st11" d="M236.2,304l-0.6-1.5h-4.8l-0.6,1.5c-0.1,0.4-0.3,0.8-0.6,1.2c-0.2,0.2-0.5,0.3-0.8,0.3
		c-0.3,0-0.6-0.1-0.8-0.3c-0.2-0.2-0.3-0.5-0.4-0.8c0-0.2,0-0.3,0.1-0.5c0.1-0.2,0.1-0.4,0.3-0.7l3-7.6l0.3-0.8
		c0.1-0.3,0.2-0.5,0.4-0.8c0.1-0.2,0.3-0.4,0.5-0.5c0.3-0.1,0.5-0.2,0.8-0.2c0.3,0,0.6,0.1,0.8,0.2c0.2,0.1,0.4,0.3,0.5,0.5
		c0.1,0.2,0.3,0.4,0.4,0.6c0.1,0.2,0.2,0.5,0.4,0.9l3.1,7.6c0.2,0.4,0.3,0.8,0.4,1.3c0,0.3-0.1,0.6-0.3,0.8
		c-0.2,0.2-0.5,0.3-0.8,0.3c-0.2,0-0.3,0-0.5-0.1c-0.1-0.1-0.2-0.2-0.3-0.3c-0.1-0.2-0.2-0.3-0.3-0.5L236.2,304z M231.5,300.8h3.5
		l-1.8-4.9L231.5,300.8z"/>
	<path class="st11" d="M245.3,294.8l4.6,7v-7c0-0.4,0.1-0.7,0.3-1c0.2-0.2,0.5-0.4,0.8-0.3c0.3,0,0.6,0.1,0.8,0.3
		c0.2,0.3,0.3,0.6,0.3,1v9.2c0,1-0.4,1.5-1.3,1.5c-0.2,0-0.4,0-0.6-0.1c-0.2-0.1-0.3-0.2-0.5-0.3c-0.2-0.1-0.3-0.3-0.4-0.5l-0.4-0.5
		l-4.5-6.9v6.9c0,0.4-0.1,0.7-0.3,1c-0.2,0.2-0.5,0.4-0.8,0.4c-0.3,0-0.6-0.1-0.8-0.4c-0.2-0.3-0.3-0.6-0.3-1v-9.1
		c0-0.3,0-0.6,0.1-0.9c0.1-0.2,0.3-0.5,0.5-0.6c0.2-0.1,0.5-0.2,0.8-0.2c0.4,0,0.7,0.1,1,0.4c0.1,0.1,0.2,0.3,0.4,0.5L245.3,294.8z"
		/>
	<path class="st11" d="M257.8,293.6h3.1c0.7,0,1.4,0.1,2.1,0.2c0.6,0.2,1.1,0.4,1.6,0.8c1.3,1.2,2,3,1.8,4.8c0,0.7-0.1,1.3-0.2,1.9
		c-0.1,0.6-0.3,1.1-0.6,1.6c-0.3,0.5-0.6,0.9-1,1.3c-0.3,0.3-0.6,0.5-1,0.7c-0.4,0.2-0.8,0.3-1.2,0.4c-0.5,0.1-1,0.1-1.5,0.1h-3.1
		c-0.3,0-0.7,0-1-0.2c-0.2-0.1-0.4-0.3-0.4-0.5c-0.1-0.3-0.1-0.6-0.1-0.9v-8.6c-0.1-0.7,0.3-1.3,1-1.5
		C257.5,293.6,257.6,293.6,257.8,293.6L257.8,293.6z M258.7,295.5v8h1.8c0.4,0,0.7,0,0.9,0c0.2,0,0.5-0.1,0.7-0.2
		c0.2-0.1,0.4-0.2,0.6-0.4c0.9-0.9,1.3-2.2,1.2-3.5c0.1-0.9-0.1-1.8-0.5-2.6c-0.3-0.5-0.7-0.9-1.3-1.1c-0.6-0.2-1.2-0.3-1.9-0.2
		L258.7,295.5z"/>
	<path class="st11" d="M285.9,301.7c0,0.4-0.1,0.8-0.3,1.2c-0.5,1-1.3,1.9-2.4,2.3c-0.7,0.3-1.4,0.4-2.1,0.4c-0.6,0-1.1-0.1-1.7-0.2
		c-0.5-0.1-1-0.3-1.4-0.5c-0.4-0.3-0.8-0.6-1.1-1c-0.3-0.4-0.6-0.8-0.8-1.2c-0.2-0.5-0.4-1-0.5-1.5c-0.1-0.5-0.2-1.1-0.2-1.7
		c0-0.9,0.1-1.7,0.4-2.5c0.2-0.7,0.6-1.4,1.2-1.9c0.5-0.5,1.1-0.9,1.8-1.2c0.7-0.3,1.5-0.4,2.2-0.4c0.9,0,1.8,0.2,2.5,0.6
		c0.7,0.3,1.3,0.8,1.7,1.4c0.4,0.5,0.6,1,0.6,1.6c0,0.3-0.1,0.5-0.3,0.7c-0.2,0.2-0.4,0.3-0.7,0.3c-0.2,0-0.5-0.1-0.7-0.2
		c-0.2-0.2-0.4-0.5-0.5-0.8c-0.3-0.5-0.6-1-1.1-1.3c-0.5-0.3-1-0.5-1.6-0.4c-0.9,0-1.8,0.4-2.3,1.1c-0.6,0.9-0.9,2.1-0.9,3.2
		c0,0.8,0.1,1.6,0.4,2.3c0.2,0.6,0.6,1,1.1,1.4c0.5,0.3,1.1,0.5,1.7,0.5c0.6,0,1.2-0.2,1.7-0.5c0.5-0.4,0.9-0.9,1.1-1.5
		c0.1-0.3,0.2-0.5,0.4-0.8c0.2-0.2,0.4-0.3,0.7-0.3c0.3,0,0.5,0.1,0.7,0.3C285.8,301.1,285.9,301.4,285.9,301.7z"/>
	<path class="st11" d="M297.3,304l-0.6-1.5h-4.8l-0.6,1.5c-0.1,0.4-0.3,0.8-0.6,1.2c-0.2,0.2-0.5,0.3-0.8,0.3
		c-0.3,0-0.6-0.1-0.8-0.3c-0.2-0.2-0.3-0.5-0.4-0.8c0-0.2,0-0.3,0.1-0.5c0.1-0.2,0.1-0.4,0.3-0.7l3-7.6l0.3-0.8
		c0.1-0.3,0.2-0.5,0.4-0.8c0.1-0.2,0.3-0.4,0.5-0.5c0.3-0.1,0.5-0.2,0.8-0.2c0.3,0,0.6,0.1,0.8,0.2c0.2,0.1,0.4,0.3,0.5,0.5
		c0.1,0.2,0.3,0.4,0.4,0.6c0.1,0.2,0.2,0.5,0.4,0.9l3.1,7.6c0.2,0.4,0.3,0.8,0.4,1.3c0,0.3-0.1,0.6-0.3,0.8
		c-0.2,0.2-0.5,0.3-0.8,0.3c-0.2,0-0.3,0-0.5-0.1c-0.1-0.1-0.2-0.2-0.3-0.3c-0.1-0.2-0.2-0.3-0.3-0.5L297.3,304z M292.5,300.8h3.5
		l-1.8-4.9L292.5,300.8z"/>
	<path class="st11" d="M307.2,303.6l-1.9-7.5v8.1c0,0.4-0.1,0.7-0.3,1c-0.4,0.4-1.1,0.4-1.6,0c0,0,0,0,0,0c-0.2-0.3-0.3-0.6-0.3-1
		v-9.3c0-0.4,0.1-0.8,0.4-1c0.3-0.2,0.7-0.3,1.1-0.3h0.7c0.3,0,0.7,0,1,0.1c0.2,0.1,0.4,0.2,0.5,0.4c0.1,0.3,0.2,0.7,0.3,1l1.7,6.5
		l1.7-6.5c0.1-0.3,0.2-0.7,0.3-1c0.1-0.2,0.2-0.4,0.5-0.4c0.3-0.1,0.7-0.1,1-0.1h0.7c0.4,0,0.8,0.1,1.1,0.3c0.3,0.2,0.4,0.6,0.4,1
		v9.3c0,0.4-0.1,0.7-0.3,1c-0.2,0.2-0.5,0.4-0.8,0.3c-0.3,0-0.6-0.1-0.8-0.3c-0.2-0.3-0.3-0.6-0.3-1v-8.1l-1.9,7.5
		c-0.1,0.5-0.2,0.8-0.3,1.1c-0.1,0.2-0.2,0.5-0.4,0.6c-0.2,0.2-0.6,0.3-0.9,0.3c-0.5,0-0.9-0.2-1.2-0.6c-0.1-0.2-0.2-0.4-0.3-0.6
		L307.2,303.6z"/>
	<path class="st11" d="M326.4,295.4H321v2.9h5c0.3,0,0.6,0.1,0.8,0.3c0.2,0.2,0.3,0.4,0.3,0.6c0,0.2-0.1,0.5-0.3,0.7
		c-0.2,0.2-0.5,0.3-0.8,0.3h-5v3.4h5.6c0.3,0,0.6,0.1,0.9,0.3c0.2,0.2,0.3,0.4,0.3,0.7c0,0.3-0.1,0.5-0.3,0.7
		c-0.2,0.2-0.5,0.3-0.9,0.3H320c-0.7,0.1-1.3-0.3-1.5-1c0-0.2,0-0.3,0-0.5v-8.9c0-0.3,0-0.6,0.1-0.8c0.1-0.2,0.3-0.4,0.5-0.5
		c0.3-0.1,0.5-0.2,0.8-0.1h6.3c0.3,0,0.6,0.1,0.9,0.3c0.2,0.2,0.3,0.4,0.3,0.7c0,0.3-0.1,0.5-0.3,0.7
		C326.9,295.4,326.6,295.5,326.4,295.4z"/>
	<path class="st11" d="M334.4,300.3h-0.8v3.8c0,0.4-0.1,0.8-0.3,1.1c-0.2,0.2-0.5,0.4-0.9,0.4c-0.3,0-0.7-0.1-0.9-0.4
		c-0.2-0.3-0.3-0.7-0.3-1.1v-9.1c-0.1-0.7,0.3-1.3,1-1.5c0.2,0,0.3,0,0.5,0h3.9c0.5,0,0.9,0,1.4,0.1c0.3,0,0.7,0.1,1,0.3
		c0.4,0.2,0.7,0.4,1,0.7c0.3,0.3,0.5,0.6,0.6,1c0.1,0.4,0.2,0.8,0.2,1.2c0,0.8-0.2,1.5-0.7,2.1c-0.6,0.6-1.4,1-2.3,1.1
		c0.5,0.3,0.9,0.6,1.2,1c0.4,0.4,0.7,0.9,1,1.4c0.3,0.4,0.5,0.9,0.7,1.3c0.1,0.3,0.2,0.5,0.3,0.8c0,0.2-0.1,0.3-0.1,0.5
		c-0.1,0.2-0.2,0.3-0.4,0.4c-0.2,0.1-0.4,0.1-0.6,0.1c-0.2,0-0.5-0.1-0.7-0.2c-0.2-0.1-0.3-0.3-0.5-0.5c-0.1-0.2-0.3-0.5-0.5-0.9
		l-1-1.6c-0.3-0.5-0.6-0.9-0.9-1.3c-0.2-0.3-0.5-0.5-0.8-0.6C335.1,300.4,334.8,300.3,334.4,300.3z M335.8,295.3h-2.2v3.2h2.1
		c0.5,0,1,0,1.5-0.1c0.3-0.1,0.7-0.3,0.9-0.5c0.2-0.3,0.3-0.6,0.3-1c0-0.6-0.4-1.2-0.9-1.4C336.9,295.4,336.3,295.3,335.8,295.3
		L335.8,295.3z"/>
	<path class="st11" d="M352.2,304l-0.6-1.5h-4.8l-0.6,1.5c-0.1,0.4-0.3,0.8-0.6,1.2c-0.2,0.2-0.5,0.3-0.8,0.3
		c-0.3,0-0.6-0.1-0.8-0.3c-0.2-0.2-0.3-0.5-0.4-0.8c0-0.2,0-0.3,0.1-0.5c0.1-0.2,0.1-0.4,0.3-0.7l3-7.6l0.3-0.8
		c0.1-0.3,0.2-0.5,0.4-0.8c0.1-0.2,0.3-0.4,0.5-0.5c0.3-0.1,0.5-0.2,0.8-0.2c0.3,0,0.6,0.1,0.8,0.2c0.2,0.1,0.4,0.3,0.5,0.5
		c0.1,0.2,0.3,0.4,0.4,0.6c0.1,0.2,0.2,0.5,0.4,0.9l3.1,7.6c0.2,0.4,0.3,0.8,0.4,1.3c0,0.3-0.1,0.6-0.3,0.8
		c-0.2,0.2-0.5,0.3-0.8,0.3c-0.2,0-0.3,0-0.5-0.1c-0.1-0.1-0.2-0.2-0.3-0.3c-0.1-0.2-0.2-0.3-0.3-0.5L352.2,304z M347.5,300.8h3.5
		l-1.8-4.9L347.5,300.8z"/>
</g>
</svg>
