<svg id="Laag_1" data-name="Laag 1" xmlns="http://www.w3.org/2000/svg" viewBox="0 0 448.86 66.67"><defs><style>.cls-1{fill:#504e5d;}.cls-2{fill:#080d21;}.cls-3{fill:#0b1226;}.cls-4{fill:#747386;}.cls-5{fill:#8e8c98;}.cls-6{fill:#ddd;opacity:0.1;isolation:isolate;}</style></defs><title>polaroid_ups</title><path class="cls-1" d="M452.68,0,450,36.78a32.23,32.23,0,0,1-32.18,29.89H38.4A32.23,32.23,0,0,1,6.24,36.57L3.82,0H452.68Z" transform="translate(-3.82)"/><polygon class="cls-2" points="448.82 0 448.81 0.2 432.44 1.53 413.51 3.08 227.07 18.27 198.67 20.58 33.35 34.05 15.11 35.54 2.42 36.57 0 0 448.82 0"/><rect class="cls-3" x="15.11" width="417.33" height="41.98"/><polygon class="cls-4" points="34.04 0 34.04 33.75 33.35 34.05 15.11 41.98 15.11 0 34.04 0"/><polygon class="cls-4" points="432.44 0 432.44 41.98 413.51 33.75 413.51 0 432.44 0"/><rect class="cls-5" x="34.04" width="379.47" height="20.58"/><path class="cls-6" d="M230.89,0V66.67H38.4A32.23,32.23,0,0,1,6.24,36.57L3.82,0Z" transform="translate(-3.82)"/></svg>