<svg xmlns="http://www.w3.org/2000/svg" viewBox="0 0 457.37 399.63"><defs><style>.cls-1{fill:#504e5d;}.cls-2{fill:#080d21;}.cls-3{fill:#f3f3f3;}.cls-28,.cls-4{fill:#ddd;}.cls-26,.cls-27,.cls-5{fill:#fafafa;}.cls-6{fill:#424454;}.cls-7{fill:#bcbcbc;}.cls-8{fill:#272e3a;}.cls-9{fill:#adb5c9;}.cls-10{fill:#52535c;}.cls-11{fill:#262a39;}.cls-12{fill:#1f242f;}.cls-13{fill:#fff;}.cls-14{fill:#3e4255;}.cls-15{fill:#0b1226;}.cls-16{fill:#747386;}.cls-17{fill:#8e8c98;}.cls-18{fill:#ef52bb;}.cls-19{fill:#fec651;}.cls-20{fill:#dd3e3a;}.cls-21{fill:#3e86dd;}.cls-22{fill:#fcf956;}.cls-23{fill:#b4d44d;}.cls-24{fill:#e8e9f2;}.cls-25{fill:#6e7283;}.cls-26{opacity:0.6;}.cls-27{opacity:0.2;}.cls-28{opacity:0.1;}</style></defs><title>Polaroid</title><g id="Layer_2" data-name="Layer 2"><g id="Layer_1-2" data-name="Layer 1"><path class="cls-1" d="M38.4,399.63H417.82A32.23,32.23,0,0,0,450,369.74l6.88-94.4H0l6.24,94.19A32.23,32.23,0,0,0,38.4,399.63Z"/><polygon class="cls-2" points="452.63 333.16 456.84 275.34 0 275.34 6.24 369.53 452.63 333.16"/><path class="cls-3" d="M0,275.34H456.84l.5-16.92a41.91,41.91,0,0,0-2-14.12l-15-46.33H16.46L2,245.37a41.91,41.91,0,0,0-1.83,11.9Z"/><path class="cls-4" d="M232.13,275.34H0l.15-18.07A41.91,41.91,0,0,1,2,245.37L16.46,198H233.29Z"/><path class="cls-4" d="M22.18,35.8,16.46,198H440.38L434.66,35.8a25.59,25.59,0,0,0-25.57-24.69H47.75A25.59,25.59,0,0,0,22.18,35.8Z"/><path class="cls-5" d="M232.62,198H16.46L22.18,35.8A25.59,25.59,0,0,1,47.75,11.11H231.51Z"/><circle class="cls-6" cx="232.13" cy="94.25" r="80.67"/><circle class="cls-7" cx="232.13" cy="94.25" r="74.08"/><circle class="cls-8" cx="232.13" cy="94.25" r="71.2"/><circle class="cls-6" cx="232.13" cy="94.25" r="43.63"/><circle class="cls-9" cx="232.13" cy="94.25" r="20.58"/><circle class="cls-10" cx="355.6" cy="154.34" r="25.52"/><circle class="cls-11" cx="355.6" cy="154.34" r="20.58"/><circle class="cls-4" cx="90.55" cy="154.34" r="27.58"/><rect class="cls-12" x="41.98" y="67.91" width="96.31" height="41.16" rx="20.58" ry="20.58"/><rect class="cls-4" x="327.61" y="21.81" width="95.78" height="93.01" rx="6.67" ry="6.67"/><path class="cls-6" d="M413.48,110.55s0,.82-38,.82-38-.82-38-.82a5.49,5.49,0,0,1-5.49-5.49s-.82-13.27-.82-36.73c0-26.75.82-36.73.82-36.73a5.49,5.49,0,0,1,5.49-5.49s.27-.82,38-.82,38,.82,38,.82A5.49,5.49,0,0,1,419,31.59s.82,10,.82,36.73-.82,36.73-.82,36.73A5.49,5.49,0,0,1,413.48,110.55Z"/><path class="cls-13" d="M61.71,81a5.39,5.39,0,0,1,3,.75,3.5,3.5,0,0,1,1.51,2.12,6.77,6.77,0,0,1-.07,3.23,9.3,9.3,0,0,1-1,2.5,7.4,7.4,0,0,1-1.58,1.95,6.72,6.72,0,0,1-2.14,1.26,7.56,7.56,0,0,1-2.61.44,5.88,5.88,0,0,1-2.41-.45A3.54,3.54,0,0,1,54.9,91.5a4.12,4.12,0,0,1-.65-2,7.68,7.68,0,0,1,.22-2.48,9.2,9.2,0,0,1,1-2.5,7.53,7.53,0,0,1,1.61-1.94,6.77,6.77,0,0,1,2.1-1.22A7.34,7.34,0,0,1,61.71,81Zm2,6.09a5.26,5.26,0,0,0,.1-2.25,2.28,2.28,0,0,0-.87-1.44,2.76,2.76,0,0,0-1.68-.49,3.73,3.73,0,0,0-1.4.27,4.08,4.08,0,0,0-1.24.79,5.2,5.2,0,0,0-1,1.32,7.07,7.07,0,0,0-.69,1.8,6,6,0,0,0-.18,1.82,2.9,2.9,0,0,0,.4,1.35A2.16,2.16,0,0,0,58,91a2.86,2.86,0,0,0,1.27.27,3.91,3.91,0,0,0,1.82-.46,4.48,4.48,0,0,0,1.57-1.42A6.62,6.62,0,0,0,63.7,87.06Z"/><path class="cls-13" d="M70.42,85.46l-.06.27A5.36,5.36,0,0,1,71.9,84.6a3.92,3.92,0,0,1,1.67-.36,2.73,2.73,0,0,1,1.48.38,1.77,1.77,0,0,1,.79,1.07,2.23,2.23,0,0,1,.09.87,9.23,9.23,0,0,1-.2,1.19l-.91,4.1a1.82,1.82,0,0,1-.53,1,1.27,1.27,0,0,1-.87.34.82.82,0,0,1-.73-.35,1.26,1.26,0,0,1-.09-1l.82-3.67a3.45,3.45,0,0,0,.07-1.67q-.17-.58-1.08-.58a2.17,2.17,0,0,0-1.16.35,2.81,2.81,0,0,0-.93,1,7.86,7.86,0,0,0-.58,1.84l-.63,2.76a1.81,1.81,0,0,1-.54,1,1.33,1.33,0,0,1-.89.33.8.8,0,0,1-.71-.35,1.26,1.26,0,0,1-.08-1l1.46-6.37a1.75,1.75,0,0,1,.49-.94,1.19,1.19,0,0,1,.82-.31.87.87,0,0,1,.49.14.72.72,0,0,1,.28.41A1.36,1.36,0,0,1,70.42,85.46Z"/><path class="cls-13" d="M83.81,89.27H79.47a2.68,2.68,0,0,0,0,1.32,1.54,1.54,0,0,0,.6.86,1.79,1.79,0,0,0,1,.29,2.91,2.91,0,0,0,.75-.09,3,3,0,0,0,.7-.29,6.49,6.49,0,0,0,.66-.42l.81-.61a.87.87,0,0,1,.52-.15.67.67,0,0,1,.52.19.56.56,0,0,1,.1.52,1.78,1.78,0,0,1-.38.7,3.81,3.81,0,0,1-.88.77,5.24,5.24,0,0,1-1.33.61,5.73,5.73,0,0,1-1.71.24A3.63,3.63,0,0,1,77.79,92a3.85,3.85,0,0,1-.47-3.29A6.45,6.45,0,0,1,78,86.9a5.45,5.45,0,0,1,1.17-1.43,4.93,4.93,0,0,1,1.58-.92,5.53,5.53,0,0,1,1.88-.32,3.71,3.71,0,0,1,2.11.55,2.65,2.65,0,0,1,1.09,1.41,3.37,3.37,0,0,1,.09,1.76A1.41,1.41,0,0,1,85.22,89,3.38,3.38,0,0,1,83.81,89.27ZM79.74,88h4a2.3,2.3,0,0,0-.25-1.69,1.48,1.48,0,0,0-1.28-.56,2.2,2.2,0,0,0-1.48.57A3.64,3.64,0,0,0,79.74,88Z"/><path class="cls-13" d="M96.7,89.45a4.2,4.2,0,0,1-.95,1.93,4.92,4.92,0,0,1-1.91,1.34,6.92,6.92,0,0,1-2.66.48,5.06,5.06,0,0,1-2.79-.66,2.86,2.86,0,0,1-1.06-1.27,2.53,2.53,0,0,1-.18-1.55,1.31,1.31,0,0,1,.46-.75,1.27,1.27,0,0,1,.84-.31.75.75,0,0,1,.6.24,1.48,1.48,0,0,1,.3.72,3.84,3.84,0,0,0,.3.94,1.47,1.47,0,0,0,.62.63,2.46,2.46,0,0,0,1.21.25,3.36,3.36,0,0,0,1.85-.5,1.92,1.92,0,0,0,.92-1.24,1.12,1.12,0,0,0-.17-1,1.78,1.78,0,0,0-.82-.56,13.8,13.8,0,0,0-1.45-.41,9.3,9.3,0,0,1-2-.7A2.56,2.56,0,0,1,88.68,86a2.52,2.52,0,0,1-.15-1.72,3.65,3.65,0,0,1,.9-1.74,4.48,4.48,0,0,1,1.79-1.17A7,7,0,0,1,93.67,81a5.38,5.38,0,0,1,1.83.27,3.07,3.07,0,0,1,1.17.72,2.27,2.27,0,0,1,.58.94,2,2,0,0,1,0,1,1.43,1.43,0,0,1-.46.77A1.2,1.2,0,0,1,96,85a.73.73,0,0,1-.59-.21,2.12,2.12,0,0,1-.33-.67,2.33,2.33,0,0,0-.56-1,2,2,0,0,0-1.38-.38,2.94,2.94,0,0,0-1.59.41,1.55,1.55,0,0,0-.77,1,.87.87,0,0,0,.07.61,1.21,1.21,0,0,0,.44.44,2.87,2.87,0,0,0,.63.29l1.09.31a15.43,15.43,0,0,1,1.72.52,4.35,4.35,0,0,1,1.25.69,2.13,2.13,0,0,1,.69,1A3,3,0,0,1,96.7,89.45Z"/><path class="cls-13" d="M99.72,84.44H100l.26-1.32q.11-.53.19-.84a1.52,1.52,0,0,1,.26-.52,1.34,1.34,0,0,1,.44-.37,1.22,1.22,0,0,1,.57-.14.89.89,0,0,1,.7.32.75.75,0,0,1,.19.51,4.72,4.72,0,0,1-.11.86l-.29,1.5H103a.88.88,0,0,1,.67.22.62.62,0,0,1,.14.57.81.81,0,0,1-.47.62,2.55,2.55,0,0,1-1,.18h-.41l-.8,4.05a6.56,6.56,0,0,0-.12.8.68.68,0,0,0,.11.45.56.56,0,0,0,.48.17,3,3,0,0,0,.54-.07,3,3,0,0,1,.54-.07.55.55,0,0,1,.44.21.61.61,0,0,1,.11.53,1.14,1.14,0,0,1-.75.82,4.42,4.42,0,0,1-1.75.28,2.59,2.59,0,0,1-1.52-.35,1.25,1.25,0,0,1-.52-1,6.39,6.39,0,0,1,.16-1.64L99.65,86h-.29a.89.89,0,0,1-.69-.23.62.62,0,0,1-.14-.57.9.9,0,0,1,.38-.57A1.35,1.35,0,0,1,99.72,84.44Z"/><path class="cls-13" d="M110.74,89.27h-4.35a2.69,2.69,0,0,0,.05,1.32,1.59,1.59,0,0,0,.63.86,1.83,1.83,0,0,0,1,.29,2.89,2.89,0,0,0,.75-.09,3,3,0,0,0,.7-.29,6.33,6.33,0,0,0,.65-.42l.79-.61a.85.85,0,0,1,.52-.15.69.69,0,0,1,.52.19.57.57,0,0,1,.12.52,1.73,1.73,0,0,1-.37.7,3.66,3.66,0,0,1-.86.77,5.08,5.08,0,0,1-1.31.61,5.67,5.67,0,0,1-1.71.24A3.73,3.73,0,0,1,104.79,92a3.9,3.9,0,0,1-.56-3.29,6.27,6.27,0,0,1,.64-1.81A5.23,5.23,0,0,1,106,85.46a4.77,4.77,0,0,1,1.55-.92,5.45,5.45,0,0,1,1.88-.32,3.78,3.78,0,0,1,2.12.55,2.75,2.75,0,0,1,1.13,1.41,3.38,3.38,0,0,1,.14,1.76,1.36,1.36,0,0,1-.68,1.08A3.34,3.34,0,0,1,110.74,89.27ZM106.63,88h4a2.33,2.33,0,0,0-.3-1.69,1.52,1.52,0,0,0-1.29-.56,2.15,2.15,0,0,0-1.47.57A3.52,3.52,0,0,0,106.63,88Z"/><path class="cls-13" d="M117,85.48l0,.27a5.69,5.69,0,0,1,1.5-1.13,3.58,3.58,0,0,1,1.59-.36,3.08,3.08,0,0,1,1.79.52,2.82,2.82,0,0,1,1.09,1.53,5,5,0,0,1,.08,2.39,6.51,6.51,0,0,1-.62,1.87,5.3,5.3,0,0,1-1,1.43,4.44,4.44,0,0,1-1.35.89,4,4,0,0,1-1.54.31,2.77,2.77,0,0,1-1.54-.38,3.5,3.5,0,0,1-1-1.11l-.6,3.31q-.26,1.45-1.34,1.45-.63,0-.77-.38a2.2,2.2,0,0,1,0-1.09l1.75-9.51a1.66,1.66,0,0,1,.45-.94,1.15,1.15,0,0,1,.81-.31.83.83,0,0,1,.71.32A1.16,1.16,0,0,1,117,85.48Zm3.77,3.21a3.61,3.61,0,0,0,0-1.5,1.73,1.73,0,0,0-.57-1,1.53,1.53,0,0,0-1-.34,2.38,2.38,0,0,0-1.68.72,3.74,3.74,0,0,0-1,2.12,2.72,2.72,0,0,0,.26,2,1.62,1.62,0,0,0,1.43.73,2.08,2.08,0,0,0,1.09-.32,2.85,2.85,0,0,0,.93-1A4.3,4.3,0,0,0,120.73,88.69Z"/><rect class="cls-14" x="18.93" y="276.16" width="417.33" height="41.98"/><rect class="cls-15" x="18.93" y="332.96" width="417.33" height="41.98"/><polygon class="cls-16" points="18.93 374.94 37.86 366.71 37.86 332.96 18.93 332.96 18.93 374.94"/><polygon class="cls-16" points="436.26 374.94 417.33 366.71 417.33 332.96 436.26 332.96 436.26 374.94"/><rect class="cls-17" x="37.86" y="332.96" width="379.47" height="20.58"/><rect class="cls-13" x="5.35" y="248.18" width="444.5" height="7.41" rx="3.7" ry="3.7"/><path class="cls-18" d="M220,198.31l-.52-21.22a46,46,0,0,1-7.06-1.56l.82,22.78-2,53.69.33,23.13h7.31L218.65,252Z"/><path class="cls-19" d="M226.44,177.87l.25,20.44L226.06,252l.1,23.13h6.79v-97C230.59,178.09,228.42,178,226.44,177.87Z"/><path class="cls-20" d="M226.69,198.31l-.25-20.44c-2.71-.18-5.05-.47-7-.77l.52,21.22L218.65,252l.21,23.13h7.3l-.1-23.13Z"/><path class="cls-21" d="M254.79,252l-2.08-53.69.82-22.78a45.82,45.82,0,0,1-7,1.56L246,198.31,247.35,252l-.28,23.13h7.27Z"/><path class="cls-22" d="M239.28,198.31l.25-20.45c-2,.14-4.2.22-6.59.22v97h6.86l.13-23.13Z"/><path class="cls-23" d="M246,198.31l.52-21.22c-1.95.31-4.27.59-7,.77l-.25,20.45.66,53.69-.13,23.13h7.26l.28-23.13Z"/><rect class="cls-8" x="341.9" y="35.69" width="67.2" height="65.27" rx="32.63" ry="32.63"/><path class="cls-9" d="M389.84,84.26s0,.31-14.34.31-14.34-.31-14.34-.31a2.07,2.07,0,0,1-2.07-2.07s-.31-6-.31-13.87.31-13.87.31-13.87a2.07,2.07,0,0,1,2.07-2.07s.1-.31,14.34-.31,14.34.31,14.34.31a2.07,2.07,0,0,1,2.07,2.07s.31,3.77.31,13.87-.31,13.87-.31,13.87A2.07,2.07,0,0,1,389.84,84.26Z"/><path class="cls-24" d="M373.43,72.49a94.85,94.85,0,0,1-8.22,0,.59.59,0,0,1-.59-.59s-.09-6.87-.09-4,.09-4,.09-4a.59.59,0,0,1,.59-.59,94.85,94.85,0,0,1,8.22,0,.59.59,0,0,1,.59.59s.09,1.08.09,4-.09,4-.09,4A.59.59,0,0,1,373.43,72.49Z"/><circle class="cls-25" cx="350.25" cy="158.04" r="8.23"/><path class="cls-1" d="M293.86,0H163a10.86,10.86,0,0,0-8.61,4.24l-5,6.46h158l-5-6.46A10.86,10.86,0,0,0,293.86,0Z"/><circle class="cls-26" cx="266.29" cy="59.27" r="14.82"/><circle class="cls-26" cx="204.96" cy="123.88" r="6.17"/><path class="cls-14" d="M230.89,0H163a10.86,10.86,0,0,0-8.61,4.24l-5,6.46h81.49"/><circle class="cls-20" cx="90.55" cy="154.34" r="25.52"/><path class="cls-27" d="M232.13,174.92a80.67,80.67,0,0,1,0-161.34"/><path class="cls-28" d="M230.89,275.34H0l6.24,94.19a32.23,32.23,0,0,0,32.16,30.1H230.89"/><path class="cls-13" d="M115.13,300.79h-2.19v3.34a1.56,1.56,0,0,1-.34,1.09,1.19,1.19,0,0,1-1.72,0,1.56,1.56,0,0,1-.33-1.07v-9.08a1.49,1.49,0,0,1,.36-1.13,1.65,1.65,0,0,1,1.15-.34h3.06a8,8,0,0,1,2.09.21,3.11,3.11,0,0,1,1.25.67,3,3,0,0,1,.8,1.14,4,4,0,0,1,.27,1.52,3.36,3.36,0,0,1-1.11,2.73A5,5,0,0,1,115.13,300.79Zm-.58-5.4h-1.61V299h1.61a4.81,4.81,0,0,0,1.41-.18,1.64,1.64,0,0,0,.86-.58,1.73,1.73,0,0,0,.3-1.05,1.79,1.79,0,0,0-.46-1.27A3.05,3.05,0,0,0,114.55,295.39Z"/><path class="cls-13" d="M128.37,293.4a6.29,6.29,0,0,1,3.15.74,4.82,4.82,0,0,1,2,2.11,7.2,7.2,0,0,1,.68,3.22,7.87,7.87,0,0,1-.37,2.48,5.38,5.38,0,0,1-1.11,1.94,4.85,4.85,0,0,1-1.82,1.25,7.16,7.16,0,0,1-4.94,0,4.91,4.91,0,0,1-1.82-1.26,5.37,5.37,0,0,1-1.11-2,7.89,7.89,0,0,1-.37-2.47A7.63,7.63,0,0,1,123,297a5.35,5.35,0,0,1,1.13-1.93,4.88,4.88,0,0,1,1.8-1.22A6.48,6.48,0,0,1,128.37,293.4Zm3.39,6.06a5.52,5.52,0,0,0-.42-2.24,3.13,3.13,0,0,0-1.19-1.43,3.28,3.28,0,0,0-1.78-.49,3.22,3.22,0,0,0-1.32.27,2.91,2.91,0,0,0-1,.78,3.75,3.75,0,0,0-.69,1.31,5.94,5.94,0,0,0-.25,1.8,6.09,6.09,0,0,0,.25,1.82,3.73,3.73,0,0,0,.72,1.35,3,3,0,0,0,1.06.8,3.35,3.35,0,0,0,3-.19,3.17,3.17,0,0,0,1.22-1.41A5.47,5.47,0,0,0,131.76,299.46Z"/><path class="cls-13" d="M140.21,294.85v8.58H145a1.28,1.28,0,0,1,.89.28.91.91,0,0,1,.31.71.89.89,0,0,1-.31.7,1.31,1.31,0,0,1-.89.27h-5.76a1.25,1.25,0,0,1-1.46-1.46v-9.08a1.58,1.58,0,0,1,.33-1.09,1.1,1.1,0,0,1,.86-.36,1.14,1.14,0,0,1,.87.36A1.55,1.55,0,0,1,140.21,294.85Z"/><path class="cls-13" d="M156.78,304.05l-.56-1.48h-4.79l-.56,1.51a5.28,5.28,0,0,1-.56,1.19.89.89,0,0,1-.76.31,1.12,1.12,0,0,1-.8-.33,1,1,0,0,1-.35-.75,1.66,1.66,0,0,1,.08-.5q.08-.26.27-.72l3-7.65.31-.79a4,4,0,0,1,.39-.77,1.56,1.56,0,0,1,.54-.49,1.65,1.65,0,0,1,.82-.19,1.67,1.67,0,0,1,.83.19,1.6,1.6,0,0,1,.54.49,3.42,3.42,0,0,1,.35.64q.14.34.36.91l3.08,7.6a3.82,3.82,0,0,1,.36,1.26,1,1,0,0,1-.34.75,1.12,1.12,0,0,1-.82.34,1.07,1.07,0,0,1-.48-.1,1,1,0,0,1-.34-.27,2.53,2.53,0,0,1-.29-.53Zm-4.73-3.27h3.52l-1.78-4.86Z"/><path class="cls-13" d="M165.94,300.34h-.84v3.79a1.57,1.57,0,0,1-.33,1.1,1.12,1.12,0,0,1-.86.35,1.1,1.1,0,0,1-.88-.37,1.64,1.64,0,0,1-.31-1.09v-9.07a1.25,1.25,0,0,1,1.46-1.46h3.88a11.82,11.82,0,0,1,1.37.07,3.45,3.45,0,0,1,1,.28,3,3,0,0,1,1,.67,2.92,2.92,0,0,1,.65,1,3.37,3.37,0,0,1,.22,1.22,2.94,2.94,0,0,1-.74,2.11,4.27,4.27,0,0,1-2.25,1.12,4.36,4.36,0,0,1,1.21,1,10.13,10.13,0,0,1,1,1.4,10.36,10.36,0,0,1,.71,1.34,2.65,2.65,0,0,1,.25.82.84.84,0,0,1-.15.46,1,1,0,0,1-.41.36,1.28,1.28,0,0,1-.59.13,1.16,1.16,0,0,1-.68-.19,1.81,1.81,0,0,1-.47-.48q-.2-.29-.53-.85l-1-1.59a8.76,8.76,0,0,0-.92-1.33,2.27,2.27,0,0,0-.82-.63A2.83,2.83,0,0,0,165.94,300.34Zm1.37-5h-2.2v3.24h2.14a6,6,0,0,0,1.45-.15,1.7,1.7,0,0,0,.9-.51,1.45,1.45,0,0,0,.31-1,1.49,1.49,0,0,0-.94-1.42A5,5,0,0,0,167.3,295.39Z"/><path class="cls-13" d="M181.4,293.4a6.29,6.29,0,0,1,3.15.74,4.82,4.82,0,0,1,2,2.11,7.2,7.2,0,0,1,.68,3.22,7.87,7.87,0,0,1-.37,2.48,5.38,5.38,0,0,1-1.11,1.94,4.85,4.85,0,0,1-1.82,1.25,7.16,7.16,0,0,1-4.94,0,4.91,4.91,0,0,1-1.82-1.26,5.37,5.37,0,0,1-1.11-2,7.88,7.88,0,0,1-.37-2.47,7.63,7.63,0,0,1,.39-2.49,5.35,5.35,0,0,1,1.13-1.93,4.88,4.88,0,0,1,1.8-1.22A6.48,6.48,0,0,1,181.4,293.4Zm3.39,6.06a5.52,5.52,0,0,0-.42-2.24,3.13,3.13,0,0,0-1.19-1.43,3.28,3.28,0,0,0-1.78-.49,3.22,3.22,0,0,0-1.32.27,2.91,2.91,0,0,0-1,.78,3.75,3.75,0,0,0-.69,1.31,5.94,5.94,0,0,0-.25,1.8,6.09,6.09,0,0,0,.25,1.82,3.73,3.73,0,0,0,.72,1.35,3,3,0,0,0,1.06.8,3.35,3.35,0,0,0,3-.19,3.17,3.17,0,0,0,1.22-1.41A5.47,5.47,0,0,0,184.79,299.46Z"/><path class="cls-13" d="M191,304.13v-9.28a1.57,1.57,0,0,1,.33-1.09,1.1,1.1,0,0,1,.85-.36,1.14,1.14,0,0,1,.87.36,1.55,1.55,0,0,1,.33,1.09v9.28a1.56,1.56,0,0,1-.33,1.09,1.13,1.13,0,0,1-.87.36,1.1,1.1,0,0,1-.85-.37A1.57,1.57,0,0,1,191,304.13Z"/><path class="cls-13" d="M199.18,293.6h3.11a8.39,8.39,0,0,1,2.08.23,3.83,3.83,0,0,1,1.58.84,6,6,0,0,1,1.84,4.79,9.42,9.42,0,0,1-.18,1.94A5.71,5.71,0,0,1,207,303a4.91,4.91,0,0,1-1,1.26,4.08,4.08,0,0,1-1,.68,4.69,4.69,0,0,1-1.21.36,9.23,9.23,0,0,1-1.46.1h-3.11a2,2,0,0,1-1-.2.92.92,0,0,1-.43-.55,3.53,3.53,0,0,1-.1-.93v-8.64a1.25,1.25,0,0,1,1.46-1.46Zm.92,1.89v8h1.81q.59,0,.93,0a2.91,2.91,0,0,0,.7-.16,1.9,1.9,0,0,0,.63-.36,4.36,4.36,0,0,0,1.2-3.49,5.14,5.14,0,0,0-.53-2.61,2.34,2.34,0,0,0-1.3-1.11,6.41,6.41,0,0,0-1.86-.24Z"/><path class="cls-13" d="M219.64,294.85v8.58h4.84a1.28,1.28,0,0,1,.89.28.91.91,0,0,1,.31.71.89.89,0,0,1-.31.7,1.31,1.31,0,0,1-.89.27h-5.76a1.25,1.25,0,0,1-1.46-1.46v-9.08a1.58,1.58,0,0,1,.33-1.09,1.1,1.1,0,0,1,.86-.36,1.14,1.14,0,0,1,.87.36A1.55,1.55,0,0,1,219.64,294.85Z"/><path class="cls-13" d="M236.21,304.05l-.56-1.48h-4.79l-.56,1.51a5.28,5.28,0,0,1-.56,1.19.89.89,0,0,1-.76.31,1.12,1.12,0,0,1-.8-.33,1,1,0,0,1-.35-.75,1.66,1.66,0,0,1,.08-.5q.08-.26.27-.72l3-7.65.31-.79a4,4,0,0,1,.39-.77,1.56,1.56,0,0,1,.54-.49,1.65,1.65,0,0,1,.82-.19,1.67,1.67,0,0,1,.83.19,1.6,1.6,0,0,1,.54.49,3.42,3.42,0,0,1,.35.64q.14.34.36.91l3.08,7.6a3.82,3.82,0,0,1,.36,1.26,1,1,0,0,1-.34.75,1.12,1.12,0,0,1-.82.34,1.07,1.07,0,0,1-.48-.1,1,1,0,0,1-.34-.27,2.53,2.53,0,0,1-.29-.53Zm-4.73-3.27H235l-1.78-4.86Z"/><path class="cls-13" d="M245.27,294.83l4.59,6.95v-7a1.54,1.54,0,0,1,.29-1,1,1,0,0,1,.79-.34,1,1,0,0,1,.81.34,1.52,1.52,0,0,1,.3,1V304q0,1.55-1.29,1.55a1.7,1.7,0,0,1-.58-.09,1.47,1.47,0,0,1-.48-.29,2.84,2.84,0,0,1-.42-.47l-.39-.55-4.48-6.86v6.91a1.47,1.47,0,0,1-.31,1,1,1,0,0,1-.8.35,1,1,0,0,1-.81-.35,1.5,1.5,0,0,1-.31-1v-9.09a2.57,2.57,0,0,1,.13-.91,1.3,1.3,0,0,1,.51-.59,1.38,1.38,0,0,1,.76-.23,1.25,1.25,0,0,1,1,.39,2.91,2.91,0,0,1,.35.46Z"/><path class="cls-13" d="M257.79,293.6h3.11a8.39,8.39,0,0,1,2.08.23,3.83,3.83,0,0,1,1.58.84,6,6,0,0,1,1.84,4.79,9.42,9.42,0,0,1-.18,1.94,5.71,5.71,0,0,1-.57,1.58,4.91,4.91,0,0,1-1,1.26,4.08,4.08,0,0,1-1,.68,4.69,4.69,0,0,1-1.21.36,9.23,9.23,0,0,1-1.46.1h-3.11a2,2,0,0,1-1-.2.92.92,0,0,1-.43-.55,3.53,3.53,0,0,1-.1-.93v-8.64a1.25,1.25,0,0,1,1.46-1.46Zm.92,1.89v8h1.81q.59,0,.93,0a2.91,2.91,0,0,0,.7-.16,1.9,1.9,0,0,0,.63-.36,4.36,4.36,0,0,0,1.2-3.49,5.14,5.14,0,0,0-.53-2.61,2.34,2.34,0,0,0-1.3-1.11,6.41,6.41,0,0,0-1.86-.24Z"/><path class="cls-13" d="M285.94,301.66a3.14,3.14,0,0,1-.28,1.22,4.47,4.47,0,0,1-2.39,2.31,5.46,5.46,0,0,1-2.15.39,7.54,7.54,0,0,1-1.7-.18,4.77,4.77,0,0,1-1.39-.55,4.67,4.67,0,0,1-1.15-1,5.83,5.83,0,0,1-.8-1.24,6.5,6.5,0,0,1-.49-1.47,8,8,0,0,1-.16-1.66,7.35,7.35,0,0,1,.41-2.55A5.43,5.43,0,0,1,277,295a5.17,5.17,0,0,1,1.81-1.22,5.86,5.86,0,0,1,2.21-.42,5.52,5.52,0,0,1,2.55.57,4.61,4.61,0,0,1,1.71,1.41,2.79,2.79,0,0,1,.59,1.59,1,1,0,0,1-.29.72.92.92,0,0,1-.7.31,1,1,0,0,1-.69-.22,3,3,0,0,1-.51-.75,3.6,3.6,0,0,0-1.1-1.31,2.68,2.68,0,0,0-1.56-.43,2.82,2.82,0,0,0-2.34,1.12,5.06,5.06,0,0,0-.87,3.18,5.9,5.9,0,0,0,.39,2.29,2.89,2.89,0,0,0,1.09,1.36,3,3,0,0,0,1.66.45,2.91,2.91,0,0,0,1.74-.51,3.08,3.08,0,0,0,1.07-1.5,2.55,2.55,0,0,1,.38-.76.85.85,0,0,1,.72-.29,1,1,0,0,1,.73.3A1,1,0,0,1,285.94,301.66Z"/><path class="cls-13" d="M297.28,304.05l-.56-1.48h-4.79l-.56,1.51a5.28,5.28,0,0,1-.56,1.19.89.89,0,0,1-.76.31,1.12,1.12,0,0,1-.8-.33,1,1,0,0,1-.35-.75,1.66,1.66,0,0,1,.08-.5q.08-.26.27-.72l3-7.65.31-.79a4,4,0,0,1,.39-.77,1.56,1.56,0,0,1,.54-.49,1.65,1.65,0,0,1,.82-.19,1.67,1.67,0,0,1,.83.19,1.6,1.6,0,0,1,.54.49,3.42,3.42,0,0,1,.35.64q.14.34.36.91l3.08,7.6a3.82,3.82,0,0,1,.36,1.26,1,1,0,0,1-.34.75,1.12,1.12,0,0,1-.82.34,1.07,1.07,0,0,1-.48-.1,1,1,0,0,1-.34-.27,2.53,2.53,0,0,1-.29-.53Zm-4.73-3.27h3.52l-1.78-4.86Z"/><path class="cls-13" d="M307.2,303.61l-1.89-7.51v8.13a1.48,1.48,0,0,1-.3,1,1.11,1.11,0,0,1-1.59,0,1.47,1.47,0,0,1-.31-1v-9.32a1.17,1.17,0,0,1,.4-1,1.92,1.92,0,0,1,1.09-.27h.74a2.82,2.82,0,0,1,1,.12.81.81,0,0,1,.45.43,6.71,6.71,0,0,1,.33,1l1.71,6.45,1.71-6.45a6.71,6.71,0,0,1,.33-1,.81.81,0,0,1,.45-.43,2.82,2.82,0,0,1,1-.12H313a1.92,1.92,0,0,1,1.09.27,1.17,1.17,0,0,1,.4,1v9.32a1.48,1.48,0,0,1-.3,1,1,1,0,0,1-.81.34,1,1,0,0,1-.78-.34,1.47,1.47,0,0,1-.31-1V296.1l-1.89,7.51q-.18.73-.3,1.07a1.48,1.48,0,0,1-.43.62,1.25,1.25,0,0,1-.87.28,1.27,1.27,0,0,1-1.16-.64,2.66,2.66,0,0,1-.25-.62Z"/><path class="cls-13" d="M326.35,295.44H321v2.89h5a1.18,1.18,0,0,1,.82.25.83.83,0,0,1,.27.65.86.86,0,0,1-.27.66,1.15,1.15,0,0,1-.82.25h-5v3.35h5.56a1.22,1.22,0,0,1,.85.26.9.9,0,0,1,.29.7.88.88,0,0,1-.29.68,1.22,1.22,0,0,1-.85.26H320a1.25,1.25,0,0,1-1.46-1.46v-8.86a2,2,0,0,1,.15-.84,1,1,0,0,1,.48-.47,2,2,0,0,1,.83-.15h6.3a1.23,1.23,0,0,1,.85.25.86.86,0,0,1,.28.66.87.87,0,0,1-.28.67A1.23,1.23,0,0,1,326.35,295.44Z"/><path class="cls-13" d="M334.42,300.34h-.84v3.79a1.57,1.57,0,0,1-.33,1.1,1.12,1.12,0,0,1-.86.35,1.1,1.1,0,0,1-.88-.37,1.64,1.64,0,0,1-.31-1.09v-9.07a1.25,1.25,0,0,1,1.46-1.46h3.88a11.82,11.82,0,0,1,1.37.07,3.45,3.45,0,0,1,1,.28,3,3,0,0,1,1,.67,2.92,2.92,0,0,1,.65,1,3.37,3.37,0,0,1,.22,1.22,2.94,2.94,0,0,1-.74,2.11,4.27,4.27,0,0,1-2.25,1.12,4.36,4.36,0,0,1,1.21,1,10.13,10.13,0,0,1,1,1.4,10.36,10.36,0,0,1,.71,1.34,2.65,2.65,0,0,1,.25.82.84.84,0,0,1-.15.46,1,1,0,0,1-.41.36,1.28,1.28,0,0,1-.59.13,1.16,1.16,0,0,1-.68-.19,1.81,1.81,0,0,1-.47-.48q-.2-.29-.53-.85l-1-1.59a8.76,8.76,0,0,0-.92-1.33,2.27,2.27,0,0,0-.82-.63A2.83,2.83,0,0,0,334.42,300.34Zm1.37-5h-2.2v3.24h2.14a6,6,0,0,0,1.45-.15,1.7,1.7,0,0,0,.9-.51,1.45,1.45,0,0,0,.31-1,1.49,1.49,0,0,0-.94-1.42A5,5,0,0,0,335.78,295.39Z"/><path class="cls-13" d="M352.24,304.05l-.56-1.48h-4.79l-.56,1.51a5.28,5.28,0,0,1-.56,1.19.89.89,0,0,1-.76.31,1.12,1.12,0,0,1-.8-.33,1,1,0,0,1-.35-.75,1.66,1.66,0,0,1,.08-.5q.08-.26.27-.72l3-7.65.31-.79a4,4,0,0,1,.39-.77,1.56,1.56,0,0,1,.54-.49,1.65,1.65,0,0,1,.82-.19,1.67,1.67,0,0,1,.83.19,1.6,1.6,0,0,1,.54.49,3.42,3.42,0,0,1,.35.64q.14.34.36.91l3.08,7.6a3.82,3.82,0,0,1,.36,1.26,1,1,0,0,1-.34.75,1.12,1.12,0,0,1-.82.34,1.07,1.07,0,0,1-.48-.1,1,1,0,0,1-.34-.27,2.53,2.53,0,0,1-.29-.53Zm-4.73-3.27H351l-1.78-4.86Z"/></g></g></svg>