<svg xmlns="http://www.w3.org/2000/svg" viewBox="0 0 203.44 177.76"><defs><style>.cls-1{fill:#504e5d;}.cls-2{fill:#080d21;}.cls-3{fill:#eaeaea;}.cls-27,.cls-4{fill:#dcdcdc;}.cls-5{fill:#424454;}.cls-6{fill:#bbb;}.cls-7{fill:#272e3a;}.cls-8{fill:#acb4c8;}.cls-9{fill:#52535c;}.cls-10{fill:#262a39;}.cls-11{fill:#1f242f;}.cls-12{fill:#fff;}.cls-13{fill:#3e4255;}.cls-14{fill:#0b1226;}.cls-15{fill:#747385;}.cls-16{fill:#8d8b97;}.cls-17{fill:#ee52ba;}.cls-18{fill:#fdc551;}.cls-19{fill:#dc3e3a;}.cls-20{fill:#3e85dc;}.cls-21{fill:#fbf856;}.cls-22{fill:#b3d34d;}.cls-23{fill:#e7e8f1;}.cls-24{fill:#6e7282;}.cls-25,.cls-26{fill:#f9f9f9;}.cls-25{opacity:0.6;}.cls-26{opacity:0.2;}.cls-27{opacity:0.1;}</style></defs><title>polaroid</title><g id="Layer_2" data-name="Layer 2"><g id="Layer_1-2" data-name="Layer 1"><path class="cls-1" d="M17.08,177.76H185.85a14.34,14.34,0,0,0,14.3-13.3l3.06-42H0l2.77,41.9A14.34,14.34,0,0,0,17.08,177.76Z"/><polygon class="cls-2" points="201.33 148.19 203.21 122.47 0 122.47 2.77 164.37 201.33 148.19"/><path class="cls-3" d="M0,122.47H203.21l.22-7.53a18.64,18.64,0,0,0-.89-6.28l-6.65-20.61H7.32L.88,109.14a18.64,18.64,0,0,0-.81,5.29Z"/><path class="cls-4" d="M103.25,122.47H0l.07-8a18.64,18.64,0,0,1,.81-5.29L7.32,88.06h96.45Z"/><path class="cls-4" d="M9.86,15.92,7.32,88.06H195.88l-2.54-72.13A11.38,11.38,0,0,0,182,4.94H21.24A11.38,11.38,0,0,0,9.86,15.92Z"/><path class="cls-3" d="M103.47,88.06H7.32L9.86,15.92a11.38,11.38,0,0,1,11.38-11H103Z"/><circle class="cls-5" cx="103.25" cy="41.92" r="35.88"/><circle class="cls-6" cx="103.25" cy="41.92" r="32.95"/><circle class="cls-7" cx="103.25" cy="41.92" r="31.67"/><circle class="cls-5" cx="103.25" cy="41.92" r="19.41"/><circle class="cls-8" cx="103.25" cy="41.92" r="9.15"/><circle class="cls-9" cx="158.17" cy="68.65" r="11.35"/><circle class="cls-10" cx="158.17" cy="68.65" r="9.15"/><circle class="cls-4" cx="40.28" cy="68.65" r="12.27"/><rect class="cls-11" x="18.67" y="30.21" width="42.84" height="18.31" rx="3.69" ry="3.69"/><rect class="cls-4" x="145.72" y="9.7" width="42.6" height="41.37" rx="6.67" ry="6.67"/><path class="cls-5" d="M183.92,49.17s0,.37-16.9.37-16.9-.37-16.9-.37a2.44,2.44,0,0,1-2.44-2.44s-.37-5.9-.37-16.34c0-11.9.37-16.34.37-16.34a2.44,2.44,0,0,1,2.44-2.44s.12-.37,16.9-.37,16.9.37,16.9.37a2.44,2.44,0,0,1,2.44,2.44s.37,4.44.37,16.34-.37,16.34-.37,16.34A2.44,2.44,0,0,1,183.92,49.17Z"/><path class="cls-12" d="M27.45,36a2.4,2.4,0,0,1,1.33.33,1.56,1.56,0,0,1,.67.94,3,3,0,0,1,0,1.44A4.14,4.14,0,0,1,29,39.84a3.29,3.29,0,0,1-.7.87,3,3,0,0,1-1,.56,3.36,3.36,0,0,1-1.16.19,2.61,2.61,0,0,1-1.07-.2,1.58,1.58,0,0,1-.69-.56,1.83,1.83,0,0,1-.29-.87,3.42,3.42,0,0,1,.1-1.1,4.09,4.09,0,0,1,.44-1.11,3.35,3.35,0,0,1,.71-.86,3,3,0,0,1,.94-.54A3.26,3.26,0,0,1,27.45,36Zm.88,2.71a2.34,2.34,0,0,0,0-1,1,1,0,0,0-.38-.64,1.23,1.23,0,0,0-.75-.22,1.66,1.66,0,0,0-.62.12,1.81,1.81,0,0,0-.55.35,2.31,2.31,0,0,0-.45.59,3.15,3.15,0,0,0-.31.8,2.65,2.65,0,0,0-.08.81,1.29,1.29,0,0,0,.18.6,1,1,0,0,0,.39.36,1.27,1.27,0,0,0,.57.12,1.74,1.74,0,0,0,.81-.2,2,2,0,0,0,.7-.63A3,3,0,0,0,28.33,38.72Z"/><path class="cls-12" d="M31.33,38l0,.12a2.39,2.39,0,0,1,.68-.5,1.74,1.74,0,0,1,.74-.16,1.21,1.21,0,0,1,.66.17.79.79,0,0,1,.35.48,1,1,0,0,1,0,.39,4.1,4.1,0,0,1-.09.53l-.4,1.82a.81.81,0,0,1-.23.45.57.57,0,0,1-.39.15.36.36,0,0,1-.33-.15.56.56,0,0,1,0-.44l.37-1.63a1.54,1.54,0,0,0,0-.74q-.08-.26-.48-.26a1,1,0,0,0-.52.16,1.25,1.25,0,0,0-.42.43,3.5,3.5,0,0,0-.26.82l-.28,1.23a.8.8,0,0,1-.24.45.59.59,0,0,1-.4.15.35.35,0,0,1-.32-.15.56.56,0,0,1,0-.44L30.4,38a.78.78,0,0,1,.22-.42.53.53,0,0,1,.37-.14.39.39,0,0,1,.22.06.32.32,0,0,1,.13.18A.61.61,0,0,1,31.33,38Z"/><path class="cls-12" d="M37.28,39.71H35.35a1.19,1.19,0,0,0,0,.59.68.68,0,0,0,.27.38.8.8,0,0,0,.46.13,1.29,1.29,0,0,0,.33,0,1.34,1.34,0,0,0,.31-.13l.29-.19.36-.27a.39.39,0,0,1,.23-.06.3.3,0,0,1,.23.08.25.25,0,0,1,0,.23.79.79,0,0,1-.17.31,1.69,1.69,0,0,1-.39.34,2.33,2.33,0,0,1-.59.27,2.55,2.55,0,0,1-.76.11,1.62,1.62,0,0,1-1.37-.54,1.71,1.71,0,0,1-.21-1.46,2.87,2.87,0,0,1,.31-.81,2.42,2.42,0,0,1,.52-.64,2.19,2.19,0,0,1,.7-.41,2.46,2.46,0,0,1,.84-.14,1.65,1.65,0,0,1,.94.24,1.18,1.18,0,0,1,.49.63,1.5,1.5,0,0,1,0,.78.63.63,0,0,1-.32.48A1.5,1.5,0,0,1,37.28,39.71Zm-1.81-.56h1.79a1,1,0,0,0-.11-.75.66.66,0,0,0-.57-.25,1,1,0,0,0-.66.25A1.62,1.62,0,0,0,35.47,39.15Z"/><path class="cls-12" d="M43,39.79a1.87,1.87,0,0,1-.42.86,2.19,2.19,0,0,1-.85.6,3.08,3.08,0,0,1-1.18.22,2.25,2.25,0,0,1-1.24-.29,1.27,1.27,0,0,1-.47-.57,1.12,1.12,0,0,1-.08-.69.58.58,0,0,1,.21-.33.57.57,0,0,1,.37-.14.34.34,0,0,1,.27.11.66.66,0,0,1,.13.32,1.71,1.71,0,0,0,.13.42.65.65,0,0,0,.27.28,1.09,1.09,0,0,0,.54.11,1.49,1.49,0,0,0,.82-.22.86.86,0,0,0,.41-.55.5.5,0,0,0-.07-.43.79.79,0,0,0-.37-.25,6.14,6.14,0,0,0-.64-.18,4.14,4.14,0,0,1-.89-.31,1.14,1.14,0,0,1-.51-.48,1.12,1.12,0,0,1-.07-.76,1.62,1.62,0,0,1,.4-.77,2,2,0,0,1,.79-.52A3.11,3.11,0,0,1,41.67,36a2.39,2.39,0,0,1,.81.12,1.36,1.36,0,0,1,.52.32,1,1,0,0,1,.26.42.88.88,0,0,1,0,.43.64.64,0,0,1-.2.34.53.53,0,0,1-.37.15.32.32,0,0,1-.26-.09.94.94,0,0,1-.15-.3,1,1,0,0,0-.25-.47.87.87,0,0,0-.61-.17,1.31,1.31,0,0,0-.71.18.69.69,0,0,0-.34.44.39.39,0,0,0,0,.27.54.54,0,0,0,.2.2,1.28,1.28,0,0,0,.28.13l.48.14a6.86,6.86,0,0,1,.76.23,1.93,1.93,0,0,1,.56.31,1,1,0,0,1,.31.45A1.35,1.35,0,0,1,43,39.79Z"/><path class="cls-12" d="M44.36,37.56h.11l.12-.59q0-.24.09-.37a.68.68,0,0,1,.12-.23.6.6,0,0,1,.2-.16.54.54,0,0,1,.25-.06.4.4,0,0,1,.31.14.33.33,0,0,1,.08.23,2.1,2.1,0,0,1,0,.38l-.13.67h.36a.39.39,0,0,1,.3.1.28.28,0,0,1,.06.25.36.36,0,0,1-.21.28,1.13,1.13,0,0,1-.46.08h-.18L45,40.07a2.92,2.92,0,0,0-.05.35.3.3,0,0,0,0,.2.25.25,0,0,0,.22.08l.24,0,.24,0a.24.24,0,0,1,.2.1.27.27,0,0,1,.05.24.51.51,0,0,1-.33.36,2,2,0,0,1-.78.13,1.15,1.15,0,0,1-.67-.15.55.55,0,0,1-.23-.43,2.84,2.84,0,0,1,.07-.73l.37-1.88h-.13a.4.4,0,0,1-.3-.1.28.28,0,0,1-.06-.25.4.4,0,0,1,.17-.25A.6.6,0,0,1,44.36,37.56Z"/><path class="cls-12" d="M49.26,39.71H47.32a1.2,1.2,0,0,0,0,.59.71.71,0,0,0,.28.38.81.81,0,0,0,.46.13,1.29,1.29,0,0,0,.33,0,1.31,1.31,0,0,0,.31-.13l.29-.19.35-.27a.38.38,0,0,1,.23-.06.3.3,0,0,1,.23.08.25.25,0,0,1,.05.23.77.77,0,0,1-.16.31,1.63,1.63,0,0,1-.38.34,2.26,2.26,0,0,1-.58.27,2.52,2.52,0,0,1-.76.11,1.66,1.66,0,0,1-1.38-.54,1.73,1.73,0,0,1-.25-1.46,2.79,2.79,0,0,1,.29-.81,2.33,2.33,0,0,1,.5-.64,2.12,2.12,0,0,1,.69-.41,2.43,2.43,0,0,1,.83-.14,1.68,1.68,0,0,1,.94.24,1.22,1.22,0,0,1,.5.63,1.51,1.51,0,0,1,.06.78.61.61,0,0,1-.3.48A1.48,1.48,0,0,1,49.26,39.71Zm-1.83-.56h1.79a1,1,0,0,0-.13-.75.68.68,0,0,0-.58-.25,1,1,0,0,0-.65.25A1.57,1.57,0,0,0,47.43,39.15Z"/><path class="cls-12" d="M52,38l0,.12a2.53,2.53,0,0,1,.67-.5,1.59,1.59,0,0,1,.71-.16,1.37,1.37,0,0,1,.79.23,1.26,1.26,0,0,1,.48.68,2.23,2.23,0,0,1,0,1.06,2.89,2.89,0,0,1-.27.83,2.36,2.36,0,0,1-.47.64,2,2,0,0,1-.6.4,1.76,1.76,0,0,1-.68.14,1.23,1.23,0,0,1-.68-.17,1.55,1.55,0,0,1-.46-.5l-.27,1.47q-.12.65-.59.65-.28,0-.34-.17a1,1,0,0,1,0-.49L51.09,38a.74.74,0,0,1,.2-.42.51.51,0,0,1,.36-.14.37.37,0,0,1,.31.14A.51.51,0,0,1,52,38Zm1.68,1.43a1.61,1.61,0,0,0,0-.67.77.77,0,0,0-.25-.43.68.68,0,0,0-.44-.15,1.06,1.06,0,0,0-.75.32,1.66,1.66,0,0,0-.45.94,1.21,1.21,0,0,0,.11.91.72.72,0,0,0,.63.33.93.93,0,0,0,.48-.14,1.27,1.27,0,0,0,.41-.43A1.91,1.91,0,0,0,53.7,39.45Z"/><rect class="cls-13" x="8.42" y="122.84" width="185.63" height="18.67"/><rect class="cls-14" x="8.42" y="148.1" width="185.63" height="18.67"/><polygon class="cls-15" points="8.42 166.78 16.84 163.12 16.84 148.1 8.42 148.1 8.42 166.78"/><polygon class="cls-15" points="194.05 166.78 185.63 163.12 185.63 148.1 194.05 148.1 194.05 166.78"/><rect class="cls-16" x="16.84" y="148.1" width="168.79" height="9.15"/><rect class="cls-12" x="2.38" y="110.39" width="197.71" height="3.3" rx="0.66" ry="0.66"/><path class="cls-17" d="M97.84,88.21l-.23-9.44a20.44,20.44,0,0,1-3.14-.7l.37,10.13L94,112.09l.15,10.29h3.25l-.09-10.29Z"/><path class="cls-18" d="M100.72,79.12l.11,9.09-.28,23.88,0,10.29h3V79.22C102.57,79.22,101.6,79.18,100.72,79.12Z"/><path class="cls-19" d="M100.83,88.21l-.11-9.09c-1.21-.08-2.25-.21-3.12-.34l.23,9.44-.58,23.88.09,10.29h3.25l0-10.29Z"/><path class="cls-20" d="M113.33,112.09l-.93-23.88.37-10.13a20.38,20.38,0,0,1-3.12.69l-.23,9.44.61,23.88-.12,10.29h3.24Z"/><path class="cls-21" d="M106.43,88.21l.11-9.1c-.89.06-1.87.1-2.93.1v43.17h3.05l.06-10.29Z"/><path class="cls-22" d="M109.41,88.21l.23-9.44c-.87.14-1.9.26-3.1.34l-.11,9.1.3,23.88-.06,10.29h3.23l.12-10.29Z"/><rect class="cls-7" x="152.08" y="15.87" width="29.89" height="29.03" rx="5.85" ry="5.85"/><path class="cls-8" d="M173.4,37.48s0,.14-6.38.14-6.38-.14-6.38-.14a.92.92,0,0,1-.92-.92s-.14-2.69-.14-6.17.14-6.17.14-6.17a.92.92,0,0,1,.92-.92s0-.14,6.38-.14,6.38.14,6.38.14a.92.92,0,0,1,.92.92s.14,1.68.14,6.17-.14,6.17-.14,6.17A.92.92,0,0,1,173.4,37.48Z"/><path class="cls-23" d="M166.11,32.24a42.19,42.19,0,0,1-3.66,0,.26.26,0,0,1-.26-.26s0-3.05,0-1.77,0-1.77,0-1.77a.26.26,0,0,1,.26-.26,42.19,42.19,0,0,1,3.66,0,.26.26,0,0,1,.26.26s0,.48,0,1.77,0,1.77,0,1.77A.26.26,0,0,1,166.11,32.24Z"/><circle class="cls-24" cx="155.79" cy="70.3" r="3.66"/><path class="cls-1" d="M130.71,0H72.49a4.83,4.83,0,0,0-3.83,1.89L66.45,4.76h70.3l-2.21-2.87A4.83,4.83,0,0,0,130.71,0Z"/><circle class="cls-25" cx="118.45" cy="26.36" r="6.59"/><circle class="cls-25" cx="91.17" cy="55.1" r="2.75"/><path class="cls-13" d="M102.7,0H72.49a4.83,4.83,0,0,0-3.83,1.89L66.45,4.76H102.7"/><circle class="cls-19" cx="40.28" cy="68.65" r="11.35"/><path class="cls-26" d="M103.25,77.8a35.88,35.88,0,0,1,0-71.76"/><path class="cls-27" d="M102.7,122.47H0l2.77,41.9a14.34,14.34,0,0,0,14.31,13.39H102.7"/><path class="cls-12" d="M51.21,133.8h-1v1.48a.69.69,0,0,1-.15.48.53.53,0,0,1-.77,0,.69.69,0,0,1-.15-.48v-4a.66.66,0,0,1,.16-.5.73.73,0,0,1,.51-.15h1.36a3.57,3.57,0,0,1,.93.09,1.39,1.39,0,0,1,.56.3,1.34,1.34,0,0,1,.36.51,1.78,1.78,0,0,1,.12.68,1.49,1.49,0,0,1-.49,1.21A2.24,2.24,0,0,1,51.21,133.8Zm-.26-2.4h-.72V133H51a2.14,2.14,0,0,0,.63-.08.73.73,0,0,0,.38-.26.77.77,0,0,0,.13-.47.79.79,0,0,0-.2-.56A1.36,1.36,0,0,0,51,131.39Z"/><path class="cls-12" d="M57.1,130.51a2.8,2.8,0,0,1,1.4.33,2.14,2.14,0,0,1,.88.94,3.2,3.2,0,0,1,.3,1.43,3.5,3.5,0,0,1-.16,1.1,2.39,2.39,0,0,1-.49.86,2.16,2.16,0,0,1-.81.56,3.19,3.19,0,0,1-2.2,0,2.18,2.18,0,0,1-.81-.56,2.39,2.39,0,0,1-.49-.87,3.51,3.51,0,0,1-.17-1.1,3.39,3.39,0,0,1,.17-1.11,2.38,2.38,0,0,1,.5-.86,2.17,2.17,0,0,1,.8-.54A2.88,2.88,0,0,1,57.1,130.51Zm1.51,2.7a2.46,2.46,0,0,0-.19-1,1.39,1.39,0,0,0-.53-.64,1.46,1.46,0,0,0-.79-.22,1.43,1.43,0,0,0-.59.12,1.29,1.29,0,0,0-.46.35,1.67,1.67,0,0,0-.31.58,2.64,2.64,0,0,0-.11.8,2.71,2.71,0,0,0,.11.81,1.66,1.66,0,0,0,.32.6,1.33,1.33,0,0,0,.47.36,1.49,1.49,0,0,0,1.33-.09,1.41,1.41,0,0,0,.54-.63A2.43,2.43,0,0,0,58.61,133.2Z"/><path class="cls-12" d="M62.37,131.15V135h2.15a.57.57,0,0,1,.4.13.41.41,0,0,1,.14.31.4.4,0,0,1-.14.31.58.58,0,0,1-.4.12H62a.56.56,0,0,1-.65-.65v-4a.7.7,0,0,1,.14-.48.49.49,0,0,1,.38-.16.51.51,0,0,1,.39.16A.69.69,0,0,1,62.37,131.15Z"/><path class="cls-12" d="M69.74,135.24l-.25-.66H67.36l-.25.67a2.35,2.35,0,0,1-.25.53.4.4,0,0,1-.34.14.5.5,0,0,1-.35-.15.45.45,0,0,1-.15-.33.74.74,0,0,1,0-.22q0-.11.12-.32l1.34-3.4.14-.35a1.78,1.78,0,0,1,.17-.34.7.7,0,0,1,.24-.22.73.73,0,0,1,.37-.08.74.74,0,0,1,.37.08.71.71,0,0,1,.24.22,1.52,1.52,0,0,1,.15.28l.16.41,1.37,3.38a1.7,1.7,0,0,1,.16.56.47.47,0,0,1-.15.33.5.5,0,0,1-.37.15.48.48,0,0,1-.21,0,.44.44,0,0,1-.15-.12,1.13,1.13,0,0,1-.13-.24Zm-2.1-1.46H69.2l-.79-2.16Z"/><path class="cls-12" d="M73.81,133.6h-.37v1.68a.7.7,0,0,1-.15.49.5.5,0,0,1-.38.16.49.49,0,0,1-.39-.16.73.73,0,0,1-.14-.48v-4a.56.56,0,0,1,.65-.65h1.73a5.26,5.26,0,0,1,.61,0,1.53,1.53,0,0,1,.46.12,1.32,1.32,0,0,1,.44.3,1.3,1.3,0,0,1,.29.45,1.5,1.5,0,0,1,.1.54,1.31,1.31,0,0,1-.33.94,1.9,1.9,0,0,1-1,.5,1.94,1.94,0,0,1,.54.44,4.51,4.51,0,0,1,.46.62,4.61,4.61,0,0,1,.31.6,1.18,1.18,0,0,1,.11.37.38.38,0,0,1-.07.21.46.46,0,0,1-.18.16.57.57,0,0,1-.26.06.52.52,0,0,1-.3-.08.8.8,0,0,1-.21-.21l-.24-.38-.43-.71a3.9,3.9,0,0,0-.41-.59,1,1,0,0,0-.37-.28A1.26,1.26,0,0,0,73.81,133.6Zm.61-2.2h-1v1.44h1a2.66,2.66,0,0,0,.64-.07.76.76,0,0,0,.4-.23.65.65,0,0,0,.14-.44.66.66,0,0,0-.42-.63A2.21,2.21,0,0,0,74.42,131.39Z"/><path class="cls-12" d="M80.69,130.51a2.8,2.8,0,0,1,1.4.33,2.14,2.14,0,0,1,.88.94,3.2,3.2,0,0,1,.3,1.43,3.5,3.5,0,0,1-.16,1.1,2.39,2.39,0,0,1-.49.86,2.16,2.16,0,0,1-.81.56,3.19,3.19,0,0,1-2.2,0,2.18,2.18,0,0,1-.81-.56,2.39,2.39,0,0,1-.49-.87,3.51,3.51,0,0,1-.17-1.1,3.39,3.39,0,0,1,.17-1.11,2.38,2.38,0,0,1,.5-.86,2.17,2.17,0,0,1,.8-.54A2.88,2.88,0,0,1,80.69,130.51Zm1.51,2.7a2.46,2.46,0,0,0-.19-1,1.39,1.39,0,0,0-.53-.64,1.46,1.46,0,0,0-.79-.22,1.43,1.43,0,0,0-.59.12,1.29,1.29,0,0,0-.46.35,1.67,1.67,0,0,0-.31.58,2.64,2.64,0,0,0-.11.8,2.71,2.71,0,0,0,.11.81,1.66,1.66,0,0,0,.32.6,1.33,1.33,0,0,0,.47.36,1.49,1.49,0,0,0,1.33-.09,1.41,1.41,0,0,0,.54-.63A2.43,2.43,0,0,0,82.2,133.2Z"/><path class="cls-12" d="M85,135.28v-4.13a.7.7,0,0,1,.15-.48.49.49,0,0,1,.38-.16.51.51,0,0,1,.39.16.69.69,0,0,1,.15.48v4.13a.7.7,0,0,1-.15.49.5.5,0,0,1-.39.16.49.49,0,0,1-.38-.16A.7.7,0,0,1,85,135.28Z"/><path class="cls-12" d="M88.6,130.6H90a3.73,3.73,0,0,1,.93.1,1.7,1.7,0,0,1,.7.38,2.65,2.65,0,0,1,.82,2.13,4.19,4.19,0,0,1-.08.86,2.54,2.54,0,0,1-.25.7,2.18,2.18,0,0,1-.44.56,1.82,1.82,0,0,1-.46.3,2.08,2.08,0,0,1-.54.16,4.11,4.11,0,0,1-.65,0H88.62a.87.87,0,0,1-.44-.09.41.41,0,0,1-.19-.25,1.57,1.57,0,0,1,0-.41v-3.84a.56.56,0,0,1,.65-.65Zm.41.84V135h1.22a1.3,1.3,0,0,0,.31-.07.85.85,0,0,0,.28-.16,1.94,1.94,0,0,0,.53-1.55,2.28,2.28,0,0,0-.23-1.16,1,1,0,0,0-.58-.49,2.85,2.85,0,0,0-.83-.11Z"/><path class="cls-12" d="M97.7,131.15V135h2.15a.57.57,0,0,1,.4.13.41.41,0,0,1,.14.31.4.4,0,0,1-.14.31.58.58,0,0,1-.4.12H97.28a.56.56,0,0,1-.65-.65v-4a.7.7,0,0,1,.14-.48.49.49,0,0,1,.38-.16.51.51,0,0,1,.39.16A.69.69,0,0,1,97.7,131.15Z"/><path class="cls-12" d="M105.07,135.24l-.25-.66h-2.13l-.25.67a2.35,2.35,0,0,1-.25.53.4.4,0,0,1-.34.14.5.5,0,0,1-.35-.15.45.45,0,0,1-.15-.33.74.74,0,0,1,0-.22q0-.11.12-.32l1.34-3.4.14-.35a1.78,1.78,0,0,1,.17-.34.7.7,0,0,1,.24-.22.73.73,0,0,1,.37-.08.74.74,0,0,1,.37.08.71.71,0,0,1,.24.22,1.52,1.52,0,0,1,.15.28l.16.41,1.37,3.38a1.7,1.7,0,0,1,.16.56.47.47,0,0,1-.15.33.5.5,0,0,1-.37.15.48.48,0,0,1-.21,0,.44.44,0,0,1-.15-.12,1.13,1.13,0,0,1-.13-.24Zm-2.1-1.46h1.57l-.79-2.16Z"/><path class="cls-12" d="M109.1,131.14l2,3.09v-3.12a.69.69,0,0,1,.13-.46.44.44,0,0,1,.35-.15.45.45,0,0,1,.36.15.68.68,0,0,1,.13.46v4.12q0,.69-.57.69a.76.76,0,0,1-.26,0,.66.66,0,0,1-.21-.13,1.26,1.26,0,0,1-.19-.21l-.17-.24-2-3.05v3.07a.66.66,0,0,1-.14.45.46.46,0,0,1-.36.15.46.46,0,0,1-.36-.16.67.67,0,0,1-.14-.45v-4a1.14,1.14,0,0,1,.06-.4.58.58,0,0,1,.23-.26.61.61,0,0,1,.34-.1.56.56,0,0,1,.42.17,1.29,1.29,0,0,1,.16.2Z"/><path class="cls-12" d="M114.67,130.6h1.38a3.73,3.73,0,0,1,.93.1,1.7,1.7,0,0,1,.7.38,2.65,2.65,0,0,1,.82,2.13,4.19,4.19,0,0,1-.08.86,2.54,2.54,0,0,1-.25.7,2.18,2.18,0,0,1-.44.56,1.82,1.82,0,0,1-.46.3,2.08,2.08,0,0,1-.54.16,4.11,4.11,0,0,1-.65,0h-1.38a.87.87,0,0,1-.44-.09.41.41,0,0,1-.19-.25,1.57,1.57,0,0,1,0-.41v-3.84a.56.56,0,0,1,.65-.65Zm.41.84V135h1.22a1.3,1.3,0,0,0,.31-.07.85.85,0,0,0,.28-.16,1.94,1.94,0,0,0,.53-1.55,2.28,2.28,0,0,0-.23-1.16,1,1,0,0,0-.58-.49,2.85,2.85,0,0,0-.83-.11Z"/><path class="cls-12" d="M127.19,134.18a1.4,1.4,0,0,1-.12.54,2,2,0,0,1-1.06,1,2.43,2.43,0,0,1-1,.18,3.35,3.35,0,0,1-.75-.08,2.12,2.12,0,0,1-.62-.24,2.08,2.08,0,0,1-.51-.44,2.59,2.59,0,0,1-.35-.55,2.89,2.89,0,0,1-.22-.65,3.55,3.55,0,0,1-.07-.74,3.27,3.27,0,0,1,.18-1.13,2.42,2.42,0,0,1,.53-.86,2.3,2.3,0,0,1,.8-.54,2.61,2.61,0,0,1,1-.19,2.46,2.46,0,0,1,1.13.25,2.05,2.05,0,0,1,.76.63,1.24,1.24,0,0,1,.26.71.46.46,0,0,1-.13.32.41.41,0,0,1-.31.14.43.43,0,0,1-.31-.1,1.33,1.33,0,0,1-.23-.33,1.6,1.6,0,0,0-.49-.58,1.19,1.19,0,0,0-.69-.19,1.25,1.25,0,0,0-1,.5,2.25,2.25,0,0,0-.39,1.41,2.62,2.62,0,0,0,.17,1,1.28,1.28,0,0,0,.49.61,1.34,1.34,0,0,0,.74.2,1.29,1.29,0,0,0,.77-.23,1.37,1.37,0,0,0,.48-.67,1.13,1.13,0,0,1,.17-.34.38.38,0,0,1,.32-.13.45.45,0,0,1,.33.13A.44.44,0,0,1,127.19,134.18Z"/><path class="cls-12" d="M132.23,135.24l-.25-.66h-2.13l-.25.67a2.35,2.35,0,0,1-.25.53.4.4,0,0,1-.34.14.5.5,0,0,1-.35-.15.45.45,0,0,1-.15-.33.74.74,0,0,1,0-.22q0-.11.12-.32l1.34-3.4.14-.35a1.78,1.78,0,0,1,.17-.34.7.7,0,0,1,.24-.22.73.73,0,0,1,.37-.08.74.74,0,0,1,.37.08.71.71,0,0,1,.24.22,1.52,1.52,0,0,1,.15.28l.16.41,1.37,3.38a1.7,1.7,0,0,1,.16.56.47.47,0,0,1-.15.33.5.5,0,0,1-.37.15.48.48,0,0,1-.21,0,.44.44,0,0,1-.15-.12,1.13,1.13,0,0,1-.13-.24Zm-2.1-1.46h1.57l-.79-2.16Z"/><path class="cls-12" d="M136.65,135l-.84-3.34v3.62a.66.66,0,0,1-.13.45.49.49,0,0,1-.71,0,.65.65,0,0,1-.14-.45v-4.15a.52.52,0,0,1,.18-.46.86.86,0,0,1,.48-.12h.33a1.25,1.25,0,0,1,.43.05.36.36,0,0,1,.2.19,3,3,0,0,1,.15.45l.76,2.87.76-2.87a3,3,0,0,1,.15-.45.36.36,0,0,1,.2-.19,1.25,1.25,0,0,1,.43-.05h.33a.86.86,0,0,1,.48.12.52.52,0,0,1,.18.46v4.15a.66.66,0,0,1-.13.45.46.46,0,0,1-.36.15.45.45,0,0,1-.35-.15.65.65,0,0,1-.14-.45v-3.62l-.84,3.34q-.08.33-.13.48a.66.66,0,0,1-.19.28.56.56,0,0,1-.39.13.57.57,0,0,1-.51-.29,1.18,1.18,0,0,1-.11-.28Z"/><path class="cls-12" d="M145.16,131.41h-2.39v1.29H145a.52.52,0,0,1,.36.11.37.37,0,0,1,.12.29.38.38,0,0,1-.12.29.51.51,0,0,1-.36.11h-2.2V135h2.47a.54.54,0,0,1,.38.12.4.4,0,0,1,.13.31.39.39,0,0,1-.13.3.54.54,0,0,1-.38.12h-2.89a.56.56,0,0,1-.65-.65v-3.94a.88.88,0,0,1,.07-.37.42.42,0,0,1,.21-.21.89.89,0,0,1,.37-.07h2.8a.54.54,0,0,1,.38.11.38.38,0,0,1,.12.29.38.38,0,0,1-.12.3A.54.54,0,0,1,145.16,131.41Z"/><path class="cls-12" d="M148.75,133.6h-.37v1.68a.7.7,0,0,1-.15.49.5.5,0,0,1-.38.16.49.49,0,0,1-.39-.16.73.73,0,0,1-.14-.48v-4a.56.56,0,0,1,.65-.65h1.73a5.26,5.26,0,0,1,.61,0,1.53,1.53,0,0,1,.46.12,1.32,1.32,0,0,1,.44.3,1.3,1.3,0,0,1,.29.45,1.5,1.5,0,0,1,.1.54,1.31,1.31,0,0,1-.33.94,1.9,1.9,0,0,1-1,.5,1.94,1.94,0,0,1,.54.44,4.51,4.51,0,0,1,.46.62,4.61,4.61,0,0,1,.31.6,1.18,1.18,0,0,1,.11.37.38.38,0,0,1-.07.21.46.46,0,0,1-.18.16.57.57,0,0,1-.26.06.52.52,0,0,1-.3-.08.8.8,0,0,1-.21-.21l-.24-.38-.43-.71a3.9,3.9,0,0,0-.41-.59,1,1,0,0,0-.37-.28A1.26,1.26,0,0,0,148.75,133.6Zm.61-2.2h-1v1.44h1a2.66,2.66,0,0,0,.64-.07.76.76,0,0,0,.4-.23.65.65,0,0,0,.14-.44.66.66,0,0,0-.42-.63A2.21,2.21,0,0,0,149.36,131.39Z"/><path class="cls-12" d="M156.68,135.24l-.25-.66H154.3l-.25.67a2.35,2.35,0,0,1-.25.53.4.4,0,0,1-.34.14.5.5,0,0,1-.35-.15.45.45,0,0,1-.15-.33.74.74,0,0,1,0-.22q0-.11.12-.32l1.34-3.4.14-.35a1.78,1.78,0,0,1,.17-.34.7.7,0,0,1,.24-.22.73.73,0,0,1,.37-.08.74.74,0,0,1,.37.08.71.71,0,0,1,.24.22,1.52,1.52,0,0,1,.15.28l.16.41,1.37,3.38a1.7,1.7,0,0,1,.16.56.47.47,0,0,1-.15.33.5.5,0,0,1-.37.15.48.48,0,0,1-.21,0,.44.44,0,0,1-.15-.12,1.13,1.13,0,0,1-.13-.24Zm-2.1-1.46h1.57l-.79-2.16Z"/></g></g></svg>