<svg xmlns="http://www.w3.org/2000/svg" viewBox="0 0 27.84 23.09"><defs><style>.cls-1{fill:#898989;}.cls-2{fill:#717171;opacity:0.5;}</style></defs><title>second</title><g id="Layer_2" data-name="Layer 2"><g id="Layer_1-2" data-name="Layer 1"><rect class="cls-1" x="11.9" y="3.23" width="4.78" height="19.86"/><path class="cls-1" d="M23.68,1c0,.36,0,.7-.06,1.05a13.25,13.25,0,0,1-.13,1.51A26.16,26.16,0,0,1,21.32,12a15,15,0,0,1-1.4,2.5,9,9,0,0,1-3.23,3,5.39,5.39,0,0,1-2.48.63,5.06,5.06,0,0,1-2.31-.56,8.66,8.66,0,0,1-3.25-2.92,14.09,14.09,0,0,1-1.34-2.29A26.31,26.31,0,0,1,4.93,3.57,13.25,13.25,0,0,1,4.8,2.06c0-.36,0-.7-.06-1.05a1,1,0,0,1,1.1-1H22.6A1,1,0,0,1,23.68,1Z"/><path class="cls-1" d="M20.73,21.75v.39a1,1,0,0,1-1.08,1H9a1,1,0,0,1-1.08-1v-.39a1,1,0,0,1,1.08-1h10.7A1,1,0,0,1,20.73,21.75Z"/><path class="cls-1" d="M18.54,20.22v.25a.44.44,0,0,1-.11.31.7.7,0,0,1-.59.32H10.77a.65.65,0,0,1-.59-.32.44.44,0,0,1-.11-.31v-.25a.67.67,0,0,1,.7-.65h7.07A.68.68,0,0,1,18.54,20.22Z"/><path class="cls-1" d="M19.92,14.55l-.47.15a.8.8,0,0,1-1.06-1l.13-.32a.81.81,0,0,1,.57-.48A8.8,8.8,0,0,0,21.32,12C23.19,11,25.46,8.84,26,4.4a.77.77,0,0,0-.83-.83H22.89a.8.8,0,0,1-.83-.75.8.8,0,0,1,.83-.76H27a.82.82,0,0,1,.85.73C27.9,5.08,27.42,12.1,19.92,14.55Z"/><path class="cls-1" d="M4.89,2.06h-4A.8.8,0,0,0,0,2.79c-.06,2.34.42,9.6,8.39,11.9a.8.8,0,0,0,1-1l-.12-.32a.8.8,0,0,0-.58-.48C7.31,12.6,2.67,11,1.78,4.4a.79.79,0,0,1,.83-.84H4.94a.8.8,0,0,0,.84-.75h0a.8.8,0,0,0-.84-.75Z"/><path class="cls-2" d="M19.92,14.55c7.5-2.45,8-9.46,7.92-11.76A.82.82,0,0,0,27,2.06H23.62c0-.36,0-.7.06-1.05A1,1,0,0,0,22.6,0H14.21V23.09h5.44a1,1,0,0,0,1.08-1v-.39a1,1,0,0,0-1.08-1H18.43a.44.44,0,0,0,.11-.31v-.25a.68.68,0,0,0-.7-.65H16.69v-2A9,9,0,0,0,19.92,14.55Zm3.57-11h1.72A.77.77,0,0,1,26,4.4C25.46,8.84,23.19,11,21.32,12A26.16,26.16,0,0,0,23.49,3.57Z"/></g></g></svg>