<svg xmlns="http://www.w3.org/2000/svg" viewBox="0 0 280.39 280.39"><defs><style>.cls-1{isolation:isolate;}.cls-2{fill:#ecf0f1;}.cls-3{fill:#939393;opacity:0.49;}.cls-4{fill:#595b5a;}.cls-5{fill:#494949;}.cls-6,.cls-7{fill:#4c4c4c;}.cls-7{opacity:0.3;mix-blend-mode:multiply;}.cls-8{fill:#c0c9c4;}.cls-9{fill:#e2e8e4;}</style></defs><title>trash</title><g class="cls-1"><g id="Layer_2" data-name="Layer 2"><g id="Layer_1-2" data-name="Layer 1"><path class="cls-2" d="M280.39,140.2a140.2,140.2,0,1,1-.43-11Q280.4,134.66,280.39,140.2Z"/><path class="cls-3" d="M280.39,140.2A140.24,140.24,0,0,1,177.7,275.31L95.63,222.12l-.26-.17-15-124.12H69.91V85.37L72.73,81H84.88L95.39,67.86H116.3V58.28h48.45v9.58h20.52l.83.54L205.58,81l4.89,3.17,69.49,45Q280.4,134.66,280.39,140.2Z"/><polygon class="cls-4" points="202.77 81.02 200.73 97.83 185.67 222.12 95.39 222.12 95.37 221.95 80.32 97.83 78.28 81.02 202.77 81.02"/><rect class="cls-5" x="69.91" y="81.02" width="140.56" height="16.81"/><path class="cls-6" d="M186.1,68.4l-.43-.54H164.75V58.28H116.3v9.58H95.39L84.88,81H196.17Zm-24.82-.54H119.77V63.3h41.51Z"/><polygon class="cls-7" points="196.17 81.02 140.53 81.02 140.53 67.86 161.28 67.86 161.28 63.3 140.53 63.3 140.53 58.28 164.75 58.28 164.75 67.86 185.67 67.86 186.1 68.4 196.17 81.02"/><polygon class="cls-8" points="122.83 142.61 135.87 150.67 140.92 142.05 133.02 128.86 131.13 128.86 122.83 142.61"/><polygon class="cls-9" points="150.88 128.86 133.02 128.86 142.82 145.22 140.59 146.71 153.35 149.19 157.84 136.87 155.89 137.79 150.88 128.86"/><polygon class="cls-8" points="161.16 147.66 147.88 155.33 153.09 163.86 168.45 163.15 169.34 161.47 161.16 147.66"/><polygon class="cls-9" points="160 178.87 168.45 163.15 149.41 164.03 149.14 161.37 140.92 171.44 149.65 181.22 149.77 179.06 160 178.87"/><polygon class="cls-8" points="137.88 178.92 138.14 163.59 128.15 163.66 120.85 177.19 121.82 178.82 137.88 178.92"/><polygon class="cls-9" points="111.72 161.85 120.85 177.19 129.9 160.42 132.32 161.56 127.92 149.33 115.04 151.77 116.83 152.98 111.72 161.85"/><polygon class="cls-7" points="210.47 81.02 210.47 97.83 200.73 97.83 185.67 222.12 140.52 222.12 140.52 81.02 210.47 81.02"/></g></g></g></svg>