<svg xmlns="http://www.w3.org/2000/svg" viewBox="0 0 112.79 131.47"><defs><style>.cls-1{isolation:isolate;}.cls-2,.cls-5{fill:#9b2921;}.cls-3{fill:#981c1f;}.cls-4{fill:#98242c;}.cls-5{opacity:0.3;mix-blend-mode:multiply;}.cls-6{fill:#dfb0b9;}.cls-7{fill:#da9a99;}</style></defs><title>red_trash</title><g class="cls-1"><g id="Layer_2" data-name="Layer 2"><g id="Layer_1-2" data-name="Layer 1"><polygon class="cls-2" points="106.61 18.25 104.97 31.73 92.89 131.47 20.45 131.47 20.43 131.33 8.35 31.73 6.72 18.25 106.61 18.25"/><rect class="cls-3" y="18.25" width="112.79" height="13.49"/><path class="cls-4" d="M93.23,8.12l-.34-.43H76.1V0H37.22V7.69H20.45L12,18.25h89.3ZM73.32,7.69H40V4H73.32Z"/><polygon class="cls-5" points="101.31 18.25 56.67 18.25 56.67 7.69 73.32 7.69 73.32 4.03 56.67 4.03 56.67 0 76.1 0 76.1 7.69 92.89 7.69 93.23 8.12 101.31 18.25"/><polygon class="cls-6" points="42.46 67.67 52.93 74.14 56.98 67.22 50.64 56.64 49.12 56.64 42.46 67.67"/><polygon class="cls-7" points="64.97 56.64 50.64 56.64 58.5 69.76 56.72 70.96 66.96 72.94 70.56 63.06 68.99 63.8 64.97 56.64"/><polygon class="cls-6" points="73.22 71.72 62.57 77.88 66.75 84.72 79.07 84.15 79.79 82.81 73.22 71.72"/><polygon class="cls-7" points="72.29 96.77 79.07 84.15 63.79 84.86 63.58 82.72 56.98 90.8 63.99 98.65 64.08 96.92 72.29 96.77"/><polygon class="cls-6" points="54.54 96.81 54.75 84.51 46.73 84.56 40.88 95.42 41.65 96.72 54.54 96.81"/><polygon class="cls-7" points="33.55 83.1 40.88 95.42 48.13 81.95 50.08 82.88 46.55 73.06 36.21 75.02 37.65 75.99 33.55 83.1"/><polygon class="cls-5" points="112.79 18.25 112.79 31.73 104.97 31.73 92.89 131.47 56.66 131.47 56.66 18.25 112.79 18.25"/></g></g></g></svg>