<svg xmlns="http://www.w3.org/2000/svg" xmlns:xlink="http://www.w3.org/1999/xlink" viewBox="0 0 163.45 110.45"><defs><style>.cls-1{fill:none;}.cls-2{fill:#1e6072;}.cls-3{fill:#4ea7cf;}.cls-4{fill:#347389;}.cls-5{clip-path:url(#clip-path);}.cls-6{fill:#fff;}.cls-7{clip-path:url(#clip-path-2);}.cls-8{fill:#174e5b;}</style><clipPath id="clip-path"><circle id="SVGID" class="cls-1" cx="39.47" cy="70.98" r="29.47"/></clipPath><clipPath id="clip-path-2"><circle id="SVGID-2" data-name="SVGID" class="cls-1" cx="123.98" cy="70.98" r="29.47"/></clipPath></defs><title>verkijker</title><g id="Layer_2" data-name="Layer 2"><g id="Layer_1-2" data-name="Layer 1"><path class="cls-2" d="M75.39,17.25c0,3.83.39,53.73.39,53.73L4.36,55.71,43.92,7.56"/><path class="cls-3" d="M39.47,105.45A34.47,34.47,0,1,1,73.93,71,34.5,34.5,0,0,1,39.47,105.45Z"/><path class="cls-4" d="M39.47,41.52A29.47,29.47,0,1,1,10,71,29.47,29.47,0,0,1,39.47,41.52m0-10A39.47,39.47,0,1,0,78.93,71,39.51,39.51,0,0,0,39.47,31.52Z"/><g class="cls-5"><rect class="cls-6" x="24.9" y="29.1" width="5.94" height="62.37" transform="translate(50.79 -2.05) rotate(45)"/><rect class="cls-6" x="31.36" y="35.56" width="5.94" height="62.37" transform="translate(57.25 -4.72) rotate(45)"/></g><circle class="cls-2" cx="58.2" cy="17.25" r="17.25"/><path class="cls-2" d="M88.05,17.25c0,3.83-.39,53.73-.39,53.73l69.41-19L119.52,7.56"/><circle class="cls-2" cx="105.25" cy="17.25" r="17.25"/><path class="cls-3" d="M124,105.45A34.47,34.47,0,1,1,158.45,71,34.5,34.5,0,0,1,124,105.45Z"/><path class="cls-4" d="M124,41.52A29.47,29.47,0,1,1,94.51,71,29.47,29.47,0,0,1,124,41.52m0-10A39.47,39.47,0,1,0,163.45,71,39.51,39.51,0,0,0,124,31.52Z"/><g class="cls-7"><rect class="cls-6" x="109.41" y="29.1" width="5.94" height="62.37" transform="translate(75.55 -61.81) rotate(45)"/><rect class="cls-6" x="115.87" y="35.56" width="5.94" height="62.37" transform="translate(82.01 -64.49) rotate(45)"/></g><rect class="cls-8" x="68.93" y="14.63" width="25.58" height="16.18" rx="8.09" ry="8.09"/></g></g></svg>