<svg xmlns="http://www.w3.org/2000/svg" xmlns:xlink="http://www.w3.org/1999/xlink" viewBox="0 0 134.31 80.42"><defs><style>.cls-1{fill:none;}.cls-2{fill:#1e6072;}.cls-3{fill:#4ea7cf;}.cls-4{fill:#347389;}.cls-5{clip-path:url(#clip-path);}.cls-6{fill:#fff;}.cls-7{fill:#1a5363;}.cls-8{fill:#4491b3;}.cls-9{fill:#2c6477;}.cls-10{clip-path:url(#clip-path-2);}.cls-11{fill:#ddd;}.cls-12{fill:#174e5b;}.cls-13{fill:#14444f;}</style><clipPath id="clip-path"><circle id="SVGID" class="cls-1" cx="33.48" cy="46.94" r="23.48"/></clipPath><clipPath id="clip-path-2"><circle id="SVGID-2" data-name="SVGID" class="cls-1" cx="100.83" cy="46.94" r="23.48"/></clipPath></defs><title>verrekijker_klein</title><g id="Layer_2" data-name="Layer 2"><g id="Layer_1-2" data-name="Layer 1"><path class="cls-2" d="M62.11,12.07c0-.22,0-.44,0-.66C62.15,5.11,56,0,48.41,0A14.67,14.67,0,0,0,37,5h0L5.51,36.84l56.92,10.1S62.14,17.37,62.11,12.07Z"/><circle class="cls-3" cx="33.48" cy="46.94" r="23.48"/><path class="cls-4" d="M33.48,23.46A23.48,23.48,0,1,1,10,46.94,23.48,23.48,0,0,1,33.48,23.46m0-10A33.48,33.48,0,1,0,67,46.94,33.52,33.52,0,0,0,33.48,13.46Z"/><g class="cls-5"><rect class="cls-6" x="21.87" y="13.56" width="4.73" height="49.71" transform="translate(34.26 -5.89) rotate(45)"/><rect class="cls-6" x="27.02" y="18.71" width="4.73" height="49.71" transform="translate(39.41 -8.02) rotate(45)"/></g><path class="cls-7" d="M127.21,34.35l-7,1.59L77.4,45.69l-5.51,1.25s.06-6.6.13-14.12c0-4.22.08-8.74.12-12.54s0-6.82.06-8.21c0-.22,0-.44,0-.66a9.3,9.3,0,0,1,.14-1.59C73.23,4.27,79,0,85.91,0a16,16,0,0,1,6.53,1.37A13.2,13.2,0,0,1,97.28,5L114,21.41Z"/><circle class="cls-8" cx="100.83" cy="46.94" r="23.48"/><path class="cls-9" d="M114,16.17a33.48,33.48,0,1,0,20.3,30.77A33.29,33.29,0,0,0,114,16.17ZM100.83,70.42A23.48,23.48,0,0,1,77.35,46.94c0-.51,0-1,0-1.51a23.48,23.48,0,1,1,23.43,25Z"/><g class="cls-10"><rect class="cls-11" x="89.22" y="13.56" width="4.73" height="49.71" transform="translate(53.99 -53.51) rotate(45)"/><rect class="cls-11" x="94.37" y="18.71" width="4.73" height="49.71" transform="translate(59.14 -55.65) rotate(45)"/></g><path class="cls-12" d="M63.15,11.07a5.89,5.89,0,0,0-1.4.16,6.34,6.34,0,0,0-3.16,1.72,6.45,6.45,0,0,0,3.32,10.89,6.36,6.36,0,0,0,1.24.12H66.9V11.07Z"/><path class="cls-13" d="M71.88,23.84A6.44,6.44,0,0,0,72,11.23a5.89,5.89,0,0,0-1.4-.16H66.9V24h3.74A6.36,6.36,0,0,0,71.88,23.84Z"/></g></g></svg>