<svg xmlns="http://www.w3.org/2000/svg" viewBox="-1 -1 35 35"><defs><style>.cls-1{fill:white; stroke:black;}</style></defs><title>zoom_fixed</title><g id="Layer_2" data-name="Layer 2"><g id="Layer_1-2" data-name="Layer 1"><path class="cls-1" d="M31.37,28l-9.82-9.82A11.73,11.73,0,0,0,11.73,0,11.73,11.73,0,0,0,3.44,20a11.73,11.73,0,0,0,14.71,1.53L28,31.37a1.33,1.33,0,0,0,1.87,0l1.53-1.53A1.33,1.33,0,0,0,31.37,28ZM5.56,17.9a8.73,8.73,0,1,1,12.35,0A8.68,8.68,0,0,1,5.56,17.9Z"/><path class="cls-1" d="M16.73,10.71h-4v-4a1,1,0,0,0-2,0v4h-4a1,1,0,0,0,0,2h4v4a1,1,0,1,0,2,0v-4h4a1,1,0,1,0,0-2Z"/></g></g></svg>