<svg xmlns="http://www.w3.org/2000/svg" viewBox="0 0 242.36 417.39"><defs><style>.cls-1{isolation:isolate;}.cls-2{fill:#a07070;}.cls-3{fill:#daddc7;}.cls-4{fill:#50543f;}.cls-5{fill:#936464;}.cls-6{fill:#2d1c1a;}.cls-7{fill:#2a1a18;}.cls-8{fill:#99413a;}.cls-9{fill:#fff;}.cls-10{fill:#43472e;}.cls-11{fill:#4a4e3b;}.cls-12{fill:#525252;opacity:0.1;mix-blend-mode:multiply;}.cls-13{fill:#956868;}.cls-14{fill:#7c595a;}.cls-15{fill:#3e422b;}.cls-16{fill:#895d5d;}.cls-17{fill:#ededed;}.cls-18{fill:#cbceb9;}.cls-19{fill:#775757;}.cls-20{fill:#8e3c36;}</style></defs><title>Bert_new_2</title><g class="cls-1"><g id="Layer_2" data-name="Layer 2"><g id="Layer_1-2" data-name="Layer 1"><path class="cls-2" d="M211.48,255.79l28.91,51.38a15.38,15.38,0,0,1,1.13,12.55l-15.74,97.66H195.5l15.75-100.1-17.54-31.17V274c0-.8,0-1.64,0-2.51C204.55,265.43,209.61,258.8,211.48,255.79Z"/><path class="cls-3" d="M212.41,254.13a16.28,16.28,0,0,1-.93,1.66c-1.88,3-6.94,9.64-17.82,15.72-.44-13.73-4.52-35.82-16.53-52.25a52.83,52.83,0,0,0-16.49-15C203.42,215.65,212.41,254.13,212.41,254.13Z"/><path class="cls-4" d="M142.51,203.77h0Z"/><path class="cls-4" d="M142.47,203.76h-.33v-.13C142.26,203.66,142.35,203.71,142.47,203.76Z"/><path class="cls-4" d="M142.47,203.76l-.33.18v-.19Z"/><polygon class="cls-5" points="121.28 199.89 121.27 199.94 121.22 199.94 121.22 199.89 121.28 199.89"/><polygon class="cls-5" points="121.27 199.94 121.22 200.11 121.22 199.94 121.27 199.94"/><path class="cls-6" d="M121.49,32.52h0Z"/><path class="cls-7" d="M134.62,114.57a4.92,4.92,0,1,0,4.5,6.89,4.8,4.8,0,0,0,.42-2A4.92,4.92,0,0,0,134.62,114.57Zm1.64,4.92a1.64,1.64,0,1,1,1.64-1.64A1.64,1.64,0,0,1,136.26,119.49Z"/><path class="cls-8" d="M121.91,169.51l-.42,0h.42Z"/><circle class="cls-9" cx="136.26" cy="117.85" r="1.64"/><path class="cls-10" d="M182.2,106.76V107a20.6,20.6,0,0,1,2.35-.26Z"/><path class="cls-10" d="M213.78,67.87v-.19c0-.39,0-.78-.08-1.17l-.12-1.14c0-.24-.06-.48-.1-.72L212.71,61c-.1-.41-.22-.83-.35-1.24a0,0,0,0,1,0,0c-.13-.41-.26-.81-.41-1.22l-1.43-3.43c-.11-.24-.23-.49-.36-.73L208,50.57l-.61-.9-.46-.65-.48-.66-.63-.83-.56-.71-.78-.93c-.46-.54-.94-1.08-1.43-1.61l-.75-.79-.78-.79c-.52-.52-1.06-1-1.61-1.54l-.34-.31-1.07-.94-.74-.64c-.43-.37-.88-.74-1.33-1.1-1.22-1-2.5-1.91-3.82-2.84a.21.21,0,0,1-.08-.06c-1-.67-2-1.33-3-2l-1-.64c-.9-.54-1.81-1.07-2.74-1.6-.64-.36-1.29-.71-1.95-1.06l-1.75-.9a112.7,112.7,0,0,0-13.3-5.56h0q-2.52-.85-5.14-1.64s0,0,0,0A53.28,53.28,0,0,0,121.22,0l-.75,0A53.21,53.21,0,0,0,78.76,20.12l-3.34,2.36c-28.78,9.09-48.28,26.6-48.28,46.71,0,16,12.4,30.41,32,40.18H75.42V70.26h87.07v36.5h22.06a19.26,19.26,0,0,1,2.15,0h0l.06,0c.29-.16.56-.34.85-.52.65-.38,1.31-.77,2-1.17l1.09-.72c.66-.43,1.31-.85,1.94-1.29l.8-.58a67.83,67.83,0,0,0,6.18-5l.9-.81c.45-.43.88-.87,1.31-1.31s.68-.68,1-1,.77-.85,1.14-1.28.66-.74,1-1.12.67-.85,1-1.28l.91-1.2c.3-.42.58-.85.87-1.27s.56-.85.82-1.28.51-.84.75-1.27.49-.89.72-1.34.43-.84.63-1.27.42-.94.62-1.41.34-.83.5-1.25.34-1,.5-1.5.27-.81.39-1.22.26-1.07.38-1.6.19-.78.26-1.17c.11-.6.18-1.2.26-1.8,0-.34.1-.67.13-1,.08-.89.13-1.78.13-2.68,0,0,0-.11,0-.17Q213.81,68.53,213.78,67.87Zm-92.56-52v.42l-.75-.43Zm0,16.66h0Z"/><path class="cls-4" d="M121.22,15.87v.42l-.75-.43Z"/><path class="cls-2" d="M30.88,257.32,2,308.2A15.09,15.09,0,0,0,.84,320.62l15.74,96.69H46.87L31.12,318.21l17.54-30.86v-12c0-.79,0-1.62,0-2.48C37.82,266.87,32.76,260.3,30.88,257.32Z"/><path class="cls-3" d="M30,255.68a16.07,16.07,0,0,0,.93,1.64c1.88,3,6.94,9.54,17.82,15.57.44-13.59,4.52-35.46,16.53-51.73A52.64,52.64,0,0,1,81.72,206.3C38.95,217.58,30,255.68,30,255.68Z"/><path class="cls-5" d="M100.84,203.71v.23l-.23-.12Z"/><path class="cls-11" d="M199.05,275.37v142h-43.9V259c0-3.64-.14-7.59-.5-11.67-1.37-15.57-5.88-32.85-17.68-41a34.93,34.93,0,0,0,5.17-2.34l.33-.18h0c1.22.44,16.16-.52,17.31,0l.57.26h0c9.28,4.33,16.47,12,22,19.48l1,1.44c.38.53.74,1.06,1.1,1.6s.71,1.07,1,1.61.72,1.17,1.07,1.76c.16.25.3.51.45.77l.44.76c.23.41.45.82.67,1.24l.53,1c.29.58.58,1.15.86,1.73.17.34.33.69.49,1s.45,1,.67,1.45.34.78.51,1.18c.46,1.06.9,2.13,1.31,3.2l.21.53a2.07,2.07,0,0,1,.08.23c.22.57.43,1.14.63,1.72l.36,1c.19.56.38,1.11.56,1.67.23.72.45,1.43.66,2.14s.47,1.64.69,2.46A93.61,93.61,0,0,1,199.05,275.37Z"/><path class="cls-4" d="M105.24,206c-8.51,5.66-13.31,16-15.89,27.15A97.31,97.31,0,0,0,87.63,243a130,130,0,0,0-1,16V417.31h-38V275.37c0-.79,0-1.62.05-2.48.44-13.6,4.52-35.47,16.53-51.73A52.48,52.48,0,0,1,81.72,206.3c1.63-.92,17.1-1.75,18.89-2.48l.23.12c.51.29,1,.57,1.59.83C103.33,205.21,104.27,205.63,105.24,206Z"/><path class="cls-3" d="M155.15,259V417.38H86.67V259a130,130,0,0,1,1-16,97.31,97.31,0,0,1,1.72-9.81C91.93,222,96.73,211.66,105.24,206a43.78,43.78,0,0,0,12,2.7c.54,0,1.09.08,1.64.11.78,0,1.56.07,2.35.07h.27A45.5,45.5,0,0,0,137,206.28c11.8,8.16,16.31,25.44,17.68,41C155,251.37,155.15,255.32,155.15,259Z"/><path class="cls-2" d="M167.49,149a8.26,8.26,0,0,1-8.26-8.26V70.21c-.35,0-.71.05-1.07.05H84.82A16.07,16.07,0,0,1,82.11,70v70.74A8.26,8.26,0,0,1,73.85,149H69.46a53.28,53.28,0,0,0,31.38,38.5v16.42c.51.29,1,.57,1.59.83.9.44,1.84.86,2.81,1.23a43.78,43.78,0,0,0,12,2.7c.54,0,1.09.08,1.64.11.78,0,1.56.07,2.35.07h.27A45.5,45.5,0,0,0,137,206.28a34.93,34.93,0,0,0,5.17-2.34V187.52A53.28,53.28,0,0,0,173.52,149Zm-54.41-9.18a1.39,1.39,0,0,1,1.88-.53,13.5,13.5,0,0,0,5.89,1.47h.37a13.36,13.36,0,0,0,5.52-1.46,1.39,1.39,0,0,1,1.87.53,1.37,1.37,0,0,1-.53,1.88,16.35,16.35,0,0,1-6.86,1.8h-.37a16.45,16.45,0,0,1-7.24-1.81A1.39,1.39,0,0,1,113.08,139.84Zm21.54,16.57a13.14,13.14,0,0,1-12.71,13.1l-.42,0h-.42a13.14,13.14,0,0,1-12.71-13.1Zm-4.93-36.92a4.92,4.92,0,0,1,9.85,0,4.8,4.8,0,0,1-.42,2,4.92,4.92,0,0,1-9.43-2ZM92.55,107.56a1.38,1.38,0,0,1,.4-1.9,15.31,15.31,0,0,1,14.44-1,1.38,1.38,0,0,1-.49,2.62,1.51,1.51,0,0,1-.69-.13,12.58,12.58,0,0,0-11.75.8A1.38,1.38,0,0,1,92.55,107.56Zm4.54,13.28a4.65,4.65,0,0,1-.21-1.35,4.92,4.92,0,0,1,9.84,0,4.91,4.91,0,0,1-9.63,1.35Zm24.18,79.1-.05.17v-.22h.06Zm24.83-91.49a1.37,1.37,0,0,1-1.32.47,1.41,1.41,0,0,1-.62-.29,12.59,12.59,0,0,0-11.58-2.2,1.38,1.38,0,1,1-.87-2.61,16.3,16.3,0,0,1,7.45-.44,16.51,16.51,0,0,1,6.77,3.13A1.38,1.38,0,0,1,146.1,108.45Z"/><path class="cls-2" d="M120.85,140.78a13.5,13.5,0,0,1-5.89-1.47,1.38,1.38,0,0,0-1.35,2.41,16.45,16.45,0,0,0,7.24,1.81h.37v-2.75Zm-13.46-36.11a15.31,15.31,0,0,0-14.44,1,1.38,1.38,0,1,0,1.51,2.3,12.58,12.58,0,0,1,11.75-.8,1.51,1.51,0,0,0,.69.13,1.38,1.38,0,0,0,.49-2.62Z"/><path class="cls-5" d="M69.05,46.94c0,.47-.07.94-.07,1.42V47Z"/><path class="cls-6" d="M69.05,46.94c0,.47-.07.94-.07,1.42V47Z"/><path class="cls-5" d="M67.34,112.93v.1l-.23-.09Z"/><path class="cls-6" d="M101.8,114.57a4.92,4.92,0,0,0-4.92,4.92,4.65,4.65,0,0,0,.21,1.35,4.91,4.91,0,1,0,4.71-6.27Zm1.64,4.92a1.64,1.64,0,1,1,1.64-1.64A1.64,1.64,0,0,1,103.44,119.49Z"/><path class="cls-7" d="M134.62,156.41a13.08,13.08,0,0,1-4.47,9.84,13.09,13.09,0,0,0-8.66-3.28l-.27,0a13,13,0,0,0-8.39,3.26,13.08,13.08,0,0,1-4.47-9.84h.77c1.77.94,6.5,1.62,12.09,1.64h.27c5.71,0,10.56-.69,12.36-1.64Z"/><path class="cls-8" d="M130.15,166.25a13,13,0,0,1-8.24,3.26h-.84a13,13,0,0,1-8.24-3.26,13,13,0,0,1,8.39-3.26l.27,0A13.09,13.09,0,0,1,130.15,166.25Z"/><path class="cls-12" d="M121.22,169.51h0Z"/><path class="cls-9" d="M133.85,156.41c-1.8,1-6.65,1.64-12.36,1.64h-.27c-5.59,0-10.32-.7-12.09-1.64Z"/><path class="cls-6" d="M173.94,60.42h-.62c.11-.83.21-1.66.28-2.5a16,16,0,0,0,.4-3.49V48.36s0-.09,0-.14a16.27,16.27,0,0,0-.13-1.86L149.63,32.52h-51c-9.53-1.9-10.72-10-10.8-13.3a12.16,12.16,0,0,1,0-1.44A18.92,18.92,0,0,0,69,36.65V47l.07,0c0,.47-.07.94-.07,1.42v6.07a15.91,15.91,0,0,0,1.18,6H67.4a8.26,8.26,0,0,0-8.26,8.26v72.08A8.26,8.26,0,0,0,67.4,149h6.45a8.26,8.26,0,0,0,8.26-8.26V70a16.07,16.07,0,0,0,2.71.24h73.34c.36,0,.72,0,1.07-.05v54.15c0,.06,0,.12,0,.18q0,.33,0,.66c0,.12,0,.25.06.37s0,.3.07.44a6.84,6.84,0,0,1-.13-.81,7.62,7.62,0,0,1,0-.84v16.4a8.26,8.26,0,0,0,8.26,8.26h6.45l.59,0a9.51,9.51,0,0,0,1.07-.15l.36-.08h0l.25-.07.41-.13.5-.19h0l.47-.22.47-.26.45-.28a11.07,11.07,0,0,0,.84-.65,4.27,4.27,0,0,0,.38-.36l.23-.23a5.16,5.16,0,0,0,.47-.56,8.43,8.43,0,0,0,.6-.87,8.2,8.2,0,0,0,1.13-4.18V68.68A8.26,8.26,0,0,0,173.94,60.42Zm-14.49,65.81.06.21a1.16,1.16,0,0,1,0,.18A2.81,2.81,0,0,1,159.45,126.23Z"/><circle class="cls-9" cx="103.44" cy="117.85" r="1.64"/><path class="cls-7" d="M146.1,108.45a1.37,1.37,0,0,1-1.32.47,1.41,1.41,0,0,1-.62-.29,12.59,12.59,0,0,0-11.58-2.2,1.38,1.38,0,1,1-.87-2.61,16.3,16.3,0,0,1,7.45-.44,16.51,16.51,0,0,1,6.77,3.13A1.38,1.38,0,0,1,146.1,108.45Z"/><path class="cls-6" d="M108.05,106.5a1.39,1.39,0,0,1-1.15.79,1.51,1.51,0,0,1-.69-.13,12.58,12.58,0,0,0-11.75.8,1.38,1.38,0,1,1-1.51-2.3,15.31,15.31,0,0,1,14.44-1A1.37,1.37,0,0,1,108.05,106.5Z"/><path class="cls-5" d="M67.34,113v16.3a8.2,8.2,0,0,1-.23-16.39Z"/><path class="cls-13" d="M160.22,128.27a0,0,0,0,1,0,0l0,0Z"/><path class="cls-13" d="M173.92,146.72c0-.18.06-.36.08-.55,0,.1,0,.21,0,.31A2,2,0,0,1,173.92,146.72Z"/><path class="cls-13" d="M174.54,131.64v7c0,.61,0,1.23,0,1.84v.07l0,.74c0,.21,0,.42,0,.63-.3-.22-.6-.44-.88-.67s-.58-.47-.85-.72-.72-.67-1.07-1c-.17-.17-.33-.35-.5-.54s-.33-.37-.48-.56-.31-.38-.46-.58l-.31-.42c-.11-.15-.21-.28-.3-.43l0,0,0,0q-.3-.43-.57-.9l-.06-.11c-.2-.33-.38-.67-.56-1h0c-.14-.28-.28-.56-.4-.84a2.24,2.24,0,0,1-.12-.29c-.14-.32-.27-.63-.38-.95a.84.84,0,0,1-.06-.14h3.29A8.18,8.18,0,0,0,174.54,131.64Z"/><path class="cls-14" d="M178.92,114.58v9.78a8.22,8.22,0,0,1-1,4,8.19,8.19,0,0,0,1-13.78Z"/><path class="cls-14" d="M174.54,129.31a8.16,8.16,0,0,0,3.34-1,8.22,8.22,0,0,0,1-4v-9.78a8.15,8.15,0,0,0-4.38-1.62Z"/><path class="cls-11" d="M121.22,15.87v.42l-.75-.43Z"/><path class="cls-11" d="M168.68,23.52q-2.52-.85-5.14-1.64s0,0,0,0Q166.16,22.64,168.68,23.52Z"/><path class="cls-11" d="M182,29.09a112.7,112.7,0,0,0-13.3-5.56A107.87,107.87,0,0,1,182,29.09Z"/><path class="cls-11" d="M196.39,38.17c-1.22-1-2.5-1.91-3.82-2.84Q194.57,36.7,196.39,38.17Z"/><path class="cls-11" d="M182.22,109.19v-2.14h0v0a19.75,19.75,0,0,1,4.5-.26C185.25,107.59,183.76,108.41,182.22,109.19Z"/><path class="cls-10" d="M121.49,32.52h0Z"/><path class="cls-10" d="M186.7,106.76h-2.15A19.26,19.26,0,0,1,186.7,106.76Z"/><path class="cls-10" d="M186.79,106.72v0h-.06Z"/><path class="cls-7" d="M165.33,132.33l-.19-.05-.1,0-.1,0C165.07,132.26,165.2,132.29,165.33,132.33Z"/><path class="cls-7" d="M165.57,132.39l-.15,0s0,0,0,0Z"/><path class="cls-7" d="M166.13,132.5l-.29,0a.27.27,0,0,1-.12,0Z"/><path class="cls-15" d="M163.54,21.89A53.24,53.24,0,0,0,121.23,0V15.88A151.54,151.54,0,0,1,163.54,21.89Z"/><path class="cls-15" d="M174,54.44a15.85,15.85,0,0,1-.4,3.49q-.11,1.26-.27,2.5h.62a8.26,8.26,0,0,1,8.26,8.26V94.35c6-5.84,9.41-12.61,9.41-19.83,0-10.07-6.66-19.26-17.62-26.29,0,0,0,.09,0,.13Z"/><path class="cls-6" d="M173.52,149h.42a8.25,8.25,0,0,0,7.12-4.09,19.24,19.24,0,0,1-6.63-3A53.09,53.09,0,0,1,173.52,149Z"/><path class="cls-4" d="M142.51,203.77h0Z"/><path class="cls-4" d="M142.14,203.75l.33,0h0l-.34-.13Z"/><path class="cls-4" d="M142.14,203.95l.33-.18-.33,0Z"/><path class="cls-16" d="M121.49,191.69h-.27v8.21h.06v.05l0,.17v8.77h.27a45.72,45.72,0,0,0,15.48-2.6,35,35,0,0,0,5.17-2.34V187.52A52.88,52.88,0,0,1,121.49,191.69Z"/><path class="cls-13" d="M167.38,132.62a8.26,8.26,0,0,1-8.14-8.25V70.22c-.35,0-.71.05-1.06.05H121.23v86.14h13.39a13.13,13.13,0,0,1-12.7,13.11l-.42,0h-.27v22.16h.27a52.95,52.95,0,0,0,52.94-49.78A19.44,19.44,0,0,1,167.38,132.62Zm-36.85-10.39a4.92,4.92,0,1,1,4.1,2.2A4.9,4.9,0,0,1,130.52,122.22Z"/><path class="cls-7" d="M134.62,114.57a4.91,4.91,0,1,0,4.92,4.92A4.92,4.92,0,0,0,134.62,114.57Zm1.64,1.64a1.64,1.64,0,1,1-1.64,1.64A1.64,1.64,0,0,1,136.26,116.21Z"/><path class="cls-7" d="M121.23,158.05V163h.27a13.06,13.06,0,0,1,8.66,3.28,13.08,13.08,0,0,0,4.46-9.85h-.76c-1.8,1-6.65,1.64-12.36,1.64Z"/><path class="cls-17" d="M121.49,158.05c5.71,0,10.56-.69,12.36-1.64H121.23v1.64Z"/><circle class="cls-9" cx="136.26" cy="117.85" r="1.64"/><path class="cls-11" d="M195.78,252.06A84.59,84.59,0,0,0,183.43,225c-5.77-8.12-13.46-16.64-23.62-21.18-1.15-.51-16.09.45-17.31,0h0l-.33.18a35,35,0,0,1-5.17,2.34c11.79,8.15,16.31,25.44,17.67,41,.36,4.07.5,8,.5,11.67V417.39h43.9v-142A94,94,0,0,0,195.78,252.06Z"/><path class="cls-18" d="M154.65,247.3c-1.36-15.57-5.88-32.86-17.67-41a45.72,45.72,0,0,1-15.48,2.6h-.27V417.32H86.68v.07h68.48V259C155.15,255.33,155,251.37,154.65,247.3Z"/><path class="cls-7" d="M144.79,108.93a1.37,1.37,0,0,1-.63-.3,13.67,13.67,0,0,0-5.52-2.54,13.5,13.5,0,0,0-6.06.34,1.38,1.38,0,0,1-.87-2.61,15.32,15.32,0,0,1,14.22,2.69,1.38,1.38,0,0,1-1.14,2.41Z"/><path class="cls-13" d="M174.55,131.65a8.22,8.22,0,0,1-3.88,1h-3.17a8.26,8.26,0,0,1-8.26-8.26v16.41a8.26,8.26,0,0,0,8.26,8.26h6a53.28,53.28,0,0,0,1-10.39Z"/><path class="cls-7" d="M182.21,121.14V68.68a8.26,8.26,0,0,0-8.26-8.26h-.62q.16-1.24.27-2.5a15.85,15.85,0,0,0,.4-3.49V48.36s0-.09,0-.13a15.86,15.86,0,0,0-15.83-15.7H121.23V70.27h36.94c.36,0,.71,0,1.06-.05v54.15c0,.06,0,.12,0,.18,0,.22,0,.44,0,.66s0,.25.06.38,0,.3.07.44.07.29.11.43.06.24.09.36.11.3.16.44.07.21.11.31.15.32.23.47l.12.25c.09.17.2.34.3.51l.1.17c.12.18.26.36.39.53l.08.1c.15.19.31.36.48.54l0,0q.27.28.57.53h0a8.22,8.22,0,0,0,5.3,1.93h7.05v6a53.28,53.28,0,0,1-1,10.39h.42a8.26,8.26,0,0,0,8.26-8.26V121.14Z"/><path class="cls-14" d="M178.92,114.58v9.78a8.22,8.22,0,0,1-1,4,8.19,8.19,0,0,0,1-13.78Z"/><path class="cls-14" d="M174.55,129.31a8.16,8.16,0,0,0,3.34-1,8.22,8.22,0,0,0,1-4v-9.78a8.15,8.15,0,0,0-4.38-1.62Z"/><path class="cls-11" d="M120.48,15.87c51.55,0,93.33,23.88,93.33,53.33"/><path class="cls-11" d="M202.82,94.32c.4-.42.77-.85,1.14-1.28s.66-.75,1-1.13.67-.85,1-1.27.61-.8.91-1.21.59-.84.87-1.27.56-.85.82-1.28.51-.84.75-1.27.49-.89.73-1.34.43-.84.62-1.26.42-.94.62-1.42.35-.83.5-1.25.35-1,.51-1.49.27-.81.38-1.23.27-1.06.38-1.6.19-.78.26-1.17c.11-.6.18-1.2.26-1.8,0-.34.1-.67.13-1q.12-1.33.13-2.68c0-.06,0-.11,0-.17h0c0-20.58-20.4-38.42-50.27-47.31a151.54,151.54,0,0,0-42.32-6V32.53h36.94A15.86,15.86,0,0,1,174,48.23c11,7,17.62,16.22,17.62,26.29,0,7.22-3.43,14-9.41,19.83v12.7h0v2.15c1.55-.78,3-1.6,4.48-2.44h0l.91-.55c.66-.39,1.31-.78,2-1.18l1.1-.72c.65-.43,1.31-.85,1.94-1.29l.8-.58a67.07,67.07,0,0,0,6.18-5c.3-.27.61-.54.9-.81.45-.43.88-.87,1.31-1.31S202.49,94.66,202.82,94.32Z"/><path class="cls-19" d="M128.08,141.72a16.35,16.35,0,0,1-6.86,1.8h-.37a16.45,16.45,0,0,1-7.24-1.81,1.38,1.38,0,0,1,1.35-2.41,13.5,13.5,0,0,0,5.89,1.47h.37a13.36,13.36,0,0,0,5.52-1.46,1.39,1.39,0,0,1,1.87.53A1.37,1.37,0,0,1,128.08,141.72Z"/><path class="cls-20" d="M121.49,163l-.24,0v6.52h.66a13,13,0,0,0,8.24-3.26A13.09,13.09,0,0,0,121.49,163Z"/><path class="cls-10" d="M78.76,20.12a18.78,18.78,0,0,1,9.09-2.34,12.43,12.43,0,0,0,0,1.44,156.89,156.89,0,0,1,32.66-3.36h.75V0l-.75,0A53.22,53.22,0,0,0,78.76,20.12Z"/><path class="cls-4" d="M49.34,74.51c0-10.21,6.84-19.52,18.07-26.58.51-.32,1-.64,1.57-.95V36.65a18.81,18.81,0,0,1,6.44-14.17C46.64,31.57,27.14,49.08,27.14,69.2c0,16,12.4,30.4,32,40.18V94.73c-6.22-5.93-9.8-12.84-9.8-20.22"/><path class="cls-4" d="M98.61,32.53h22.61V15.87h-.75a156.89,156.89,0,0,0-32.66,3.36C87.89,22.55,89.08,30.62,98.61,32.53Z"/></g></g></g></svg>