<svg xmlns="http://www.w3.org/2000/svg" viewBox="0 0 176.2 264.79"><defs><style>.cls-1{fill:#fff;}.cls-2{fill:#060707;}.cls-3{fill:#f4f9fc;}.cls-4{fill:#0c0d0d;}.cls-5{fill:#f2f2f2;}.cls-6{fill:#c6c8c8;}.cls-7{fill:#828686;}.cls-8{fill:#dfdfdf;}.cls-9{fill:#060606;}.cls-10{fill:#f6fafd;}.cls-11{fill:#0b0b0b;}.cls-12{fill:#f1673a;}.cls-13{fill:#dd5b36;}.cls-14{fill:#bdbebe;}.cls-15{fill:#f05625;}</style></defs><title>Bird_logo</title><g id="Layer_2" data-name="Layer 2"><g id="Layer_1-2" data-name="Layer 1"><path class="cls-1" d="M140.29,81.68l0,0c-53.43,56-105.18,0-105.18,0l0,0s-1.57-28.36,9.21-51.29h0c.46-1,.94-1.94,1.45-2.89.25-.47.5-.93.76-1.4.52-.93,1.07-1.86,1.65-2.76s1.18-1.8,1.8-2.67q1.41-2,3-3.78c.36-.4.71-.8,1.08-1.19C61.82,7.47,72.6,1.87,87.7,1.87h1c14.55.25,25,5.79,32.56,13.84a54.18,54.18,0,0,1,8.3,11.77c.51,1,1,1.94,1.46,2.92C141.86,53.3,140.29,81.68,140.29,81.68Z"/><path class="cls-2" d="M129.6,27.48c-16.27,13.32-27.5,46.76-27.5,46.76-.92,0-14.4-.41-14.4-.41s-13.47.41-14.39.41c0,0-11.23-33.44-27.5-46.75.25-.47.5-.93.76-1.4.52-.93,1.07-1.86,1.65-2.76s1.18-1.8,1.8-2.67q1.41-2,3-3.78c.36-.4.71-.8,1.08-1.19C61.82,7.47,72.6,1.87,87.7,1.87h1c14.55.25,25,5.79,32.56,13.84A54.18,54.18,0,0,1,129.6,27.48Z"/><ellipse class="cls-3" cx="117.53" cy="44.48" rx="6.08" ry="10.69"/><ellipse class="cls-4" cx="117.53" cy="45.06" rx="4.81" ry="8.47"/><ellipse class="cls-3" cx="59.58" cy="44.39" rx="6.01" ry="10.57"/><ellipse cx="59.58" cy="44.96" rx="4.76" ry="8.37"/><ellipse class="cls-1" cx="57.29" cy="38.71" rx="1.28" ry="1.5"/><ellipse class="cls-1" cx="115.36" cy="38.71" rx="1.28" ry="1.5"/><path class="cls-5" d="M167.1,189.69c-.29.69-.6,1.37-.91,2-1.55,3.4-3.22,6.68-5,9.85q-2.09,3.8-4.31,7.34c-2.58,4.14-5.23,8-7.84,11.57L148,222c-1.12,1.48-2.23,2.91-3.31,4.27l-2.14,2.66q-1.59,1.92-3.09,3.65l-1.93,2.21c-5.66,6.35-9.82,10.18-10.44,10.74h0l-.05.06v16.72H49.21V245.61l0,0c-.21-.19-1.33-1.22-3.11-3l-.62-.62-1.36-1.39c-1-1-2.06-2.14-3.23-3.41l-1.82-2c-3.13-3.5-6.75-7.79-10.49-12.75-.75-1-1.5-2-2.25-3s-1.52-2.11-2.27-3.2-1.51-2.21-2.26-3.35q-1.7-2.56-3.35-5.29c-1.48-2.42-2.91-4.92-4.29-7.5-.93-1.73-1.83-3.49-2.69-5.29q-2.62-5.35-4.78-11.09c-.28-.72-.54-1.43-.79-2.16-7.61-21.52-9.36-46.35,4.19-71Q11.83,107.22,14,104c.72-1.08,1.47-2.17,2.25-3.26,1.3-1.81,2.69-3.61,4.19-5.41.29-.36.59-.72.9-1.07.91-1.08,1.86-2.16,2.85-3.23a131.23,131.23,0,0,1,11-10.66l0,0S33.63,51.77,44.48,28.7h0c.47-1,.95-2,1.46-2.91.25-.47.51-.94.77-1.4.53-.94,1.07-1.87,1.66-2.77s1.19-1.81,1.82-2.68q1.42-2,3-3.8c.36-.4.72-.8,1.09-1.2C62,5.64,72.89,0,88.09,0h1.05a47.68,47.68,0,0,1,19.71,4.33,43,43,0,0,1,13,9.6c.41.44.82.9,1.22,1.35s.66.77,1,1.16l.4.5c.26.32.52.65.76,1l.21.27c.34.46.67.91,1,1.38s.62.9.92,1.35.72,1.12,1.07,1.69c.24.39.48.8.71,1.2.12.2.23.39.34.59s.28.49.41.74.23.42.33.64.26.47.38.7.13.25.19.37c.32.61.62,1.23.91,1.85,10.87,23,9.29,51.6,9.29,51.6l0,0a114.36,114.36,0,0,1,22.58,25.8c.45.72.89,1.45,1.31,2.17.21.36.42.72.63,1.08.41.72.8,1.45,1.19,2.18s.76,1.45,1.12,2.17c.54,1.09,1,2.17,1.53,3.27s.93,2.17,1.36,3.26c.28.72.55,1.45.81,2.17,8.55,23.85,4.22,47.31-4.46,67.25"/><path class="cls-6" d="M35.19,80.33c-.88,1.09-35,43.47-18.51,104.17,5.11,18.83,15.12,39.42,32.5,61.08l0,16.76h39.1l0-157c-30.06-.69-52.25-24.08-53.11-25h0"/><path class="cls-7" d="M35.19,80.33A130.67,130.67,0,0,0,24.18,91c-1,1.07-1.93,2.15-2.84,3.23-.31.36-.61.71-.9,1.07Q18.21,98,16.25,100.7c-.78,1.08-1.53,2.17-2.25,3.26q-2.15,3.26-3.94,6.52c-13.53,24.69-11.79,49.51-4.19,71,.25.72.51,1.44.79,2.16,1.43,3.81,3,7.51,4.78,11.08h0c.87,1.8,1.77,3.56,2.69,5.29,1.39,2.59,2.83,5.09,4.29,7.5q1.65,2.73,3.35,5.29c.75,1.14,1.51,2.26,2.26,3.35s1.51,2.16,2.27,3.2,1.51,2.07,2.25,3c3.74,5,7.36,9.25,10.49,12.75l1.82,2c1.17,1.27,2.26,2.41,3.23,3.41L45.45,242l.62.62c1.78,1.76,2.91,2.79,3.11,3-17.39-21.66-27.39-42.25-32.5-61.08C.15,123.79,34.31,81.42,35.19,80.33h0"/><path class="cls-1" d="M141,80.31l0,0c-18.44,19.32-36.68,25.39-52.69,25-30.67-.7-53.15-25-53.15-25l0,0S33.63,51.77,44.48,28.7h0c.46-1,.94-1.95,1.46-2.91.25-.47.5-.94.77-1.4.53-.94,1.08-1.87,1.66-2.77s1.18-1.81,1.81-2.68q1.42-2,3-3.8c.36-.4.71-.81,1.09-1.2C62,5.63,72.89,0,88.09,0h1.05c14.64.25,25.19,5.82,32.76,13.93a54.47,54.47,0,0,1,8.35,11.84c.51,1,1,2,1.47,2.93,10.87,23,9.29,51.6,9.29,51.6"/><path class="cls-8" d="M88.34,105.35c-30.67-.7-53.15-25-53.15-25l0,0S33.62,51.77,44.48,28.7h0c.46-1,.94-2,1.46-2.91.25-.47.5-.94.77-1.4.53-.94,1.08-1.87,1.66-2.77s1.18-1.81,1.81-2.68q1.42-2,3-3.8c.36-.4.72-.8,1.09-1.2C62,5.64,72.89,0,88.09,0Z"/><path class="cls-9" d="M130.25,25.78c-16.37,13.41-27.67,47.05-27.67,47.05-.93,0-14.49-.41-14.49-.41s-13.55.41-14.48.41c0,0-11.3-33.65-27.67-47,.25-.47.5-.94.77-1.4.53-.94,1.08-1.87,1.66-2.77s1.18-1.81,1.81-2.68q1.42-2,3-3.8c.36-.4.72-.8,1.09-1.2C62,5.64,72.89,0,88.09,0h1.05c14.64.25,25.19,5.82,32.76,13.93a54.62,54.62,0,0,1,8.35,11.84"/><path class="cls-10" d="M112,42.88c0-5.94,2.74-10.76,6.12-10.76s6.12,4.82,6.12,10.76-2.74,10.76-6.12,10.76S112,48.82,112,42.88"/><path class="cls-11" d="M113.26,43.47c0-4.7,2.17-8.52,4.84-8.52S123,38.76,123,43.47,120.78,52,118.11,52s-4.84-3.81-4.84-8.52"/><path class="cls-10" d="M53.74,42.78c0-5.87,2.71-10.63,6-10.63s6,4.76,6,10.63-2.71,10.63-6,10.63-6-4.76-6-10.63"/><path d="M55,43.36c0-4.65,2.14-8.42,4.79-8.42s4.79,3.77,4.79,8.42-2.15,8.42-4.79,8.42S55,48,55,43.36"/><path class="cls-1" d="M58.78,37.07a1.3,1.3,0,1,1-1.28-1.51,1.41,1.41,0,0,1,1.28,1.51"/><path class="cls-1" d="M117.21,37.07a1.3,1.3,0,1,1-1.28-1.51,1.41,1.41,0,0,1,1.28,1.51"/><path class="cls-12" d="M88.15,54.1S76.58,58.26,73.61,72.83L88.15,133.9l14.54-61.06c-3-14.57-14.54-18.74-14.54-18.74"/><path class="cls-13" d="M88.15,54.1S76.58,58.26,73.61,72.83L88.15,133.9Z"/><path class="cls-14" d="M141,80.33c1.38,1.7,59.27,73.87-14,165.2a158.09,158.09,0,0,0,11.63-12.11l.58-.67c1.29-1.49,2.64-3.09,4-4.8l1.34-1.68c.86-1.08,1.73-2.2,2.61-3.36l1.29-1.72.15-.2q1.2-1.62,2.4-3.32c1.95-2.76,3.91-5.68,5.82-8.76l.81-1.31q2-3.28,3.9-6.76c1.59-2.94,3.13-6,4.56-9.12l0-.06q.45-1,.88-2h0l.12-.28a108.81,108.81,0,0,0,8.19-28.61h0v-.09a80.58,80.58,0,0,0-3.87-38.26c-.26-.72-.54-1.45-.81-2.17-.42-1.06-.86-2.11-1.32-3.17l-.45-1c-.36-.78-.73-1.57-1.12-2.36s-.73-1.45-1.12-2.17l-.58-1.08c-.39-.7-.79-1.41-1.2-2.12l0-.07q-.64-1.08-1.31-2.17A114.29,114.29,0,0,0,141,80.33"/><path class="cls-13" d="M73.61,260.83V247.51a3.62,3.62,0,0,0-3.52-3.69,3.55,3.55,0,0,0-3.34,2.54,3.48,3.48,0,0,0-6.7,0,3.57,3.57,0,0,0-3.35-2.54,3.62,3.62,0,0,0-3.53,3.69v13.32a3.81,3.81,0,0,0,.25,1.35,3.54,3.54,0,0,0,3.28,2.35,3.41,3.41,0,0,0,2.48-1.09,3.73,3.73,0,0,0,.79-1.26c0-.06.05-.13.08-.2a1.38,1.38,0,0,0,.07.2,3.54,3.54,0,0,0,3.27,2.35,3.42,3.42,0,0,0,2.49-1.09,3.73,3.73,0,0,0,.79-1.26c0-.06.05-.13.08-.2a1.38,1.38,0,0,0,.07.2,3.54,3.54,0,0,0,3.28,2.35,3.42,3.42,0,0,0,2.48-1.09,3.76,3.76,0,0,0,.79-1.26,3.81,3.81,0,0,0,.25-1.35"/><path class="cls-15" d="M123,261.08V247.77a3.62,3.62,0,0,0-3.53-3.69,3.55,3.55,0,0,0-3.34,2.54,3.48,3.48,0,0,0-6.7,0,3.57,3.57,0,0,0-3.35-2.54,3.62,3.62,0,0,0-3.52,3.69v13.32a3.8,3.8,0,0,0,.25,1.35,3.54,3.54,0,0,0,3.28,2.35,3.41,3.41,0,0,0,2.48-1.09,3.75,3.75,0,0,0,.79-1.26l.05-.13a.42.42,0,0,1,.09.13,3.54,3.54,0,0,0,3.28,2.35,3.42,3.42,0,0,0,2.48-1.09,3.72,3.72,0,0,0,.79-1.26l.05-.13s.07.06.09.13a3.54,3.54,0,0,0,3.27,2.35,3.42,3.42,0,0,0,2.49-1.09,3.75,3.75,0,0,0,.79-1.26,3.8,3.8,0,0,0,.25-1.35"/></g></g></svg>