<svg xmlns="http://www.w3.org/2000/svg" viewBox="0 0 50.43 75.79"><defs><style>.cls-1{isolation:isolate;}.cls-2{fill:#f1f2f2;}.cls-3{fill:#fff;}.cls-4{fill:#ef5323;}.cls-5{fill:#c7caca;}.cls-5,.cls-9{mix-blend-mode:multiply;}.cls-6{fill:#050505;}.cls-7{fill:#f7fbff;}.cls-8{fill:#0b0b0b;}.cls-9{fill:#e0e0e0;}</style></defs><title>bird alone</title><g class="cls-1"><g id="Laag_2" data-name="Laag 2"><g id="Layer_1" data-name="Layer 1"><path class="cls-2" d="M47.83,54.3l-.26.59c-.44,1-.92,1.91-1.42,2.82q-.6,1.09-1.23,2.1c-.74,1.19-1.5,2.29-2.25,3.31l-.32.43c-.32.42-.64.83-.95,1.22l-.61.76-.88,1-.55.63c-1.62,1.82-2.81,2.91-3,3.07h0l0,0v4.79H14.08V70.3h0c-.06-.05-.38-.35-.89-.85L13,69.26l-.39-.4-.92-1-.52-.57c-.9-1-1.93-2.23-3-3.65l-.65-.87-.65-.92-.65-1q-.49-.73-1-1.51C4.85,58.71,4.44,58,4,57.26c-.27-.49-.52-1-.77-1.51-.5-1-1-2.08-1.37-3.17-.08-.2-.15-.41-.23-.62C-.5,45.79-1,38.69,2.88,31.62q.51-.93,1.13-1.87c.2-.31.42-.62.65-.93.37-.52.77-1,1.2-1.55L6.11,27q.39-.46.81-.92A37.44,37.44,0,0,1,10.07,23h0s-.45-8.17,2.65-14.77h0c.13-.28.27-.56.42-.83l.22-.4c.15-.27.31-.54.47-.79s.34-.52.52-.77.56-.74.86-1.09L15.54,4a12.65,12.65,0,0,1,9.68-4h.3a13.65,13.65,0,0,1,5.64,1.24A12.3,12.3,0,0,1,34.89,4l.35.39.28.33.12.14.22.28.06.08.28.39.26.39.3.48.2.34.1.17.12.21.09.18.11.2.05.11c.09.17.18.35.26.53C40.81,14.81,40.36,23,40.36,23h0a32.72,32.72,0,0,1,6.46,7.39l.38.62.18.31.34.62.32.62c.15.31.3.62.44.93s.27.62.39.93l.23.62C51.55,41.87,50.31,48.59,47.83,54.3Z"/><path class="cls-3" d="M40.36,23h0C25,39.12,10.07,23,10.07,23h0s-.45-8.17,2.65-14.77h0c.13-.28.27-.56.42-.83l.22-.4c.15-.27.31-.54.48-.79s.34-.52.52-.77.56-.74.86-1.09L15.54,4a12.65,12.65,0,0,1,9.68-4h.3a12.58,12.58,0,0,1,9.38,4,15.6,15.6,0,0,1,2.39,3.39c.15.28.29.56.42.84C40.81,14.81,40.36,23,40.36,23Z"/><path class="cls-4" d="M17.24,70.84v3.81a1.11,1.11,0,0,1,0,.33l0,.06a1.08,1.08,0,0,1-.23.36,1,1,0,0,1-.71.31,1,1,0,0,1-.94-.67,1.09,1.09,0,0,1-.07-.39V70.84a1,1,0,0,1,1-1.06,1,1,0,0,1,1,.73A1.11,1.11,0,0,1,17.24,70.84Z"/><path class="cls-4" d="M19.15,70.84v3.81a1.11,1.11,0,0,1,0,.33l0,.06a1.08,1.08,0,0,1-.23.36,1,1,0,0,1-.71.31,1,1,0,0,1-.94-.67l0-.06a1,1,0,0,1-.05-.33V70.84a1,1,0,0,1,.05-.33,1,1,0,0,1,1.92,0A1.11,1.11,0,0,1,19.15,70.84Z"/><path class="cls-4" d="M21.07,70.84v3.81a1.08,1.08,0,0,1-.3.75,1,1,0,0,1-.71.31,1,1,0,0,1-.94-.67l0-.06a1,1,0,0,1-.05-.33V70.84a1,1,0,0,1,.05-.33,1,1,0,0,1,1-.73A1,1,0,0,1,21.07,70.84Z"/><path class="cls-4" d="M31.38,70.92v3.81a1.11,1.11,0,0,1,0,.33l0,.06a1.08,1.08,0,0,1-.23.36,1,1,0,0,1-.71.31,1,1,0,0,1-.94-.67,1.09,1.09,0,0,1-.07-.39V70.92a1,1,0,0,1,1-1.06,1,1,0,0,1,1,.73A1.11,1.11,0,0,1,31.38,70.92Z"/><path class="cls-4" d="M33.3,70.92v3.81a1.11,1.11,0,0,1,0,.33l0,.06a1.08,1.08,0,0,1-.23.36,1,1,0,0,1-.71.31,1,1,0,0,1-.94-.67l0-.06a1,1,0,0,1-.05-.33V70.92a1,1,0,0,1,.05-.33,1,1,0,0,1,1.92,0A1.11,1.11,0,0,1,33.3,70.92Z"/><path class="cls-4" d="M35.21,70.92v3.81a1.08,1.08,0,0,1-.3.75,1,1,0,0,1-.71.31,1,1,0,0,1-.94-.67l0-.06a1,1,0,0,1-.05-.33V70.92a1,1,0,0,1,.05-.33,1,1,0,0,1,1-.73A1,1,0,0,1,35.21,70.92Z"/><path class="cls-5" d="M14.08,70.29c-.06-.05-.38-.35-.89-.85L13,69.26l-.39-.4-.92-1-.52-.57c-.9-1-1.93-2.23-3-3.65l-.65-.87-.65-.92-.65-1q-.49-.73-1-1.51C4.85,58.71,4.44,58,4,57.26c-.26-.49-.52-1-.77-1.51h0c-.5-1-1-2.08-1.37-3.17-.08-.2-.15-.41-.23-.62C-.5,45.79-1,38.69,2.88,31.62q.51-.93,1.13-1.87c.21-.31.42-.62.65-.93.37-.52.77-1,1.2-1.55L6.11,27q.39-.46.81-.92A37.44,37.44,0,0,1,10.07,23a34.7,34.7,0,0,0-5.3,29.82A48.2,48.2,0,0,0,14.08,70.29Z"/><path class="cls-5" d="M36.37,70.28c21-26.2,4.32-46.89,4-47.29C64.76,44.09,37.27,69.45,36.37,70.28Z"/><path class="cls-6" d="M37.28,7.38c-4.69,3.84-7.92,13.47-7.92,13.47l-4.15-.12-4.14.12s-3.24-9.63-7.92-13.47l.22-.4c.15-.27.31-.54.48-.79s.34-.52.52-.77.56-.74.86-1.09L15.54,4a12.65,12.65,0,0,1,9.68-4h.3a12.58,12.58,0,0,1,9.38,4A15.6,15.6,0,0,1,37.28,7.38Z"/><ellipse class="cls-7" cx="33.81" cy="12.27" rx="1.75" ry="3.08"/><ellipse class="cls-8" cx="33.81" cy="12.44" rx="1.39" ry="2.44"/><ellipse class="cls-7" cx="17.11" cy="12.25" rx="1.73" ry="3.04"/><ellipse cx="17.11" cy="12.41" rx="1.37" ry="2.41"/><ellipse class="cls-3" cx="16.46" cy="10.61" rx="0.37" ry="0.43"/><ellipse class="cls-3" cx="33.18" cy="10.61" rx="0.37" ry="0.43"/><path class="cls-4" d="M25.23,15.48a7.2,7.2,0,0,0-4.16,5.36l4.16,17.48,4.16-17.48A7.2,7.2,0,0,0,25.23,15.48Z"/><path class="cls-9" d="M25.28,0V75.09H14.08V70.3h0c-.06-.05-.38-.35-.89-.85L13,69.26l-.39-.4-.92-1-.52-.57c-.9-1-1.93-2.23-3-3.65l-.65-.87-.65-.92-.65-1q-.49-.73-1-1.51C4.85,58.71,4.44,58,4,57.26c-.27-.49-.52-1-.77-1.51-.5-1-1-2.08-1.37-3.17-.08-.2-.15-.41-.23-.62C-.5,45.79-1,38.69,2.88,31.62q.51-.93,1.13-1.87c.2-.31.42-.62.65-.93.37-.52.77-1,1.2-1.55L6.11,27q.39-.46.81-.92A37.44,37.44,0,0,1,10.07,23h0s-.45-8.17,2.65-14.77h0c.13-.28.27-.56.42-.83l.22-.4c.15-.27.31-.54.47-.79s.34-.52.52-.77.56-.74.86-1.09L15.54,4a12.65,12.65,0,0,1,9.68-4Z"/></g></g></g></svg>