<svg xmlns="http://www.w3.org/2000/svg" viewBox="0 0 182 182"><defs><style>.cls-1{fill:none;}.cls-2{fill:#4ea7cf;}</style></defs><title>feather</title><g id="Layer_2" data-name="Layer 2"><g id="Layer_1-2" data-name="Layer 1"><circle class="cls-1" cx="91" cy="91" r="91"/><path class="cls-2" d="M92.08,162.49s-5.43-3.92,7.24-10.25S115,138.06,115,138.06v6s5.56-9,13.27-10.86c.63-.15-2.41,9.35-2.41,9.35s3.32-6.63,7.54-10.55,14.78-8.44,14.78-8.44-2.41,5.73-5.43,7.84c0,0,18.7-13.57,23.52-24.43,0,0-3.62,27.14-7.84,35.28S146.36,158,141.84,159.17s-11.76-.9-11.76-.9,0,3.62,5.43,4.22C135.51,162.49,104.45,173.64,92.08,162.49Z"/><path class="cls-2" d="M65.55,164s54.88-1.51,85.34-29.55c0,0-12.06,28.35-87.45,32.57Z"/></g></g></svg>
